<?xml version="1.0" ?>
<!-- Uploaded to: SVG Repo, www.svgrepo.com, Generator: SVG Repo Mixer Tools -->
<svg fill="#000000" width="800px" height="800px" viewBox="0 0 128 128" id="Layer_1" version="1.1" xml:space="preserve" xmlns="http://www.w3.org/2000/svg" xmlns:xlink="http://www.w3.org/1999/xlink">
<g>
<path d="M124.3,32.3l2.4-3.2l-6.4-4.8l-2.4,3.2c-2.7,3.6-5.9,6.7-9.5,9.2l-1.7,3.4c0,1,0.1,2,0.1,3c0,26.9-20.1,64.7-64.7,64.7   c-3.4,0-6.8-0.3-10.1-0.8l-4-0.6l-1.2,7.9l4,0.6c3.7,0.6,7.6,0.9,11.4,0.9c27.4,0,44.5-12.9,54-23.7c11.9-13.5,18.7-31.3,18.7-49   c0-0.4,0-0.8,0-1.2C118.4,39.2,121.5,35.9,124.3,32.3z"/>
<path d="M10.8,105.3c11.9,0,23.1-3.9,32.5-11.2l3.1-2.5l-4.9-6.3l-3.1,2.5c-7.9,6.2-17.4,9.5-27.5,9.5c-1.8,0-3.5-0.1-5.3-0.3   l-4-0.5l-0.9,7.9l4,0.5C6.7,105.2,8.8,105.3,10.8,105.3z"/>
<path d="M22.8,80.5c2.5,0,5-0.3,7.4-1l3.9-1L32,70.8l-3.9,1c-2.9,0.8-6.1,0.9-9.1,0.3l-3.9-0.8l-1.5,7.9l3.9,0.8   C19.3,80.4,21.1,80.5,22.8,80.5z"/>
<path d="M24.6,59.8l0.3-8l-4-0.1c-3.2-0.1-6.3-1-9.1-2.5l-3.5-1.9l-3.9,7l3.5,1.9c3.9,2.2,8.3,3.4,12.8,3.5L24.6,59.8z"/>
<path d="M67,44.9c-0.3-1.5-0.5-3-0.5-4.6c0-11.1,9-20.2,20.2-20.2c5.6,0,10.9,2.3,14.7,6.4l3.7,1.2c4.7-0.9,9.3-2.5,13.6-4.7   l3.6-1.8l-3.6-7.1l-3.6,1.8c-3,1.5-6.2,2.7-9.5,3.5c-5.1-4.6-11.9-7.3-18.9-7.3c-15.5,0-28.2,12.6-28.2,28.2c0,0.4,0,0.7,0,1.1   C42.1,39.3,26.9,31,16.4,18.1l-6.6,0.5C7.3,22.8,6,27.7,6,32.7v4h8v-4c0-1.6,0.2-3.2,0.6-4.7c12.7,13,30,20.9,48.3,21.8L67,44.9z"/>
</g>
</svg>