<?xml version="1.0" encoding="utf-8"?>

<!DOCTYPE svg PUBLIC "-//W3C//DTD SVG 1.1//EN" "http://www.w3.org/Graphics/SVG/1.1/DTD/svg11.dtd">
<!-- Uploaded to: SVG Repo, www.svgrepo.com, Generator: SVG Repo Mixer Tools -->
<svg height="800px" width="800px" version="1.1" id="_x32_" xmlns="http://www.w3.org/2000/svg" xmlns:xlink="http://www.w3.org/1999/xlink" 
	 viewBox="0 0 512 512"  xml:space="preserve">
<style type="text/css">
	.st0{fill:#000000;}
</style>
<g>
	<path class="st0" d="M295.767,73.546h0.012c0.008,0,0.02-0.008,0.029-0.008L295.767,73.546z"/>
	<path class="st0" d="M487.901,273.292c2.203-6.475,6.656-19.836,11.174-35.207c3.155-10.734,6.322-22.374,8.744-33.305
		c2.406-10.989,4.143-21.022,4.18-29.729c-0.02-3.394-0.239-6.623-1.223-10.149c-0.511-1.763-1.232-3.64-2.472-5.585
		c-1.223-1.928-3.068-3.971-5.56-5.454c-3.488-2.092-7.2-2.743-10.338-2.735c-4.926,0.049-8.995,1.326-13.077,2.965
		c-7.068,2.933-14.214,7.414-21.727,12.801c-11.203,8.09-22.958,18.271-33.354,28.231c-6.726,6.458-12.703,12.677-17.707,18.362
		c-37.164-21.731-70.398-37.926-85.91-45.208c0.58-3.048,1.232-6.606,1.886-10.594c1.96-11.994,3.966-27.299,3.979-41.534
		c-0.053-9.168-0.7-17.818-3.653-25.899c-1.524-4.02-3.732-8.106-7.571-11.55c-3.764-3.476-9.444-5.692-14.832-5.601
		c-1.569,0-3.13,0.156-4.662,0.444c-8.698,1.614-17.723,5.198-27.55,10.008c-28.684,14.194-64.134,39.796-95.446,64.262
		c-35.936,9.984-74.715,26.83-106.665,47.482c-16.348,10.586-30.911,22.151-42.37,34.614c-11.41,12.464-19.96,25.916-23.094,40.818
		L0,273.877l0.935,3.081c7.702,25.38,24.177,46.782,45.178,64.805c31.584,27.052,73.69,47.144,116.674,62.622
		c42.984,15.438,86.89,26.105,121.875,33.313c3.81,0.783,7.422,1.203,10.907,1.203c5,0,9.824-0.881,14.169-2.892
		c6.594-2.973,11.36-8.641,13.695-14.275c2.422-5.685,3.06-11.352,3.082-16.748c-0.033-9.82-2.249-19.144-4.325-26.36
		c-0.1-0.337-0.19-0.593-0.284-0.914c15.981-7.537,48.4-23.427,84.608-44.598c3.143,3.566,6.685,7.348,10.585,11.31
		c10.977,11.113,24.4,23.23,37.288,32.901c6.466,4.836,12.773,9.061,18.86,12.29c3.056,1.614,6.058,2.983,9.156,4.029
		c3.106,1.029,6.306,1.796,10.005,1.82c3.134,0,6.833-0.642,10.322-2.726l-0.309,0.189l0.329-0.197
		c2.492-1.492,4.333-3.526,5.556-5.462c1.846-2.932,2.587-5.634,3.077-8.171c0.465-2.554,0.614-5.018,0.618-7.554
		c-0.037-8.708-1.775-18.749-4.18-29.738C501.954,315.403,491.67,284.364,487.901,273.292z M471.479,358.494
		c-9.761-7.126-20.672-16.582-30.17-25.726c-9.481-9.111-17.686-18.098-21.813-23.634l-6.85-9.127l-9.782,5.874
		c-26.776,16.063-52.305,29.499-71.086,38.889c-9.395,4.704-17.102,8.386-22.448,10.89c-2.669,1.261-4.748,2.216-6.153,2.85
		c-1.404,0.643-2.097,0.947-2.097,0.947l-11.277,5.017l4.732,11.4l0.037,0.1c0.301,0.733,2.043,5.148,3.646,10.865
		c1.619,5.684,3.023,12.768,2.99,18.148c0.003,2.084-0.198,3.888-0.511,5.173c-0.503,2.002-1.03,2.496-1.207,2.645
		c-0.202,0.114-0.72,0.733-3.921,0.79c-1.45,0-3.386-0.182-5.804-0.676c-34.4-7.075-77.548-17.628-119.05-32.587
		c5.816-5.355,10.857-11.351,15.005-17.917c9.931-15.709,15.496-34.103,18.688-53.026c3.179-18.938,3.966-38.486,3.97-56.658
		c0-4.662-3.777-8.436-8.435-8.436c-4.659,0-8.435,3.773-8.435,8.436c0.012,23.56-1.426,48.923-7.435,70.884
		c-2.99,10.981-7.105,21.097-12.607,29.779c-5.038,7.941-11.266,14.638-18.934,20.025c-7.311-2.916-14.54-5.955-21.587-9.168
		c-26.068-11.862-49.866-25.809-68.348-41.691c-17.459-14.984-29.968-31.517-36.274-49.615c2.298-7.81,7.591-16.739,16.059-25.916
		c14.193-15.503,36.356-31.204,61.329-44.45c24.968-13.279,52.762-24.235,78.216-31.08l2.492-0.668l2.031-1.598
		c20.73-16.278,43.544-33.174,64.232-46.42c10.334-6.622,20.137-12.331,28.738-16.565c7.862-3.904,14.695-6.434,19.564-7.496
		c0.453,1.104,1.004,2.899,1.376,5.231c0.552,3.287,0.836,7.521,0.832,12.167c0.012,11.829-1.792,26.229-3.645,37.432
		c-0.923,5.61-1.846,10.446-2.537,13.856c-0.346,1.705-0.63,3.056-0.828,3.97l-0.227,1.029l-0.07,0.314l-2.319,10.148l9.514,4.226
		c0.004,0.008,0.693,0.313,2.097,0.955c9.818,4.465,52.819,24.507,99.682,52.63l9.787,5.874l6.85-9.127
		c3.183-4.267,8.847-10.668,15.61-17.513c10.157-10.297,22.95-21.814,34.458-30.43c5.737-4.309,11.174-7.884,15.515-10.174
		c0.514-0.272,0.952-0.47,1.433-0.7c-0.399,5.272-1.594,12.628-3.398,20.66c-3.349,15.141-8.505,32.72-12.81,46.386
		c-2.149,6.838-4.09,12.72-5.486,16.87c-0.697,2.076-1.261,3.724-1.648,4.844c-0.383,1.12-0.584,1.689-0.584,1.696l-1.474,4.193
		l1.474,4.193c0,0.008,0.363,1.038,1.03,2.99c2.331,6.812,8.212,24.399,13.452,43.066c2.619,9.325,5.079,18.922,6.841,27.465
		c1.367,6.532,2.282,12.496,2.624,16.945C482.476,365.965,477.18,362.679,471.479,358.494z"/>
	<path class="st0" d="M98.81,238.925c-10.824,0-19.597,8.773-19.597,19.589c0,10.832,8.773,19.606,19.597,19.606
		c10.82,0,19.594-8.774,19.594-19.606C118.403,247.698,109.63,238.925,98.81,238.925z"/>
</g>
</svg>