<!DOCTYPE svg PUBLIC "-//W3C//DTD SVG 1.1//EN" "http://www.w3.org/Graphics/SVG/1.1/DTD/svg11.dtd">
<!-- Uploaded to: SVG Repo, www.svgrepo.com, Transformed by: SVG Repo Mixer Tools -->
<svg width="800px" height="800px" viewBox="0 0 32 32" enable-background="new 0 0 32 32" version="1.1" xml:space="preserve" xmlns="http://www.w3.org/2000/svg" xmlns:xlink="http://www.w3.org/1999/xlink" fill="#f5f901" stroke="#f5f901">
<g id="SVGRepo_bgCarrier" stroke-width="0"/>
<g id="SVGRepo_tracerCarrier" stroke-linecap="round" stroke-linejoin="round"/>
<g id="SVGRepo_iconCarrier"> <g id="Layer_1"/> <g id="Layer_2"> <g> <g> <path d=" M12,10h-1.5C9.7,10,9,10.7,9,11.5v0c0,0.8,0.7,1.5,1.5,1.5h0c0.8,0,1.5,0.7,1.5,1.5v0c0,0.8-0.7,1.5-1.5,1.5H9" fill="none" stroke="#ecf000" stroke-linecap="round" stroke-linejoin="round" stroke-miterlimit="10" stroke-width="2"/> <path d=" M15,16v-4.5c0-0.8,0.7-1.5,1.5-1.5h0c0.8,0,1.5,0.7,1.5,1.5V16" fill="none" stroke="#ecf000" stroke-linecap="round" stroke-linejoin="round" stroke-miterlimit="10" stroke-width="2"/> <line fill="none" stroke="#ecf000" stroke-linecap="round" stroke-linejoin="round" stroke-miterlimit="10" stroke-width="2" x1="15" x2="18" y1="13" y2="13"/> <polyline fill="none" points=" 21,10 21,16 24,16 " stroke="#ecf000" stroke-linecap="round" stroke-linejoin="round" stroke-miterlimit="10" stroke-width="2"/> <polyline fill="none" points=" 29,10 27,10 27,16 29,16 " stroke="#ecf000" stroke-linecap="round" stroke-linejoin="round" stroke-miterlimit="10" stroke-width="2"/> <line fill="none" stroke="#ecf000" stroke-linecap="round" stroke-linejoin="round" stroke-miterlimit="10" stroke-width="2" x1="29" x2="27" y1="13" y2="13"/> </g> <polyline fill="none" points=" 25,20 8,30 13,20 2,20 10,2 26,2 23,7 " stroke="#ecf000" stroke-linecap="round" stroke-linejoin="round" stroke-miterlimit="10" stroke-width="2"/> </g> </g> </g>
</svg>