<?xml version="1.0" encoding="iso-8859-1"?>
<!-- Uploaded to: SVG Repo, www.svgrepo.com, Generator: SVG Repo Mixer Tools -->
<svg version="1.1" id="Layer_1" xmlns="http://www.w3.org/2000/svg" xmlns:xlink="http://www.w3.org/1999/xlink" 
	 viewBox="0 0 512 512" xml:space="preserve">
<g>
	<path style="fill:#FE9901;" d="M189.9,161.874c-0.061,0-0.302,0-0.363,0c-27.681,0-55.241,57.982-37.431,66.294
		c7.777,3.631,15.9,3.151,22.583,1.458c4.919-1.246,9.975-1.86,15.03-1.845c5.054-0.016,10.11,0.599,15.03,1.845
		c6.683,1.692,14.806,2.173,22.583-1.458C245.141,219.856,217.582,161.874,189.9,161.874z"/>
	<path style="fill:#FE9901;" d="M133.019,121.286c5.445,12.096,26.192,31.985,38.288,26.54c12.096-5.445,10.96-34.164,5.515-46.259
		c-5.445-12.096-19.665-17.487-31.761-12.042C132.964,94.97,127.572,109.19,133.019,121.286z"/>
	<path style="fill:#FE9901;" d="M99.829,180.031c9.463,6.283,33.572,11.236,39.855,1.772c6.283-9.463-7.638-29.76-17.102-36.043
		s-22.229-3.705-28.512,5.759C87.787,160.983,90.366,173.748,99.829,180.031z"/>
	<path style="fill:#FE9901;" d="M246.419,121.286c-5.445,12.096-26.192,31.985-38.288,26.54
		c-12.096-5.445-10.96-34.164-5.515-46.259s19.665-17.487,31.761-12.042C246.473,94.97,251.864,109.19,246.419,121.286z"/>
	<path style="fill:#FE9901;" d="M279.607,180.031c-9.463,6.283-33.572,11.236-39.855,1.772c-6.283-9.463,7.638-29.76,17.102-36.043
		c9.463-6.283,22.229-3.705,28.512,5.759C291.649,160.982,289.071,173.748,279.607,180.031z"/>
</g>
<circle style="fill:#CCCCCC;" cx="417.652" cy="173.263" r="50.675"/>
<path style="fill:#B3B3B3;" d="M417.649,122.591c-4.049,0-7.982,0.489-11.755,1.385c22.316,5.303,38.92,25.351,38.92,49.29
	s-16.604,43.986-38.92,49.29c3.774,0.897,7.706,1.386,11.755,1.386c27.987,0,50.675-22.689,50.675-50.675
	S445.635,122.591,417.649,122.591z"/>
<circle style="fill:#E6E6E6;" cx="417.652" cy="173.263" r="35.444"/>
<circle style="fill:#F2F2F2;" cx="417.652" cy="173.263" r="16.939"/>
<g>
	<rect x="112.186" y="7.786" style="fill:#E6E6E6;" width="29.459" height="42.939"/>
	<rect x="234.204" y="7.786" style="fill:#E6E6E6;" width="29.459" height="42.939"/>
</g>
<path d="M417.209,216.154c-4.301,0-7.786,3.486-7.786,7.786v164.596c0,59.491-48.399,107.89-107.891,107.89
	c-59.491,0-107.89-48.399-107.89-107.89v-4.13c0-4.3-3.485-7.786-7.786-7.786s-7.786,3.486-7.786,7.786v4.13
	c0,68.078,55.386,123.463,123.464,123.463s123.463-55.385,123.463-123.463V223.941C424.996,219.641,421.511,216.154,417.209,216.154
	z"/>
<path d="M178.07,358.885c0,4.3,3.485,7.786,7.786,7.786s7.786-3.486,7.786-7.786v-37.001c81.022-2.982,146.02-69.813,146.02-151.55
	v-92.12c0-32.834-26.711-59.545-59.545-59.545h-16.313c-4.301,0-7.786,3.486-7.786,7.786s3.485,7.786,7.786,7.786h16.313
	c24.246,0,43.972,19.726,43.972,43.972v92.12c0,75.042-61.053,136.093-136.095,136.093c-36.352,0-70.528-14.156-96.232-39.86
	c-25.703-25.704-39.861-59.88-39.861-96.231v-5.916c0-4.3-3.485-7.786-7.786-7.786s-7.786,3.486-7.786,7.786v5.916
	c0,40.511,15.775,78.598,44.422,107.244c26.294,26.293,60.543,41.733,97.317,44.093v37.214H178.07z"/>
<path d="M417.209,202.658c-16.207,0-29.393-13.185-29.393-29.392s13.185-29.392,29.393-29.392c16.206,0,29.392,13.185,29.392,29.392
	S433.417,202.658,417.209,202.658z M417.209,159.447c-7.62,0-13.82,6.199-13.82,13.819c0,7.62,6.2,13.819,13.82,13.819
	s13.819-6.199,13.819-13.819C431.029,165.646,424.83,159.447,417.209,159.447z"/>
<path d="M141.646,0h-29.459c-4.301,0-7.786,3.486-7.786,7.786v10.881h-8.526c-32.834,0-59.545,26.711-59.545,59.545v60.685
	c0,4.3,3.485,7.786,7.786,7.786s7.786-3.486,7.786-7.786V78.214c0-24.247,19.727-43.972,43.972-43.972h8.526v16.483
	c0,4.3,3.485,7.786,7.786,7.786h29.459c4.301,0,7.786-3.486,7.786-7.786V7.786C149.432,3.486,145.946,0,141.646,0z M133.86,42.937
	h-13.886V15.573h13.886V42.937z"/>
<path d="M263.669,58.51h-29.459c-4.301,0-7.786-3.486-7.786-7.786V7.786c0-4.3,3.485-7.786,7.786-7.786h29.459
	c4.301,0,7.786,3.486,7.786,7.786v42.937C271.455,55.024,267.969,58.51,263.669,58.51z M241.997,42.937h13.886V15.573h-13.886
	V42.937z"/>
<path d="M214.547,238.698C214.546,238.698,214.547,238.698,214.547,238.698c-3.783,0-7.722-0.512-11.712-1.522
	c-4.21-1.066-8.562-1.607-12.934-1.607h-0.16h-0.207c-4.372,0-8.724,0.541-12.934,1.607c-10.035,2.541-19.594,1.874-27.789-1.95
	c-4.16-1.942-13.361-8.58-9.001-28.232c4.798-21.623,25.267-52.905,49.725-52.905h0.363c24.459,0,44.926,31.282,49.725,52.905
	c4.36,19.653-4.841,26.29-9,28.231C225.688,237.529,220.278,238.698,214.547,238.698z M189.902,219.995
	c5.66,0,11.299,0.702,16.758,2.084c6.518,1.652,12.445,1.337,17.378-0.965c0.874-0.408,1.885-3.979,0.384-10.747
	c-3.982-17.943-21.035-40.705-34.523-40.705h-0.363c-13.488,0-30.54,22.763-34.523,40.705c-1.501,6.767-0.49,10.338,0.385,10.747
	c4.931,2.302,10.858,2.617,17.377,0.965c5.46-1.383,11.097-2.084,16.758-2.084h0.207L189.902,219.995z"/>
<path d="M166.773,156.537L166.773,156.537c-15.886-0.001-35.109-19.294-40.855-32.054c-3.487-7.746-3.749-16.388-0.738-24.331
	c3.011-7.944,8.936-14.24,16.683-17.727c4.14-1.864,8.529-2.809,13.043-2.809c12.498,0,23.887,7.362,29.015,18.755
	c3.336,7.41,5.1,18.9,4.494,29.274c-0.813,13.921-5.754,23.609-13.912,27.282C172.13,155.995,169.528,156.537,166.773,156.537z
	 M154.906,95.188c-2.294,0-4.532,0.484-6.649,1.437c-3.954,1.779-6.979,4.993-8.514,9.047c-1.537,4.054-1.405,8.464,0.376,12.418
	c4.16,9.239,18.914,22.873,26.654,22.873l0,0c0.544,0,0.982-0.078,1.337-0.238c1.95-0.878,4.27-5.63,4.759-13.99
	c0.533-9.111-1.259-17.778-3.148-21.974C167.102,98.946,161.286,95.188,154.906,95.188z"/>
<path d="M125.607,194.863c-0.001,0-0.001,0-0.003,0c-10.147-0.001-22.8-3.51-30.082-8.346c-13.025-8.648-16.586-26.281-7.938-39.306
	c5.268-7.936,14.106-12.674,23.641-12.674c5.582,0,11,1.637,15.664,4.735c5.936,3.941,12.597,11.618,16.97,19.559
	c5.971,10.843,6.792,20.529,2.312,27.276C143.519,190.103,137.797,194.863,125.607,194.863z M111.225,150.111
	c-4.304,0-8.292,2.137-10.667,5.714c-3.898,5.871-2.292,13.82,3.579,17.719c4.162,2.764,13.555,5.746,21.47,5.746
	c0.001,0,0.002,0,0.002,0c5.25,0,7.258-1.296,7.59-1.795c0.564-0.849,0.577-4.693-2.98-11.151
	c-3.515-6.384-8.669-11.925-11.942-14.099C116.171,150.85,113.733,150.111,111.225,150.111z"/>
<path d="M212.664,156.537c-2.755,0-5.356-0.542-7.73-1.61c-8.158-3.673-13.099-13.361-13.912-27.282
	c-0.605-10.374,1.159-21.864,4.494-29.274c5.129-11.393,16.518-18.755,29.015-18.755c4.514,0,8.901,0.946,13.043,2.809
	c7.747,3.487,13.672,9.783,16.683,17.727c3.011,7.943,2.749,16.585-0.738,24.331C247.773,137.243,228.549,156.537,212.664,156.537z
	 M224.53,95.188c-6.381,0-12.197,3.758-14.816,9.574c-1.888,4.196-3.68,12.862-3.148,21.974c0.489,8.359,2.809,13.111,4.759,13.99
	c0.355,0.16,0.793,0.238,1.337,0.238c7.741,0,22.494-13.634,26.654-22.873c1.78-3.954,1.913-8.365,0.376-12.418
	c-1.535-4.054-4.561-7.267-8.514-9.047C229.063,95.672,226.825,95.188,224.53,95.188z"/>
<path d="M253.831,194.863c-12.193,0-17.914-4.76-20.565-8.754c-4.48-6.747-3.659-16.434,2.312-27.276
	c4.373-7.941,11.034-15.618,16.97-19.559c4.665-3.097,10.082-4.735,15.664-4.735c9.536,0,18.373,4.737,23.641,12.673
	c8.647,13.025,5.086,30.658-7.938,39.306C276.631,191.353,263.979,194.863,253.831,194.863z M268.212,150.111
	c-2.508,0-4.947,0.738-7.05,2.136c-3.273,2.173-8.427,7.714-11.942,14.098c-3.557,6.46-3.543,10.302-2.98,11.151
	c0.331,0.499,2.341,1.795,7.592,1.795c7.915,0,17.307-2.984,21.47-5.747c5.871-3.898,7.477-11.847,3.579-17.718
	C276.504,152.248,272.516,150.111,268.212,150.111z"/>
<path d="M417.209,231.727c-32.236,0-58.462-26.226-58.462-58.461s26.227-58.461,58.462-58.461s58.461,26.226,58.461,58.461
	S449.445,231.727,417.209,231.727z M417.209,130.377c-23.649,0-42.89,19.24-42.89,42.888s19.24,42.889,42.89,42.889
	c23.648,0,42.888-19.24,42.888-42.889S440.858,130.377,417.209,130.377z"/>
</svg>