<?xml version="1.0" encoding="iso-8859-1"?>
<!-- Uploaded to: SVG Repo, www.svgrepo.com, Generator: SVG Repo Mixer Tools -->
<svg height="800px" width="800px" version="1.1" id="Layer_1" xmlns="http://www.w3.org/2000/svg" xmlns:xlink="http://www.w3.org/1999/xlink" 
	 viewBox="0 0 512.001 512.001" xml:space="preserve">
<path style="fill:#ED2601;" d="M109.123,44.468L57.216,195.301c-0.673,1.958-1.017,4.015-1.017,6.086v302.745h293.76V198.259
	l52.926-153.791H109.123z"/>
<path style="fill:#FE9901;" d="M402.882,44.468l52.926,153.791c0,58.49,0,250.751,0,250.751c0,7.641-4.647,14.512-11.738,17.358
	l-94.112,37.765V198.259L402.882,44.468z"/>
<path style="fill:#EA8500;" d="M455.807,198.259L402.882,44.468L390.75,79.723l38.675,118.881c1.841,5.658,2.78,11.598,2.78,17.583
	c0,67.073,0,238.547,0,254.942l23.602-9.471V198.259z"/>
<path style="fill:#FE9901;" d="M362.287,17.013l-29.849-8.321c-1.931-0.538-3.973-0.538-5.906,0l-29.857,8.322
	c-2.583,0.72-5.313,0.72-7.896,0l-29.856-8.322c-1.931-0.538-3.973-0.538-5.906,0l-29.856,8.322c-2.583,0.72-5.313,0.72-7.896,0
	l-29.856-8.322c-1.931-0.538-3.973-0.538-5.906,0l-29.846,8.32c-2.588,0.722-5.325,0.72-7.912-0.005l-25.985-7.278
	c-3.338-0.935-6.645,1.574-6.645,5.04v29.698h293.765v-29.7c0-3.465-3.306-5.974-6.643-5.04l-26.045,7.283
	C367.609,17.732,364.874,17.733,362.287,17.013z"/>
<g>
	<path style="fill:#FDEA96;" d="M210.343,346.957c-0.045-0.045-0.22-0.22-0.265-0.265c-20.233-20.233-82.76,2.004-75.819,21.098
		c3.032,8.338,9.319,13.925,15.442,17.573c4.506,2.685,8.651,5.932,12.335,9.638c3.706,3.684,6.953,7.828,9.638,12.335
		c3.648,6.123,9.234,12.41,17.573,15.442C208.339,429.717,230.576,367.19,210.343,346.957z"/>
	<path style="fill:#FDEA96;" d="M198.432,275.71c-4.861,12.823-4.235,42.526,8.588,47.387c12.823,4.861,32.984-16.961,37.845-29.783
		c4.861-12.823-1.592-27.157-14.415-32.019C217.629,256.434,203.294,262.887,198.432,275.71z"/>
	<path style="fill:#FDEA96;" d="M131.232,294.39c2.325,11.51,16.327,32.753,27.836,30.427c11.51-2.324,16.17-27.336,13.845-38.846
		c-2.324-11.51-13.54-18.957-25.05-16.631C136.354,271.664,128.907,282.879,131.232,294.39z"/>
	<path style="fill:#FDEA96;" d="M281.323,358.6c-12.823,4.861-42.526,4.235-47.387-8.588c-4.861-12.823,16.961-32.984,29.783-37.845
		c12.823-4.861,27.157,1.592,32.019,14.415C300.599,339.404,294.145,353.739,281.323,358.6z"/>
	<path style="fill:#FDEA96;" d="M262.643,425.8c-11.51-2.325-32.753-16.327-30.427-27.836c2.326-11.509,27.336-16.17,38.846-13.845
		c11.51,2.325,18.957,13.54,16.631,25.05C285.369,420.679,274.153,428.125,262.643,425.8z"/>
</g>
<path d="M463.244,195.7L410.746,43.153V7.868c0-2.461-1.152-4.78-3.112-6.268c-1.961-1.487-4.502-1.973-6.874-1.309l-34.525,9.656
	l-34.64-9.657c-1.381-0.385-2.844-0.385-4.225,0l-34.644,9.658L258.083,0.29c-1.381-0.385-2.844-0.385-4.225,0l-34.643,9.658
	L184.572,0.29c-1.381-0.385-2.844-0.385-4.225,0l-34.645,9.658L112.05,0.567c-0.907-0.365-1.898-0.566-2.935-0.566h-0.171
	c-3.934,0-7.262,2.905-7.795,6.8c-0.127,0.923-0.087,1.834,0.098,2.701v33.664L48.756,195.7c-0.283,0.823-0.428,1.689-0.428,2.559
	v156.913c0,4.346,3.522,7.867,7.867,7.867s7.867-3.521,7.867-7.867V199.576l50.67-147.24h222.328c4.345,0,7.867-3.521,7.867-7.867
	s-3.522-7.867-7.867-7.867H116.983V18.276l26.606,7.417c1.381,0.385,2.844,0.385,4.225,0l34.643-9.658l34.643,9.658
	c1.381,0.385,2.844,0.385,4.225,0l34.643-9.658l34.643,9.658c1.381,0.385,2.844,0.385,4.225,0l34.644-9.658l34.643,9.658
	c1.385,0.385,2.848,0.385,4.232-0.002l26.654-7.454v18.364h-32.164c-4.345,0-7.867,3.521-7.867,7.867s3.522,7.867,7.867,7.867
	h29.004L342.512,195.7c-0.283,0.823-0.428,1.689-0.428,2.559v298.007H64.062V380.959c0-4.346-3.522-7.867-7.867-7.867
	s-7.867,3.521-7.867,7.867v123.175c0,4.346,3.522,7.867,7.867,7.867h293.76l0,0l0,0c0.256,0,0.513-0.014,0.769-0.039
	c0.124-0.012,0.244-0.035,0.366-0.052c0.128-0.019,0.257-0.034,0.385-0.059c0.15-0.029,0.297-0.069,0.444-0.107
	c0.098-0.025,0.195-0.046,0.292-0.076c0.156-0.046,0.308-0.103,0.461-0.159c0.071-0.026,0.144-0.046,0.214-0.074l0.121-0.048
	c0.005-0.002,0.012-0.004,0.018-0.007l105.713-42.42c2.983-1.198,4.937-4.088,4.937-7.302V198.259
	C463.672,197.389,463.527,196.523,463.244,195.7z M447.937,456.337l-90.116,36.162V199.576l45.057-130.931l45.058,130.93V456.337z"
	/>
<path d="M129.653,353.617c-3.787,5.406-4.779,11.394-2.792,16.859c3.213,8.841,9.541,16.123,18.809,21.644
	c3.916,2.333,7.543,5.167,10.815,8.458c3.257,3.237,6.091,6.864,8.425,10.781c5.522,9.268,12.804,15.595,21.643,18.809
	c1.84,0.669,3.755,1.008,5.693,1.008c0.001,0,0.001,0,0.002,0c10.298,0,20.157-9.541,27.049-26.177
	c8.496-20.505,11.056-49.156-3.334-63.544l-0.328-0.328c-6.747-6.747-17.155-10.312-30.099-10.312
	C163.53,330.814,138.46,341.043,129.653,353.617z M204.777,352.52c8.512,8.511,6.677,30.306-0.016,46.458
	c-5.104,12.32-10.73,16.466-12.512,16.465c-0.074,0-0.171-0.007-0.32-0.062c-5.343-1.943-9.885-6.005-13.503-12.075
	c-3.008-5.049-6.658-9.722-10.816-13.854c-4.168-4.193-8.84-7.843-13.887-10.85c-6.07-3.616-10.132-8.159-12.075-13.502
	c-0.247-0.678,0.453-1.829,0.892-2.456c5.214-7.443,25.132-16.096,42.997-16.096c8.556,0,15.295,2.027,19.016,5.747L204.777,352.52z
	"/>
<path d="M233.236,253.938c-3.728-1.414-7.626-2.129-11.586-2.129c-13.502,0-25.79,8.484-30.577,21.111
	c-5.981,15.774-5.512,50.455,13.155,57.533c2.108,0.8,4.371,1.204,6.724,1.204c0.001,0,0,0,0.001,0
	c17.977,0,36.69-23.488,41.264-35.556C258.61,279.245,250.095,260.331,233.236,253.938z M237.507,290.523
	c-3.803,10.03-18.706,25.401-26.552,25.4c-0.447,0-0.822-0.06-1.147-0.183c-6.078-2.305-8.557-25.276-4.021-37.241
	c2.485-6.553,8.861-10.955,15.866-10.955c2.048,0,4.068,0.372,6.007,1.108C236.404,271.967,240.821,281.779,237.507,290.523z"/>
<path d="M152.094,261.047c-1.934,0-3.882,0.196-5.79,0.581c-7.627,1.54-14.198,5.958-18.501,12.44
	c-4.304,6.483-5.826,14.252-4.285,21.879c2.629,13.011,17.443,36.911,33.763,36.913c0.001,0,0.001,0,0.002,0
	c1.127,0,2.25-0.111,3.341-0.331c17.433-3.521,22.936-33.575,19.999-48.115C177.889,270.874,165.891,261.047,152.094,261.047z
	 M157.509,317.106c-0.068,0.014-0.142,0.021-0.226,0.021l0,0c-5.273-0.001-16.416-14.759-18.342-24.295
	c-0.708-3.507-0.008-7.079,1.97-10.061c1.979-2.98,5-5.012,8.507-5.72c0.884-0.179,1.784-0.27,2.675-0.27
	c6.337,0,11.848,4.52,13.107,10.748C167.334,298.091,161.916,316.216,157.509,317.106z"/>
<path d="M303.091,323.792c-4.787-12.626-17.076-21.11-30.577-21.11c-3.96,0-7.858,0.716-11.586,2.129
	c-7.828,2.968-17.489,10.059-24.611,18.064c-9.534,10.716-12.992,21.344-9.739,29.926c5.636,14.865,27.143,16.469,36.128,16.469
	c8.047,0,15.848-1.207,21.404-3.314C300.968,359.565,309.482,340.65,303.091,323.792z M278.532,351.245
	c-3.73,1.414-9.793,2.292-15.826,2.292c-11.907,0-20.239-3.21-21.417-6.314c-0.802-2.117,0.978-7.365,6.782-13.889
	c6.292-7.071,13.966-12.116,18.433-13.81c1.94-0.734,3.961-1.108,6.008-1.108c7.005,0,13.381,4.401,15.866,10.954
	C291.694,338.116,287.277,347.929,278.532,351.245z"/>
<path d="M272.616,376.406c-2.42-0.489-5.202-0.736-8.27-0.736c-14.333,0-36.773,5.523-39.845,20.736
	c-1.644,8.137,2.897,17.028,12.786,25.035c7.262,5.88,16.603,10.619,23.795,12.072c1.908,0.385,3.857,0.581,5.791,0.581
	c13.796,0,25.795-9.827,28.53-23.366C298.583,394.982,288.361,379.587,272.616,376.406z M279.979,407.611
	c-1.258,6.228-6.77,10.747-13.107,10.747c-0.891,0-1.791-0.09-2.676-0.27c-4.003-0.809-11.131-4.117-17.008-8.876
	c-5.773-4.675-7.52-8.425-7.265-9.69c0.633-3.131,12.066-8.117,24.422-8.117c2.521,0,4.196,0.232,5.155,0.425
	C276.741,393.292,281.441,400.372,279.979,407.611z"/>
</svg>