<?xml version="1.0" encoding="UTF-8"?>
<svg version="1.1" xmlns="http://www.w3.org/2000/svg" width="512" height="512">
<path d="M0 0 C2 3 2 3 1.703125 5.87890625 C1.67058566 9.30121764 1.67058566 9.30121764 4.921875 11.58984375 C6.18403056 12.3946005 7.46093415 13.17659308 8.75 13.9375 C9.38421875 14.34806641 10.0184375 14.75863281 10.671875 15.18164062 C14.09255515 17.45177651 14.09255515 17.45177651 18.02050781 17.63891602 C18.67374023 17.42807373 19.32697266 17.21723145 20 17 C23.65431606 16.34222311 26.01262591 16.3933212 29.21875 18.36328125 C31.91486259 20.47727862 34.45861197 22.70182386 37 25 C37.79494873 25.70672852 37.79494873 25.70672852 38.60595703 26.42773438 C52.59847899 38.87819009 63.89920516 52.73147635 73.4375 68.875 C73.83815674 69.55167725 74.23881348 70.22835449 74.65161133 70.92553711 C82 83.65457754 82 83.65457754 82 89 C82.71671875 89.11085938 83.4334375 89.22171875 84.171875 89.3359375 C92.82965135 91.36884079 100.29317662 97.40493834 107 103 C107.97324219 103.76828125 108.94648438 104.5365625 109.94921875 105.328125 C113.07285026 107.93894353 115.56856558 110.9355355 118 114.1875 C118.42788818 114.75194824 118.85577637 115.31639648 119.29663086 115.89794922 C123.48409584 121.50284383 127.77330551 127.31991654 130 134 C131.87631894 134.80346965 131.87631894 134.80346965 134.19921875 135.2109375 C135.07167236 135.40204102 135.94412598 135.59314453 136.84301758 135.79003906 C137.78169678 135.98307617 138.72037598 136.17611328 139.6875 136.375 C146.3151956 137.78275088 152.17487298 139.38767278 158.3125 142.25 C163.4095215 144.20899759 166.18327026 144.04318978 171.0534668 141.98779297 C173.77664006 140.68927098 176.44916449 139.30371643 179.12207031 137.90527344 C195.98524574 129.77622319 218.13844613 131.65188188 235.51171875 137.1015625 C244.35193099 140.34471728 254.13730883 144.3660652 261 151 C266.57333151 167.71999453 261.82493894 189.90418103 254.25 205.375 C248.81570235 215.81876422 240.8517212 229.5741394 230 235 C229.33824226 237.89669409 228.77383068 240.76566406 228.25 243.6875 C225.38236944 258.26052539 220.00207898 271.54291565 209 282 C209.64066406 282.47308594 210.28132813 282.94617188 210.94140625 283.43359375 C220.81811794 290.98464159 227.50922856 298.53140451 230 311 C231.32129939 323.83158793 229.26684837 334.75038095 221.07421875 344.8671875 C215.7279367 350.36449447 210.43218612 354.16022812 203.4375 357.3125 C202.70853516 357.65861328 201.97957031 358.00472656 201.22851562 358.36132812 C197.1077863 360.26405913 193.50854072 361.28765532 189 362 C189.00999275 363.09421768 189.00999275 363.09421768 189.02018738 364.21054077 C189.08058613 371.12396287 189.12611953 378.03734494 189.15543652 384.95096397 C189.17101602 388.50437151 189.19211071 392.05755894 189.22631836 395.61083984 C189.26549776 399.70672582 189.27977284 403.80238474 189.29296875 407.8984375 C189.30845261 409.1592514 189.32393646 410.42006531 189.33988953 411.71908569 C189.34209474 423.40230065 187.63524035 431.3439665 179.41015625 439.86328125 C172.02787951 446.40802254 164.39949009 447.14921548 154.89050293 447.14717102 C153.97095935 447.15084771 153.05141578 447.1545244 152.10400724 447.1583125 C149.02180645 447.16932855 145.93963939 447.17318958 142.85742188 447.17700195 C140.64807529 447.18326791 138.43872976 447.18991483 136.22938538 447.19691467 C128.97584769 447.21793249 121.72230983 447.22831133 114.46875 447.23828125 C111.97228484 447.24232892 109.47581979 447.24644585 106.97935486 447.25063133 C96.59935077 447.26749295 86.21934824 447.28213026 75.83933258 447.28938007 C73.14858499 447.29128988 70.4578374 447.29321023 67.76708984 447.29516602 C66.76396595 447.29589163 66.76396595 447.29589163 65.74057692 447.2966319 C54.89662179 447.30494016 44.05277668 447.3302947 33.20886964 447.36274669 C22.07241934 447.39580245 10.93600893 447.41349432 -0.20049429 447.41702431 C-6.45210087 447.41937877 -12.70353321 447.42839152 -18.95509338 447.45348549 C-24.83201549 447.47669611 -30.70864773 447.48102767 -36.58560371 447.47072411 C-38.74434432 447.47022701 -40.90309888 447.47659824 -43.06179619 447.49028015 C-46.00504938 447.5078938 -48.94725022 447.50094484 -51.89050293 447.48774719 C-53.17673577 447.50420106 -53.17673577 447.50420106 -54.48895311 447.52098733 C-58.46023066 447.47788644 -60.56346956 447.25322534 -64.06934357 445.2195158 C-66 443 -66 443 -66 439 C-72.27 439 -78.54 439 -85 439 C-85.66 440.98 -86.32 442.96 -87 445 C-91.56309205 448.67255525 -98.83163961 447.33253805 -104.42431641 447.31567383 C-106.59720272 447.31254009 -108.76869072 447.3358917 -110.94140625 447.36132812 C-123.16317236 447.42038785 -131.81289799 446.13766583 -140.86328125 437.4140625 C-146.10082867 431.49668717 -148.1310885 425.20329506 -148.11352539 417.40527344 C-148.11341209 415.72398346 -148.11341209 415.72398346 -148.11329651 414.00872803 C-148.10813522 412.80444153 -148.10297394 411.60015503 -148.09765625 410.359375 C-148.0962413 409.12205627 -148.09482635 407.88473755 -148.09336853 406.60992432 C-148.0887211 403.32855059 -148.07974347 400.04722627 -148.06866455 396.76586914 C-148.0584152 393.41422989 -148.05394859 390.06258852 -148.04882812 386.7109375 C-148.03780025 380.14060569 -148.02106296 373.57030689 -148 367 C-148.73001221 366.91861282 -149.46002441 366.83722565 -150.2121582 366.75337219 C-153.57927535 366.37628155 -156.94588244 365.99480542 -160.3125 365.61328125 C-161.46041016 365.48538208 -162.60832031 365.35748291 -163.79101562 365.22570801 C-196.96640086 361.44883607 -196.96640086 361.44883607 -207.875 350.3125 C-215.34383784 340.69332723 -215.45615253 330.81516712 -215.12872314 319.18780518 C-215.01620266 314.93950874 -214.98708924 310.69100946 -214.96484375 306.44140625 C-214.96045288 305.61147156 -214.95606201 304.78153687 -214.95153809 303.92645264 C-214.93147743 286.50900458 -218.8809425 270.11166952 -223.42285156 253.3828125 C-224 251 -224 251 -224.3671875 247.4375 C-224.57601562 246.633125 -224.78484375 245.82875 -225 245 C-227.30814288 243.76801388 -227.30814288 243.76801388 -230 243 C-239.60851727 235.92730327 -246.05083825 223.94538848 -248.5625 212.375 C-249.37030074 205.74014222 -248.81487881 198.99937264 -248.28344727 192.35498047 C-247.93232652 187.36698719 -248.07932496 182.89318312 -248.9453125 177.9609375 C-250.39071263 169.50634531 -250.39589837 161.11668894 -250.375 152.5625 C-250.37445618 151.72406555 -250.37391235 150.8856311 -250.37335205 150.02178955 C-250.33352253 136.64512324 -249.43796569 123.98260146 -246 111 C-245.79101074 110.16984375 -245.58202148 109.3396875 -245.36669922 108.484375 C-238.02773463 79.81018827 -223.41055366 52.61894843 -202 32 C-201.195625 31.195625 -200.39125 30.39125 -199.5625 29.5625 C-198.716875 28.716875 -197.87125 27.87125 -197 27 C-196.48566406 26.43925781 -195.97132813 25.87851563 -195.44140625 25.30078125 C-149.35066107 -23.56532062 -56.73049627 -38.53506161 0 0 Z " fill="#030101" transform="translate(250,43)"/>
<path d="M0 0 C0.95471191 0.24943359 0.95471191 0.24943359 1.92871094 0.50390625 C13.97388912 3.72869367 25.85017714 8.42508857 37 14 C38.91403076 14.19668734 38.91403076 14.19668734 41 14.1875 C42.051875 14.20876953 42.051875 14.20876953 43.125 14.23046875 C45.24524938 14.16512323 45.24524938 14.16512323 47 12 C53.51730749 12.44514009 59.30651865 16.72915441 64 21 C64.56640625 23.0625 64.56640625 23.0625 64.375 25.0625 C63.64687396 28.76793993 63.64687396 28.76793993 65.0078125 30.8125 C68.17884211 34.53140384 71.84383314 37.6406665 75.54296875 40.81640625 C89.46467694 53.18879874 101.63018536 67.23180479 110 84 C110 84.66 110 85.32 110 86 C108.97519531 85.94199219 107.95039063 85.88398437 106.89453125 85.82421875 C105.53389989 85.77730043 104.17321904 85.73180248 102.8125 85.6875 C102.13896484 85.64560547 101.46542969 85.60371094 100.77148438 85.56054688 C96.96648138 85.46774192 95.26250939 85.7878864 92.2734375 88.203125 C91.14808594 89.58757812 91.14808594 89.58757812 90 91 C89.28457031 91.83660156 88.56914062 92.67320312 87.83203125 93.53515625 C87.16558594 94.36917969 86.49914062 95.20320313 85.8125 96.0625 C84.80123047 97.31740234 84.80123047 97.31740234 83.76953125 98.59765625 C82.23161654 100.68555371 81.06117353 102.64365057 80 105 C73.48781332 104.46710262 68.04324796 102.23168349 62.0625 99.6875 C61.01344482 99.2438208 59.96438965 98.8001416 58.88354492 98.34301758 C38.32131371 89.51617655 18.61405729 79.21880897 0.23828125 66.40234375 C-0.80972656 65.67144531 -1.85773438 64.94054687 -2.9375 64.1875 C-3.79214844 63.56230469 -4.64679688 62.93710938 -5.52734375 62.29296875 C-8.61183409 60.6800678 -10.56475436 60.53729344 -14 61 C-17.62107271 63.93766366 -18.35195496 67.81375963 -19.625 72.125 C-32.73565662 113.56254466 -68.59660661 141.0770289 -105.72680664 160.42626953 C-127.3791424 171.43051367 -155.79579909 184.84649858 -180.6875 184.125 C-181.51636719 184.10695312 -182.34523437 184.08890625 -183.19921875 184.0703125 C-183.79347656 184.04710937 -184.38773438 184.02390625 -185 184 C-195.74046493 153.92669821 -185.8636062 113.80931139 -173 86 C-165.47690047 70.52943697 -155.81816137 57.47472589 -144 45 C-143.10796875 44.04351562 -142.2159375 43.08703125 -141.296875 42.1015625 C-122.53108973 22.37931519 -96.42423702 7.54759855 -70 1 C-69.31292969 0.81953125 -68.62585938 0.6390625 -67.91796875 0.453125 C-46.60280744 -4.99531002 -21.34297835 -5.66708633 0 0 Z " fill="#50687F" transform="translate(203,41)"/>
<path d="M0 0 C5.01883339 1.71644102 9.26910593 4.53766486 13.75 7.3125 C32.58928626 18.74683959 51.91750723 28.27125997 72.53417969 36.0612793 C75.03444233 37.01311196 77.51866874 37.99997354 80 39 C79.566875 40.61841797 79.566875 40.61841797 79.125 42.26953125 C74.99743836 58.54659259 74.60399772 73.14760448 79.125 89.36328125 C80.96480254 97.00996054 79.37994877 100.75979402 75.60546875 107.4140625 C70.62819628 118.53118203 70.75785109 128.97135223 71.46875 140.9296875 C71.77431696 150.94791863 71.77431696 150.94791863 67.73828125 155.5859375 C66.51564365 156.74912207 65.27174358 157.89071675 64 159 C63.28714844 159.79148437 62.57429687 160.58296875 61.83984375 161.3984375 C40.1629615 183.92102973 9.63060588 195.45034563 -21.24926758 196.35107422 C-31.38250254 196.45312509 -41.1088666 195.11738914 -51 193 C-52.27488281 192.73316406 -53.54976563 192.46632813 -54.86328125 192.19140625 C-84.51411187 185.14659433 -110.8986059 164.61922698 -127 139 C-132.25787219 130.31230152 -135.94011871 121.68329512 -139 112 C-138.34741211 111.77449463 -137.69482422 111.54898926 -137.02246094 111.31665039 C-122.34387789 106.21513584 -107.9866806 100.78752126 -94 94 C-92.92709717 93.48300537 -92.92709717 93.48300537 -91.83251953 92.95556641 C-75.06721059 84.7727299 -58.97211376 74.38331153 -45 62 C-44.16726562 61.27554688 -43.33453125 60.55109375 -42.4765625 59.8046875 C-39.94863072 57.57232928 -37.46740254 55.29899253 -35 53 C-34.18789062 52.25363281 -33.37578125 51.50726563 -32.5390625 50.73828125 C-17.87629907 36.74621204 -7.12088233 18.89359735 0 0 Z " fill="#FDD3BC" transform="translate(196,121)"/>
<path d="M0 0 C1.64838867 -0.01836914 1.64838867 -0.01836914 3.33007812 -0.03710938 C14.34285158 -0.05657804 24.50865452 1.52787718 34.875 5.25 C35.72658691 5.55454102 36.57817383 5.85908203 37.45556641 6.17285156 C52.0428965 11.56953996 64.43598668 19.04129951 76.1875 29.1875 C76.87070312 29.76886719 77.55390625 30.35023438 78.2578125 30.94921875 C87.03701427 39.05466783 93.98890364 50.07658035 98.1875 61.1875 C98.50460937 61.91324219 98.82171875 62.63898438 99.1484375 63.38671875 C101.37970298 69.251467 101.46541429 75.05008691 101.5 81.25 C101.50555908 82.08909912 101.51111816 82.92819824 101.5168457 83.79272461 C101.32713512 100.34618925 94.64664663 113.3328511 83.5 125.375 C72.47592383 135.90288487 57.82082292 141.76450049 43.1875 145.1875 C42.40890625 145.39375 41.6303125 145.6 40.828125 145.8125 C11.75878481 152.47808119 -17.67112495 142.71230228 -42.5 127.9375 C-60.93753682 115.74762249 -75.74787394 97.16438473 -80.42578125 75.32421875 C-82.6298764 57.44655805 -80.00105835 41.82991767 -68.8125 27.1875 C-57.01052779 12.58404954 -36.16997067 2.98111332 -17.796875 0.62890625 C-11.87112822 0.01321239 -5.95253151 0.00345475 0 0 Z " fill="#FD7D26" transform="translate(361.8125,191.8125)"/>
<path d="M0 0 C0.99 0 1.98 0 3 0 C3.47308594 0.88300781 3.94617188 1.76601563 4.43359375 2.67578125 C8.90262205 10.8465098 13.88761788 17.93399435 20 25 C21.34008477 26.66124302 22.67541656 28.32637093 24 30 C23.38125 30.5576001 23.38125 30.5576001 22.75 31.12646484 C6.73161692 45.62971627 -5.02698851 59.89797916 -11 81 C-31.23564485 80.5391468 -50.7305346 73.635387 -68.4140625 64.19921875 C-76.0834376 60.64257501 -86.25286458 60.75895522 -94.33203125 62.87109375 C-105.81227566 67.36592629 -113.3572681 74.01152208 -119 85 C-122.90581568 94.29269569 -122.5911513 107.20549017 -119.0625 116.5625 C-109.96458722 134.41126622 -90.61218365 142.25480437 -72.39453125 148.375 C-53.37212833 154.32337355 -33.79991011 157.95776959 -14 160 C-13.92652344 161.95292969 -13.92652344 161.95292969 -13.8515625 163.9453125 C-13.77649371 165.67189471 -13.70094767 167.39845622 -13.625 169.125 C-13.5940625 169.9809375 -13.563125 170.836875 -13.53125 171.71875 C-13.49257813 172.55664062 -13.45390625 173.39453125 -13.4140625 174.2578125 C-13.3826416 175.0223877 -13.3512207 175.78696289 -13.31884766 176.57470703 C-12.9286917 179.54240171 -11.97194851 182.17519047 -11 185 C-11.88283157 185.01030746 -12.76566315 185.02061493 -13.67524719 185.03123474 C-21.98900061 185.12915137 -30.30268198 185.23165755 -38.61631489 185.33933926 C-42.89058671 185.39453899 -47.16486542 185.44795431 -51.43920898 185.49731445 C-55.56301541 185.54500147 -59.68673866 185.5973459 -63.81044579 185.65294075 C-65.38490927 185.67334463 -66.95939554 185.69206097 -68.53389931 185.70907402 C-70.736632 185.73316158 -72.93920781 185.76321011 -75.1418457 185.79467773 C-76.39649124 185.81022202 -77.65113678 185.8257663 -78.94380188 185.84178162 C-82.04246696 185.86595704 -82.04246696 185.86595704 -85 187 C-85.99 189.97 -85.99 189.97 -87 193 C-93.6 193 -100.2 193 -107 193 C-107.66 191.35 -108.32 189.7 -109 188 C-112.5895465 185.606969 -115.12873636 185.75292383 -119.265625 185.796875 C-120.72787346 185.78632128 -122.19011363 185.77456393 -123.65234375 185.76171875 C-125.94783307 185.75143386 -128.24216222 185.74993141 -130.53759766 185.77001953 C-144.97545867 185.86658343 -144.97545867 185.86658343 -149.484375 182.140625 C-153.39505145 178.00219241 -153.15315532 173.53099866 -153.16113281 168.12646484 C-153.16609772 167.32428024 -153.17106262 166.52209564 -153.17617798 165.69560242 C-153.19081024 163.0340387 -153.19760871 160.37253489 -153.203125 157.7109375 C-153.2088822 155.8502299 -153.21463986 153.9895223 -153.22039795 152.1288147 C-153.23091549 148.21640752 -153.23675105 144.30402089 -153.24023438 140.39160156 C-153.24567497 135.42383476 -153.26960336 130.45634822 -153.29820633 125.48866844 C-153.31702431 121.63629424 -153.3220487 117.78398439 -153.32357025 113.93156815 C-153.32656201 112.10348631 -153.3344699 110.27540463 -153.34775543 108.44736862 C-153.4458365 93.89478552 -152.62234361 79.45249438 -147.25 65.75 C-146.87029053 64.78151123 -146.87029053 64.78151123 -146.48291016 63.79345703 C-142.93315206 55.00429915 -138.32166407 46.8314445 -133 39 C-131.96875 39.12375 -130.9375 39.2475 -129.875 39.375 C-128.75351563 39.50841797 -128.75351563 39.50841797 -127.609375 39.64453125 C-125.82133767 39.88811119 -124.03938382 40.17977246 -122.265625 40.51171875 C-86.80750916 46.73011966 -51.37520629 38.46222307 -21.5234375 18.78515625 C-17.18633146 15.71695585 -13.07299473 12.408016 -9 9 C-8.30390625 8.42765625 -7.6078125 7.8553125 -6.890625 7.265625 C-4.07627794 4.91645927 -2.05866352 3.08799528 0 0 Z " fill="#FD70A7" transform="translate(271,289)"/>
<path d="M0 0 C1.51491633 3.02983266 0.62783443 5.42991512 0.125 8.75 C-1.72708852 21.01030428 -2.19386528 33.29986708 -2.1875 45.6875 C-2.1882251 46.34299835 -2.1889502 46.9984967 -2.18969727 47.67385864 C-2.18802834 61.50733936 -1.27308908 75.22456669 0 89 C1.26328125 89.02320313 2.5265625 89.04640625 3.828125 89.0703125 C4.5387207 89.08336426 5.24931641 89.09641602 5.98144531 89.10986328 C9.05331453 88.94267156 10.65594688 87.9533776 13 86 C14.37843192 84.03081154 15.71810412 82.03335209 17 80 C19.88861709 78.55569145 21.79647701 78.62311494 25 79 C27.9375 81.125 27.9375 81.125 30 84 C30.39607295 89.80906991 26.54171249 94.67581615 23 99 C19.9375 101.4375 19.9375 101.4375 17 103 C16.236875 103.4125 15.47375 103.825 14.6875 104.25 C12.04050007 104.98869765 10.06070559 105.07640078 7.33203125 105.046875 C6.52096924 105.04010742 5.70990723 105.03333984 4.87426758 105.02636719 C4.25575928 105.01766602 3.63725098 105.00896484 3 105 C6.01779184 119.65546422 10.3810441 133.67704355 15.25317383 147.80053711 C15.49177628 148.49638916 15.73037872 149.19224121 15.97621155 149.90917969 C16.63126281 151.81541034 17.29342564 153.71919295 17.95605469 155.62280273 C18.92463085 158.75617834 19.55048967 161.75590998 20 165 C0.40968495 168.46804313 -17.48254473 169.17809024 -37 165 C-38.27488281 164.73316406 -39.54976563 164.46632813 -40.86328125 164.19140625 C-70.51411187 157.14659433 -96.8986059 136.61922698 -113 111 C-118.25787219 102.31230152 -121.94011871 93.68329512 -125 84 C-124.34741211 83.77449463 -123.69482422 83.54898926 -123.02246094 83.31665039 C-108.34387789 78.21513584 -93.9866806 72.78752126 -80 66 C-78.92709717 65.48300537 -78.92709717 65.48300537 -77.83251953 64.95556641 C-61.06721059 56.7727299 -44.97211376 46.38331153 -31 34 C-30.16726562 33.27554688 -29.33453125 32.55109375 -28.4765625 31.8046875 C-25.94863072 29.57232928 -23.46740254 27.29899253 -21 25 C-20.18789062 24.25363281 -19.37578125 23.50726563 -18.5390625 22.73828125 C-11.33974939 15.86827426 -5.69163018 8.11544228 0 0 Z " fill="#FDBD9C" transform="translate(182,149)"/>
<path d="M0 0 C6.60164284 1.25714235 12.26679336 3.14872671 18.3125 6.0625 C19.55471313 6.65804687 19.55471313 6.65804687 20.82202148 7.265625 C27.91382033 10.76972668 33.9637437 14.8580039 40 20 C41.32064453 21.09634766 41.32064453 21.09634766 42.66796875 22.21484375 C55.80248138 33.52125477 68.77975779 50.4818412 70.18652344 68.37207031 C71.09797669 88.22065976 67.09996107 102.77902725 54.16015625 118.19140625 C43.18910516 130.04385257 27.43786721 136.38880299 12 140 C11.22140625 140.20625 10.4428125 140.4125 9.640625 140.625 C-2.84613217 143.48820547 -23.15862346 144.92068827 -35 139 C-35.40062184 127.41164219 -34.45649312 116.56261773 -32.38916016 105.15917969 C-31.82865789 102.04934149 -31.32246074 98.93096496 -30.8125 95.8125 C-30.54255351 94.20818386 -30.27212686 92.60394774 -30 91 C-29.44570313 91.42152344 -28.89140625 91.84304688 -28.3203125 92.27734375 C-27.59585937 92.82519531 -26.87140625 93.37304688 -26.125 93.9375 C-25.40570313 94.48277344 -24.68640625 95.02804687 -23.9453125 95.58984375 C-18.88839038 99.25560456 -13.02129226 98.50001374 -7 98 C-2.39340118 96.7384119 0.30170073 94.7681292 3.5 91.25 C5.4378655 87.05129141 5.45868152 84.58681523 5 80 C3.01930314 77.62304243 3.01930314 77.62304243 -0.75 77.4375 C-3.57249803 77.47355381 -4.67604577 77.72708898 -6.859375 79.56640625 C-8.34876586 81.32175976 -9.71450891 83.0912405 -11 85 C-15.875 84.125 -15.875 84.125 -17 83 C-17.0789995 81.22982599 -17.13823342 79.4587509 -17.1875 77.6875 C-17.40192553 73.68381535 -17.40192553 73.68381535 -19.3984375 70.3828125 C-21.21242422 69.15694401 -21.21242422 69.15694401 -24 68 C-21.49444067 53.64997837 -16.86645532 40.28201204 -11.5625 26.75 C-11.10818604 25.59064941 -10.65387207 24.43129883 -10.18579102 23.23681641 C-7.04956287 15.35850395 -3.62666325 7.66395197 0 0 Z " fill="#FD8A41" transform="translate(393,197)"/>
<path d="M0 0 C29.64407363 13.5131696 66.2666903 20.5777699 98 10 C105.69532464 9.05739999 111.72869738 10.97863284 118.015625 15.42578125 C124.8543171 20.98581033 127.43142107 27.04524072 128.4375 35.8125 C128.20601332 42.83880154 124.39739204 49.02948712 119.5 53.875 C106.29759366 64.36795728 84.55279298 64.50863106 68.37451172 64.39111328 C65.7660628 64.37509862 63.15918227 64.39102372 60.55078125 64.41015625 C30.38075406 64.44700773 -9.50799673 57.94343907 -33.8125 38.5625 C-39.49848182 32.86374069 -41.22816977 27.01635814 -41.625 19.0625 C-41.39122608 12.07190561 -39.70347748 7.21015289 -35 2 C-23.37347852 -7.6689949 -13.03742965 -6.17902994 0 0 Z " fill="#FDD2BB" transform="translate(205,370)"/>
<path d="M0 0 C7.99717824 0.41379275 14.46452183 2.86470913 21.8125 5.9375 C23.48989258 6.62102539 23.48989258 6.62102539 25.20117188 7.31835938 C33.23419243 10.60963295 33.23419243 10.60963295 36.21704102 12.13012695 C39.45791156 13.71128836 42.44737706 13.22920148 46 13 C46.66 12.34 47.32 11.68 48 11 C54.51730749 11.44514009 60.30651865 15.72915441 65 20 C65.56640625 22.0625 65.56640625 22.0625 65.375 24.0625 C64.64687396 27.76793993 64.64687396 27.76793993 66.0078125 29.8125 C69.17884211 33.53140384 72.84383314 36.6406665 76.54296875 39.81640625 C90.46467694 52.18879874 102.63018536 66.23180479 111 83 C111 83.66 111 84.32 111 85 C109.97519531 84.94199219 108.95039063 84.88398437 107.89453125 84.82421875 C106.53389989 84.77730043 105.17321904 84.73180248 103.8125 84.6875 C103.13896484 84.64560547 102.46542969 84.60371094 101.77148438 84.56054688 C97.96648138 84.46774192 96.26250939 84.7878864 93.2734375 87.203125 C92.52320313 88.12609375 91.77296875 89.0490625 91 90 C90.28457031 90.83660156 89.56914062 91.67320312 88.83203125 92.53515625 C88.16558594 93.36917969 87.49914062 94.20320313 86.8125 95.0625 C86.13832031 95.89910156 85.46414063 96.73570312 84.76953125 97.59765625 C83.23161654 99.68555371 82.06117353 101.64365057 81 104 C74.48781332 103.46710262 69.04324796 101.23168349 63.0625 98.6875 C62.01344482 98.2438208 60.96438965 97.8001416 59.88354492 97.34301758 C40.63306922 89.0792797 22.58975883 79.35415809 5 68 C3.52779635 67.05918722 2.0551628 66.11904671 0.58203125 65.1796875 C-2.622039 63.13521345 -5.81201027 61.0694546 -9 59 C-8.50492295 48.71537611 -7.16397432 38.71910488 -5.47094727 28.57519531 C-5.05976365 26.1085852 -4.6590767 23.64043215 -4.25976562 21.171875 C-3.99800445 19.57542092 -3.73565564 17.97906306 -3.47265625 16.3828125 C-3.3548732 15.65869171 -3.23709015 14.93457092 -3.11573792 14.18850708 C-2.30901415 9.3861607 -1.23077809 4.71197054 0 0 Z " fill="#5A768E" transform="translate(202,42)"/>
<path d="M0 0 C3.03548232 1.62759244 6.00087067 3.3373304 8.95703125 5.10546875 C33.55825687 19.38868166 58.48435477 23.53018156 86.64453125 24.41796875 C86.598125 25.578125 86.55171875 26.73828125 86.50390625 27.93359375 C86.14344004 40.70889996 87.11441266 51.31551006 95.73046875 61.453125 C100.10050542 65.93910142 104.65330989 69.10315952 110.40234375 71.5859375 C111.59947998 72.10643677 111.59947998 72.10643677 112.82080078 72.63745117 C113.72354736 73.02380737 113.72354736 73.02380737 114.64453125 73.41796875 C114.73738078 81.39808055 114.80837125 89.37796511 114.85177994 97.35848427 C114.8726184 101.06454225 114.90086628 104.77022955 114.94628906 108.47607422 C114.98988237 112.05522661 115.01369648 115.63402339 115.02404022 119.21342087 C115.0314076 120.57615122 115.04579463 121.93886302 115.06745148 123.30144119 C115.25061888 135.30772495 115.25061888 135.30772495 112.93261719 139.11474609 C109.37900955 142.69186245 107.2051283 144.28920662 102.09375 144.7109375 C100.85238281 144.67613281 99.61101562 144.64132812 98.33203125 144.60546875 C97.07777344 144.57839844 95.82351563 144.55132812 94.53125 144.5234375 C93.57863281 144.48863281 92.62601562 144.45382812 91.64453125 144.41796875 C91.63906281 143.50287285 91.63906281 143.50287285 91.63348389 142.56929016 C91.59133634 136.1599966 91.52177009 129.75139782 91.43701172 123.3425293 C91.40896597 120.95783472 91.38767082 118.57305002 91.37353516 116.18823242 C91.24756691 96.12988907 89.85693217 79.75018451 75.68359375 64.296875 C66.62310149 55.9480306 54.77349802 50.42156291 42.40234375 50.34765625 C28.43502927 50.24591256 28.43502927 50.24591256 24.20703125 46.16796875 C23.62566406 45.54277344 23.04429687 44.91757812 22.4453125 44.2734375 C16.91017966 38.57020952 10.0601542 37.1645088 2.39306641 36.92944336 C-5.55572868 36.89467755 -12.80462097 37.6295398 -20.5 39.75 C-24.79947397 40.7557593 -28.96930027 40.6852973 -33.35546875 40.41796875 C-27.51579433 24.7911305 -19.24535359 13.13761788 -6.35546875 2.41796875 C-5.700625 1.79792969 -5.04578125 1.17789062 -4.37109375 0.5390625 C-2.35546875 -0.58203125 -2.35546875 -0.58203125 0 0 Z " fill="#FD7D26" transform="translate(308.35546875,329.58203125)"/>
<path d="M0 0 C3.4007652 1.24811589 5.29219835 3.22219127 7.6875 5.875 C20.00843017 18.35620243 35.10525668 26.02513104 51 33 C51 37.1255095 48.93672814 39.75210555 46.875 43.1875 C37.29987069 59.68490894 32.37335887 77.39814177 31.4375 96.4375 C31.37272461 97.67790039 31.37272461 97.67790039 31.30664062 98.94335938 C31.20161967 100.96209549 31.10041441 102.98102951 31 105 C21.90673927 104.66235011 12.9371222 104.007292 3.9375 102.625 C3.16559326 102.51115967 2.39368652 102.39731934 1.59838867 102.2800293 C-6.37780153 100.98759506 -13.1865725 98.8134275 -19 93 C-21.5986404 88.32366652 -21.29620592 83.53935212 -21.30859375 78.3359375 C-21.33380192 76.38801846 -21.35919906 74.44010187 -21.38476562 72.4921875 C-21.41318069 69.45638993 -21.4372131 66.42063616 -21.45629883 63.38476562 C-21.55679566 49.98224339 -22.40998042 37.16231975 -25 24 C-25.20471924 22.95585937 -25.40943848 21.91171875 -25.62036133 20.8359375 C-26.10998404 18.48539924 -26.63413015 16.14871125 -27.1875 13.8125 C-27.36474609 13.03970703 -27.54199219 12.26691406 -27.72460938 11.47070312 C-28.1439957 9.64580587 -28.5710099 7.82266354 -29 6 C-28.14019531 5.97421875 -27.28039063 5.9484375 -26.39453125 5.921875 C-17.18100087 5.4797863 -8.36642817 4.18321409 0 0 Z " fill="#50687E" transform="translate(72,289)"/>
<path d="M0 0 C10.80336623 -0.32386965 19.61702148 3.00151994 27.625 10.4375 C40.52462476 24.35551619 39.64193523 37.64913739 39.3125 55.75 C39.209375 63.7525 39.10625 71.755 39 80 C14.25 80 -10.5 80 -36 80 C-36 70.43 -36 60.86 -36 51 C-32.37 50.01 -28.74 49.02 -25 48 C-13.68192116 42.98312108 -6.53472147 36.64890547 -1.33203125 25.390625 C0.50248913 20.30400031 0.33127777 15.34558387 0.1875 10 C0.17396484 9.03449219 0.16042969 8.06898438 0.14648438 7.07421875 C0.11145458 4.71554575 0.06234084 2.35808229 0 0 Z " fill="#FDC5A3" transform="translate(346,394)"/>
<path d="M0 0 C0.99 0 1.98 0 3 0 C3.47308594 0.88300781 3.94617188 1.76601563 4.43359375 2.67578125 C8.90262205 10.8465098 13.88761788 17.93399435 20 25 C21.34008477 26.66124302 22.67541656 28.32637093 24 30 C23.5875 30.3717334 23.175 30.7434668 22.75 31.12646484 C6.73161692 45.62971627 -5.02698851 59.89797916 -11 81 C-31.23564485 80.5391468 -50.7305346 73.635387 -68.4140625 64.19921875 C-70.96773124 63.01496452 -73.22756977 62.42537287 -76 62 C-75.48944486 58.62423987 -74.78427639 55.32263331 -74 52 C-73.60941406 50.29070312 -73.60941406 50.29070312 -73.2109375 48.546875 C-72.1562837 44.95622159 -71.08973669 42.10988772 -69 39 C-66.05446479 37.60600278 -63.41911031 37.28415796 -60.19140625 36.83984375 C-41.45720451 33.78641519 -23.15356574 20.95862774 -9 9 C-8.30777344 8.43023437 -7.61554688 7.86046875 -6.90234375 7.2734375 C-4.08218959 4.92234389 -2.06161283 3.09241924 0 0 Z " fill="#FC95BF" transform="translate(271,289)"/>
<path d="M0 0 C21.66007947 3.95304618 37.66877625 13.90003348 51.19921875 31.15625 C52.625 33.25 52.625 33.25 53.625 36.25 C52.99223145 36.28440186 52.35946289 36.31880371 51.70751953 36.35424805 C26.55070403 37.8216152 6.01539666 42.99582068 -14.375 58.25 C-16.36045659 59.60699553 -18.36586883 60.92820317 -20.375 62.25 C-25.88422965 40.90173511 -19.45416761 22.97303766 -8.875 4.65234375 C-6.36805267 1.06997299 -4.25312295 -0.19139053 0 0 Z " fill="#FB6C01" transform="translate(308.375,140.75)"/>
<path d="M0 0 C1.64355469 0.63615234 1.64355469 0.63615234 3.3203125 1.28515625 C25.78858481 9.70379531 49.16957356 14.54204835 73 17 C73.04898438 18.30195313 73.09796875 19.60390625 73.1484375 20.9453125 C73.22350629 22.67189471 73.29905233 24.39845622 73.375 26.125 C73.4059375 26.9809375 73.436875 27.836875 73.46875 28.71875 C73.50742187 29.55664062 73.54609375 30.39453125 73.5859375 31.2578125 C73.6173584 32.0223877 73.6487793 32.78696289 73.68115234 33.57470703 C74.00847276 36.65832741 74.00847276 36.65832741 76 42 C40.36 42.495 40.36 42.495 4 43 C0.76286424 28.43288906 -0.30937114 14.84981493 0 0 Z " fill="#FD95BF" transform="translate(184,432)"/>
<path d="M0 0 C3.03548232 1.62759244 6.00087067 3.3373304 8.95703125 5.10546875 C21.275235 12.26824572 33.76426402 17.20715981 47.64453125 20.41796875 C47.55888916 21.01222656 47.47324707 21.60648437 47.38500977 22.21875 C46.99158836 24.95171385 46.59930279 27.68483963 46.20703125 30.41796875 C46.0049707 31.81982422 46.0049707 31.81982422 45.79882812 33.25 C45.02703125 38.63375382 44.3003224 44.01883388 43.64453125 49.41796875 C30.50757196 50.49560994 30.50757196 50.49560994 26.25390625 48.03515625 C24.9972769 46.81548658 23.76311716 45.57229983 22.55078125 44.30859375 C16.12390949 37.93440127 8.42618214 36.95583052 -0.23046875 36.91796875 C-7.26521909 37.00725546 -13.69681736 37.87538434 -20.5 39.75 C-24.79947397 40.7557593 -28.96930027 40.6852973 -33.35546875 40.41796875 C-27.51579433 24.7911305 -19.24535359 13.13761788 -6.35546875 2.41796875 C-5.700625 1.79792969 -5.04578125 1.17789062 -4.37109375 0.5390625 C-2.35546875 -0.58203125 -2.35546875 -0.58203125 0 0 Z " fill="#FB6C02" transform="translate(308.35546875,329.58203125)"/>
<path d="M0 0 C7.69361372 2.56453791 13.67481681 7.01652134 17.5625 14.1875 C20.52436848 20.81644374 20.34885757 26.64209862 17.875 33.3125 C14.15310675 42.65552422 7.56244128 46.60268962 -1.15234375 50.6015625 C-7.98064977 53.37349479 -14.79613666 53.47428823 -21.875 51.51171875 C-28.14447817 48.8163181 -32.55821084 43.66192132 -35.3125 37.5 C-37.46972427 30.84748205 -37.61271297 23.6032813 -35.05078125 17.07421875 C-32.23338223 11.81232095 -27.61856483 10.70143317 -22.1875 9 C-15.99221316 6.94797461 -10.5075201 4.9505656 -5.14526367 1.16552734 C-3.4375 0.1875 -3.4375 0.1875 0 0 Z " fill="#FCD1BA" transform="translate(445.4375,336.8125)"/>
<path d="M0 0 C1.0113501 0.01160156 2.0227002 0.02320313 3.06469727 0.03515625 C17.10523311 0.34296843 27.37489157 4.86360007 39.5625 11.375 C40.47386289 32.05787457 35.60814028 49.37030795 22.26171875 65.6796875 C20.5625 67.375 20.5625 67.375 18.5625 67.375 C18.3665625 66.53839844 18.170625 65.70179688 17.96875 64.83984375 C13.92473733 49.09957031 6.13475143 36.60819813 -4.4375 24.375 C-5.09363281 23.61574219 -5.74976563 22.85648438 -6.42578125 22.07421875 C-12.26097989 15.8391778 -19.42724594 11.17978087 -26.4375 6.375 C-19.02078415 0.23147092 -9.25800929 -0.13705187 0 0 Z " fill="#FC7C26" transform="translate(457.4375,191.625)"/>
<path d="M0 0 C1.32 0 2.64 0 4 0 C3.99333817 1.03878548 3.99333817 1.03878548 3.98654175 2.09855652 C3.94592651 8.72897673 3.91574866 15.35936064 3.89637566 21.98987865 C3.88608004 25.39605847 3.87219299 28.80213282 3.84912109 32.20825195 C3.74824297 48.30424615 4.14884659 64.00282784 6 80 C-7.86 80 -21.72 80 -36 80 C-36 70.43 -36 60.86 -36 51 C-32.37 50.01 -28.74 49.02 -25 48 C-13.68192116 42.98312108 -6.53472147 36.64890547 -1.33203125 25.390625 C0.50248913 20.30400031 0.33127777 15.34558387 0.1875 10 C0.17396484 9.03449219 0.16042969 8.06898438 0.14648438 7.07421875 C0.11145458 4.71554575 0.06234084 2.35808229 0 0 Z " fill="#FCA873" transform="translate(346,394)"/>
<path d="M0 0 C2.4375 1.4375 2.4375 1.4375 4 4 C4.21848153 6.36548276 4.18865641 8.60618485 4.04296875 10.9765625 C3.84123564 13.07088974 3.84123564 13.07088974 5 15 C7.83073436 15.50169415 7.83073436 15.50169415 11 15 C11.639375 14.030625 12.27875 13.06125 12.9375 12.0625 C15 9 15 9 18.4375 7.875 C22 8 22 8 24.875 9.25 C28.11288094 13.44019886 27.90198911 17.83215283 28 23 C29.65 23.33 31.3 23.66 33 24 C33.3403125 23.4946875 33.680625 22.989375 34.03125 22.46875 C37.8817269 17.30747245 37.8817269 17.30747245 41.07421875 16.4296875 C43.97141535 16.35471384 46.39834907 16.69917453 49 18 C50.66066313 21.32132626 50.68106087 24.43752776 50 28 C47.86085194 32.91211778 44.3248056 36.21234757 39.4375 38.33203125 C33.50360148 39.95814767 27.06296649 40.4804338 21.421875 37.75390625 C18.11695069 35.37031875 16.30768329 33.92304986 15 30 C14.01 30.33 13.02 30.66 12 31 C4.94075445 31.47061637 0.39322856 30.13063189 -5.6875 26.3125 C-10.19759623 21.80240377 -12.22787052 17.20619908 -12.4375 10.8125 C-12.27149251 6.81602347 -11.63645896 4.1434703 -9 1 C-5.90826248 -0.54586876 -3.40570448 -0.29359521 0 0 Z " fill="#040200" transform="translate(349,257)"/>
<path d="M0 0 C0.2928186 0.79096069 0.2928186 0.79096069 0.59155273 1.59790039 C5.33256554 14.2648859 10.43327519 26.49674659 18.76171875 37.28125 C20 39 20 39 20 41 C12.18151608 43.90920332 3.00234317 44.62554135 -4.8125 41.375 C-6.23292991 40.62836376 -7.63021735 39.835932 -9 39 C-10.04800781 38.36384766 -10.04800781 38.36384766 -11.1171875 37.71484375 C-18.34678253 32.81781617 -23.01806418 25.81213042 -25.54296875 17.484375 C-26.42580289 12.68537914 -26.22185639 7.8561898 -26 3 C-24.81921875 2.86722656 -23.6384375 2.73445312 -22.421875 2.59765625 C-20.86456738 2.4194102 -19.30727658 2.24101707 -17.75 2.0625 C-16.58404297 1.93198242 -16.58404297 1.93198242 -15.39453125 1.79882812 C-14.26337891 1.66831055 -14.26337891 1.66831055 -13.109375 1.53515625 C-12.07248535 1.41732788 -12.07248535 1.41732788 -11.01464844 1.29711914 C-8.97427276 1.03124087 -8.97427276 1.03124087 -6.91503906 0.47045898 C-4.57167711 -0.10522415 -2.40340224 -0.06676117 0 0 Z " fill="#FAD0B9" transform="translate(43,237)"/>
<path d="M0 0 C4.33460571 2.49217577 7.37862946 5.88225892 9.625 10.375 C10.17064863 14.46736475 9.97823174 15.91075256 7.4375 19.25 C4.625 21.375 4.625 21.375 2.0625 21.9375 C-2.25523333 20.9411 -4.00894579 17.92408131 -6.375 14.375 C-9.45865871 14.1247843 -9.45865871 14.1247843 -12.375 14.375 C-12.98776952 17.26377058 -13.44551409 20.05663621 -13.75 23 C-14.375 26.375 -14.375 26.375 -15.4375 28.3125 C-18.62153475 30.05858357 -21.84359744 30.05326521 -25.375 29.375 C-28.84311265 26.13063655 -29.56178302 22.29881605 -29.75 17.6875 C-29.67568558 11.31503835 -27.24020707 7.2545331 -22.8125 2.8046875 C-16.47564148 -2.7400637 -7.66353942 -3.51792953 0 0 Z " fill="#040303" transform="translate(143.375,227.625)"/>
<path d="M0 0 C4.25787692 3.2440967 8.82723391 6.79753898 10.171875 12.1953125 C10.27778635 15.06551002 9.91286119 17.42427763 8.625 20 C5.33358009 21.64570995 2.14210366 21.89312278 -1.375 21 C-3.0893618 19.04072937 -4.75905168 17.04119788 -6.375 15 C-9.58660696 14.49734308 -9.58660696 14.49734308 -12.375 15 C-12.98776952 17.88877058 -13.44551409 20.68163621 -13.75 23.625 C-14.375 27 -14.375 27 -15.5 28.9375 C-18.55952459 30.6712306 -20.94317525 30.42145216 -24.375 30 C-27.28217073 27.78136971 -28.21481643 26.48055071 -29.375 23 C-30.16590302 16.63888 -29.62425161 12.0290393 -25.87890625 6.7578125 C-18.83207597 -1.47874237 -10.42975895 -3.09029895 0 0 Z " fill="#050403" transform="translate(248.375,188)"/>
<path d="M0 0 C5.57780027 2.58969298 8.83858042 6.91225774 12.3125 11.875 C13.88099522 16.72307613 13.50756982 21.2931907 11.625 25.9375 C10 29 10 29 8 30 C4.29896191 30.34268871 1.88403875 30.51181191 -1.375 28.625 C-3.83094863 24.65769836 -3.8248355 20.58930989 -4 16 C-6.40048426 15.74956274 -6.40048426 15.74956274 -9 16 C-9.78375 16.99 -10.5675 17.98 -11.375 19 C-14 22 -14 22 -17.5625 22.625 C-21 22 -21 22 -23.4375 20.375 C-25.49629933 17.24562501 -25.59064006 15.69150037 -25 12 C-19.27023409 1.20159501 -11.6302155 -1.00700646 0 0 Z " fill="#060300" transform="translate(329,226)"/>
<path d="M0 0 C4.69791048 2.72135058 7.64631746 6.59719048 9.75 11.5625 C10.60495297 16.70748481 10.46818143 21.98451022 7.75 26.5625 C4.05513897 29.02574069 2.11706908 28.95241688 -2.25 28.5625 C-3.92578125 27.4296875 -3.92578125 27.4296875 -5.25 25.5625 C-5.76171875 22.64453125 -5.76171875 22.64453125 -5.9375 19.375 C-6.00324219 18.28832031 -6.06898438 17.20164062 -6.13671875 16.08203125 C-6.17410156 15.25058594 -6.21148437 14.41914063 -6.25 13.5625 C-9.1542893 13.67042821 -9.1542893 13.67042821 -12.25 14.5625 C-14.03969026 16.98922567 -14.03969026 16.98922567 -15.25 19.5625 C-18.37860495 21.12680248 -20.80602925 20.91877284 -24.25 20.5625 C-26.75 18.5 -26.75 18.5 -28.25 15.5625 C-28.41726431 11.04636367 -27.35578079 8.29204326 -24.625 4.8125 C-18.10165624 -2.06638145 -8.69656352 -3.62495382 0 0 Z " fill="#040201" transform="translate(431.25,263.4375)"/>
<path d="M0 0 C4.15208249 0.7626274 5.62045207 2.15843318 8.0625 5.5625 C8.45857295 11.37156991 4.60421249 16.23831615 1.0625 20.5625 C-6.51264859 26.5916999 -13.48092712 27.34757397 -22.9375 26.5625 C-26.5625 25.25 -26.5625 25.25 -28.9375 23.5625 C-29.55625 23.15 -30.175 22.7375 -30.8125 22.3125 C-32.70701984 19.36546913 -32.35402121 16.95417268 -31.9375 13.5625 C-30.3125 11.125 -30.3125 11.125 -27.9375 9.5625 C-24.79227278 9.24797728 -22.77833641 9.14208179 -19.9375 10.5625 C-16.84361396 10.64611854 -13.93201987 10.34996766 -10.9375 9.5625 C-8.54086043 7.33762121 -8.54086043 7.33762121 -6.9375 4.5625 C-4.62593462 1.71156937 -3.63933795 0.6968945 0 0 Z " fill="#060404" transform="translate(203.9375,227.4375)"/>
<path d="M0 0 C0 8.58 0 17.16 0 26 C-15.26785714 26.66964286 -15.26785714 26.66964286 -18.8125 23.75 C-22.8230152 18.70820946 -23.27188368 15.14508937 -23.125 8.75 C-23.11597656 8.00492187 -23.10695313 7.25984375 -23.09765625 6.4921875 C-23.07418358 4.66131941 -23.03831525 2.83061762 -23 1 C-19.72922836 0.83210783 -16.45837336 0.66589762 -13.1875 0.5 C-12.25873047 0.45230469 -11.32996094 0.40460938 -10.37304688 0.35546875 C-9.0340332 0.28779297 -9.0340332 0.28779297 -7.66796875 0.21875 C-6.84578857 0.17685547 -6.0236084 0.13496094 -5.17651367 0.09179688 C-3.45227071 0.01907502 -1.72577585 0 0 0 Z " fill="#FB6C01" transform="translate(295,448)"/>
<path d="M0 0 C1.32 0 2.64 0 4 0 C3.67 13.86 3.34 27.72 3 42 C2.67 42 2.34 42 2 42 C1.97494385 40.90534424 1.9498877 39.81068848 1.92407227 38.68286133 C1.82969992 34.61064517 1.72955269 30.53858774 1.62768555 26.46655273 C1.58444931 24.70617392 1.5427665 22.94575622 1.50268555 21.18530273 C1.44470815 18.65075987 1.38109373 16.11641066 1.31640625 13.58203125 C1.29969376 12.79850784 1.28298126 12.01498444 1.26576233 11.2077179 C1.16229193 7.3667745 0.91421816 3.73820878 0 0 Z " fill="#FEAF7E" transform="translate(346,394)"/>
</svg>
