<?xml version="1.0" encoding="UTF-8"?>
<svg version="1.1" xmlns="http://www.w3.org/2000/svg" width="512" height="512">
<path d="M0 0 C1.18041831 -0.00644889 2.36083662 -0.01289778 3.57702518 -0.0195421 C5.52407348 -0.01489629 5.52407348 -0.01489629 7.51045609 -0.01015663 C8.9023918 -0.01389241 10.29432542 -0.01849364 11.68625569 -0.02388728 C15.51552933 -0.03614196 19.34471577 -0.03585391 23.17400455 -0.03349853 C27.30229228 -0.03309098 31.43055181 -0.04412366 35.55882645 -0.05361366 C43.64896619 -0.07023867 51.73907679 -0.07572391 59.82923219 -0.07683842 C66.40516002 -0.07778828 72.98107823 -0.08189548 79.55700302 -0.08823967 C98.19693461 -0.10585697 116.83684315 -0.1150779 135.47678313 -0.11357872 C136.98464478 -0.11345885 136.98464478 -0.11345885 138.52296829 -0.11333656 C139.5294356 -0.1132548 140.5359029 -0.11317304 141.57286921 -0.1130888 C157.88229634 -0.11227599 174.19163108 -0.13141114 190.50103149 -0.1596133 C207.24346707 -0.18833598 223.9858576 -0.2021539 240.72831845 -0.20042574 C250.12947949 -0.19976158 259.53054372 -0.2052653 268.93168259 -0.22678185 C276.93680308 -0.24498565 284.9417829 -0.24934766 292.94691512 -0.235763 C297.03096989 -0.22922898 301.11475472 -0.22913155 305.19878387 -0.2464695 C308.9395298 -0.26218666 312.67979145 -0.25935086 316.42052546 -0.24190123 C318.41068775 -0.23737544 320.40086497 -0.25249944 322.39096904 -0.26838052 C330.36589084 -0.20678577 336.39354041 0.44324885 342.31007767 6.29242516 C342.76511673 6.96144859 343.22015579 7.63047203 343.68898392 8.31976891 C344.16206985 8.99137047 344.63515579 9.66297203 345.12257767 10.35492516 C347.44311845 14.26531741 347.37503969 17.5805325 347.37173843 22.03392601 C347.37302007 23.07295145 347.37302007 23.07295145 347.3743276 24.13296729 C347.37597763 26.45917664 347.37046881 28.78531423 347.36500931 31.11151695 C347.36472731 32.7769629 347.36488542 34.44240897 347.36545181 36.10785484 C347.36573929 40.63440318 347.35985062 45.16092514 347.35287786 49.68746734 C347.346636 54.41604018 347.34603986 59.1446136 347.34485245 63.87318993 C347.34174159 72.82979399 347.3335315 81.78638589 347.32350296 90.74298459 C347.31233421 100.93874727 347.30682945 111.13451053 347.30180752 121.3302778 C347.2913487 142.3059483 347.27375399 163.28160784 347.25148392 184.25726891 C349.15307518 184.2493457 349.15307518 184.2493457 351.09308243 184.24126244 C382.15213801 184.11185125 412.59791379 201.42595823 434.12648392 222.63226891 C450.23506274 239.02779543 461.18299017 259.1309271 467.25148392 281.25726891 C467.59050735 282.43160484 467.92953079 283.60594078 468.27882767 284.81586266 C473.09714879 305.08833817 471.87981921 329.31634455 466.25148392 349.25726891 C466.08019974 349.90824547 465.90891556 350.55922203 465.73244095 351.22992516 C460.15131012 372.11761556 447.8997883 389.70834545 433.25148392 405.25726891 C432.65206985 405.92113609 432.05265579 406.58500328 431.43507767 407.26898766 C415.30013176 424.44939442 392.84600746 435.32137152 370.12648392 440.56976891 C369.44738968 440.72929039 368.76829544 440.88881187 368.06862259 441.05316734 C361.20329369 442.51686613 354.24597887 442.85185392 347.25148392 443.25726891 C347.28290482 444.73936852 347.28290482 444.73936852 347.31496048 446.25140953 C347.387854 449.94885082 347.43346086 453.64622977 347.47121048 457.34418297 C347.49121445 458.93869299 347.51842692 460.53313069 347.55324173 462.12738609 C347.90723806 478.76521382 347.90723806 478.76521382 343.25148392 485.25726891 C341.21632767 487.31586266 341.21632767 487.31586266 339.18898392 488.69476891 C338.51738235 489.16785484 337.84578079 489.64094078 337.15382767 490.12836266 C333.59679864 492.2392074 330.67089807 492.38505262 326.62601566 492.39428329 C325.4475884 492.39935784 324.26916114 492.40443238 323.05502397 492.4096607 C321.10360641 492.41040733 321.10360641 492.41040733 319.11276627 492.41116905 C317.72169487 492.41518355 316.33062464 492.41962176 314.93955582 492.42444861 C311.10804767 492.43642128 307.2765521 492.44206416 303.4450289 492.44662976 C299.31604728 492.4525832 295.18708074 492.46419366 291.05810928 492.47492027 C281.08222951 492.49944972 271.10634474 492.51407197 261.13044408 492.52698034 C258.31335569 492.53069179 255.4962678 492.53466506 252.67917991 492.53873301 C235.18959306 492.56396839 217.70000544 492.58602391 200.2104044 492.59846115 C196.15874923 492.6013909 192.1070941 492.60435256 188.055439 492.60736656 C186.54488979 492.60848564 186.54488979 492.60848564 185.00382444 492.60962732 C168.68785362 492.62228291 152.37199174 492.65550846 136.05607186 492.69716839 C119.30915374 492.7395787 102.5622914 492.76315512 85.81531972 492.76838171 C76.41075563 492.77179679 67.00636178 492.78356341 57.60185051 492.81648445 C49.59303564 492.84447367 41.5844259 492.85548925 33.57556591 492.84428899 C29.48942735 492.83909948 25.40371846 492.84200773 21.31764221 492.86675453 C17.57492941 492.88923254 13.83295527 492.88851918 10.09022965 492.86955066 C8.09900451 492.86542374 6.10777499 492.88590709 4.11666089 492.90733755 C-3.12481294 492.84308356 -8.20938313 492.14886426 -13.74851608 487.25726891 C-18.75011582 481.86080603 -20.04661325 477.81644436 -20.0085783 470.54096413 C-20.01238397 469.75534013 -20.01618964 468.96971614 -20.02011064 468.16028535 C-20.03046691 465.51174074 -20.02651284 462.86340884 -20.02267075 460.21484947 C-20.02712096 458.30318929 -20.03243429 456.39153094 -20.03853947 454.47987533 C-20.05275589 449.21401325 -20.05438207 443.94821009 -20.05394256 438.68233156 C-20.05558756 433.0080184 -20.06864813 427.33372974 -20.08013535 421.65942955 C-20.103009 409.24630235 -20.11090847 396.83319222 -20.11596179 384.42004681 C-20.11921601 376.67230092 -20.12573681 368.92456001 -20.13296318 361.17681694 C-20.15253205 339.73420466 -20.16901591 318.29159923 -20.17183971 296.84897804 C-20.17193378 296.16299669 -20.17202784 295.47701535 -20.17212475 294.77024668 C-20.17250323 291.99021801 -20.17286723 289.21018933 -20.17322773 286.43016065 C-20.17349945 284.33769934 -20.17377613 282.24523803 -20.17405319 280.15277672 C-20.17414121 279.46134733 -20.17422924 278.76991793 -20.17431993 278.05753614 C-20.17722533 256.33273256 -20.19932008 234.60801796 -20.23557663 212.88324547 C-20.27629934 188.48167995 -20.29997866 164.08019092 -20.30029923 139.67858672 C-20.30088444 126.75626201 -20.30941756 113.83405181 -20.33829689 100.91175652 C-20.36277227 89.90927354 -20.37011962 78.90694683 -20.35504936 67.90444401 C-20.34786482 62.28927191 -20.34880461 56.67440862 -20.37145996 51.05927086 C-20.39199861 45.91958613 -20.38949726 40.78044864 -20.36858512 35.64077017 C-20.36508044 33.78072872 -20.37004143 31.92064819 -20.38428956 30.06065801 C-20.50782924 12.82346107 -20.50782924 12.82346107 -14.74851608 6.25726891 C-10.03415621 1.88786219 -6.43524812 0.00888062 0 0 Z " fill="#EAEDEF" transform="translate(30.748516082763672,9.742731094360352)"/>
<path d="M0 0 C1.18041831 -0.00644889 2.36083662 -0.01289778 3.57702518 -0.0195421 C5.52407348 -0.01489629 5.52407348 -0.01489629 7.51045609 -0.01015663 C8.9023918 -0.01389241 10.29432542 -0.01849364 11.68625569 -0.02388728 C15.51552933 -0.03614196 19.34471577 -0.03585391 23.17400455 -0.03349853 C27.30229228 -0.03309098 31.43055181 -0.04412366 35.55882645 -0.05361366 C43.64896619 -0.07023867 51.73907679 -0.07572391 59.82923219 -0.07683842 C66.40516002 -0.07778828 72.98107823 -0.08189548 79.55700302 -0.08823967 C98.19693461 -0.10585697 116.83684315 -0.1150779 135.47678313 -0.11357872 C136.98464478 -0.11345885 136.98464478 -0.11345885 138.52296829 -0.11333656 C139.5294356 -0.1132548 140.5359029 -0.11317304 141.57286921 -0.1130888 C157.88229634 -0.11227599 174.19163108 -0.13141114 190.50103149 -0.1596133 C207.24346707 -0.18833598 223.9858576 -0.2021539 240.72831845 -0.20042574 C250.12947949 -0.19976158 259.53054372 -0.2052653 268.93168259 -0.22678185 C276.93680308 -0.24498565 284.9417829 -0.24934766 292.94691512 -0.235763 C297.03096989 -0.22922898 301.11475472 -0.22913155 305.19878387 -0.2464695 C308.9395298 -0.26218666 312.67979145 -0.25935086 316.42052546 -0.24190123 C318.41068775 -0.23737544 320.40086497 -0.25249944 322.39096904 -0.26838052 C330.36589084 -0.20678577 336.39354041 0.44324885 342.31007767 6.29242516 C342.76511673 6.96144859 343.22015579 7.63047203 343.68898392 8.31976891 C344.16206985 8.99137047 344.63515579 9.66297203 345.12257767 10.35492516 C347.44311845 14.26531741 347.37503969 17.5805325 347.37173843 22.03392601 C347.37302007 23.07295145 347.37302007 23.07295145 347.3743276 24.13296729 C347.37597763 26.45917664 347.37046881 28.78531423 347.36500931 31.11151695 C347.36472731 32.7769629 347.36488542 34.44240897 347.36545181 36.10785484 C347.36573929 40.63440318 347.35985062 45.16092514 347.35287786 49.68746734 C347.346636 54.41604018 347.34603986 59.1446136 347.34485245 63.87318993 C347.34174159 72.82979399 347.3335315 81.78638589 347.32350296 90.74298459 C347.31233421 100.93874727 347.30682945 111.13451053 347.30180752 121.3302778 C347.2913487 142.3059483 347.27375399 163.28160784 347.25148392 184.25726891 C349.15307518 184.2493457 349.15307518 184.2493457 351.09308243 184.24126244 C382.15213801 184.11185125 412.59791379 201.42595823 434.12648392 222.63226891 C450.23506274 239.02779543 461.18299017 259.1309271 467.25148392 281.25726891 C467.59050735 282.43160484 467.92953079 283.60594078 468.27882767 284.81586266 C473.09714879 305.08833817 471.87981921 329.31634455 466.25148392 349.25726891 C466.08019974 349.90824547 465.90891556 350.55922203 465.73244095 351.22992516 C460.15131012 372.11761556 447.8997883 389.70834545 433.25148392 405.25726891 C432.65206985 405.92113609 432.05265579 406.58500328 431.43507767 407.26898766 C415.30013176 424.44939442 392.84600746 435.32137152 370.12648392 440.56976891 C369.44738968 440.72929039 368.76829544 440.88881187 368.06862259 441.05316734 C361.20329369 442.51686613 354.24597887 442.85185392 347.25148392 443.25726891 C347.28290482 444.73936852 347.28290482 444.73936852 347.31496048 446.25140953 C347.387854 449.94885082 347.43346086 453.64622977 347.47121048 457.34418297 C347.49121445 458.93869299 347.51842692 460.53313069 347.55324173 462.12738609 C347.90723806 478.76521382 347.90723806 478.76521382 343.25148392 485.25726891 C341.21632767 487.31586266 341.21632767 487.31586266 339.18898392 488.69476891 C338.51738235 489.16785484 337.84578079 489.64094078 337.15382767 490.12836266 C333.59679864 492.2392074 330.67089807 492.38505262 326.62601566 492.39428329 C325.4475884 492.39935784 324.26916114 492.40443238 323.05502397 492.4096607 C321.10360641 492.41040733 321.10360641 492.41040733 319.11276627 492.41116905 C317.72169487 492.41518355 316.33062464 492.41962176 314.93955582 492.42444861 C311.10804767 492.43642128 307.2765521 492.44206416 303.4450289 492.44662976 C299.31604728 492.4525832 295.18708074 492.46419366 291.05810928 492.47492027 C281.08222951 492.49944972 271.10634474 492.51407197 261.13044408 492.52698034 C258.31335569 492.53069179 255.4962678 492.53466506 252.67917991 492.53873301 C235.18959306 492.56396839 217.70000544 492.58602391 200.2104044 492.59846115 C196.15874923 492.6013909 192.1070941 492.60435256 188.055439 492.60736656 C186.54488979 492.60848564 186.54488979 492.60848564 185.00382444 492.60962732 C168.68785362 492.62228291 152.37199174 492.65550846 136.05607186 492.69716839 C119.30915374 492.7395787 102.5622914 492.76315512 85.81531972 492.76838171 C76.41075563 492.77179679 67.00636178 492.78356341 57.60185051 492.81648445 C49.59303564 492.84447367 41.5844259 492.85548925 33.57556591 492.84428899 C29.48942735 492.83909948 25.40371846 492.84200773 21.31764221 492.86675453 C17.57492941 492.88923254 13.83295527 492.88851918 10.09022965 492.86955066 C8.09900451 492.86542374 6.10777499 492.88590709 4.11666089 492.90733755 C-3.12481294 492.84308356 -8.20938313 492.14886426 -13.74851608 487.25726891 C-18.75011582 481.86080603 -20.04661325 477.81644436 -20.0085783 470.54096413 C-20.01238397 469.75534013 -20.01618964 468.96971614 -20.02011064 468.16028535 C-20.03046691 465.51174074 -20.02651284 462.86340884 -20.02267075 460.21484947 C-20.02712096 458.30318929 -20.03243429 456.39153094 -20.03853947 454.47987533 C-20.05275589 449.21401325 -20.05438207 443.94821009 -20.05394256 438.68233156 C-20.05558756 433.0080184 -20.06864813 427.33372974 -20.08013535 421.65942955 C-20.103009 409.24630235 -20.11090847 396.83319222 -20.11596179 384.42004681 C-20.11921601 376.67230092 -20.12573681 368.92456001 -20.13296318 361.17681694 C-20.15253205 339.73420466 -20.16901591 318.29159923 -20.17183971 296.84897804 C-20.17193378 296.16299669 -20.17202784 295.47701535 -20.17212475 294.77024668 C-20.17250323 291.99021801 -20.17286723 289.21018933 -20.17322773 286.43016065 C-20.17349945 284.33769934 -20.17377613 282.24523803 -20.17405319 280.15277672 C-20.17414121 279.46134733 -20.17422924 278.76991793 -20.17431993 278.05753614 C-20.17722533 256.33273256 -20.19932008 234.60801796 -20.23557663 212.88324547 C-20.27629934 188.48167995 -20.29997866 164.08019092 -20.30029923 139.67858672 C-20.30088444 126.75626201 -20.30941756 113.83405181 -20.33829689 100.91175652 C-20.36277227 89.90927354 -20.37011962 78.90694683 -20.35504936 67.90444401 C-20.34786482 62.28927191 -20.34880461 56.67440862 -20.37145996 51.05927086 C-20.39199861 45.91958613 -20.38949726 40.78044864 -20.36858512 35.64077017 C-20.36508044 33.78072872 -20.37004143 31.92064819 -20.38428956 30.06065801 C-20.50782924 12.82346107 -20.50782924 12.82346107 -14.74851608 6.25726891 C-10.03415621 1.88786219 -6.43524812 0.00888062 0 0 Z M-6.74851608 16.25726891 C-8.2445829 19.24940255 -7.88797099 22.31410663 -7.87994385 25.59530163 C-7.88199648 26.36432136 -7.88404912 27.13334109 -7.88616395 27.92566445 C-7.8918657 30.52968932 -7.89037281 33.13366183 -7.88895798 35.73769188 C-7.8915398 37.61263932 -7.89455244 39.4875862 -7.89796138 41.36253232 C-7.90605616 46.53607938 -7.90782232 51.70961259 -7.90855885 56.88316524 C-7.9104051 62.45451538 -7.91795024 68.02585825 -7.92469406 73.59720421 C-7.93829537 85.78918046 -7.94430486 97.98115342 -7.94870472 110.173136 C-7.95146404 117.78047267 -7.95570081 125.38780807 -7.96020889 132.99514389 C-7.97240377 154.04221865 -7.98273814 175.08929256 -7.98608398 196.13637066 C-7.98630562 197.49792123 -7.9865274 198.85947181 -7.98674934 200.22102238 C-7.98696998 201.58589898 -7.98719046 202.95077559 -7.98741078 204.31565219 C-7.98785334 207.05392222 -7.98830046 209.79219224 -7.98875046 212.53046227 C-7.98885985 213.20939612 -7.98896924 213.88832998 -7.98908195 214.58783759 C-7.99271349 236.60786106 -8.00863664 258.62785162 -8.03194082 280.64786248 C-8.05652307 303.91796774 -8.07024934 327.18805164 -8.0714519 350.4581725 C-8.07237003 363.14733472 -8.07815695 375.83645386 -8.09627151 388.52560425 C-8.11163942 399.32909982 -8.11681258 410.132539 -8.10853341 420.93604342 C-8.10461518 426.45151997 -8.1056135 431.96688287 -8.11959076 437.48234558 C-8.13225954 442.52746386 -8.13119437 447.57238225 -8.11900005 452.61749997 C-8.1170308 454.44659027 -8.12017758 456.27569439 -8.12884441 458.10476521 C-8.13985191 460.58399332 -8.13250985 463.06250534 -8.12045288 465.54171276 C-8.12804807 466.25798317 -8.13564327 466.97425359 -8.14346862 467.71222916 C-8.09752204 472.06473756 -7.42977626 474.80506462 -4.74851608 478.25726891 C-1.35833886 480.51738706 -0.21240288 480.50829618 3.76039314 480.5117445 C4.91280333 480.51757669 6.06521353 480.52340889 7.25254524 480.52941781 C8.52440905 480.52563849 9.79627287 480.52185917 11.10667801 480.51796532 C12.46688997 480.52098426 13.82710024 480.52487245 15.18730748 480.52955788 C18.9334248 480.53987992 22.67944687 480.53764542 26.42557216 480.53337729 C30.46247321 480.53091764 34.49935087 480.53991476 38.53624344 480.54741478 C46.44838362 480.56018535 54.36048991 480.56195252 62.27263866 480.55961452 C68.70225806 480.55783372 75.13186713 480.55957586 81.56148529 480.56383896 C82.93251398 480.56473174 82.93251398 480.56473174 84.33124021 480.56564256 C86.18789696 480.56685428 88.0445537 480.56806841 89.90121044 480.56928494 C107.32609786 480.58016969 124.75096594 480.57799364 142.17585446 480.57190009 C158.12523106 480.56673084 174.07454659 480.57798493 190.0239111 480.59699831 C206.39000561 480.61635931 222.7560712 480.62463572 239.12217724 480.62087506 C248.31476356 480.61896027 257.50729789 480.62147745 266.69987488 480.6355896 C274.52612678 480.6474823 282.35229471 480.64893214 290.17854773 480.63679943 C294.17306821 480.63089567 298.16743495 480.6298524 302.16194534 480.64180183 C305.81738818 480.65261002 309.47254796 480.64961816 313.12797727 480.63554015 C315.07963569 480.63161673 317.03130645 480.64248162 318.98293579 480.65383703 C320.14056147 480.64663048 321.29818716 480.63942394 322.49089241 480.63199902 C323.98929769 480.63208154 323.98929769 480.63208154 325.51797378 480.63216573 C328.73796609 480.1905486 330.62193713 479.13396481 333.25148392 477.25726891 C335.83019706 473.8080101 335.48112193 470.27310702 335.44679642 466.08539391 C335.44396652 465.4029763 335.44113663 464.7205587 335.43822098 464.01746178 C335.4270649 461.84721583 335.40196949 459.6773892 335.37648392 457.50726891 C335.36644817 456.03201447 335.35732336 454.55675353 335.34914017 453.08148766 C335.32714079 449.47327949 335.29264275 445.86531515 335.25148392 442.25726891 C334.12355423 442.18250328 332.99562454 442.10773766 331.83351517 442.03070641 C297.24762127 439.31531573 265.1257224 423.43623 242.39601517 396.99555016 C229.54843802 380.59090246 219.595481 361.71224417 215.25148392 341.25726891 C215.08011917 340.51162682 214.90875443 339.76598473 214.73219681 338.99774742 C213.1388124 331.40339721 212.91195224 323.93097813 212.93581009 316.20722008 C212.93895402 314.08990672 212.91547985 311.97401859 212.89015579 309.85687828 C212.73517879 276.51675658 227.86957235 245.66452746 250.50148392 221.69476891 C272.40590866 200.59788056 300.4326291 188.6407455 330.50050735 185.71893883 C331.3926796 185.63166023 332.28485184 185.54438164 333.2040596 185.45445824 C333.87970963 185.38938576 334.55535965 185.32431328 335.25148392 185.25726891 C335.34489545 163.56956874 335.41544755 141.88190172 335.4587326 120.19404125 C335.47936417 110.12414707 335.50749615 100.05437782 335.55324173 89.98456383 C335.59309127 81.20844668 335.61891241 72.43242 335.6278379 63.65621489 C335.63305584 59.00857544 335.64533222 54.36119485 335.67440414 49.71363831 C335.70154351 45.33961185 335.70993193 40.96595103 335.70391464 36.59184837 C335.70501555 34.98620874 335.71297839 33.38055694 335.72830582 31.77499008 C335.74821158 29.58237984 335.74342229 27.39114955 335.73250198 25.19850731 C335.73618916 23.97160085 335.73987633 22.74469439 335.74367523 21.48060894 C335.15453212 17.62233568 334.00729959 15.97634299 331.25148392 13.25726891 C328.14412946 12.22148409 326.00105406 12.12888395 322.74257469 12.12304783 C321.0139594 12.11636106 321.0139594 12.11636106 319.2504226 12.10953921 C317.97855878 12.10972357 316.70669497 12.10990794 315.39628983 12.11009789 C314.03607893 12.10679906 312.67586902 12.10307345 311.31566036 12.09895641 C307.56957063 12.08893075 303.82349692 12.08521872 300.07739568 12.0825671 C296.04049831 12.07866583 292.00361366 12.06908751 287.9667244 12.06035423 C278.21481185 12.04058692 268.46289827 12.03052421 258.7109707 12.02162644 C254.12114062 12.01724481 249.5313117 12.01187776 244.94148254 12.00663757 C229.68905057 11.9896266 214.43661931 11.97513097 199.18417931 11.96788883 C195.22565714 11.96597888 191.26713497 11.96405855 187.30861282 11.96210289 C186.32471801 11.96161915 185.34082319 11.96113541 184.32711338 11.96063701 C168.3777253 11.95233123 152.42841209 11.9269845 136.47905673 11.89452221 C120.1129665 11.86148256 103.74691436 11.84344296 87.38079059 11.84024459 C78.18817748 11.83807684 68.99567362 11.82928938 59.80309296 11.80378342 C51.97683228 11.7821188 44.15070737 11.7740051 36.32442011 11.7837502 C32.32984806 11.78830699 28.33555641 11.78632908 24.34102249 11.76698875 C20.6855178 11.74944232 17.03049982 11.75028464 13.37499057 11.76588605 C11.42331596 11.7694086 9.47163674 11.75317253 7.52003205 11.73628157 C6.36240636 11.74486247 5.20478068 11.75344336 4.01207542 11.76228428 C2.51367015 11.76081907 2.51367015 11.76081907 0.98499405 11.75932425 C-2.51117703 12.39619758 -4.19939641 13.83361035 -6.74851608 16.25726891 Z " fill="#222124" transform="translate(30.748516082763672,9.742731094360352)"/>
<path d="M0 0 C0.89976562 0.41765625 1.79953125 0.8353125 2.7265625 1.265625 C21.897013 10.87847338 36.59369895 28.66413767 44.3125 48.5 C44.90702198 50.32320075 45.46876644 52.15736377 46 54 C46.29777344 55.00804687 46.59554687 56.01609375 46.90234375 57.0546875 C52.1961237 77.79069191 49.33202399 99.86797442 40 119 C39.59394531 119.88558594 39.18789063 120.77117187 38.76953125 121.68359375 C29.1232846 141.17410383 11.10731083 155.28352935 -9 162.8125 C-32.55933063 170.54372158 -55.1097155 170.05036181 -77.73046875 159.68359375 C-101.42575317 147.48207931 -116.98503284 127.49372899 -125.08984375 102.4375 C-129.35364663 86.3338668 -129.40404351 65.4956856 -123 50 C-122.63777344 48.98679687 -122.27554687 47.97359375 -121.90234375 46.9296875 C-113.80932151 25.47632007 -96.02392773 7.80405465 -75.359375 -1.73046875 C-50.47487147 -12.58797055 -24.3286603 -11.58507633 0 0 Z " fill="#EAEDEF" transform="translate(411,244)"/>
<path d="M0 0 C9.71757055 8.62901578 18.33548635 17.79794515 25 29 C25.38236816 29.64018066 25.76473633 30.28036133 26.15869141 30.93994141 C32.22173517 41.24981924 36.04580809 51.44424531 39 63 C39.35191406 64.15242188 39.70382812 65.30484375 40.06640625 66.4921875 C44.32925875 82.50909774 43.59351964 102.16701742 39 118 C38.76893555 118.79857422 38.53787109 119.59714844 38.29980469 120.41992188 C29.43943002 150.40030913 11.73578354 176.50096702 -16.01074219 192.1328125 C-20.03278536 194.29809127 -24.11842071 196.29905337 -28.26953125 198.20410156 C-29.70013334 198.86208164 -31.11763288 199.54846799 -32.53125 200.2421875 C-58.24536628 211.92219102 -90.52842834 210.27785087 -116.54296875 200.79296875 C-128.79255063 196.03326928 -139.91700345 189.42570844 -150 181 C-150.99515625 180.16855469 -151.9903125 179.33710938 -153.015625 178.48046875 C-170.41703571 163.46666754 -181.09165904 144.6989857 -188 123 C-188.35964844 121.96359375 -188.71929687 120.9271875 -189.08984375 119.859375 C-194.81578351 101.8705857 -194.28383175 77.9906984 -189 60 C-188.67128906 58.80246094 -188.34257812 57.60492188 -188.00390625 56.37109375 C-179.07401881 26.73869911 -157.89061766 1.77516216 -130.93457031 -13.14306641 C-120.71891735 -18.51430635 -110.19767147 -22.26707836 -99 -25 C-97.51693359 -25.36931641 -97.51693359 -25.36931641 -96.00390625 -25.74609375 C-62.60178123 -32.61603436 -25.84530905 -21.54222595 0 0 Z M-141.40234375 30.9609375 C-155.762911 47.76172144 -163.61363652 66.8890795 -163.3125 89.125 C-163.31572266 90.32253906 -163.31894531 91.52007812 -163.32226562 92.75390625 C-163.2620424 102.75096137 -161.85719142 111.62295112 -158.25 120.9375 C-157.85421753 121.96653442 -157.85421753 121.96653442 -157.45043945 123.01635742 C-153.23103225 133.72600285 -147.63856865 142.37450124 -140 151 C-139.44699219 151.63679687 -138.89398438 152.27359375 -138.32421875 152.9296875 C-124.2921206 168.04117782 -102.2420353 178.19587388 -81.77734375 179.2734375 C-58.50403981 179.97018506 -37.33779774 173.50265199 -19 159 C-18.25621094 158.41992188 -17.51242187 157.83984375 -16.74609375 157.2421875 C0.39602614 142.9918687 10.14218855 121.87427646 13 100 C14.51673827 73.11128777 7.72940205 51.24897743 -9.6875 30.56640625 C-23.91764244 14.77383263 -45.1870681 3.6990181 -66.48706055 1.77539062 C-95.56428704 0.45435692 -121.15749928 9.79180705 -141.40234375 30.9609375 Z " fill="#2EAED1" transform="translate(447,233)"/>
<path d="M0 0 C0.80516556 -0.00525696 1.61033112 -0.01051392 2.43989563 -0.01593018 C5.10400739 -0.02914465 7.76752268 -0.02038713 10.43164062 -0.01025391 C12.28104772 -0.01227423 14.13045404 -0.01518532 15.9798584 -0.01895142 C19.85692933 -0.02337673 23.73379299 -0.01693707 27.61083984 -0.00292969 C32.58451586 0.01416233 37.55770625 0.00432225 42.53136444 -0.01364708 C46.35060292 -0.02447934 50.16972597 -0.02104115 53.9889679 -0.0132637 C55.82302406 -0.01126015 57.65709065 -0.0137264 59.49113464 -0.02070236 C62.05296658 -0.02830771 64.61400828 -0.01672592 67.17578125 0 C67.93639359 -0.00607269 68.69700592 -0.01214539 69.48066711 -0.0184021 C74.58928923 0.04349782 74.58928923 0.04349782 77.06677246 1.75619507 C78.08789062 3.38818359 78.08789062 3.38818359 78.33789062 5.88818359 C78.58539063 6.71318359 78.83289063 7.53818359 79.08789062 8.38818359 C81.40043074 9.43537157 83.73640542 10.43164724 86.08789062 11.38818359 C90.61763251 16.27553668 91.40801904 19.36743281 91.28710938 25.86865234 C91.00097003 29.48747346 90.1881277 31.39693685 88.08789062 34.38818359 C87.02779785 35.12403687 87.02779785 35.12403687 85.94628906 35.87475586 C82.36526574 38.56411155 79.60010389 41.08611962 78.59396362 45.60806274 C77.88710656 52.13820119 78.1131719 58.70804801 78.27539062 65.26318359 C78.32180153 68.23925269 78.35522905 71.21429031 78.36628723 74.19070435 C78.37583605 76.03509615 78.40718092 77.87953305 78.46269226 79.72311401 C78.47202286 80.55473053 78.48135345 81.38634705 78.4909668 82.24316406 C78.50923019 82.97324677 78.52749359 83.70332947 78.54631042 84.45553589 C78.08789062 86.38818359 78.08789062 86.38818359 76.55183411 88.12199402 C73.15084278 89.8697207 69.99800697 89.81506575 66.26171875 89.79223633 C65.08542152 89.8025312 65.08542152 89.8025312 63.88536072 89.81303406 C61.29643588 89.83131682 58.70811609 89.82746298 56.11914062 89.82177734 C54.31839806 89.82633809 52.51765723 89.83164334 50.71691895 89.83766174 C46.94418259 89.84659546 43.17165789 89.84416636 39.39892578 89.83422852 C34.56315314 89.82273197 29.72810996 89.84295927 24.89243317 89.87214565 C21.1743709 89.89048621 17.4564842 89.89021961 13.73838806 89.88450813 C11.95538814 89.88435469 10.17237649 89.89041803 8.38941956 89.90279961 C5.89716721 89.9176696 3.4062722 89.90706346 0.9140625 89.88989258 C0.17731796 89.89956055 -0.55942657 89.90922852 -1.3184967 89.91918945 C-4.5353475 89.87275382 -6.62157893 89.56969184 -9.36988831 87.85269165 C-11.50700906 84.43751893 -11.46432226 81.360033 -11.41381836 77.4543457 C-11.41922134 76.65878769 -11.42462433 75.86322968 -11.43019104 75.04356384 C-11.44268592 72.41717182 -11.42618438 69.79187428 -11.40820312 67.16552734 C-11.40835808 65.33997032 -11.40984649 63.51441297 -11.41261292 61.68885803 C-11.41399719 57.86477092 -11.40143292 54.04105874 -11.37866211 50.21704102 C-11.35025722 45.31175077 -11.35301983 40.40708261 -11.36575222 35.50174618 C-11.37270146 31.73310518 -11.36492912 27.96460838 -11.35249519 24.19598579 C-11.34797475 22.38705561 -11.34764906 20.57810999 -11.35156059 18.76917839 C-11.35446595 16.24333738 -11.33799961 13.71835904 -11.31616211 11.19262695 C-11.32066376 10.4429364 -11.32516541 9.69324585 -11.32980347 8.9208374 C-11.28991051 6.14855101 -11.18360673 3.90537137 -9.88136292 1.42466736 C-6.72048507 -0.23900799 -3.486204 -0.02783369 0 0 Z " fill="#232326" transform="translate(65.912109375,50.61181640625)"/>
<path d="M0 0 C0.80516556 -0.00525696 1.61033112 -0.01051392 2.43989563 -0.01593018 C5.10400739 -0.02914465 7.76752268 -0.02038713 10.43164062 -0.01025391 C12.28104772 -0.01227423 14.13045404 -0.01518532 15.9798584 -0.01895142 C19.85692933 -0.02337673 23.73379299 -0.01693707 27.61083984 -0.00292969 C32.58451586 0.01416233 37.55770625 0.00432225 42.53136444 -0.01364708 C46.35060292 -0.02447934 50.16972597 -0.02104115 53.9889679 -0.0132637 C55.82302406 -0.01126015 57.65709065 -0.0137264 59.49113464 -0.02070236 C62.05296658 -0.02830771 64.61400828 -0.01672592 67.17578125 0 C67.93639359 -0.00607269 68.69700592 -0.01214539 69.48066711 -0.0184021 C74.57178701 0.04328575 74.57178701 0.04328575 77.07067871 1.71322632 C78.60689079 4.2427775 78.28022773 6.50312701 78.08789062 9.38818359 C79.41820312 9.48099609 79.41820312 9.48099609 80.77539062 9.57568359 C85.94045192 10.84258542 88.22083194 14.08759557 91.08789062 18.38818359 C92.17752265 23.85297934 92.29806615 28.54316189 89.18164062 33.29443359 C86.44158387 36.31917157 83.59098774 39.12083528 80.47058105 41.75183105 C78.71100184 43.83421469 78.71054074 44.92777823 78.703125 47.62841797 C78.69301392 48.47940063 78.68290283 49.3303833 78.67248535 50.20715332 C78.67550659 51.12283081 78.67852783 52.0385083 78.68164062 52.98193359 C78.66538635 54.3965387 78.66538635 54.3965387 78.64880371 55.83972168 C78.61449016 58.85594551 78.59893617 61.87179005 78.58789062 64.88818359 C78.57335636 68.85730046 78.53974421 72.82556573 78.49414062 76.79443359 C78.49716187 77.71011108 78.50018311 78.62578857 78.5032959 79.56921387 C78.49318481 80.42019653 78.48307373 81.2711792 78.47265625 82.14794922 C78.47060181 82.89612915 78.46854736 83.64430908 78.46643066 84.41516113 C78.08789062 86.38818359 78.08789062 86.38818359 77.05834961 88.12794495 C73.96281914 90.10774111 70.73542749 89.81330393 67.17578125 89.79223633 C66.37061569 89.79909958 65.56545013 89.80596283 64.73588562 89.81303406 C62.07179176 89.83135041 59.408284 89.82745815 56.74414062 89.82177734 C54.89473274 89.82633652 53.04532656 89.83164129 51.19592285 89.83766174 C47.31885904 89.8466021 43.44200112 89.84415886 39.56494141 89.83422852 C34.59116574 89.82273187 29.61809928 89.84295614 24.64441681 89.87214565 C20.82516958 89.8904712 17.0060935 89.8902226 13.18681335 89.88450813 C11.35274764 89.8843545 9.51867063 89.89043326 7.68464661 89.90279961 C5.12264185 89.91764107 2.56196262 89.90708438 0 89.88989258 C-0.76061234 89.89956055 -1.52122467 89.90922852 -2.30488586 89.91918945 C-5.38937677 89.87574216 -7.40771675 89.78127718 -9.88235474 87.85269165 C-11.32669136 84.39596603 -11.3302151 81.13834083 -11.30029297 77.4543457 C-11.30554993 76.65878769 -11.31080688 75.86322968 -11.31622314 75.04356384 C-11.32941304 72.41735121 -11.32068965 69.791746 -11.31054688 67.16552734 C-11.3125677 65.33996972 -11.31547922 63.51441289 -11.31924438 61.68885803 C-11.32366619 57.86484076 -11.31724055 54.04103383 -11.30322266 50.21704102 C-11.28611871 45.31177274 -11.29598045 40.40699646 -11.31394005 35.50174618 C-11.32477143 31.73312155 -11.32133473 27.96461392 -11.31355667 24.19598579 C-11.3115535 22.3870494 -11.31401803 20.57810243 -11.32099533 18.76917839 C-11.32860059 16.24337414 -11.31701965 13.71837139 -11.30029297 11.19262695 C-11.30636566 10.4429364 -11.31243835 9.69324585 -11.31869507 8.9208374 C-11.28461411 6.1478443 -11.18403303 3.90668236 -9.88235474 1.42466736 C-6.72078719 -0.23853332 -3.48664933 -0.02783724 0 0 Z " fill="#242325" transform="translate(65.912109375,264.61181640625)"/>
<path d="M0 0 C0.80516556 -0.00525696 1.61033112 -0.01051392 2.43989563 -0.01593018 C5.10400739 -0.02914465 7.76752268 -0.02038713 10.43164062 -0.01025391 C12.28104772 -0.01227423 14.13045404 -0.01518532 15.9798584 -0.01895142 C19.85692933 -0.02337673 23.73379299 -0.01693707 27.61083984 -0.00292969 C32.58451586 0.01416233 37.55770625 0.00432225 42.53136444 -0.01364708 C46.35060292 -0.02447934 50.16972597 -0.02104115 53.9889679 -0.0132637 C55.82302406 -0.01126015 57.65709065 -0.0137264 59.49113464 -0.02070236 C62.05296658 -0.02830771 64.61400828 -0.01672592 67.17578125 0 C67.93639359 -0.00607269 68.69700592 -0.01214539 69.48066711 -0.0184021 C74.58973529 0.04350322 74.58973529 0.04350322 77.07067871 1.76010132 C78.08789062 3.38818359 78.08789062 3.38818359 78.27539062 5.82568359 C78.80113567 8.47325574 78.80113567 8.47325574 80.78320312 9.38818359 C81.481875 9.69755859 82.18054688 10.00693359 82.90039062 10.32568359 C87.15888172 12.25997129 89.13029374 13.98359061 91.08789062 18.38818359 C91.93180506 24.3440855 91.60752549 29.37537029 88.08789062 34.38818359 C87.38188721 34.87875244 86.67588379 35.36932129 85.94848633 35.87475586 C82.36816024 38.56547521 79.60643211 41.09089226 78.58682251 45.60806274 C77.85655066 52.13752869 78.06722487 58.70608261 78.21289062 65.26318359 C78.24655574 68.23917955 78.26746022 71.21452358 78.2729187 74.19070435 C78.27965753 76.03500478 78.30448948 77.87934805 78.34939575 79.72311401 C78.35865082 80.55473053 78.36790588 81.38634705 78.37744141 82.24316406 C78.40150558 83.33828812 78.40150558 83.33828812 78.42605591 84.45553589 C78.08789062 86.38818359 78.08789062 86.38818359 77.06430054 88.12199402 C73.96577692 90.10706719 70.74037786 89.81333322 67.17578125 89.79223633 C66.37061569 89.79909958 65.56545013 89.80596283 64.73588562 89.81303406 C62.07179176 89.83135041 59.408284 89.82745815 56.74414062 89.82177734 C54.89473274 89.82633652 53.04532656 89.83164129 51.19592285 89.83766174 C47.31885904 89.8466021 43.44200112 89.84415886 39.56494141 89.83422852 C34.59116574 89.82273187 29.61809928 89.84295614 24.64441681 89.87214565 C20.82516958 89.8904712 17.0060935 89.8902226 13.18681335 89.88450813 C11.35274764 89.8843545 9.51867063 89.89043326 7.68464661 89.90279961 C5.12264185 89.91764107 2.56196262 89.90708438 0 89.88989258 C-0.76061234 89.89956055 -1.52122467 89.90922852 -2.30488586 89.91918945 C-5.38937677 89.87574216 -7.40771675 89.78127718 -9.88235474 87.85269165 C-11.32669136 84.39596603 -11.3302151 81.13834083 -11.30029297 77.4543457 C-11.30554993 76.65878769 -11.31080688 75.86322968 -11.31622314 75.04356384 C-11.32941304 72.41735121 -11.32068965 69.791746 -11.31054688 67.16552734 C-11.3125677 65.33996972 -11.31547922 63.51441289 -11.31924438 61.68885803 C-11.32366619 57.86484076 -11.31724055 54.04103383 -11.30322266 50.21704102 C-11.28611871 45.31177274 -11.29598045 40.40699646 -11.31394005 35.50174618 C-11.32477143 31.73312155 -11.32133473 27.96461392 -11.31355667 24.19598579 C-11.3115535 22.3870494 -11.31401803 20.57810243 -11.32099533 18.76917839 C-11.32860059 16.24337414 -11.31701965 13.71837139 -11.30029297 11.19262695 C-11.30636566 10.4429364 -11.31243835 9.69324585 -11.31869507 8.9208374 C-11.28461411 6.1478443 -11.18403303 3.90668236 -9.88235474 1.42466736 C-6.72078719 -0.23853332 -3.48664933 -0.02783724 0 0 Z " fill="#232326" transform="translate(65.912109375,157.61181640625)"/>
<path d="M0 0 C0.78419815 -0.00540298 1.5683963 -0.01080597 2.37635803 -0.01637268 C4.96548339 -0.02886793 7.55349847 -0.01236438 10.14257812 0.00561523 C11.94331928 0.00546026 13.74406077 0.00397161 15.5447998 0.00120544 C19.3176143 -0.0001789 23.0900488 0.01238534 26.86279297 0.03515625 C31.6984854 0.06354106 36.53354643 0.06080407 41.36928558 0.04806614 C45.08735546 0.04111065 48.80527944 0.04889675 52.52333069 0.06132317 C54.3063145 0.06583893 56.08931396 0.06617337 57.87229919 0.06225777 C60.36441139 0.0593468 62.85565395 0.07584641 65.34765625 0.09765625 C66.45277306 0.09090378 66.45277306 0.09090378 67.58021545 0.08401489 C70.68816561 0.12920014 72.88630364 0.3475688 75.64733887 1.82774353 C77.17382812 3.50170898 77.17382812 3.50170898 77.42382812 6.68920898 C77.34132813 7.61733398 77.25882812 8.54545898 77.17382812 9.50170898 C77.85445313 9.54295898 78.53507812 9.58420898 79.23632812 9.62670898 C83.40095373 10.86723576 86.15009066 13.43732989 89.17382812 16.50170898 C90.44946197 19.05297667 90.37756108 20.96492985 90.42382812 23.81420898 C90.44960937 24.7590918 90.47539062 25.70397461 90.50195312 26.67749023 C90.10848268 30.06414655 89.11762508 31.71209478 87.17382812 34.50170898 C85.63912304 35.66289863 84.09418184 36.81064311 82.54101562 37.94702148 C77.60702291 42.76910509 77.32221011 47.10300259 77.18164062 53.68139648 C77.14708019 57.58270891 77.21218376 61.4764384 77.29882812 65.37670898 C77.33249324 68.35270494 77.35339772 71.32804897 77.3588562 74.30422974 C77.36559503 76.14853017 77.39042698 77.99287344 77.43533325 79.8366394 C77.44458832 80.66825592 77.45384338 81.49987244 77.46337891 82.35668945 C77.48744308 83.45181351 77.48744308 83.45181351 77.51199341 84.56906128 C77.17382812 86.50170898 77.17382812 86.50170898 76.15023804 88.23651123 C73.05058543 90.2207522 69.82612839 89.91835066 66.26171875 89.88989258 C65.45655319 89.89514954 64.65138763 89.90040649 63.82182312 89.90582275 C61.15771136 89.91903723 58.49419607 89.91027971 55.83007812 89.90014648 C53.98067103 89.90216681 52.13126471 89.9050779 50.28186035 89.90884399 C46.40478942 89.9132693 42.52792576 89.90682965 38.65087891 89.89282227 C33.67720289 89.87573025 28.7040125 89.88557032 23.73035431 89.90353966 C19.91111583 89.91437192 16.09199278 89.91093373 12.27275085 89.90315628 C10.43869469 89.90115273 8.6046281 89.90361898 6.77058411 89.91059494 C4.20875217 89.91820029 1.64771047 89.9066185 -0.9140625 89.88989258 C-1.67467484 89.89596527 -2.43528717 89.90203796 -3.21894836 89.90829468 C-6.01932299 89.87436323 -8.28979315 89.78402298 -10.79542542 88.46522522 C-12.43872406 85.33483021 -12.2509499 82.14879108 -12.23022461 78.69726562 C-12.23708786 77.90345993 -12.24395111 77.10965424 -12.25102234 76.29179382 C-12.26933966 73.66496955 -12.26544584 71.03873974 -12.25976562 68.41186523 C-12.26432521 66.5872732 -12.26963011 64.76268289 -12.27565002 62.93809509 C-12.28459091 59.11230497 -12.28214709 55.28672347 -12.2722168 51.4609375 C-12.26072827 46.55675845 -12.28093167 41.65329954 -12.31013393 36.74921513 C-12.32847577 32.98053915 -12.32820748 29.21203636 -12.32249641 25.44332695 C-12.32234294 23.63520739 -12.3284089 21.82707629 -12.34078789 20.0189991 C-12.35565762 17.49072165 -12.34505122 14.9637823 -12.32788086 12.43554688 C-12.33754883 11.68788055 -12.3472168 10.94021423 -12.35717773 10.16989136 C-12.31100304 6.92482441 -12.01864585 4.80928724 -10.28395081 2.03720093 C-6.89911162 -0.07746986 -3.8697359 -0.05078081 0 0 Z " fill="#252225" transform="translate(66.826171875,371.498291015625)"/>
<path d="M0 0 C19.80267029 15.82769227 34.32143344 38.86794835 37.5859375 64.31005859 C40.1533465 91.44020228 34.97305549 118.14407171 17.734375 139.9140625 C16.42676104 141.45987559 15.11475507 143.0019924 13.796875 144.5390625 C13.35214844 145.12816406 12.90742188 145.71726562 12.44921875 146.32421875 C-1.39947829 164.23858832 -26.06894588 175.70810081 -48.05859375 179.07421875 C-59.80751069 180.56431155 -71.62170169 179.90385574 -83.203125 177.5390625 C-84.58757812 177.29929687 -84.58757812 177.29929687 -86 177.0546875 C-100.13126334 174.16597621 -114.21641946 166.76576181 -125.203125 157.5390625 C-126.49089844 156.45818359 -126.49089844 156.45818359 -127.8046875 155.35546875 C-140.64949439 144.15991954 -149.76126108 131.35510833 -156.203125 115.5390625 C-156.57308594 114.64574219 -156.94304687 113.75242187 -157.32421875 112.83203125 C-161.56337248 101.97793435 -162.55425836 91.18047507 -162.453125 79.6015625 C-162.44490723 78.4563916 -162.43668945 77.3112207 -162.42822266 76.13134766 C-162.07248272 49.30549614 -151.57971457 26.31743155 -132.953125 6.8515625 C-121.14898231 -4.54328259 -105.3063389 -14.44183253 -89.203125 -18.4609375 C-88.19121094 -18.73679688 -87.17929687 -19.01265625 -86.13671875 -19.296875 C-55.72249159 -26.57492277 -24.52863964 -19.04388451 0 0 Z M-128.60546875 19.5 C-142.966036 36.30078394 -150.81676152 55.428142 -150.515625 77.6640625 C-150.51884766 78.86160156 -150.52207031 80.05914062 -150.52539062 81.29296875 C-150.4651674 91.29002387 -149.06031642 100.16201362 -145.453125 109.4765625 C-145.05734253 110.50559692 -145.05734253 110.50559692 -144.65356445 111.55541992 C-140.43415725 122.26506535 -134.84169365 130.91356374 -127.203125 139.5390625 C-126.65011719 140.17585937 -126.09710938 140.81265625 -125.52734375 141.46875 C-111.4952456 156.58024032 -89.4451603 166.73493638 -68.98046875 167.8125 C-45.70716481 168.50924756 -24.54092274 162.04171449 -6.203125 147.5390625 C-5.45933594 146.95898438 -4.71554687 146.37890625 -3.94921875 145.78125 C13.19290114 131.5309312 22.93906355 110.41333896 25.796875 88.5390625 C27.31361327 61.65035027 20.52627705 39.78803993 3.109375 19.10546875 C-11.12076744 3.31289513 -32.3901931 -7.7619194 -53.69018555 -9.68554688 C-82.76741204 -11.00658058 -108.36062428 -1.66913045 -128.60546875 19.5 Z " fill="#242428" transform="translate(434.203125,244.4609375)"/>
<path d="M0 0 C21.12 0 42.24 0 64 0 C61.47763435 5.04473131 58.06709627 8.3390065 54.125 12.3125 C53.40441406 13.06595703 52.68382812 13.81941406 51.94140625 14.59570312 C51.24144531 15.30275391 50.54148438 16.00980469 49.8203125 16.73828125 C49.18367676 17.38837158 48.54704102 18.03846191 47.89111328 18.70825195 C46 20 46 20 43.92138672 19.82885742 C41.23781967 18.67120683 39.25025152 16.84636022 37 15 C32.74591781 13.5819726 29.10855115 13.10241492 24.87109375 14.90625 C20.33003318 17.51547817 17.64593265 19.85646048 16 25 C15.42380941 30.37777883 16.23381606 33.40586994 19 38 C21.66643667 41.06830886 24.53388655 43.90733562 27.4375 46.75 C28.20126953 47.51699219 28.96503906 48.28398437 29.75195312 49.07421875 C35.99160025 55.41231677 35.99160025 55.41231677 44.375 57.375 C51.18132982 57.1751404 54.66780327 53.38978269 59.25 48.75 C59.91515625 48.04359375 60.5803125 47.3371875 61.265625 46.609375 C63 45 63 45 65 45 C65 51.6 65 58.2 65 65 C43.55 65 22.1 65 0 65 C0 43.55 0 22.1 0 0 Z " fill="#FA626D" transform="translate(67,384)"/>
<path d="M0 0 C21.12 0 42.24 0 64 0 C57.25 7.875 57.25 7.875 54.5703125 10.52734375 C54.003125 11.09130859 53.4359375 11.65527344 52.8515625 12.23632812 C52.28179687 12.79771484 51.71203125 13.35910156 51.125 13.9375 C50.53203125 14.52595703 49.9390625 15.11441406 49.328125 15.72070312 C47.88773534 17.14947674 46.4442033 18.57508132 45 20 C44.52949219 19.65066406 44.05898437 19.30132812 43.57421875 18.94140625 C42.95160156 18.48636719 42.32898438 18.03132813 41.6875 17.5625 C41.07261719 17.11003906 40.45773438 16.65757813 39.82421875 16.19140625 C35.79930009 13.56271205 31.63933981 13.66275919 27 14 C21.98728046 15.16574873 19.9478197 17.98768986 17 22 C15.63692009 26.08923974 14.96574999 29.81556551 16.88208008 33.86303711 C20.08779522 38.97718002 23.74486482 43.17183023 28.0625 47.375 C28.67416016 47.98988281 29.28582031 48.60476562 29.91601562 49.23828125 C34.50087518 53.76861815 37.71476511 56.2817194 44.375 56.375 C52.78679376 56.17445392 56.8186669 51.39689626 62.36328125 45.609375 C64 44 64 44 65 44 C65 50.93 65 57.86 65 65 C43.55 65 22.1 65 0 65 C0 43.55 0 22.1 0 0 Z " fill="#2EAFD1" transform="translate(67,63)"/>
<path d="M0 0 C21.12 0 42.24 0 64 0 C57.25 7.875 57.25 7.875 54.5703125 10.52734375 C54.003125 11.09130859 53.4359375 11.65527344 52.8515625 12.23632812 C52.28179687 12.79771484 51.71203125 13.35910156 51.125 13.9375 C50.53203125 14.52595703 49.9390625 15.11441406 49.328125 15.72070312 C47.88773534 17.14947674 46.4442033 18.57508132 45 20 C44.54109375 19.65066406 44.0821875 19.30132812 43.609375 18.94140625 C42.99578125 18.48636719 42.3821875 18.03132813 41.75 17.5625 C41.14671875 17.11003906 40.5434375 16.65757812 39.921875 16.19140625 C35.73886667 13.59828117 30.81386822 13.32290486 26 14 C20.89790078 16.69544864 17.82618963 19.5214311 16 25 C15.22984153 31.54634698 17.29031919 34.90273317 21 40 C23.19025239 42.5705228 25.52723421 44.94893474 27.9375 47.3125 C28.53240234 47.91900391 29.12730469 48.52550781 29.74023438 49.15039062 C33.69409403 53.07832333 37.54026656 56.68285777 43.34375 57.21484375 C51.93513444 56.10979249 56.51467283 51.71420817 62.36328125 45.609375 C64 44 64 44 65 44 C65 50.93 65 57.86 65 65 C43.55 65 22.1 65 0 65 C0 43.55 0 22.1 0 0 Z " fill="#6BF3C1" transform="translate(67,170)"/>
<path d="M0 0 C21.12 0 42.24 0 64 0 C57.25 7.875 57.25 7.875 54.5703125 10.52734375 C54.003125 11.09130859 53.4359375 11.65527344 52.8515625 12.23632812 C52.28179687 12.79771484 51.71203125 13.35910156 51.125 13.9375 C50.53203125 14.52595703 49.9390625 15.11441406 49.328125 15.72070312 C47.88773534 17.14947674 46.4442033 18.57508132 45 20 C44.45730469 19.65066406 43.91460937 19.30132812 43.35546875 18.94140625 C42.64003906 18.48636719 41.92460938 18.03132813 41.1875 17.5625 C40.47980469 17.11003906 39.77210937 16.65757812 39.04296875 16.19140625 C34.98990147 13.82776281 31.61850361 13.68688111 27 14 C22.31829732 15.74416374 19.78750809 17.87035839 17 22 C15.52163149 26.43510553 15.35853058 30.25814429 16.98828125 34.68359375 C19.83397659 39.37484684 23.53224272 42.92671706 27.4375 46.75 C28.20126953 47.51699219 28.96503906 48.28398437 29.75195312 49.07421875 C35.05417657 54.32568113 38.0784072 57.15995808 45.8046875 57.36328125 C51.64468675 56.39687568 55.35628227 52.97283215 59.3125 48.8125 C60.86087289 47.19469335 62.41950885 45.58644403 64 44 C64.33 44 64.66 44 65 44 C65 50.93 65 57.86 65 65 C43.55 65 22.1 65 0 65 C0 43.55 0 22.1 0 0 Z " fill="#FDDF76" transform="translate(67,277)"/>
<path d="M0 0 C0.65381495 -0.00467997 1.30762991 -0.00935994 1.98125744 -0.01418173 C4.17626808 -0.02616611 6.37065834 -0.01666161 8.56567383 -0.00723267 C10.13758713 -0.01129686 11.70949757 -0.01663788 13.28140259 -0.02316284 C17.55408838 -0.03686045 21.8265573 -0.03152777 26.09924698 -0.02202559 C30.56617069 -0.01444162 35.03307557 -0.02147108 39.5 -0.02618408 C47.0020685 -0.03164533 54.50404845 -0.02444037 62.00610352 -0.01016235 C70.68521946 0.00616488 79.364124 0.00087664 88.04323483 -0.01564157 C95.48873424 -0.02924595 102.93416994 -0.03118124 110.37967777 -0.02332556 C114.82927479 -0.01864327 119.27877237 -0.01803942 123.72836304 -0.02793503 C127.91118667 -0.03658722 132.09373716 -0.03061499 136.27653122 -0.01325226 C137.81364869 -0.00927803 139.35078906 -0.01043742 140.88789749 -0.01704025 C142.982381 -0.02520932 145.07598318 -0.01499179 147.17041016 0 C148.34364334 0.00113108 149.51687653 0.00226215 150.72566223 0.00342751 C153.58520508 0.38095093 153.58520508 0.38095093 155.49394226 1.68210411 C156.58520508 3.38095093 156.58520508 3.38095093 156.46020508 6.94345093 C155.58520508 10.38095093 155.58520508 10.38095093 152.58520508 12.38095093 C149.75969028 12.63821983 149.75969028 12.63821983 146.25306702 12.64837646 C145.60812473 12.65290758 144.96318245 12.65743869 144.29869646 12.66210711 C142.13379158 12.6747853 139.96913716 12.67312859 137.80419922 12.67147827 C136.25361303 12.67746136 134.70302983 12.68426639 133.15245056 12.6918335 C128.93760214 12.70952203 124.72283488 12.71419004 120.50795293 12.71546507 C116.9914312 12.71736274 113.47492845 12.72471865 109.95841402 12.73180926 C101.66350975 12.74810126 93.3686489 12.75297743 85.07373047 12.7515564 C76.51161707 12.75035438 67.94975551 12.77146629 59.38770586 12.80304372 C52.04071014 12.82917627 44.69379683 12.83992498 37.34675497 12.83864558 C32.95687509 12.8381351 28.567219 12.84386552 24.17738533 12.86500168 C20.0495104 12.88433365 15.92207392 12.88454345 11.79418373 12.86996841 C10.27843843 12.86787299 8.76266605 12.87262477 7.24696732 12.88468933 C5.17890172 12.90008563 3.11235867 12.89087371 1.04432678 12.87542725 C-0.69201727 12.87706155 -0.69201727 12.87706155 -2.46343899 12.87872887 C-6.0518288 12.27350831 -7.23313409 11.24197913 -9.41479492 8.38095093 C-9.89832275 5.54885935 -9.93580465 4.13420719 -8.28837585 1.75241661 C-5.53555356 -0.26265584 -3.38827737 0.00326653 0 0 Z " fill="#242326" transform="translate(176.414794921875,127.61904907226563)"/>
<path d="M0 0 C1.66351753 -0.01279495 1.66351753 -0.01279495 3.36064148 -0.02584839 C4.57786896 -0.02494202 5.79509644 -0.02403564 7.04920959 -0.02310181 C8.97143593 -0.03317764 8.97143593 -0.03317764 10.93249512 -0.04345703 C14.44902188 -0.06113518 17.96545133 -0.06581313 21.48201823 -0.0670886 C24.41697487 -0.06898725 27.35190881 -0.07634429 30.28685671 -0.08343279 C37.21058238 -0.09972085 44.13425603 -0.10460133 51.05799866 -0.10317993 C58.20231202 -0.10197801 65.34632352 -0.12308869 72.49056047 -0.15466726 C78.62313127 -0.18080901 84.75560333 -0.19154814 90.88822943 -0.19026911 C94.55153961 -0.1897589 98.2145815 -0.19547439 101.87783623 -0.21662521 C105.96251481 -0.23956531 110.0465158 -0.23049972 114.13124084 -0.21841431 C115.95404572 -0.23527283 115.95404572 -0.23527283 117.81367493 -0.25247192 C118.92550644 -0.24408295 120.03733795 -0.23569397 121.18286133 -0.22705078 C122.14869109 -0.22814032 123.11452085 -0.22922985 124.10961819 -0.2303524 C127.42991023 0.41898769 128.64364401 1.58655082 130.65492249 4.26742554 C130.52992249 7.95492554 130.52992249 7.95492554 129.65492249 11.26742554 C127.07902186 12.55537585 125.23282774 12.39913081 122.34744263 12.40786743 C121.22153214 12.41357758 120.09562164 12.41928772 118.93559265 12.4251709 C117.69449738 12.42628876 116.4534021 12.42740662 115.17469788 12.42855835 C113.87224625 12.43352325 112.56979462 12.43848816 111.22787476 12.44360352 C107.649394 12.45673477 104.07093201 12.46317367 100.49243093 12.46761417 C98.25814959 12.47054323 96.0238734 12.47464768 93.78959465 12.47911835 C86.8030433 12.49279409 79.81650371 12.50246083 72.8299399 12.50632024 C64.75725395 12.51080383 56.68473709 12.52836522 48.61210257 12.55732083 C42.37681925 12.57891212 36.14158361 12.58902312 29.90626329 12.59036136 C26.17985473 12.59141107 22.45360509 12.59735398 18.72723579 12.61518097 C14.57289938 12.63466876 10.41891859 12.63038294 6.26454163 12.62387085 C4.40593506 12.63769302 4.40593506 12.63769302 2.50978088 12.65179443 C0.81668541 12.6434407 0.81668541 12.6434407 -0.91061401 12.63491821 C-2.38481261 12.63711805 -2.38481261 12.63711805 -3.88879299 12.63936234 C-6.34507751 12.26742554 -6.34507751 12.26742554 -8.19254398 10.96711349 C-9.34507751 9.26742554 -9.34507751 9.26742554 -9.22007751 5.70492554 C-7.82521056 0.22509107 -5.11682188 0.01776368 0 0 Z " fill="#28282B" transform="translate(176.34507751464844,448.7325744628906)"/>
<path d="M0 0 C2.14861562 1.59482204 2.90571966 2.49279262 3.39872742 5.14506531 C3.40983047 5.97335342 3.42093353 6.80164154 3.43237305 7.6550293 C3.46206429 9.06615242 3.46206429 9.06615242 3.49235535 10.50578308 C3.49874527 11.51836685 3.50513519 12.53095062 3.51171875 13.57421875 C3.52966995 14.61318802 3.54762115 15.65215729 3.56611633 16.72261047 C3.62034043 20.04419891 3.65415428 23.36564266 3.6875 26.6875 C3.72066234 28.93817123 3.75515097 31.18882334 3.79101562 33.43945312 C3.87607368 38.95950568 3.94437223 44.47957669 4 50 C4.99628418 50.49028687 4.99628418 50.49028687 6.01269531 50.99047852 C37.53635586 66.53635586 37.53635586 66.53635586 41 70 C41.4556962 75.24050633 41.4556962 75.24050633 39.875 77.875 C37.16058036 79.50365178 35.129661 79.21011014 32 79 C29.47729492 78.04125977 29.47729492 78.04125977 26.98046875 76.69140625 C26.04799316 76.19560059 25.11551758 75.69979492 24.15478516 75.18896484 C23.17558105 74.65223145 22.19637695 74.11549805 21.1875 73.5625 C20.1773584 73.02061035 19.1672168 72.4787207 18.12646484 71.92041016 C16.06905221 70.81647227 14.01402139 69.7080836 11.96142578 68.59521484 C9.23571277 67.1269701 6.49685835 65.69015117 3.74609375 64.26953125 C2.96016846 63.86210693 2.17424316 63.45468262 1.36450195 63.03491211 C-0.10027693 62.27625469 -1.56653177 61.52043849 -3.03442383 60.76782227 C-7.88723653 58.22552695 -7.88723653 58.22552695 -9 56 C-9.10563292 54.32090261 -9.14875499 52.63769355 -9.16113281 50.95532227 C-9.17074036 49.90405655 -9.1803479 48.85279083 -9.19024658 47.76966858 C-9.19449646 46.63009201 -9.19874634 45.49051544 -9.203125 44.31640625 C-9.20882507 43.14996078 -9.21452515 41.98351532 -9.22039795 40.78172302 C-9.22985648 38.31111562 -9.2363853 35.84049556 -9.24023438 33.36987305 C-9.24995089 29.58164614 -9.2809715 25.7939591 -9.3125 22.00585938 C-9.31902869 19.60937823 -9.32427969 17.2128932 -9.328125 14.81640625 C-9.3404718 13.67885391 -9.3528186 12.54130157 -9.36553955 11.36927795 C-9.36253845 10.31486008 -9.35953735 9.2604422 -9.35644531 8.17407227 C-9.36009094 7.2452272 -9.36373657 6.31638214 -9.36749268 5.35939026 C-9 3 -9 3 -7.66522217 1.20005798 C-5.07941345 -0.66342934 -3.08921969 -0.38615246 0 0 Z " fill="#252427" transform="translate(375,270)"/>
<path d="M0 0 C1.19070854 -0.0076664 1.19070854 -0.0076664 2.4054718 -0.01548767 C5.03219114 -0.02939941 7.65864857 -0.02842573 10.28540039 -0.02612305 C12.10999143 -0.03000912 13.93458157 -0.03434361 15.75917053 -0.03910828 C19.58491955 -0.04657389 23.41057629 -0.04627675 27.23632812 -0.04101562 C32.14038228 -0.03522067 37.04405879 -0.0521509 41.9480505 -0.0753603 C45.71670238 -0.09008807 49.48526312 -0.09097064 53.25393867 -0.08785057 C55.06205557 -0.08836427 56.8701775 -0.09361111 58.67826653 -0.10366249 C61.20633395 -0.11599109 63.73366325 -0.10925702 66.26171875 -0.09765625 C67.00938507 -0.10529999 67.75705139 -0.11294373 68.52737427 -0.12081909 C71.64609812 -0.08916672 73.88595998 0.11179576 76.66798401 1.57527161 C78.19555664 3.2746582 78.19555664 3.2746582 78.57055664 6.8371582 C78.19555664 10.2746582 78.19555664 10.2746582 76.19555664 12.2746582 C73.50122597 12.47841548 70.90925165 12.55784716 68.21337891 12.54931641 C67.38885223 12.55442734 66.56432556 12.55953827 65.71481323 12.56480408 C62.98045661 12.57874087 60.24635088 12.57774024 57.51196289 12.57543945 C55.61628627 12.5793242 53.72061052 12.58365841 51.82493591 12.58842468 C47.84778016 12.59589573 43.87071316 12.59558927 39.89355469 12.59033203 C34.79096143 12.58453686 29.68873109 12.60146524 24.58619785 12.6246767 C20.67003751 12.63939216 16.753965 12.64028873 12.83778191 12.63716698 C10.95627054 12.63768131 9.07475439 12.64294003 7.19326973 12.6529789 C4.5643147 12.66528345 1.9360721 12.65858785 -0.69287109 12.64697266 C-1.47375595 12.65461639 -2.25464081 12.66226013 -3.05918884 12.6701355 C-8.27085093 12.61911044 -8.27085093 12.61911044 -10.81922913 10.9740448 C-12.5466141 7.994495 -11.61759648 5.46918834 -10.80444336 2.2746582 C-7.10441813 -0.19202528 -4.28091203 -0.01414664 0 0 Z " fill="#28282B" transform="translate(178.804443359375,195.725341796875)"/>
<path d="M0 0 C1.19070854 -0.0076664 1.19070854 -0.0076664 2.4054718 -0.01548767 C5.03219114 -0.02939941 7.65864857 -0.02842573 10.28540039 -0.02612305 C12.10999143 -0.03000912 13.93458157 -0.03434361 15.75917053 -0.03910828 C19.58491955 -0.04657389 23.41057629 -0.04627675 27.23632812 -0.04101562 C32.14038228 -0.03522067 37.04405879 -0.0521509 41.9480505 -0.0753603 C45.71670238 -0.09008807 49.48526312 -0.09097064 53.25393867 -0.08785057 C55.06205557 -0.08836427 56.8701775 -0.09361111 58.67826653 -0.10366249 C61.20633395 -0.11599109 63.73366325 -0.10925702 66.26171875 -0.09765625 C67.00938507 -0.10529999 67.75705139 -0.11294373 68.52737427 -0.12081909 C71.66573285 -0.08896745 73.88031273 0.10407297 76.66407776 1.61042786 C78.19555664 3.2746582 78.19555664 3.2746582 78.63305664 6.2746582 C78.19555664 9.2746582 78.19555664 9.2746582 77.16845703 10.93789673 C74.07136927 13.03636436 70.80570909 12.69134585 67.19165039 12.6628418 C66.37673126 12.66809875 65.56181213 12.67335571 64.72219849 12.67877197 C62.0256235 12.69198722 59.32963774 12.68322864 56.63305664 12.6730957 C54.76122931 12.675116 52.88940275 12.67802707 51.01757812 12.68179321 C47.09342967 12.68621863 43.16948599 12.67977852 39.24536133 12.66577148 C34.21115317 12.64867947 29.1774248 12.65851949 24.14323425 12.67648888 C20.27767308 12.68732085 16.41222596 12.68388307 12.54666138 12.6761055 C10.69027652 12.67410187 8.83388137 12.67656847 6.97750854 12.68354416 C4.38454695 12.69114902 1.79236621 12.67956834 -0.80053711 12.6628418 C-1.57050018 12.66891449 -2.34046326 12.67498718 -3.13375854 12.6812439 C-6.11124956 12.64559599 -8.27358171 12.6187582 -10.8125 10.97305298 C-12.55099578 7.99641916 -11.61803153 5.47089744 -10.80444336 2.2746582 C-7.10441813 -0.19202528 -4.28091203 -0.01414664 0 0 Z " fill="#252427" transform="translate(178.804443359375,88.725341796875)"/>
<path d="M0 0 C0.80516556 -0.00525696 1.61033112 -0.01051392 2.43989563 -0.01593018 C5.10400739 -0.02914465 7.76752268 -0.02038713 10.43164062 -0.01025391 C12.28104772 -0.01227423 14.13045404 -0.01518532 15.9798584 -0.01895142 C19.85692933 -0.02337673 23.73379299 -0.01693707 27.61083984 -0.00292969 C32.58451586 0.01416233 37.55770625 0.00432225 42.53136444 -0.01364708 C46.35060292 -0.02447934 50.16972597 -0.02104115 53.9889679 -0.0132637 C55.82302406 -0.01126015 57.65709065 -0.0137264 59.49113464 -0.02070236 C62.05296658 -0.02830771 64.61400828 -0.01672592 67.17578125 0 C67.93639359 -0.00607269 68.69700592 -0.01214539 69.48066711 -0.0184021 C74.5794723 0.04337887 74.5794723 0.04337887 77.05895996 1.72494507 C78.68299246 4.35014958 78.46349414 6.38335547 78.08789062 9.38818359 C77.05895996 11.0504303 77.05895996 11.0504303 75.08789062 12.38818359 C72.37482155 12.68942361 69.89016831 12.8083013 67.17578125 12.79223633 C66.37061569 12.79909958 65.56545013 12.80596283 64.73588562 12.81303406 C62.07179176 12.83135041 59.408284 12.82745815 56.74414062 12.82177734 C54.89473274 12.82633652 53.04532656 12.83164129 51.19592285 12.83766174 C47.31885904 12.8466021 43.44200112 12.84415886 39.56494141 12.83422852 C34.59116574 12.82273187 29.61809928 12.84295614 24.64441681 12.87214565 C20.82516958 12.8904712 17.0060935 12.8902226 13.18681335 12.88450813 C11.35274764 12.8843545 9.51867063 12.89043326 7.68464661 12.90279961 C5.12264185 12.91764107 2.56196262 12.90708438 0 12.88989258 C-0.76061234 12.89956055 -1.52122467 12.90922852 -2.30488586 12.91918945 C-7.42878886 12.84701556 -7.42878886 12.84701556 -9.88317871 10.51698303 C-11.15721796 7.88106777 -11.35720021 6.28127405 -10.91210938 3.38818359 C-8.34526 -0.67335535 -4.31524784 -0.03445273 0 0 Z " fill="#222124" transform="translate(177.912109375,234.61181640625)"/>
<path d="M0 0 C0.78565842 -0.00525696 1.57131683 -0.01051392 2.38078308 -0.01593018 C4.97996858 -0.02914307 7.57854255 -0.02038775 10.17773438 -0.01025391 C11.982301 -0.01227428 13.78686684 -0.0151854 15.59143066 -0.01895142 C19.37434662 -0.02337651 23.15705013 -0.01693779 26.93994141 -0.00292969 C31.79255329 0.01416235 36.64466743 0.00432215 41.49726105 -0.01364708 C45.22385417 -0.02447994 48.950329 -0.02104088 52.67692566 -0.0132637 C54.46632445 -0.01126031 56.25573393 -0.01372582 58.04512024 -0.02070236 C60.5446931 -0.02830873 63.0434563 -0.01672461 65.54296875 0 C66.28487961 -0.00607269 67.02679047 -0.01214539 67.79118347 -0.0184021 C70.70961998 0.01783328 72.78204995 0.06819359 75.2623291 1.68978882 C77.02784516 4.66112865 76.08664362 7.18577229 75.27148438 10.38818359 C71.63575 12.81200651 68.94546974 12.68398992 64.74243164 12.67871094 C63.59561417 12.68878677 63.59561417 12.68878677 62.42562866 12.69906616 C59.89631669 12.71807628 57.3672696 12.72197172 54.83789062 12.72412109 C53.0805602 12.7305465 51.32323086 12.73727466 49.56590271 12.74429321 C45.88139363 12.7562732 42.19697836 12.75997325 38.51245117 12.75878906 C33.78989842 12.75858573 29.06794651 12.78589893 24.34553623 12.82033348 C20.71584812 12.84256381 17.08630555 12.84662781 13.45655632 12.84556961 C11.71541204 12.84793098 9.97426406 12.85678462 8.23318672 12.87223434 C5.79833933 12.89181854 3.36479984 12.88608722 0.92993164 12.87402344 C0.21031754 12.88526245 -0.50929657 12.89650146 -1.25071716 12.90808105 C-4.65805411 12.86515438 -6.43658038 12.61091349 -9.17982483 10.51797485 C-10.72851562 8.38818359 -10.72851562 8.38818359 -11.16601562 5.82568359 C-10.04372827 -0.42706025 -5.4255072 -0.04440889 0 0 Z " fill="#252427" transform="translate(177.728515625,410.61181640625)"/>
<path d="M0 0 C1.72209938 -0.01913956 1.72209938 -0.01913956 3.47898865 -0.03866577 C4.71963577 -0.04089142 5.9602829 -0.04311707 7.23852539 -0.04541016 C8.51216446 -0.05206696 9.78580353 -0.05872375 11.09803772 -0.06558228 C13.79401611 -0.07571648 16.48959132 -0.08126327 19.18554688 -0.08007812 C22.6369737 -0.07987484 26.08757794 -0.10718546 29.53880978 -0.14162254 C32.8345176 -0.16923042 36.13021759 -0.16804045 39.42602539 -0.17041016 C41.28395973 -0.19196671 41.28395973 -0.19196671 43.1794281 -0.21395874 C44.90625572 -0.20472885 44.90625572 -0.20472885 46.66796875 -0.1953125 C48.18661781 -0.19958755 48.18661781 -0.19958755 49.73594666 -0.20394897 C53.1285585 0.42606724 54.33770073 1.56639914 56.39868164 4.29052734 C56.33618164 7.41552734 56.33618164 7.41552734 55.39868164 10.29052734 C51.97474646 12.5731508 50.71648294 12.54721514 46.68969727 12.56518555 C45.51838257 12.57471756 44.34706787 12.58424957 43.14025879 12.59407043 C41.87460083 12.59315903 40.60894287 12.59224762 39.30493164 12.59130859 C37.35762146 12.59773628 37.35762146 12.59773628 35.37097168 12.60429382 C32.62381913 12.61175289 29.87679511 12.61146678 27.12963867 12.60620117 C23.60874624 12.60040203 20.0883791 12.61734899 16.56757355 12.64054585 C13.20917055 12.65881491 9.85088412 12.65509822 6.49243164 12.65380859 C5.22677368 12.66301834 3.96111572 12.67222809 2.65710449 12.68171692 C0.90013245 12.67237373 0.90013245 12.67237373 -0.89233398 12.6628418 C-2.4409613 12.66378593 -2.4409613 12.66378593 -4.02087402 12.66474915 C-6.60131836 12.29052734 -6.60131836 12.29052734 -8.46594238 10.98991394 C-9.60131836 9.29052734 -9.60131836 9.29052734 -9.47631836 5.72802734 C-8.05238113 0.13398822 -5.20161078 0.03919882 0 0 Z " fill="#262528" transform="translate(176.601318359375,341.70947265625)"/>
<path d="M0 0 C1.78700317 -0.01418472 1.78700317 -0.01418472 3.61010742 -0.02865601 C5.54140503 -0.01954697 5.54140503 -0.01954697 7.51171875 -0.01025391 C8.8454606 -0.01227496 10.17920138 -0.01518666 11.51293945 -0.01895142 C14.30723601 -0.02337336 17.10124473 -0.01694831 19.89550781 -0.00292969 C23.4769634 0.01416265 27.05774457 0.0043207 30.63917542 -0.01364708 C33.39299601 -0.02448872 36.14665676 -0.02103695 38.90048218 -0.0132637 C40.8631026 -0.01028969 42.82572923 -0.01939932 44.78833008 -0.02865601 C45.97966553 -0.01919952 47.17100098 -0.00974304 48.3984375 0 C49.44862061 0.00238678 50.49880371 0.00477356 51.58081055 0.00723267 C54.19921875 0.38818359 54.19921875 0.38818359 56.03051758 1.76010132 C57.19921875 3.38818359 57.19921875 3.38818359 57.69921875 5.82568359 C57.19921875 8.38818359 57.19921875 8.38818359 55.02650452 10.51599121 C51.82206104 12.63793259 50.25970399 12.89354899 46.46264648 12.90576172 C45.33475204 12.91837036 44.2068576 12.930979 43.04478455 12.94396973 C41.83633377 12.9358728 40.627883 12.92777588 39.3828125 12.91943359 C37.50989281 12.92517395 37.50989281 12.92517395 35.59913635 12.93103027 C32.96176439 12.93375039 30.32587968 12.92840294 27.6887207 12.90966797 C24.31347975 12.88685403 20.93950945 12.90002219 17.56431484 12.92395782 C14.33710209 12.94190639 11.11004184 12.92933239 7.8828125 12.91943359 C6.67233749 12.92753052 5.46186249 12.93562744 4.21470642 12.94396973 C3.08996414 12.93136108 1.96522186 12.91875244 0.80639648 12.90576172 C-0.18223892 12.90257935 -1.17087433 12.89939697 -2.18946838 12.89611816 C-5.52583429 12.24715128 -6.72201296 11.02592693 -8.80078125 8.38818359 C-9.23828125 5.82568359 -9.23828125 5.82568359 -8.80078125 3.38818359 C-6.33525699 -0.05798214 -4.07743667 0.0092669 0 0 Z " fill="#29282B" transform="translate(175.80078125,303.61181640625)"/>
<path d="M0 0 C-0.41157326 4.9657209 -2.57415286 6.96967251 -6.125 10.3125 C-9.38371183 13.43734947 -12.58212912 16.54837225 -15.5 20 C-18.43779222 23.41323203 -21.49152047 26.70388264 -24.625 29.9375 C-25.97464844 31.34322266 -25.97464844 31.34322266 -27.3515625 32.77734375 C-30.07815969 35.06559419 -31.47935717 35.84511554 -35 36 C-37.3125 34.6875 -37.3125 34.6875 -39 33 C-39 32.34 -39 31.68 -39 31 C-39.85658203 30.64035156 -39.85658203 30.64035156 -40.73046875 30.2734375 C-43.46321391 28.74008996 -45.20744102 26.94171939 -47.3125 24.625 C-48.03050781 23.85414063 -48.74851562 23.08328125 -49.48828125 22.2890625 C-51 20 -51 20 -50.73046875 17.7109375 C-50.48941406 17.14632813 -50.24835938 16.58171875 -50 16 C-48.22265625 15.29296875 -48.22265625 15.29296875 -46 15 C-44.18359375 16.36328125 -44.18359375 16.36328125 -42.4375 18.3125 C-38.74230359 22.44611722 -38.74230359 22.44611722 -33.66674805 24.45092773 C-29.82752464 23.80174293 -27.90329801 21.50741286 -25.33203125 18.78515625 C-24.81114426 18.25482285 -24.29025726 17.72448944 -23.75358582 17.17808533 C-22.09435502 15.48430117 -20.45313292 13.77428711 -18.8125 12.0625 C-17.15781249 10.35786691 -15.49963254 8.65674028 -13.83927917 6.95762634 C-12.8079492 5.89987026 -11.78055943 4.83825529 -10.75752258 3.7724762 C-6.81062172 -0.31228299 -5.56672063 -1.31843383 0 0 Z " fill="#DFE2E4" transform="translate(145,394)"/>
<path d="M0 0 C0.70721191 0.27577881 1.41442383 0.55155762 2.14306641 0.83569336 C2.5559082 2.88134766 2.5559082 2.88134766 2.14306641 5.83569336 C0.22995676 8.53638071 -2.10894177 10.78772368 -4.46240234 13.10522461 C-5.47673088 14.12672859 -5.47673088 14.12672859 -6.5115509 15.16886902 C-7.94385707 16.60457595 -9.38249013 18.03399466 -10.8269043 19.45751953 C-13.03636044 21.64021798 -15.21790706 23.84826989 -17.39794922 26.06030273 C-18.79283324 27.45188269 -20.1892675 28.84191082 -21.58740234 30.23022461 C-22.23968307 30.8926265 -22.89196381 31.55502838 -23.56401062 32.23750305 C-28.11030519 36.66827736 -28.11030519 36.66827736 -31.57348633 37.44482422 C-34.35696449 36.70230545 -35.61855534 35.71920181 -37.66162109 33.69506836 C-38.32677734 33.03635742 -38.99193359 32.37764648 -39.67724609 31.69897461 C-40.35529297 31.0015918 -41.03333984 30.30420898 -41.73193359 29.58569336 C-42.43318359 28.9037793 -43.13443359 28.22186523 -43.85693359 27.51928711 C-44.51435547 26.85541992 -45.17177734 26.19155273 -45.84912109 25.50756836 C-46.45095215 24.90009766 -47.0527832 24.29262695 -47.67285156 23.66674805 C-48.85693359 21.83569336 -48.85693359 21.83569336 -48.54492188 19.60620117 C-48.31788574 19.02193359 -48.09084961 18.43766602 -47.85693359 17.83569336 C-45.59912109 17.08959961 -45.59912109 17.08959961 -42.85693359 16.83569336 C-40.61120005 18.69833118 -38.96188599 20.79764472 -37.11474609 23.05053711 C-34.90072142 25.11048673 -34.90072142 25.11048673 -31.58935547 25.29125977 C-26.86191995 24.71424546 -24.92652969 22.71608759 -21.88037109 19.33178711 C-21.34723297 18.77451431 -20.81409485 18.21724152 -20.26480103 17.64308167 C-18.56936746 15.86901286 -16.89877551 14.07412408 -15.23193359 12.27319336 C-13.55706107 10.46972485 -11.87756705 8.67248562 -10.17764282 6.89259338 C-9.12202814 5.78711873 -8.08061985 4.66786306 -7.05551147 3.53404236 C-3.49255919 -0.20086245 -3.49255919 -0.20086245 0 0 Z " fill="#E5E8EA" transform="translate(142.85693359375,71.164306640625)"/>
<path d="M0 0 C1.10251099 0.36544922 1.10251099 0.36544922 2.22729492 0.73828125 C2.64013672 2.78393555 2.64013672 2.78393555 2.22729492 5.73828125 C0.31418528 8.4389686 -2.02471325 10.69031157 -4.37817383 13.0078125 C-5.39250237 14.02931648 -5.39250237 14.02931648 -6.42732239 15.07145691 C-7.85962856 16.50716384 -9.29826162 17.93658255 -10.74267578 19.36010742 C-12.95213193 21.54280587 -15.13367854 23.75085778 -17.3137207 25.96289062 C-18.70860472 27.35447059 -20.10503899 28.74449871 -21.50317383 30.1328125 C-22.15545456 30.79521439 -22.80773529 31.45761627 -23.4797821 32.14009094 C-28.02607668 36.57086525 -28.02607668 36.57086525 -31.48925781 37.34741211 C-34.27273597 36.60489334 -35.53432683 35.6217897 -37.57739258 33.59765625 C-38.24254883 32.93894531 -38.90770508 32.28023437 -39.59301758 31.6015625 C-40.27106445 30.90417969 -40.94911133 30.20679688 -41.64770508 29.48828125 C-42.34895508 28.80636719 -43.05020508 28.12445313 -43.77270508 27.421875 C-44.43012695 26.75800781 -45.08754883 26.09414062 -45.76489258 25.41015625 C-46.36672363 24.80268555 -46.96855469 24.19521484 -47.58862305 23.56933594 C-48.77270508 21.73828125 -48.77270508 21.73828125 -48.46069336 19.50878906 C-48.23365723 18.92452148 -48.00662109 18.34025391 -47.77270508 17.73828125 C-45.52270508 16.99609375 -45.52270508 16.99609375 -42.77270508 16.73828125 C-40.71020508 18.35546875 -40.71020508 18.35546875 -38.77270508 20.61328125 C-35.88412801 23.95611036 -34.23867161 25.38388601 -29.77270508 25.73828125 C-27.7756279 24.70121563 -27.7756279 24.70121563 -26.06567383 22.92578125 C-25.37908691 22.27738281 -24.6925 21.62898438 -23.98510742 20.9609375 C-19.11043839 16.06367565 -14.30261322 11.1023662 -9.57543945 6.0625 C-8.77041992 5.23363281 -7.96540039 4.40476563 -7.13598633 3.55078125 C-6.41709229 2.79410156 -5.69819824 2.03742188 -4.95751953 1.2578125 C-2.77270508 -0.26171875 -2.77270508 -0.26171875 0 0 Z " fill="#E5E8EA" transform="translate(142.772705078125,178.26171875)"/>
<path d="M0 0 C0.86874756 0.11279297 1.73749512 0.22558594 2.63256836 0.34179688 C2.98400943 4.8025191 2.98400943 4.8025191 1.44464111 7.16464233 C0.88822937 7.72503204 0.33181763 8.28542175 -0.24145508 8.86279297 C-0.86920837 9.50630707 -1.49696167 10.14982117 -2.14373779 10.81283569 C-2.83115051 11.49012726 -3.51856323 12.16741882 -4.22680664 12.86523438 C-4.92759338 13.57080475 -5.62838013 14.27637512 -6.35040283 15.00332642 C-7.83398343 16.49030774 -9.3238901 17.97100033 -10.81958008 19.44580078 C-13.11245306 21.71187648 -15.37741758 24.00340691 -17.64086914 26.29882812 C-19.0845808 27.73923651 -20.52984231 29.1780935 -21.97680664 30.61523438 C-22.65612244 31.30467133 -23.33543823 31.99410828 -24.03533936 32.70443726 C-24.67570129 33.32903839 -25.31606323 33.95363953 -25.97583008 34.59716797 C-26.53542419 35.15278412 -27.09501831 35.70840027 -27.67156982 36.28085327 C-29.36743164 37.34179688 -29.36743164 37.34179688 -31.463974 37.1025238 C-35.43895353 35.51390218 -38.20684698 32.01354805 -41.17993164 29.02929688 C-41.88569336 28.35189453 -42.59145508 27.67449219 -43.31860352 26.9765625 C-43.98053711 26.31720703 -44.6424707 25.65785156 -45.32446289 24.97851562 C-45.93265869 24.37740967 -46.54085449 23.77630371 -47.16748047 23.15698242 C-48.36743164 21.34179688 -48.36743164 21.34179688 -48.05761719 19.11450195 C-47.82985596 18.52950928 -47.60209473 17.9445166 -47.36743164 17.34179688 C-45.14868164 16.56445312 -45.14868164 16.56445312 -42.36743164 16.34179688 C-40.08618164 18.21289062 -40.08618164 18.21289062 -37.86743164 20.77929688 C-35.04359799 24.22213056 -35.04359799 24.22213056 -31.08398438 25.80883789 C-27.13920506 25.13063507 -25.22107159 22.70380256 -22.62133789 19.87304688 C-21.52569876 18.73366241 -20.4299936 17.59434145 -19.33422852 16.45507812 C-17.62720436 14.64850828 -15.92552996 12.83709678 -14.2265625 11.02294922 C-12.57914544 9.27291086 -10.91379048 7.54147196 -9.24633789 5.81054688 C-8.74614639 5.26370239 -8.2459549 4.71685791 -7.73060608 4.15344238 C-5.12137241 1.45475005 -3.79584405 0.38528106 0 0 Z " fill="#E5E7E9" transform="translate(142.367431640625,285.658203125)"/>
<path d="M0 0 C2.5625 0.3125 2.5625 0.3125 4.4375 1.5 C5.5625 3.3125 5.5625 3.3125 5.375 5.875 C4.5625 8.3125 4.5625 8.3125 2.5625 10.3125 C-0.73464793 9.98278521 -2.0601839 9.6898161 -4.4375 7.3125 C-4.6875 4.8125 -4.6875 4.8125 -4.4375 2.3125 C-2.4375 0.3125 -2.4375 0.3125 0 0 Z " fill="#313033" transform="translate(410.4375,250.6875)"/>
<path d="M0 0 C2.4375 0.8125 2.4375 0.8125 4.4375 2.8125 C4.10778521 6.10964793 3.8148161 7.4351839 1.4375 9.8125 C-1.6875 9.4375 -1.6875 9.4375 -4.5625 8.8125 C-5.89091008 3.37809513 -5.89091008 3.37809513 -4.4375 0.875 C-2.5625 -0.1875 -2.5625 -0.1875 0 0 Z " fill="#2E2D30" transform="translate(411.5625,386.1875)"/>
<path d="M0 0 C1 1 1 1 1.1875 3.9375 C1 7 1 7 -1 9 C-3.5 9.25 -3.5 9.25 -6 9 C-6.66 8.34 -7.32 7.68 -8 7 C-7.75 3.4375 -7.75 3.4375 -7 0 C-4.31633121 -1.3418344 -2.84719317 -0.73004953 0 0 Z " fill="#2E2D30" transform="translate(336,387)"/>
<path d="M0 0 C3.0625 0.1875 3.0625 0.1875 5.0625 2.1875 C5.3125 4.6875 5.3125 4.6875 5.0625 7.1875 C3.0625 9.1875 3.0625 9.1875 0.0625 9.5 C-0.9275 9.396875 -1.9175 9.29375 -2.9375 9.1875 C-4.9375 6.1875 -4.9375 6.1875 -4.625 3.5625 C-3.63731654 0.1505026 -3.65603948 0.23336422 0 0 Z " fill="#2D2C2F" transform="translate(303.9375,357.8125)"/>
<path d="M0 0 C3.0625 0.1875 3.0625 0.1875 5.0625 2.1875 C4.49431818 7.75568182 4.49431818 7.75568182 3.0625 9.1875 C0.125 9.4375 0.125 9.4375 -2.9375 9.1875 C-4.9375 6.1875 -4.9375 6.1875 -4.625 3.5625 C-3.63731654 0.1505026 -3.65603948 0.23336422 0 0 Z " fill="#2D2C2F" transform="translate(449.9375,318.8125)"/>
<path d="M0 0 C3.625 0.375 3.625 0.375 7 1 C7.625 3.3125 7.625 3.3125 8 6 C7.01 7.485 7.01 7.485 6 9 C3 9.3125 3 9.3125 0 9 C-2 7 -2 7 -2.25 4.5 C-2 2 -2 2 0 0 Z " fill="#2C2B2E" transform="translate(369,397)"/>
<path d="M0 0 C3 0.25 3 0.25 5 2.25 C4.43181818 7.81818182 4.43181818 7.81818182 3 9.25 C0.66055264 8.96269945 -1.6739143 8.63063221 -4 8.25 C-4.625 5.375 -4.625 5.375 -5 2.25 C-3 0.25 -3 0.25 0 0 Z " fill="#2C2B2E" transform="translate(304,279.75)"/>
<path d="M0 0 C2.5 0.25 2.5 0.25 4.5 2.25 C4.75 5.25 4.75 5.25 4.5 8.25 C3.84 8.91 3.18 9.57 2.5 10.25 C-0.79714793 9.92028521 -2.1226839 9.6273161 -4.5 7.25 C-4.75 4.75 -4.75 4.75 -4.5 2.25 C-2.5 0.25 -2.5 0.25 0 0 Z " fill="#2D2C2F" transform="translate(332.5,250.75)"/>
<path d="M0 0 C3 0.25 3 0.25 5 2.25 C4.67028521 5.54714793 4.3773161 6.8726839 2 9.25 C-0.5 9.5 -0.5 9.5 -3 9.25 C-5 7.25 -5 7.25 -5.25 4.75 C-4.86630891 0.91308908 -3.76694968 0.31391247 0 0 Z " fill="#2D2C2F" transform="translate(372,240.75)"/>
<path d="M0 0 C3.625 0.375 3.625 0.375 7 1 C7.125 3.875 7.125 3.875 7 7 C5 9 5 9 2.5 9.25 C0 9 0 9 -2 7 C-2.25 4.5 -2.25 4.5 -2 2 C-1.34 1.34 -0.68 0.68 0 0 Z " fill="#262528" transform="translate(291,319)"/>
<path d="M0 0 C2.5 0.25 2.5 0.25 4.5 2.25 C4.75 4.75 4.75 4.75 4.5 7.25 C2.5 9.25 2.5 9.25 0 9.5 C-2.5 9.25 -2.5 9.25 -4.5 7.25 C-4.75 4.75 -4.75 4.75 -4.5 2.25 C-2.5 0.25 -2.5 0.25 0 0 Z " fill="#242326" transform="translate(439.5,357.75)"/>
<path d="M0 0 C2.5 0.25 2.5 0.25 4.5 2.25 C4.75 4.75 4.75 4.75 4.5 7.25 C2.5 9.25 2.5 9.25 0 9.5 C-2.5 9.25 -2.5 9.25 -4.5 7.25 C-4.75 4.75 -4.75 4.75 -4.5 2.25 C-2.5 0.25 -2.5 0.25 0 0 Z " fill="#242326" transform="translate(439.5,279.75)"/>
</svg>
