<?xml version="1.0" encoding="UTF-8"?>
<svg version="1.1" xmlns="http://www.w3.org/2000/svg" width="512" height="512">
<path d="M0 0 C9.57058417 4.83435728 17.11893974 13.97452833 24.60205078 21.48852539 C25.55896342 22.44572102 26.51609811 23.40269469 27.47343445 24.35946655 C30.03905247 26.92480095 32.60160392 29.49317792 35.16356134 32.06216741 C37.85363351 34.75854639 40.54659132 37.45204046 43.23922729 40.14585876 C48.32310048 45.23282386 53.40442208 50.32232963 58.48480213 55.41278309 C64.2749443 61.21415333 70.06797065 67.01263997 75.86122537 72.81090176 C87.76483327 84.72492552 99.66448236 96.64289308 111.5625 108.5625 C111.8925 97.6725 112.2225 86.7825 112.5625 75.5625 C105.3025 75.5625 98.0425 75.5625 90.5625 75.5625 C90.5625 57.0825 90.5625 38.6025 90.5625 19.5625 C124.8825 19.5625 159.2025 19.5625 194.5625 19.5625 C194.5625 38.0425 194.5625 56.5225 194.5625 75.5625 C187.3025 75.5625 180.0425 75.5625 172.5625 75.5625 C164.42758195 131.86543522 164.42758195 131.86543522 181.54168987 183.53447819 C194.22961763 199.41342075 210.22201661 213.05296933 226.41716003 225.25030518 C233.34698618 230.50147736 238.72496314 235.02476239 241.5625 243.5625 C241.8925 244.5525 242.2225 245.5425 242.5625 246.5625 C243.40123903 258.5523432 242.82516295 268.77352947 234.875 278.4375 C227.01770834 286.49663034 218.77167366 289.11512722 207.5625 289.5625 C203.07068831 289.15512806 198.62865667 288.59557834 194.5625 286.5625 C194.2325 360.4825 193.9025 434.4025 193.5625 510.5625 C55.2925 510.5625 -82.9775 510.5625 -225.4375 510.5625 C-225.4375 436.9725 -225.4375 363.3825 -225.4375 287.5625 C-228.4075 288.2225 -231.3775 288.8825 -234.4375 289.5625 C-244.74093559 289.47280742 -252.82509389 286.60177022 -260.46484375 279.7421875 C-268.03499264 271.83594321 -270.06396376 263.48608596 -269.90380859 252.81835938 C-269.20982712 236.80340227 -257.83973203 227.79126675 -247.0546875 217.1171875 C-246.19618195 216.26246857 -245.33767639 215.40774963 -244.45315552 214.52713013 C-241.74205158 211.82811157 -239.02770716 209.13239027 -236.3125 206.4375 C-232.72360505 202.87535458 -229.13814393 199.30980303 -225.5546875 195.7421875 C-224.33880447 194.53875198 -224.33880447 194.53875198 -223.09835815 193.31100464 C-222.32710602 192.54305573 -221.55585388 191.77510681 -220.76123047 190.98388672 C-220.09332489 190.32121796 -219.42541931 189.65854919 -218.73727417 188.97579956 C-216.84160658 186.98655478 -215.04632421 184.96393486 -213.25502682 182.88255024 C-209.6688681 178.77571753 -205.91005712 174.88410819 -202.05729675 171.02839661 C-201.34783333 170.31455093 -200.6383699 169.60070525 -199.90740758 168.86522788 C-197.55023895 166.49479781 -195.18958712 164.12786952 -192.82885742 161.76098633 C-191.12961094 160.05382939 -189.4305444 158.34649333 -187.73164368 156.63899231 C-182.65206701 151.53557338 -177.56820674 146.43643453 -172.48316929 141.33845785 C-171.0452216 139.89678993 -169.60740024 138.45499613 -168.16962266 137.01315856 C-159.22252614 128.04083783 -150.27383266 119.07011316 -141.32035351 110.10416126 C-139.25285596 108.03373458 -137.18537475 105.9632916 -135.11791992 103.89282227 C-134.60413457 103.37829086 -134.09034921 102.86375945 -133.5609946 102.33363619 C-125.23102533 93.99100227 -116.91140153 85.63812923 -108.59593841 77.28103892 C-100.04179926 68.68443187 -91.47821574 60.09732367 -82.9054268 51.51931399 C-78.09891228 46.70939297 -73.29661153 41.89542509 -68.50493431 37.07071877 C-63.99897885 32.53467836 -59.48127896 28.01067314 -54.95437431 23.49554253 C-53.29808096 21.83946981 -51.64603931 20.17913185 -49.99866867 18.51418304 C-47.74344208 16.2362134 -45.47318243 13.97432691 -43.19865417 11.71565247 C-42.55553242 11.05864863 -41.91241067 10.40164479 -41.24980038 9.72473174 C-30.48649482 -0.85554628 -14.5213946 -5.10336551 0 0 Z " fill="#FED05C" transform="translate(269.4375,1.4375)"/>
<path d="M0 0 C9.57058417 4.83435728 17.11893974 13.97452833 24.60205078 21.48852539 C25.55896342 22.44572102 26.51609811 23.40269469 27.47343445 24.35946655 C30.03905247 26.92480095 32.60160392 29.49317792 35.16356134 32.06216741 C37.85363351 34.75854639 40.54659132 37.45204046 43.23922729 40.14585876 C48.32310048 45.23282386 53.40442208 50.32232963 58.48480213 55.41278309 C64.2749443 61.21415333 70.06797065 67.01263997 75.86122537 72.81090176 C87.76483327 84.72492552 99.66448236 96.64289308 111.5625 108.5625 C111.8925 97.6725 112.2225 86.7825 112.5625 75.5625 C105.3025 75.5625 98.0425 75.5625 90.5625 75.5625 C90.5625 57.0825 90.5625 38.6025 90.5625 19.5625 C124.8825 19.5625 159.2025 19.5625 194.5625 19.5625 C194.5625 38.0425 194.5625 56.5225 194.5625 75.5625 C187.3025 75.5625 180.0425 75.5625 172.5625 75.5625 C164.42758195 131.86543522 164.42758195 131.86543522 181.54168987 183.53447819 C194.22961763 199.41342075 210.22201661 213.05296933 226.41716003 225.25030518 C233.34698618 230.50147736 238.72496314 235.02476239 241.5625 243.5625 C241.8925 244.5525 242.2225 245.5425 242.5625 246.5625 C243.40123903 258.5523432 242.82516295 268.77352947 234.875 278.4375 C226.98855154 286.52653612 218.79253083 289.04805166 207.5625 289.5625 C187.47286354 288.75891454 172.12293368 267.26426828 158.98583984 254.09936523 C157.11268203 252.22592502 155.23932631 250.35268468 153.36572266 248.47969055 C149.34817094 244.46266053 145.33243892 240.44381899 141.31797409 236.42370415 C135.51389045 230.61145713 129.70701297 224.80200788 123.89947279 218.99321485 C114.47480433 209.56636345 105.05236632 200.13728595 95.63134766 190.70678711 C86.48539126 181.55163696 77.33837418 172.39754867 68.18994141 163.24487305 C67.62503948 162.6797084 67.06013756 162.11454375 66.47811739 161.5322529 C63.64386745 158.69669782 60.80959678 155.86116347 57.97531581 153.02563941 C34.50116287 129.54113745 11.0306369 106.05301384 -12.4375 82.5625 C-15.49402314 83.92783637 -17.59266838 85.47035544 -19.94993877 87.83722305 C-20.63161482 88.51676709 -21.31329086 89.19631114 -22.01562375 89.89644742 C-22.75656822 90.64526394 -23.4975127 91.39408045 -24.26091003 92.16558838 C-25.05427035 92.95935654 -25.84763067 93.75312471 -26.66503221 94.57094646 C-29.33117703 97.24083167 -31.99010121 99.91779521 -34.64916992 102.59472656 C-36.555298 104.5074597 -38.46296397 106.41865617 -40.37060547 108.32987976 C-44.48299251 112.45145434 -48.59186288 116.57650782 -52.69853783 120.7037735 C-58.64438767 126.67915995 -64.59718698 132.64758519 -70.55199508 138.61404285 C-80.22392453 148.3049915 -89.89248013 157.9992978 -99.55786133 167.69677734 C-100.13640841 168.27724236 -100.71495549 168.85770737 -101.3110343 169.45576224 C-107.76090063 175.92715993 -114.20994894 182.39937188 -120.65808105 188.87249756 C-122.99380597 191.21725357 -125.32953811 193.56200237 -127.6652832 195.90673828 C-128.24160782 196.48528455 -128.81793243 197.06383082 -129.41172143 197.6599088 C-139.03303723 207.31798897 -148.66020813 216.97020965 -158.29195863 226.61788344 C-164.22928269 232.56552484 -170.16152986 238.5181427 -176.08727673 244.47731915 C-180.15221078 248.56444584 -184.2225599 252.64612694 -188.29714968 256.72362742 C-190.64542113 259.07394091 -192.99029232 261.42739936 -195.3302784 263.78597832 C-197.87299032 266.34815954 -200.42487433 268.90085294 -202.97917175 271.45147705 C-204.07385805 272.5613175 -204.07385805 272.5613175 -205.19065922 273.69357896 C-214.28386276 282.72474338 -224.24446563 289.52392388 -237.4375 289.5625 C-247.43066751 288.90580614 -255.40310995 285.07470997 -262.3125 277.8125 C-269.81242959 268.3622341 -270.72927299 258.23553751 -269.4375 246.5625 C-266.99248277 234.27264516 -255.58182275 225.55658867 -247.0546875 217.1171875 C-246.19618195 216.26246857 -245.33767639 215.40774963 -244.45315552 214.52713013 C-241.74205158 211.82811157 -239.02770716 209.13239027 -236.3125 206.4375 C-232.72360505 202.87535458 -229.13814393 199.30980303 -225.5546875 195.7421875 C-224.33880447 194.53875198 -224.33880447 194.53875198 -223.09835815 193.31100464 C-222.32710602 192.54305573 -221.55585388 191.77510681 -220.76123047 190.98388672 C-220.09332489 190.32121796 -219.42541931 189.65854919 -218.73727417 188.97579956 C-216.84160658 186.98655478 -215.04632421 184.96393486 -213.25502682 182.88255024 C-209.6688681 178.77571753 -205.91005712 174.88410819 -202.05729675 171.02839661 C-201.34783333 170.31455093 -200.6383699 169.60070525 -199.90740758 168.86522788 C-197.55023895 166.49479781 -195.18958712 164.12786952 -192.82885742 161.76098633 C-191.12961094 160.05382939 -189.4305444 158.34649333 -187.73164368 156.63899231 C-182.65206701 151.53557338 -177.56820674 146.43643453 -172.48316929 141.33845785 C-171.0452216 139.89678993 -169.60740024 138.45499613 -168.16962266 137.01315856 C-159.22252614 128.04083783 -150.27383266 119.07011316 -141.32035351 110.10416126 C-139.25285596 108.03373458 -137.18537475 105.9632916 -135.11791992 103.89282227 C-134.60413457 103.37829086 -134.09034921 102.86375945 -133.5609946 102.33363619 C-125.23102533 93.99100227 -116.91140153 85.63812923 -108.59593841 77.28103892 C-100.04179926 68.68443187 -91.47821574 60.09732367 -82.9054268 51.51931399 C-78.09891228 46.70939297 -73.29661153 41.89542509 -68.50493431 37.07071877 C-63.99897885 32.53467836 -59.48127896 28.01067314 -54.95437431 23.49554253 C-53.29808096 21.83946981 -51.64603931 20.17913185 -49.99866867 18.51418304 C-47.74344208 16.2362134 -45.47318243 13.97432691 -43.19865417 11.71565247 C-42.55553242 11.05864863 -41.91241067 10.40164479 -41.24980038 9.72473174 C-30.48649482 -0.85554628 -14.5213946 -5.10336551 0 0 Z " fill="#F37059" transform="translate(269.4375,1.4375)"/>
<path d="M0 0 C54.12 0 108.24 0 164 0 C164 47.52 164 95.04 164 144 C109.88 144 55.76 144 0 144 C0 96.48 0 48.96 0 0 Z " fill="#354B5E" transform="translate(254,325)"/>
<path d="M0 0 C1.10738525 0.00684814 2.21477051 0.01369629 3.35571289 0.02075195 C11.50641094 0.1807811 18.25515076 1.06204197 25.75 4.4375 C26.60980469 4.788125 27.46960938 5.13875 28.35546875 5.5 C44.89662809 12.88581998 55.3473776 26.86301357 61.87982178 43.27626038 C66.06157711 56.31581021 65.26600268 69.86914463 65.15557575 83.41112018 C65.13029382 87.04252763 65.12819928 90.67395329 65.12347412 94.30543518 C65.111122 101.15804996 65.07840762 108.01040453 65.03807616 114.86290556 C64.9846804 124.13968651 64.96335011 133.41654039 64.94006729 142.69343662 C64.90263887 157.27498537 64.82289745 171.85598544 64.75 186.4375 C23.17 186.4375 -18.41 186.4375 -61.25 186.4375 C-61.3709091 153.3173621 -61.3709091 153.3173621 -61.39648438 139.390625 C-61.41425418 129.7916175 -61.43509323 120.19268926 -61.47631836 110.59375 C-61.50633397 103.601492 -61.52560171 96.60929858 -61.53226548 89.61697793 C-61.53615727 85.91874201 -61.54522553 82.22069075 -61.56719017 78.52251434 C-61.59158099 74.3817902 -61.59196225 70.2413818 -61.59057617 66.10058594 C-61.601362 64.89073029 -61.61214783 63.68087463 -61.6232605 62.43435669 C-61.56106624 45.1817142 -55.38931654 29.86634027 -43.25 17.4375 C-36.58040502 11.67194417 -29.4444023 6.75399369 -21.25 3.4375 C-20.3230835 3.050177 -20.3230835 3.050177 -19.37744141 2.6550293 C-12.91599024 0.19605979 -6.86596547 -0.0648957 0 0 Z " fill="#415A6A" transform="translate(152.25,325.5625)"/>
<path d="M0 0 C3.05652314 1.36533637 5.15516838 2.90785544 7.51243877 5.27472305 C8.19411482 5.95426709 8.87579086 6.63381114 9.57812375 7.33394742 C10.31906822 8.08276394 11.0600127 8.83158045 11.82341003 9.60308838 C12.61677035 10.39685654 13.41013067 11.19062471 14.22753221 12.00844646 C16.89367703 14.67833167 19.55260121 17.35529521 22.21166992 20.03222656 C24.117798 21.9449597 26.02546397 23.85615617 27.93310547 25.76737976 C32.04549251 29.88895434 36.15436288 34.01400782 40.26103783 38.1412735 C46.20688767 44.11665995 52.15968698 50.08508519 58.11449508 56.05154285 C67.78642453 65.7424915 77.45498013 75.4367978 87.12036133 85.13427734 C87.69890841 85.71474236 88.27745549 86.29520737 88.8735343 86.89326224 C95.32340063 93.36465993 101.77244894 99.83687188 108.22058105 106.30999756 C110.55630597 108.65475357 112.89203811 110.99950237 115.2277832 113.34423828 C115.80410782 113.92278455 116.38043243 114.50133082 116.97422143 115.0974088 C126.59553723 124.75548897 136.22270813 134.40770965 145.85445863 144.05538344 C151.79178269 150.00302484 157.72402986 155.9556427 163.64977673 161.91481915 C167.71471078 166.00194584 171.7850599 170.08362694 175.85964968 174.16112742 C178.20792113 176.51144091 180.55279232 178.86489936 182.8927784 181.22347832 C185.43549032 183.78565954 187.98737433 186.33835294 190.54167175 188.88897705 C191.27146262 189.62887068 192.00125348 190.36876431 192.75315922 191.13107896 C196.94274296 195.29207892 201.1184335 198.58793964 206.22883493 201.5654819 C208.41003336 203.33209794 208.67697767 204.42697696 209.02172852 207.16943359 C209.02031855 208.74648634 208.97029617 210.32403436 208.87890625 211.8984375 C208.85980446 213.15087753 208.85980446 213.15087753 208.84031677 214.42861938 C208.79015906 217.08044271 208.67733934 219.72526873 208.5625 222.375 C208.5173288 224.17828611 208.47626878 225.9816802 208.43945312 227.78515625 C208.34052956 232.19277631 208.18540835 236.59520473 208 241 C202.56487621 236.46598419 197.52120919 231.66056062 192.52748108 226.6477356 C191.70070608 225.82181502 190.87393108 224.99589445 190.0221023 224.14494598 C187.74438855 221.86858788 185.46891697 219.59001652 183.19439971 217.31046534 C180.73483314 214.84656071 178.27235698 212.3855669 175.8102417 209.92420959 C171.55036137 205.66485238 167.29230873 201.40367516 163.03550911 197.14123917 C156.88096772 190.97855396 150.72365095 184.81864784 144.56566387 178.65940593 C134.57363708 168.66519315 124.58384325 158.66875151 114.59545898 148.67089844 C104.89546216 138.96171578 95.19441053 129.25358905 85.49194336 119.546875 C84.89339631 118.94806523 84.29484927 118.34925546 83.67816443 117.73229994 C80.67527778 114.7281082 77.67237043 111.72393715 74.66945279 108.71977639 C49.77642572 83.81639081 24.88702478 58.90938387 0 34 C-3.1428278 35.39340508 -5.26650936 37.01880108 -7.68816566 39.44765663 C-8.769406 40.52477392 -8.769406 40.52477392 -9.87248957 41.62365115 C-10.65711837 42.41546986 -11.44174716 43.20728858 -12.25015259 44.02310181 C-13.08928739 44.86193889 -13.92842219 45.70077597 -14.79298532 46.56503236 C-17.12105863 48.89425535 -19.44455364 51.2278822 -21.76625729 53.56344414 C-24.27112052 56.08104969 -26.78178508 58.59285771 -29.29179382 61.10533142 C-33.63999027 65.45930258 -37.98461691 69.81680966 -42.32695389 74.1766243 C-48.60643482 80.48119455 -54.89237031 86.77929764 -61.18010144 93.07563858 C-71.38269366 103.29236695 -81.58154245 113.51282292 -91.77734375 123.73632812 C-92.69277785 124.65424566 -92.69277785 124.65424566 -93.62670557 125.59070699 C-97.95956876 129.93537322 -102.29229885 134.28017218 -106.625 138.625 C-111.57770578 143.5915648 -116.53047445 148.55806687 -121.48339844 153.52441406 C-122.09355083 154.13622271 -122.70370322 154.74803136 -123.33234508 155.37837966 C-133.49227627 165.56564677 -143.65610722 175.74901439 -153.82274854 185.92958486 C-160.09778446 192.21360029 -166.36922912 198.50116017 -172.63614641 204.79327236 C-176.92612229 209.10005233 -181.21958587 213.40333378 -185.51585723 217.70383359 C-187.9976422 220.18831839 -190.47770695 222.67446286 -192.9534626 225.16495705 C-195.63157048 227.85894845 -198.31727424 230.54528174 -201.0038147 233.23086548 C-201.79290494 234.02714564 -202.58199517 234.8234258 -203.39499724 235.64383566 C-204.11060863 236.35669836 -204.82622003 237.06956105 -205.56351662 237.80402565 C-206.49323703 238.73651144 -206.49323703 238.73651144 -207.44173968 239.68783534 C-209 241 -209 241 -211 241 C-211 229.12 -211 217.24 -211 205 C-207.7 203.35 -204.4 201.7 -201 200 C-198.0396502 197.83479631 -198.0396502 197.83479631 -195.54449463 195.34989929 C-194.813179 194.65474481 -194.813179 194.65474481 -194.06708932 193.94554681 C-192.36238621 192.31242575 -190.68001327 190.65850242 -189 189 C-188.34748103 188.35962115 -187.69496206 187.71924229 -187.02266979 187.05945802 C-181.40942589 181.54177901 -175.84776171 175.97317026 -170.28808594 170.40161133 C-168.42448528 168.53772814 -166.56068643 166.67404511 -164.69664001 164.81060791 C-160.70586154 160.82035025 -156.7168977 156.82828621 -152.7292099 152.83493996 C-146.9638934 147.06144797 -141.19577157 141.29076526 -135.42699185 135.52073392 C-126.06443849 126.15599948 -116.70411396 116.7890406 -107.34521484 107.4206543 C-98.26143537 98.32767618 -89.17659157 89.23576358 -80.09033203 80.14526367 C-79.24824781 79.30278536 -79.24824781 79.30278536 -78.38915178 78.44328729 C-75.5724272 75.62525754 -72.75568187 72.80724853 -69.93892622 69.98924983 C-46.62273354 46.66271396 -23.31016819 23.33255616 0 0 Z " fill="#F7B64C" transform="translate(255,83)"/>
<path d="M0 0 C34.32 0 68.64 0 104 0 C104 18.48 104 36.96 104 56 C96.74 56 89.48 56 82 56 C82 87.02 82 118.04 82 150 C78.06493321 148.0324666 75.54399466 145.82109423 72.51293945 142.75585938 C71.97751526 142.22233353 71.44209106 141.68880768 70.89044189 141.13911438 C69.12646824 139.37883782 67.36978525 137.61147782 65.61328125 135.84375 C64.38864509 134.61792152 63.16363881 133.39246271 61.9382782 132.1673584 C59.37395362 129.60147089 56.81302084 127.03226155 54.25463867 124.46044922 C50.97098571 121.15977987 47.68076143 117.86575852 44.38821125 114.57396698 C41.85981712 112.04530133 39.3340346 109.51404093 36.80913353 106.98188782 C35.59644922 105.76601635 34.38315389 104.55075399 33.16924477 103.33610535 C31.47658678 101.64128584 29.78725894 99.94321852 28.09887695 98.24414062 C27.59446579 97.74018265 27.09005463 97.23622467 26.57035828 96.71699524 C22.67491001 92.78530129 21.88610316 91.00536092 21.88670349 85.43710327 C21.89186478 84.68184357 21.89702606 83.92658386 21.90234375 83.1484375 C21.9037587 82.37440582 21.90517365 81.60037415 21.90663147 80.80288696 C21.91223597 78.32688558 21.92478917 75.85097412 21.9375 73.375 C21.94251442 71.69791797 21.94707743 70.02083453 21.95117188 68.34375 C21.96135664 64.22910403 21.98093106 60.11465285 22 56 C14.74 56 7.48 56 0 56 C0 37.52 0 19.04 0 0 Z " fill="#F26F59" transform="translate(360,21)"/>
<path d="M0 0 C18.81 0 37.62 0 57 0 C57 36.3 57 72.6 57 110 C38.19 110 19.38 110 0 110 C0 73.7 0 37.4 0 0 Z " fill="#88D5F6" transform="translate(344,342)"/>
<path d="M0 0 C18.81 0 37.62 0 57 0 C57 36.3 57 72.6 57 110 C38.19 110 19.38 110 0 110 C0 73.7 0 37.4 0 0 Z " fill="#88D5F6" transform="translate(271,342)"/>
<path d="M0 0 C19.8 0 39.6 0 60 0 C60 31.02 60 62.04 60 94 C56.06493321 92.0324666 53.54399466 89.82109423 50.51293945 86.75585938 C49.97751526 86.22233353 49.44209106 85.68880768 48.89044189 85.13911438 C47.12646824 83.37883782 45.36978525 81.61147782 43.61328125 79.84375 C42.38864509 78.61792152 41.16363881 77.39246271 39.9382782 76.1673584 C37.37395362 73.60147089 34.81302084 71.03226155 32.25463867 68.46044922 C28.97098571 65.15977987 25.68076143 61.86575852 22.38821125 58.57396698 C19.85981712 56.04530133 17.3340346 53.51404093 14.80913353 50.98188782 C13.59644922 49.76601635 12.38315389 48.55075399 11.16924477 47.33610535 C9.47658678 45.64128584 7.78725894 43.94321852 6.09887695 42.24414062 C5.59446579 41.74018265 5.09005463 41.23622467 4.57035828 40.71699524 C0.66504127 36.77534073 -0.11410861 34.98822283 -0.11315918 29.4074707 C-0.10804321 28.66198975 -0.10292725 27.91650879 -0.09765625 27.1484375 C-0.09664917 26.46241455 -0.09564209 25.7763916 -0.09460449 25.06958008 C-0.08936889 22.50470307 -0.07540763 19.93984987 -0.0625 17.375 C-0.041875 11.64125 -0.02125 5.9075 0 0 Z " fill="#F05540" transform="translate(382,77)"/>
</svg>
