<?xml version="1.0" encoding="UTF-8"?>
<svg version="1.1" xmlns="http://www.w3.org/2000/svg" width="512" height="512">
<path d="M0 0 C3.88772386 3.0752187 7.58022675 6.33870631 11.23974609 9.68066406 C11.92810547 10.298125 12.61646484 10.91558594 13.32568359 11.55175781 C31.64943299 28.83909604 42.48969966 55.22485352 43.52099609 80.16503906 C44.14300799 105.7769153 38.00084796 129.87125438 26.23974609 152.68066406 C27.25294922 152.10316406 28.26615234 151.52566406 29.31005859 150.93066406 C30.66125274 150.18000065 32.01283605 149.43003742 33.36474609 148.68066406 C34.02990234 148.29910156 34.69505859 147.91753906 35.38037109 147.52441406 C36.36650391 146.98300781 36.36650391 146.98300781 37.37255859 146.43066406 C37.96955566 146.09550781 38.56655273 145.76035156 39.18164062 145.41503906 C42.912089 144.0839372 46.08989546 144.23015082 49.7590332 145.66772461 C50.58669189 146.12961182 51.41435059 146.59149902 52.26708984 147.06738281 C53.21173096 147.58671387 54.15637207 148.10604492 55.12963867 148.64111328 C56.13534912 149.21104004 57.14105957 149.7809668 58.17724609 150.36816406 C59.2377417 150.9561377 60.2982373 151.54411133 61.39086914 152.14990234 C64.68180949 153.97963884 67.96187583 155.82763157 71.23974609 157.68066406 C73.15379303 158.75751464 75.06785485 159.83433877 76.98193359 160.91113281 C80.75017879 163.03578521 84.51347906 165.16896181 88.27490234 167.30566406 C94.65911469 170.92646547 101.07235351 174.49408734 107.48974609 178.05566406 C108.602771 178.67473633 109.7157959 179.29380859 110.86254883 179.93164062 C116.19273101 182.89349073 121.52837714 185.84346747 126.88439941 188.75827026 C129.36672663 190.11024205 131.84555332 191.46856015 134.32409668 192.82745361 C136.0702492 193.78135594 137.82144457 194.72600881 139.57275391 195.67041016 C152.31061289 202.66098114 152.31061289 202.66098114 154.07373047 208.39111328 C154.85806979 211.76653699 155.4764535 215.13866536 156.05224609 218.55566406 C156.26816406 219.71453125 156.48408203 220.87339844 156.70654297 222.06738281 C158.78284114 233.60237268 158.78284114 233.60237268 158.23974609 238.68066406 C157.37349609 239.38191406 156.50724609 240.08316406 155.61474609 240.80566406 C152.93770842 243.45761119 152.93770842 243.45761119 153.10693359 246.77441406 C153.48924609 250.3010518 153.99876053 253.35482275 155.23974609 256.68066406 C158.64638117 258.42636745 158.64638117 258.42636745 162.23974609 259.68066406 C166.02793404 267.1624896 166.67672927 276.67547933 168.15063477 284.88574219 C168.42646986 286.39815126 168.70278444 287.91047295 168.97953796 289.42271423 C169.72449822 293.50225835 170.46214737 297.58309118 171.1979425 301.6642971 C171.81466762 305.08159568 172.43483737 308.49826564 173.05493432 311.91495371 C174.51828701 319.97863723 175.97550934 328.04341211 177.42895508 336.10888672 C178.92489966 344.40954197 180.43151517 352.7082104 181.94333476 361.00598764 C183.24483273 368.15164328 184.53951527 375.29851129 185.82883435 382.44637442 C186.59729183 386.70618967 187.36830122 390.96550135 188.14595604 395.22364807 C188.87693445 399.2278136 189.59934719 403.23343415 190.31538582 407.24029732 C190.5784111 408.70408373 190.8443748 410.1673459 191.11360931 411.63000298 C194.85274271 431.97082974 194.85274271 431.97082974 191.67724609 437.30566406 C188.29900172 439.21134038 186.10252912 438.97416404 182.23974609 438.68066406 C179.4437335 437.8238106 176.85317131 436.62464204 174.21240234 435.37597656 C173.05880219 434.85016747 173.05880219 434.85016747 171.88189697 434.31373596 C169.34965153 433.15636763 166.82620727 431.98097443 164.30224609 430.80566406 C162.51992448 429.98762356 160.73695371 429.17099609 158.95336914 428.35571289 C155.23964782 426.65683207 151.52881075 424.95186736 147.81982422 423.24267578 C139.9260309 419.61087904 131.99819535 416.05511852 124.07040405 412.49832153 C119.91850755 410.6349369 115.76872164 408.76686362 111.61865234 406.89941406 C110.0263761 406.18324842 108.43409109 405.46710226 106.84179688 404.75097656 C103.85024194 403.40538512 100.85902755 402.05904167 97.86816406 400.71191406 C94.52093341 399.20427461 91.17301936 397.69816392 87.82455444 396.19326782 C86.07223623 395.40525945 84.32064575 394.61563342 82.5690918 393.82592773 C80.46519398 392.88109592 78.35240209 391.95576035 76.23022461 391.05273438 C73.23974609 389.68066406 73.23974609 389.68066406 70.45043945 387.94140625 C66.72159897 385.81764027 63.58204853 384.2218796 59.20819092 385.07858276 C53.29848456 386.93846069 47.82442089 389.78420249 42.30224609 392.55566406 C40.50749275 393.41622277 38.71058436 394.27230046 36.91162109 395.12402344 C33.32138492 396.8290676 29.74183067 398.55377522 26.16992188 400.296875 C19.76073859 403.41362645 13.26021597 406.30441708 6.73974609 409.18066406 C4.46039325 410.19991779 2.18176779 411.22079943 -0.09619141 412.24316406 C-1.88621582 413.04560547 -1.88621582 413.04560547 -3.71240234 413.86425781 C-12.10638427 417.62964426 -20.49556559 421.40572384 -28.88525391 425.18066406 C-29.74723389 425.56843018 -30.60921387 425.95619629 -31.49731445 426.35571289 C-33.17627349 427.11104353 -34.85508994 427.86669121 -36.53375244 428.62268066 C-38.13003598 429.34062406 -39.72714602 430.05673302 -41.32513428 430.77087402 C-44.60997461 432.24182427 -47.86829119 433.73375053 -51.09912109 435.32128906 C-52.0365918 435.78019531 -52.9740625 436.23910156 -53.93994141 436.71191406 C-54.69774902 437.09927734 -55.45555664 437.48664063 -56.23632812 437.88574219 C-63.19310796 440.07681156 -68.42701149 438.44543875 -74.68603516 435.38378906 C-75.42200928 435.03931229 -76.1579834 434.69483551 -76.91625977 434.33992004 C-79.30840742 433.21703266 -81.69019558 432.07373637 -84.07275391 430.93066406 C-85.74988703 430.14037467 -87.42787625 429.35189965 -89.10668945 428.56518555 C-91.63535983 427.37998414 -94.16350216 426.19379941 -96.68904114 425.00193787 C-103.44129315 421.81562036 -110.23762009 418.74816856 -117.07275391 415.74316406 C-124.97016855 412.25928234 -132.85179549 408.74376131 -140.71728516 405.18847656 C-142.0337075 404.59391914 -142.0337075 404.59391914 -143.37672424 403.98735046 C-150.45914185 400.78830411 -150.45914185 400.78830411 -153.92959595 399.21389771 C-154.75067841 398.84142914 -155.57176086 398.46896057 -156.41772461 398.08520508 C-157.22780472 397.71757553 -158.03788483 397.34994598 -158.87251282 396.97117615 C-161.27708789 395.88987861 -163.69181345 394.83405864 -166.10791016 393.77880859 C-169.20188663 392.41788617 -172.18584545 390.94437614 -175.16259766 389.34423828 C-183.15246841 385.17964836 -183.15246841 385.17964836 -191.90136719 385.42749023 C-196.3393951 386.97640858 -200.39462734 389.1845993 -204.51025391 391.43066406 C-206.0438302 392.20753599 -207.58077705 392.97778643 -209.12084961 393.74169922 C-212.22814338 395.2893524 -215.31945428 396.86337238 -218.40136719 398.4609375 C-224.47066828 401.58384856 -230.69613142 404.31792919 -236.94775391 407.05566406 C-239.27936386 408.09535774 -241.61006482 409.13709184 -243.93994141 410.18066406 C-244.54135452 410.44948395 -245.14276764 410.71830383 -245.7624054 410.99526978 C-251.14388154 413.40105509 -256.51880164 415.82132 -261.89306641 418.24316406 C-262.77495132 418.64048737 -263.65683624 419.03781067 -264.56544495 419.44717407 C-268.08347635 421.03229046 -271.6014766 422.61747336 -275.1187439 424.20428467 C-279.13792835 426.01744095 -283.15883303 427.8264355 -287.18457031 429.625 C-290.22467271 430.98420327 -293.25065036 432.36972962 -296.26953125 433.77539062 C-297.68693215 434.4236766 -299.1044089 435.07179677 -300.52197266 435.71972656 C-301.15263138 436.0204306 -301.7832901 436.32113464 -302.43305969 436.63095093 C-306.69310905 438.55620508 -310.10932712 439.07453976 -314.76025391 438.68066406 C-317.19775391 437.30566406 -317.19775391 437.30566406 -318.76025391 434.68066406 C-319.83531593 426.62349012 -317.91027546 418.37207913 -316.41650391 410.47412109 C-316.00768517 408.2919528 -315.62568532 406.10611142 -315.24462891 403.91894531 C-314.98582122 402.51890734 -314.72546006 401.11915545 -314.46337891 399.71972656 C-314.11774902 397.83568115 -314.11774902 397.83568115 -313.76513672 395.91357422 C-312.66455427 392.37277909 -311.69501758 390.90212641 -308.76025391 388.68066406 C-307.44025391 388.35066406 -306.12025391 388.02066406 -304.76025391 387.68066406 C-303.77025391 383.06066406 -302.78025391 378.44066406 -301.76025391 373.68066406 C-303.08025391 373.02066406 -304.40025391 372.36066406 -305.76025391 371.68066406 C-310.49848247 364.57332122 -305.66145161 351.94721846 -304.21582031 343.97875977 C-303.95422531 342.52073608 -303.69294781 341.06265539 -303.43196106 339.60452271 C-302.72698528 335.67225723 -302.01698632 331.74091553 -301.30556917 327.80981088 C-300.86061595 325.34980836 -300.41675747 322.88961087 -299.97327805 320.42934227 C-298.42420756 311.83586949 -296.87100007 303.24315617 -295.31396484 294.65112305 C-293.86534435 286.65670944 -292.42593282 278.66067452 -290.99074996 270.66383868 C-289.75506307 263.78096961 -288.51290175 256.89928933 -287.26573884 250.01849049 C-286.52229023 245.91612518 -285.78145024 241.8133313 -285.04716873 237.70931435 C-284.35690992 233.85260391 -283.65858347 229.99743985 -282.95412254 226.1432991 C-282.6976655 224.73254806 -282.44404729 223.3212774 -282.1935482 221.90945625 C-279.1282533 204.65679099 -279.1282533 204.65679099 -274.55322266 200.83886719 C-273.69341797 200.38447266 -272.83361328 199.93007812 -271.94775391 199.46191406 C-270.47918945 198.66430664 -270.47918945 198.66430664 -268.98095703 197.85058594 C-267.918125 197.29951172 -266.85529297 196.7484375 -265.76025391 196.18066406 C-263.47883963 194.95180233 -261.19759532 193.722625 -258.91650391 192.49316406 C-257.72276277 191.8585427 -256.52875054 191.22443102 -255.33447266 190.59082031 C-249.59719722 187.53748628 -243.93445326 184.34911588 -238.26025391 181.18066406 C-235.98966629 179.91980481 -233.7188332 178.65938749 -231.44775391 177.39941406 C-226.07275446 174.41330326 -220.70475727 171.41495379 -215.34155273 168.40771484 C-213.30065301 167.26380195 -211.2588344 166.12152679 -209.21606445 164.98095703 C-204.22307833 162.19193877 -199.23965563 159.3883585 -194.27871704 156.54278564 C-191.81307061 155.13089639 -189.34176816 153.72909602 -186.86962891 152.32861328 C-185.11316706 151.32867101 -183.36433667 150.31536119 -181.61572266 149.30175781 C-180.54580078 148.6971875 -179.47587891 148.09261719 -178.37353516 147.46972656 C-177.43292236 146.93041504 -176.49230957 146.39110352 -175.52319336 145.83544922 C-171.6791785 144.22882288 -168.56618791 144.06378359 -164.61035156 145.41503906 C-163.97145996 145.75019531 -163.33256836 146.08535156 -162.67431641 146.43066406 C-161.62050781 146.97207031 -161.62050781 146.97207031 -160.54541016 147.52441406 C-159.83255859 147.90597656 -159.11970703 148.28753906 -158.38525391 148.68066406 C-157.28117187 149.25300781 -157.28117187 149.25300781 -156.15478516 149.83691406 C-154.3509305 150.77398141 -152.55478132 151.72585613 -150.76025391 152.68066406 C-151.03699951 152.08342529 -151.31374512 151.48618652 -151.59887695 150.87084961 C-157.65018376 137.69902487 -162.76100853 124.87962318 -165.76025391 110.68066406 C-166.00388672 109.60558594 -166.24751953 108.53050781 -166.49853516 107.42285156 C-171.79526521 79.82220382 -166.03994119 50.96412896 -150.93457031 27.39355469 C-147.32087361 22.122516 -143.06374796 17.39038764 -138.76025391 12.68066406 C-138.09251953 11.93042969 -137.42478516 11.18019531 -136.73681641 10.40722656 C-102.51166737 -26.12848106 -39.44453133 -29.56425067 0 0 Z M-76.76025391 50.55566406 C-77.64712891 50.90371094 -78.53400391 51.25175781 -79.44775391 51.61035156 C-81.88775233 52.57836215 -81.88775233 52.57836215 -83.76025391 54.68066406 C-83.45667969 56.02451172 -83.45667969 56.02451172 -83.14697266 57.39550781 C-82.62189194 61.85604196 -84.09458889 63.56714695 -86.57275391 67.24316406 C-92.40976452 76.01417647 -93.68283213 82.1171434 -92.76025391 92.68066406 C-90.7205547 101.2566721 -86.09033826 107.68104762 -78.76025391 112.49316406 C-71.44214937 116.96025704 -64.14715497 117.47001946 -55.76025391 116.68066406 C-46.24169027 114.36034938 -39.83539103 109.04948938 -34.80322266 100.80566406 C-31.06957703 93.1985359 -30.48204637 85.13792139 -32.41259766 76.89550781 C-35.50609483 68.30541051 -40.48198745 62.61097794 -48.51025391 58.30566406 C-53.45309274 55.99900594 -58.07243637 54.79606247 -63.48291016 54.20019531 C-66.14859815 53.59207095 -67.07653785 52.79448827 -68.76025391 50.68066406 C-69.09025391 50.02066406 -69.42025391 49.36066406 -69.76025391 48.68066406 C-72.41116222 48.68066406 -74.29954719 49.5756733 -76.76025391 50.55566406 Z " fill="#020201" transform="translate(318.76025390625,46.3193359375)"/>
<path d="M0 0 C1.23298828 -0.01224609 2.46597656 -0.02449219 3.73632812 -0.03710938 C10.50931956 -0.04795773 16.67895995 0.27512614 23.1875 2.1875 C24.43273437 2.54328125 25.67796875 2.8990625 26.9609375 3.265625 C53.41747672 11.8740434 71.2719746 28.82035904 83.75 53.24609375 C93.06784332 73.68433936 93.35117881 100.10323397 86.1875 121.1875 C85.80317177 122.47442226 85.42173336 123.76221055 85.04296875 125.05078125 C75.4293882 156.21178173 54.94935553 182.52097555 33.1875 206.1875 C31.74988617 207.8123993 30.31238903 209.43740184 28.875 211.0625 C8.99602514 233.13094237 8.99602514 233.13094237 0.1875 237.1875 C-7.31459687 231.57357133 -13.94961217 225.24300765 -20.5625 218.625 C-21.36598877 217.82215576 -22.16947754 217.01931152 -22.99731445 216.19213867 C-27.79883311 211.34694729 -32.38657118 206.37687736 -36.8125 201.1875 C-37.27833496 200.64875244 -37.74416992 200.11000488 -38.22412109 199.55493164 C-57.69597129 177.01932879 -75.51342839 151.99091103 -84.21142578 123.15673828 C-84.78796924 121.26786763 -85.42211655 119.39687082 -86.05859375 117.52734375 C-92.89754641 95.02269329 -90.29642889 68.40079849 -79.625 47.5625 C-66.76217746 24.80735424 -47.26359825 9.80296549 -22.4609375 1.87890625 C-14.98578215 -0.07257236 -7.67648744 0.00397539 0 0 Z M-13.8125 54.0625 C-14.699375 54.41054687 -15.58625 54.75859375 -16.5 55.1171875 C-18.93999843 56.08519809 -18.93999843 56.08519809 -20.8125 58.1875 C-20.50892578 59.53134766 -20.50892578 59.53134766 -20.19921875 60.90234375 C-19.67413804 65.3628779 -21.14683498 67.07398289 -23.625 70.75 C-29.46201061 79.52101241 -30.73507822 85.62397933 -29.8125 96.1875 C-27.77280079 104.76350804 -23.14258436 111.18788355 -15.8125 116 C-8.49439547 120.46709297 -1.19940107 120.97685539 7.1875 120.1875 C16.70606363 117.86718532 23.11236288 112.55632532 28.14453125 104.3125 C31.87817687 96.70537184 32.46570754 88.64475732 30.53515625 80.40234375 C27.44165908 71.81224645 22.46576645 66.11781387 14.4375 61.8125 C9.49466117 59.50584188 4.87531753 58.30289841 -0.53515625 57.70703125 C-3.20084425 57.09890689 -4.12878394 56.30132421 -5.8125 54.1875 C-6.1425 53.5275 -6.4725 52.8675 -6.8125 52.1875 C-9.46340831 52.1875 -11.35179328 53.08250924 -13.8125 54.0625 Z " fill="#FD4949" transform="translate(255.8125,42.8125)"/>
<path d="M0 0 C1.7824707 1.00292969 1.7824707 1.00292969 3.42578125 2.421875 C4.0499292 2.94724854 4.67407715 3.47262207 5.31713867 4.01391602 C5.97560791 4.58682373 6.63407715 5.15973145 7.3125 5.75 C8.72951712 6.94408586 10.14885669 8.13542023 11.5703125 9.32421875 C12.66134277 10.23953369 12.66134277 10.23953369 13.77441406 11.17333984 C17.96403466 14.61199071 22.3280687 17.81537187 26.68286133 21.04003906 C27.90710889 21.94712323 29.12933644 22.85694277 30.34912109 23.77001953 C31.85367142 24.8909785 33.37335214 25.99155654 34.89453125 27.08984375 C38.74700005 30.58494067 38.26785881 35.2940242 38.66430664 40.28442383 C38.72297409 41.01193848 38.78164154 41.73945313 38.84208679 42.48901367 C39.0350243 44.89474971 39.222847 47.30085088 39.41015625 49.70703125 C39.54311876 51.39174914 39.67621311 53.07645662 39.80943298 54.76115417 C40.08830711 58.29916501 40.3644554 61.8373766 40.63891602 65.37573242 C40.98788688 69.86987993 41.34521385 74.36331729 41.7049036 78.85661793 C41.9826687 82.34228775 42.25498081 85.82836879 42.52584648 89.31458092 C42.65515547 90.96860941 42.78628097 92.62249709 42.91938972 94.27622414 C43.74316974 104.54655334 44.17513902 114.69393473 44 125 C31.75963633 130.73110387 19.48545403 136.38462221 7.18334961 141.98193359 C5.64824977 142.6806092 4.11317466 143.37933915 2.578125 144.078125 C1.83309219 144.41715851 1.08805939 144.75619202 0.32044983 145.10549927 C-3.99541923 147.07335263 -8.29348834 149.07410484 -12.578125 151.109375 C-13.50471924 151.5439502 -14.43131348 151.97852539 -15.38598633 152.42626953 C-17.03506833 153.20102722 -18.67863263 153.98769002 -20.31518555 154.78857422 C-25.38225506 157.14687642 -25.38225506 157.14687642 -28.234375 156.46875 C-30.37381586 154.68903814 -32.36237477 152.86322714 -34.3125 150.875 C-35.03050781 150.15054688 -35.74851562 149.42609375 -36.48828125 148.6796875 C-37.84826402 147.2287572 -39.19414339 145.76075196 -40.44721985 144.21655273 C-43.5379728 140.45228618 -46.44032719 137.56123256 -50.58154297 134.97314453 C-57.01613045 130.58172858 -62.67336568 125.52252494 -64.5504303 117.70866394 C-66.77373358 103.75318766 -65.75677438 89.24749616 -65.23596191 75.18920898 C-65.05014052 69.63909814 -64.96926701 64.08749633 -64.87890625 58.53515625 C-64.68719573 47.68619415 -64.38098959 36.84385252 -64 26 C-62.64034017 25.39893087 -61.28068034 24.79786174 -59.92102051 24.1967926 C-59.05480827 23.81386268 -58.18859604 23.43093275 -57.29613495 23.03639889 C-55.40370652 22.19980855 -53.51127588 21.36322323 -51.61884308 20.5266428 C-47.73144102 18.8081481 -43.84405077 17.08962684 -39.95678711 15.37081909 C-39.02680908 14.95961823 -38.09683105 14.54841736 -37.13867188 14.12475586 C-36.2706897 13.74090225 -35.40270752 13.35704865 -34.50842285 12.96156311 C-32.72634075 12.17445544 -30.9436541 11.38871578 -29.16052246 10.60398865 C-24.82945677 8.69745338 -20.50465946 6.78069488 -16.19921875 4.81689453 C-15.4683606 4.48710098 -14.73750244 4.15730743 -13.98449707 3.81752014 C-12.64732433 3.21360306 -11.31327936 2.60268631 -9.98327637 1.98313904 C-6.53046536 0.43411164 -3.78767345 -0.54977782 0 0 Z " fill="#4BE065" transform="translate(328,292)"/>
<path d="M0 0 C-0.21176564 4.59980433 -0.43053085 9.19917469 -0.65576172 13.79833984 C-0.84297799 17.64106587 -1.02253007 21.48391199 -1.18634033 25.32769775 C-1.58387918 34.62646688 -2.04191986 43.91863338 -2.59995461 53.2092762 C-2.86961472 57.7379047 -3.10908739 62.26426807 -3.28442383 66.79760742 C-3.45774166 71.24948054 -3.70661085 75.69132469 -4.00781059 80.13631248 C-4.10829598 81.811316 -4.18219759 83.48815451 -4.22770882 85.16555214 C-4.38396366 90.54092442 -4.7821514 95.0550081 -7 100 C-10.94352654 103.64712747 -15.90572073 105.48114841 -20.90490246 107.2380743 C-24.34890657 108.49055786 -27.64000334 110.06961179 -30.9609375 111.61328125 C-32.33118366 112.22191278 -33.70262235 112.82788554 -35.07641602 113.4284668 C-39.65539223 115.43507042 -44.22878819 117.45410184 -48.80078125 119.4765625 C-49.61487961 119.83640732 -50.42897797 120.19625214 -51.26774597 120.56700134 C-61.39238248 125.04858909 -71.47733835 129.61794927 -81.5625 134.1875 C-82.90535065 134.79569077 -82.90535065 134.79569077 -84.27532959 135.41616821 C-86.01816328 136.20557549 -87.76092258 136.99514703 -89.50360107 137.78489685 C-91.14379547 138.52818939 -92.78413089 139.27117084 -94.42462158 140.0138092 C-97.81601615 141.55022372 -101.20304097 143.09403275 -104.58154297 144.65869141 C-105.57428223 145.11808105 -106.56702148 145.5774707 -107.58984375 146.05078125 C-108.41218506 146.43532471 -109.23452637 146.81986816 -110.08178711 147.21606445 C-112 148 -112 148 -114 148 C-113.93941406 147.28457031 -113.87882812 146.56914062 -113.81640625 145.83203125 C-113.6395238 143.72849076 -113.47087916 141.6242482 -113.30859375 139.51953125 C-113.10151299 137.15776208 -112.84290305 134.79999053 -112.53515625 132.44921875 C-112.39980469 131.31097656 -112.26445313 130.17273438 -112.125 129 C-111.91230469 127.4221875 -111.91230469 127.4221875 -111.6953125 125.8125 C-111.69480392 122.76295538 -111.69480392 122.76295538 -114.5 120.93359375 C-115.325 120.29550781 -116.15 119.65742188 -117 119 C-117.3046875 116.59765625 -117.3046875 116.59765625 -116.875 114.0625 C-116.73964844 113.18980469 -116.60429688 112.31710937 -116.46484375 111.41796875 C-116.31144531 110.62003906 -116.15804687 109.82210937 -116 109 C-115.814375 107.96875 -115.62875 106.9375 -115.4375 105.875 C-115.293125 105.25625 -115.14875 104.6375 -115 104 C-113.3603125 103.7834375 -113.3603125 103.7834375 -111.6875 103.5625 C-109.70925961 103.08110676 -109.70925961 103.08110676 -108 102 C-105.02916037 96.45117117 -104.2596705 89.66482731 -103.31640625 83.51171875 C-103.02588724 81.73624679 -102.73485686 79.96085845 -102.44335938 78.18554688 C-101.99830242 75.42372804 -101.55841839 72.6613076 -101.12768555 69.8972168 C-100.70479605 67.20370309 -100.26197796 64.51405957 -99.81640625 61.82421875 C-99.6933461 60.99814621 -99.57028595 60.17207367 -99.4434967 59.32096863 C-98.65988064 54.67635568 -97.96292373 51.91968514 -94 49 C-92.16026409 47.86245076 -90.27569975 46.79575111 -88.36328125 45.78515625 C-87.24131348 45.18807861 -86.1193457 44.59100098 -84.96337891 43.97583008 C-83.74651185 43.33787676 -82.52954981 42.70010461 -81.3125 42.0625 C-80.05097184 41.39468639 -78.78974537 40.72630261 -77.52880859 40.05737305 C-68.39335455 35.22025276 -59.21612366 30.46271618 -50.03442383 25.71411133 C-41.33419611 21.2038855 -32.7337442 16.52263218 -24.140625 11.8125 C-19.19029146 9.10009083 -14.2285748 6.41022559 -9.25 3.75 C-8.18555664 3.17523926 -8.18555664 3.17523926 -7.09960938 2.58886719 C-2.23244201 0 -2.23244201 0 0 0 Z " fill="#A7ECFA" transform="translate(132,316)"/>
<path d="M0 0 C15.03478992 1.48106809 30.04242144 3.20875576 45.02243042 5.1663208 C48.63595758 5.63759469 52.25000385 6.09228416 55.87011719 6.51025391 C59.43770839 6.92268714 62.99777646 7.3768905 66.55653381 7.85946655 C68.52864881 8.11651462 70.50603645 8.33205484 72.48327637 8.54614258 C82.43622347 9.95826731 87.25842908 13.98483306 94 21 C94.99 21.66 95.98 22.32 97 23 C97.41796916 27.33573347 97.12793751 31.6501246 97 36 C83.80050826 35.32752009 70.75688712 33.71873273 57.6484375 32.08129883 C54.88061709 31.73698921 52.11221536 31.39767196 49.34375 31.05859375 C48.50823608 30.95236191 47.67272217 30.84613007 46.81188965 30.73667908 C38.68285333 29.32870402 38.68285333 29.32870402 31.0625 31.125 C29.49309755 33.89453373 29.72525177 35.84227722 30 39 C31.3916972 42.11497928 31.3916972 42.11497928 33.5 45.3125 C33.89018311 45.93930664 34.28036621 46.56611328 34.68237305 47.21191406 C36.10563684 49.48506737 37.55189381 51.74259253 39 54 C40.24624328 55.95693603 41.49232682 57.9139738 42.73828125 59.87109375 C45.4879211 64.18106897 48.24693447 68.48488208 51.01171875 72.78515625 C54.40797275 78.07027913 57.7768412 83.37180788 61.125 88.6875 C65.98306157 96.39766059 70.87068589 104.08861931 75.76757812 111.77416992 C80.23037313 118.78172609 84.67151953 125.80270926 89.09375 132.8359375 C89.55007812 133.56039062 90.00640625 134.28484375 90.4765625 135.03125 C90.86924316 135.65580078 91.26192383 136.28035156 91.66650391 136.92382812 C93.05745389 139.16110622 93.05745389 139.16110622 95.13330078 141.71923828 C97.49709217 145.87364956 97.51832813 148.78158344 97.390625 153.4609375 C97.38496521 154.25150543 97.37930542 155.04207336 97.37347412 155.8565979 C97.35121487 158.36336727 97.30104153 160.86866813 97.25 163.375 C97.22992133 165.0820105 97.21167296 166.78904357 97.1953125 168.49609375 C97.15138484 172.66462196 97.08243296 176.83206264 97 181 C93.28405654 177.38157281 90.44686605 173.81944353 87.8125 169.375 C83.36694399 162.08459598 78.69272379 154.96674246 73.9375 147.875 C66.55099528 136.84717402 59.22732885 125.77946824 51.9375 114.6875 C51.41381836 113.89089966 50.89013672 113.09429932 50.35058594 112.27355957 C47.11339587 107.34921929 43.8772704 102.42418027 40.64160156 97.49884033 C38.99421897 94.99120014 37.34675647 92.48361249 35.69921875 89.97607422 C35.15503296 89.14780624 34.61084717 88.31953827 34.0501709 87.46617126 C32.95751649 85.80362987 31.86450105 84.1413257 30.77111816 82.47926331 C28.10703188 78.42936274 25.44752871 74.37663314 22.79882812 70.31665039 C18.27787636 63.39970013 13.72825603 56.53295449 8.875 49.84375 C-3.9590211 31.98896195 -3.9590211 31.98896195 -2.625 20.56640625 C-2.41875 19.38949219 -2.2125 18.21257812 -2 17 C-1.83777566 14.58437826 -1.69101294 12.1676496 -1.5625 9.75 C-1.29265095 6.3747452 -0.85660805 3.26965596 0 0 Z " fill="#FCB823" transform="translate(151,269)"/>
<path d="M0 0 C3.3808849 3.73401192 3.48784136 9.33027151 4.16943359 14.13671875 C4.51330089 16.39934002 4.87085114 18.65993443 5.24365234 20.91796875 C5.38762451 21.91892578 5.53159668 22.91988281 5.67993164 23.95117188 C6.63977615 27.16526307 7.90876622 28.52971151 10.48193359 30.63671875 C12.62013019 31.42398655 12.62013019 31.42398655 14.48193359 31.63671875 C15.01116932 33.75964171 15.53008736 35.88513926 16.04443359 38.01171875 C16.33447266 39.19507813 16.62451172 40.3784375 16.92333984 41.59765625 C17.48193359 44.63671875 17.48193359 44.63671875 16.48193359 46.63671875 C15.14860026 47.30338542 13.81526693 47.97005208 12.48193359 48.63671875 C10.13678355 53.32701883 11.61232003 59.14306303 12.61865234 64.08203125 C12.98676025 65.92498779 12.98676025 65.92498779 13.36230469 67.80517578 C13.49401062 68.45021057 13.62571655 69.09524536 13.76141357 69.75982666 C14.46152077 73.19480286 15.13723212 76.63457392 15.81396484 80.07421875 C15.95302246 80.77918488 16.09208008 81.484151 16.23535156 82.21047974 C17.70707067 89.710677 19.0506691 97.23114954 20.35693359 104.76171875 C20.6792395 106.59114014 20.6792395 106.59114014 21.00805664 108.45751953 C21.30063354 110.15884033 21.30063354 110.15884033 21.59912109 111.89453125 C21.77040527 112.88598145 21.94168945 113.87743164 22.11816406 114.89892578 C22.4660023 117.51681702 22.54988705 119.99976393 22.48193359 122.63671875 C17.15914542 118.4464387 13.08557318 113.85333956 8.86865234 108.5625 C6.49764074 105.6559735 4.02528848 102.89300567 1.48193359 100.13671875 C-2.63185549 95.66686755 -6.48893937 91.04626982 -10.30322266 86.3203125 C-12.47439467 83.68963318 -14.72047998 81.15729451 -17.01806641 78.63671875 C-20.11361837 75.24073193 -23.06957848 71.77500344 -25.95556641 68.19921875 C-29.81631778 63.42531575 -33.89243716 58.90283447 -38.04931641 54.38671875 C-41.24687937 50.82487646 -44.23194983 47.11106042 -47.23681641 43.38671875 C-49.58525609 40.55572297 -52.02716543 37.84288277 -54.51806641 35.13671875 C-58.70201371 30.58838413 -62.65679898 25.90158967 -66.53369141 21.08984375 C-68.18259159 19.05143959 -69.86673106 17.05764617 -71.58056641 15.07421875 C-73.51806641 12.63671875 -73.51806641 12.63671875 -73.51806641 10.63671875 C-65.19570315 8.59031328 -56.86022147 6.60075462 -48.51806641 4.63671875 C-47.7727063 4.46086243 -47.02734619 4.2850061 -46.25939941 4.1038208 C-41.44369064 2.96949673 -36.62449187 1.85180729 -31.80090332 0.75146484 C-30.20249203 0.38486344 -28.60505949 0.01396673 -27.00866699 -0.36132812 C-24.74090171 -0.89338849 -22.4700092 -1.40937825 -20.19775391 -1.921875 C-19.18964157 -2.16356667 -19.18964157 -2.16356667 -18.16116333 -2.41014099 C-11.91096051 -3.78713189 -5.57220235 -3.44819894 0 0 Z " fill="#7CE2EF" transform="translate(456.51806640625,258.36328125)"/>
<path d="M0 0 C3.16779974 3.02662853 5.43583928 6.50791346 7.8125 10.1640625 C8.28933228 10.89116425 8.76616455 11.61826599 9.25744629 12.36740112 C10.84157238 14.7844736 12.42070608 17.20476803 14 19.625 C15.12004567 21.3355465 16.24049582 23.04582821 17.36132812 24.75585938 C19.71747547 28.35101954 22.07207644 31.94718565 24.42578125 35.54394531 C29.54151966 43.35757211 34.68174686 51.15505244 39.82138062 58.95297241 C42.6279701 63.21150827 45.43316494 67.47096241 48.23828125 71.73046875 C48.79312698 72.5729567 49.34797272 73.41544464 49.91963196 74.28346252 C53.94213633 80.39193934 57.96189719 86.50221659 61.98046875 92.61328125 C62.54778717 93.47593597 63.11510559 94.3385907 63.69961548 95.22738647 C66.39397643 99.32445098 69.08796141 103.42176172 71.78125 107.51953125 C77.1589253 115.69897216 82.5557945 123.86465267 88 132 C87.34 132.33 86.68 132.66 86 133 C83.71247584 132.15543205 81.54826244 131.24449813 79.3359375 130.23046875 C78.6481723 129.92272522 77.9604071 129.61498169 77.25180054 129.2979126 C74.95613174 128.26849987 72.66566822 127.22798705 70.375 126.1875 C68.76887693 125.46485954 67.16242583 124.74294774 65.55566406 124.02172852 C61.25803568 122.09050473 56.96466582 120.1499815 52.67199707 118.20776367 C47.31806789 115.78774561 41.9588033 113.37957376 36.60031128 110.96968079 C32.33442373 109.05096634 28.06919543 107.13083778 23.80615234 105.20581055 C22.21978196 104.48994885 20.6333573 103.77420741 19.046875 103.05859375 C18.28875519 102.7165239 17.53063538 102.37445404 16.74954224 102.02201843 C10.79707804 99.34300421 4.82016014 96.72210396 -1.17803955 94.14707947 C-5.8923564 92.1076436 -5.8923564 92.1076436 -7 91 C-7.56189873 80.11860217 -6.62871961 69.25347455 -5.72265625 58.41796875 C-5.59012214 56.78513339 -5.45800438 55.15226418 -5.32627869 53.5193634 C-5.05181538 50.1332709 -4.77324866 46.74755071 -4.49145508 43.36206055 C-4.13020583 39.01936161 -3.7782146 34.67597048 -3.42903996 30.33228588 C-3.15854066 26.97697498 -2.88392583 23.62201125 -2.60796928 20.26714516 C-2.47647578 18.66401628 -2.34611451 17.06079411 -2.21690559 15.45747948 C-2.0368022 13.23195182 -1.85132613 11.0069381 -1.66430664 8.78198242 C-1.5599379 7.51706467 -1.45556915 6.25214691 -1.34803772 4.94889832 C-1 2 -1 2 0 0 Z " fill="#7CE2EF" transform="translate(147,326)"/>
<path d="M0 0 C22.05812187 2.63000684 41.85086073 15.24628373 55.72558594 32.32568359 C72.23478737 54.01535858 76.99887608 79.69631235 73.69091797 106.50488281 C72.88022817 111.14952448 71.51736106 115.53407611 70 120 C69.61567177 121.28692226 69.23423336 122.57471055 68.85546875 123.86328125 C59.2418882 155.02428173 38.76185553 181.33347555 17 205 C15.56238617 206.6248993 14.12488903 208.24990184 12.6875 209.875 C-6.62159742 231.31079871 -6.62159742 231.31079871 -16 236 C-18.31 234.02 -20.62 232.04 -23 230 C-21.90055651 226.70166953 -21.24345342 226.16260652 -18.625 224.0625 C-13.38307942 219.61765142 -8.88111077 214.56104797 -4.31103516 209.45068359 C-3.16763199 208.18548777 -1.99803173 206.94406576 -0.82421875 205.70703125 C7.24459779 197.12156732 14.09456665 187.52486868 21 178 C21.48146484 177.33838867 21.96292969 176.67677734 22.45898438 175.99511719 C35.95201166 157.24807854 46.8749692 135.6044405 52 113 C52.20496094 112.14148438 52.40992188 111.28296875 52.62109375 110.3984375 C55.46103879 96.4924997 55.10576606 80.81530421 52 67 C51.75507813 65.89914063 51.51015625 64.79828125 51.2578125 63.6640625 C47.53653177 49.00946139 40.52432226 36.63289641 31 25 C30.48824219 24.33613281 29.97648437 23.67226562 29.44921875 22.98828125 C22.78497957 14.63451664 13.76860522 9.03990545 4.6875 3.6640625 C2 2 2 2 0 0 Z " fill="#E5333E" transform="translate(272,44)"/>
<path d="M0 0 C0.1486432 7.7745898 -0.31151779 15.44041526 -0.9375 23.1875 C-1.02451172 24.32380859 -1.11152344 25.46011719 -1.20117188 26.63085938 C-1.44725479 29.75702387 -1.69323672 32.8791815 -2 36 C-2.07516846 37.80235107 -2.07516846 37.80235107 -2.15185547 39.64111328 C-3 43 -3 43 -5.61010742 45.07299805 C-6.76357666 45.63027588 -7.9170459 46.18755371 -9.10546875 46.76171875 C-10.04509712 47.2302829 -10.04509712 47.2302829 -11.00370789 47.70831299 C-13.05423557 48.72509316 -15.12013264 49.7054812 -17.1875 50.6875 C-18.62207455 51.392935 -20.05517325 52.10137885 -21.48681641 52.81274414 C-23.6434662 53.88388813 -25.80081594 54.953142 -27.96313477 56.01280212 C-33.69566138 58.82282118 -39.30143142 61.8238992 -44.875 64.9375 C-60.69116547 73.68807732 -76.81368073 81.95458021 -93 90 C-92.94231445 89.38793701 -92.88462891 88.77587402 -92.82519531 88.14526367 C-92.74366211 87.26588135 -92.66212891 86.38649902 -92.578125 85.48046875 C-92.43407227 83.96912354 -92.43407227 83.96912354 -92.28710938 82.42724609 C-92.0897511 80.07136558 -91.93725236 77.71143231 -91.82226562 75.35009766 C-90.51820007 51.69446808 -90.51820007 51.69446808 -83.30908203 44.20410156 C-76.42125636 39.22542995 -68.74269104 35.95880153 -60.92724609 32.70800781 C-54.72080194 30.08231443 -48.96416223 26.6631873 -43.125 23.3125 C-40.9182241 22.08183851 -38.70990532 20.85393933 -36.5 19.62890625 C-30.03070165 16.02200027 -23.57421617 12.39267958 -17.125 8.75 C-16.17383301 8.21286377 -15.22266602 7.67572754 -14.24267578 7.12231445 C-10.79535704 5.17063948 -7.36213187 3.22386334 -3.9921875 1.140625 C-2 0 -2 0 0 0 Z " fill="#4BDE64" transform="translate(140,213)"/>
<path d="M0 0 C11.54867729 1.76101377 22.14292914 7.35313322 29.53515625 16.5390625 C31.77225103 19.7628005 33.71260202 23.06568407 35.53515625 26.5390625 C35.86644531 27.15136719 36.19773437 27.76367188 36.5390625 28.39453125 C41.2694861 38.74661769 40.34833685 52.13813019 36.53515625 62.5390625 C31.84666409 74.51683303 23.86871345 82.58934916 12.53515625 88.5390625 C0.463679 93.75916077 -12.12546125 93.82961903 -24.46484375 89.5390625 C-36.94033166 83.59835397 -46.27389858 74.25984 -51.33984375 61.2890625 C-54.00521331 52.0844322 -54.5786636 41.6605239 -51.46484375 32.5390625 C-51.20703125 31.73082031 -50.94921875 30.92257813 -50.68359375 30.08984375 C-48.08924896 22.78765778 -43.92706999 17.00128874 -38.46484375 11.5390625 C-34.89756942 11.20875932 -32.35708366 11.11642254 -29.08984375 12.6640625 C-26.80545926 15.29989076 -26.63384668 17.06419737 -26.46484375 20.5390625 C-28.046875 23.79296875 -28.046875 23.79296875 -30.27734375 27.1015625 C-36.11070906 35.86709727 -37.39753596 41.98006549 -36.46484375 52.5390625 C-34.213226 61.65507167 -29.55906538 67.57342289 -21.625 72.4609375 C-14.04043704 76.24636133 -5.82850365 76.89648669 2.390625 74.81640625 C10.9231263 71.62801318 16.44994363 66.72428923 20.53515625 58.5390625 C23.608924 50.66118921 23.83856938 42.14398827 20.91015625 34.1640625 C16.47941225 24.72199426 10.27471536 20.24081375 0.53515625 16.5390625 C-2.36119893 15.90399349 -5.24028981 15.44743776 -8.171875 15.01171875 C-10.46484375 14.5390625 -10.46484375 14.5390625 -13.15234375 12.8515625 C-15.04059624 9.52464144 -15.00171048 7.29712964 -14.46484375 3.5390625 C-10.4640498 -1.97292722 -6.19585899 -0.65354459 0 0 Z " fill="#020000" transform="translate(263.46484375,86.4609375)"/>
<path d="M0 0 C7.08377651 6.86240849 13.37358134 14.39584207 19.58203125 22.046875 C22.18689223 25.2282561 24.83668141 28.36760829 27.5 31.5 C33.14880352 38.15014228 38.66823975 44.9012158 44.171875 51.671875 C48.23406081 56.65597532 52.33781943 61.59941456 56.5 66.5 C62.14840972 73.15048379 67.66823149 79.90120564 73.171875 86.671875 C76.83678822 91.16854157 80.53008893 95.63453624 84.29614258 100.04663086 C88.42678537 104.88617658 92.43813546 109.71861464 96 115 C91.01721866 113.45595658 86.36564463 111.44708835 81.6328125 109.28125 C80.81666977 108.91080063 80.00052704 108.54035126 79.15965271 108.15867615 C76.48018579 106.94184527 73.80259136 105.72095174 71.125 104.5 C67.34558109 102.78138723 63.56533122 101.06460526 59.78515625 99.34765625 C58.81845505 98.90821182 57.85175385 98.4687674 56.85575867 98.01600647 C50.05705356 94.92736171 43.24850764 91.86129314 36.43359375 88.80859375 C35.51251831 88.39570099 34.59144287 87.98280823 33.64245605 87.55740356 C30.07109822 85.95663505 26.49969653 84.35598933 22.92608643 82.76025391 C20.47179527 81.66414346 18.01897486 80.56480178 15.56640625 79.46484375 C14.84021591 79.14172714 14.11402557 78.81861053 13.36582947 78.48570251 C10.39912419 77.15233798 7.71381429 75.80920952 5 74 C4.44941711 71.39709473 4.44941711 71.39709473 4.20043945 68.05664062 C4.10056229 66.80774048 4.00068512 65.55884033 3.89778137 64.27209473 C3.80254407 62.90017446 3.70772132 61.52822537 3.61328125 60.15625 C3.50659198 58.74808332 3.39876151 57.34000267 3.2898407 55.93200684 C3.06382669 52.97346268 2.84700385 50.01444257 2.63745117 47.0546875 C2.37056407 43.28594268 2.08849582 39.51855196 1.80032063 35.75138092 C1.52441602 32.13672358 1.2559755 28.52152319 0.98828125 24.90625 C0.9374621 24.22726151 0.88664295 23.54827301 0.83428383 22.84870911 C0.26892168 15.22005328 -0.15980475 7.65097717 0 0 Z " fill="#43C566" transform="translate(382,342)"/>
<path d="M0 0 C4.21538228 3.45301797 7.94784182 6.86897756 11.3125 11.1875 C14.42143679 15.0881864 17.61720656 18.83399595 21 22.5 C25.11378909 26.9698512 28.97087297 31.59044893 32.78515625 36.31640625 C34.95632827 38.94708557 37.20241357 41.47942424 39.5 44 C42.59555196 47.39598682 45.55151207 50.86171531 48.4375 54.4375 C51.51336588 58.24087503 54.68753166 61.90082652 58 65.5 C62.11378909 69.9698512 65.97087297 74.59044893 69.78515625 79.31640625 C71.95632827 81.94708557 74.20241357 84.47942424 76.5 87 C79.59555196 90.39598682 82.55151207 93.86171531 85.4375 97.4375 C89.23368712 102.13313215 93.2219745 106.5961266 97.34765625 111.00390625 C97.94839966 111.68839844 97.94839966 111.68839844 98.5612793 112.38671875 C99.65803767 113.61654725 100.80144854 114.80493526 101.96411133 115.97265625 C108.33711296 122.91835542 109.84970967 129.59963183 111.22192383 138.63378906 C111.56590713 140.8974211 111.95183062 143.15081167 112.34570312 145.40625 C114.34077997 157.28661987 114.34077997 157.28661987 113 161 C112.63350342 160.55309814 112.26700684 160.10619629 111.8894043 159.64575195 C105.69915447 152.10177724 99.50896426 144.55966371 93.1875 137.125 C87.6414673 130.6009054 82.22905752 123.97243767 76.828125 117.328125 C72.76593842 112.34402374 68.66214062 107.40061978 64.5 102.5 C60.44999489 97.73078305 56.45648144 92.92087884 52.50390625 88.0703125 C44.69334735 78.49293451 36.84109042 68.95247043 28.83691406 59.53613281 C24.48821639 54.41376024 20.23872729 49.2134079 16 44 C14.43848423 42.08253139 12.87598835 40.16586052 11.3125 38.25 C10.62800781 37.40953125 9.94351562 36.5690625 9.23828125 35.703125 C7.210529 33.11934538 7.210529 33.11934538 5.42675781 31.58764648 C0.57387623 26.92890903 0.26452868 22.71767824 0.1171875 16.14257812 C0.11976563 14.96115234 0.12234375 13.77972656 0.125 12.5625 C0.104375 11.35400391 0.08375 10.14550781 0.0625 8.90039062 C0.01558317 5.93290098 -0.00445757 2.9677832 0 0 Z " fill="#FAB723" transform="translate(378,289)"/>
<path d="M0 0 C4.5577105 42.95884579 4.5577105 42.95884579 4 60 C0.32509696 58.37254294 -2.59527924 56.09913379 -5.75 53.625 C-6.90354081 52.73554086 -8.0571919 51.84622473 -9.2109375 50.95703125 C-11.88788731 48.88115909 -14.5298199 46.76644105 -17.1640625 44.63671875 C-18.56736914 43.52821629 -19.97100954 42.42013623 -21.375 41.3125 C-22.02823242 40.77125488 -22.68146484 40.23000977 -23.35449219 39.67236328 C-24.30437012 38.93155518 -24.30437012 38.93155518 -25.2734375 38.17578125 C-25.82435059 37.73145752 -26.37526367 37.28713379 -26.94287109 36.8293457 C-31.26722214 35.08595376 -35.45641857 36.80125759 -39.64257812 38.33178711 C-40.94255569 38.88828471 -42.2386425 39.45393543 -43.53125 40.02734375 C-44.23686066 40.33220703 -44.94247131 40.63707031 -45.66946411 40.95117188 C-47.94985527 41.93867175 -50.22486331 42.93796183 -52.5 43.9375 C-54.06915564 44.61936099 -55.63865673 45.30042753 -57.20849609 45.98071289 C-61.09097854 47.6653779 -64.96931516 49.35932942 -68.84606934 51.05712891 C-73.10249553 52.92035565 -77.36276958 54.7747485 -81.62304688 56.62915039 C-83.5865165 57.48489484 -85.54880869 58.34334723 -87.50976562 59.20483398 C-88.36505859 59.57938721 -89.22035156 59.95394043 -90.1015625 60.33984375 C-90.83713379 60.66331787 -91.57270508 60.98679199 -92.33056641 61.32006836 C-94 62 -94 62 -95 62 C-96.03020422 54.49557657 -96.03020422 54.49557657 -93.77099609 51.21582031 C-91.98677512 49.55347665 -90.14446002 48.07993252 -88.1875 46.625 C-86.90568632 45.62287886 -85.62847424 44.61484928 -84.35546875 43.6015625 C-83.31024048 42.78328979 -83.31024048 42.78328979 -82.24389648 41.94848633 C-79.63514931 39.68318209 -77.42919927 37.17295739 -75.109375 34.61328125 C-68.35393432 27.52734529 -59.96121955 24.26812159 -51.0625 20.5625 C-49.37946968 19.83960482 -47.69743081 19.11439728 -46.01635742 18.38696289 C-42.63855577 16.93015652 -39.25499905 15.48831342 -35.86523438 14.05957031 C-31.3571483 12.15747786 -26.87118159 10.2080829 -22.390625 8.2421875 C-19.86533487 7.13889673 -17.33907231 6.03785082 -14.8125 4.9375 C-13.65049072 4.430979 -12.48848145 3.92445801 -11.29125977 3.40258789 C-10.23221436 2.94875732 -9.17316895 2.49492676 -8.08203125 2.02734375 C-7.16655518 1.63281006 -6.2510791 1.23827637 -5.30786133 0.83178711 C-3 0 -3 0 0 0 Z " fill="#FAD754" transform="translate(359,240)"/>
<path d="M0 0 C0.04660861 2.58418865 0.04945357 5.15005525 -0.0234375 7.734375 C-0.09404419 11.00729796 -0.09404419 11.00729796 0.5859375 14.203125 C1.03226183 18.30930888 0.89687805 20.28639367 -1 24 C-6.86004412 28.66279925 -14.07731787 31.46923427 -20.85302734 34.53369141 C-25.53156538 36.71362154 -30.00226469 39.22336347 -34.5 41.75 C-44.84198805 47.45323223 -55.3300797 52.86161553 -65.83666992 58.25292969 C-67.14115265 58.92244934 -68.44559667 59.59204442 -69.75 60.26171875 C-70.38017532 60.58524323 -71.01035065 60.9087677 -71.65962219 61.24209595 C-77.59612026 64.29568199 -83.49481146 67.41948969 -89.35668945 70.61401367 C-93.78678767 73 -93.78678767 73 -96 73 C-95.84831668 70.43707488 -95.63573764 67.89681442 -95.359375 65.34375 C-95.11375467 63.05841299 -94.93986653 60.76453057 -94.828125 58.46875 C-94.22832349 52.95057611 -93.51574212 49.29438896 -89.19140625 45.6015625 C-85.83053422 43.54865992 -82.28124552 41.90611149 -78.70410156 40.26806641 C-74.51749702 38.3047923 -70.43842482 36.1421184 -66.34130859 33.99975586 C-62.83861897 32.16847927 -59.32608957 30.35713428 -55.8125 28.546875 C-49.78668985 25.42600468 -43.81949427 22.21008444 -37.875 18.9375 C-29.71344223 14.45099854 -21.50342436 10.06533493 -13.25 5.75 C-12.15929199 5.17628662 -11.06858398 4.60257324 -9.94482422 4.01147461 C-8.93693848 3.48690674 -7.92905273 2.96233887 -6.890625 2.421875 C-5.99375977 1.95362305 -5.09689453 1.48537109 -4.17285156 1.00292969 C-2 0 -2 0 0 0 Z " fill="#FBD854" transform="translate(135,274)"/>
<path d="M0 0 C5.06480694 1.9754756 9.88491348 4.33185049 14.75 6.75 C15.6059375 7.16765625 16.461875 7.5853125 17.34375 8.015625 C25.51911772 12.07853502 33.22163428 16.01082922 38.5 23.6875 C45.38002378 33.35058896 52.98366007 42.26351605 61 51 C57.08284715 52.30571762 53.88947493 51.54489914 49.9140625 50.890625 C49.10831284 50.76396454 48.30256317 50.63730408 47.47239685 50.50680542 C44.85554578 50.09422926 42.24033645 49.67206041 39.625 49.25 C36.95582015 48.82718558 34.28625072 48.40689462 31.61665344 47.98672485 C29.85764352 47.70969224 28.09876199 47.43184321 26.3400116 47.15316772 C19.589016 46.08478497 12.83115184 45.07563265 6.0625 44.125 C4.78850342 43.94565918 4.78850342 43.94565918 3.48876953 43.76269531 C1.65945517 43.50648882 -0.17021767 43.25284265 -2 43 C-2.36131231 28.58765341 -1.24473872 14.35256571 0 0 Z " fill="#43C566" transform="translate(155,211)"/>
<path d="M0 0 C3.37587301 0.26051001 6.75043129 0.53564585 10.125 0.8125 C11.49398437 0.91788086 11.49398437 0.91788086 12.890625 1.02539062 C23.68542089 1.92495695 34.21043753 3.52869603 45 5 C45 26.78 45 48.56 45 71 C42.53132678 68.53132678 40.96082939 66.56842366 39.13671875 63.66796875 C38.58677246 62.79825439 38.03682617 61.92854004 37.47021484 61.0324707 C36.88191895 60.09363037 36.29362305 59.15479004 35.6875 58.1875 C34.42329403 56.184822 33.15896775 54.18221995 31.89453125 52.1796875 C31.24822754 51.15327148 30.60192383 50.12685547 29.93603516 49.06933594 C27.50962275 45.22256963 25.06661139 41.38655264 22.62133789 37.55175781 C20.88306877 34.82515645 19.14819251 32.09642284 17.4140625 29.3671875 C15.12408094 25.76377634 12.82621497 22.16555796 10.5234375 18.5703125 C9.4321718 16.85945145 8.3410208 15.14851723 7.25 13.4375 C6.74839355 12.65802002 6.24678711 11.87854004 5.72998047 11.07543945 C3.43952245 7.47381189 1.38552047 4.06795255 0 0 Z " fill="#43C666" transform="translate(203,315)"/>
<path d="M0 0 C1.06669922 0.58330078 2.13339844 1.16660156 3.23242188 1.76757812 C4.33521484 2.37923828 5.43800781 2.99089844 6.57421875 3.62109375 C7.69634766 4.23662109 8.81847656 4.85214844 9.97460938 5.48632812 C12.74029808 7.00451469 15.50245484 8.5287708 18.26171875 10.05859375 C18.26171875 11.04859375 18.26171875 12.03859375 18.26171875 13.05859375 C12.44631624 14.32783298 6.62964863 15.59104752 0.81176758 16.84887695 C-1.16417088 17.27694044 -3.13976386 17.70660212 -5.11499023 18.13793945 C-7.96637433 18.76030817 -10.81898211 19.37677679 -13.671875 19.9921875 C-14.54412216 20.18389023 -15.41636932 20.37559296 -16.31504822 20.57310486 C-21.78230551 21.74511638 -27.17135058 22.52524984 -32.73828125 23.05859375 C-33.65920406 18.40322019 -33.86034122 13.91173942 -33.80078125 9.18359375 C-33.79626953 8.49523437 -33.79175781 7.806875 -33.78710938 7.09765625 C-33.77544461 5.4179304 -33.75751396 3.73825 -33.73828125 2.05859375 C-10.11227872 -5.56986475 -10.11227872 -5.56986475 0 0 Z " fill="#FAB723" transform="translate(407.73828125,231.94140625)"/>
<path d="M0 0 C0 4.29 0 8.58 0 13 C-5.51321877 15.44935005 -11.03079787 17.88848252 -16.55273438 20.31811523 C-18.43190991 21.14667559 -20.30984694 21.97805067 -22.18652344 22.81225586 C-24.8789786 24.00850772 -27.57567639 25.19467808 -30.2734375 26.37890625 C-31.11619232 26.75592178 -31.95894714 27.13293732 -32.82723999 27.52137756 C-33.60789825 27.86180588 -34.38855652 28.20223419 -35.19287109 28.55297852 C-35.88126068 28.8572023 -36.56965027 29.16142609 -37.27890015 29.47486877 C-39 30 -39 30 -41 29 C-35.18332373 20.6586387 -30.27175155 14.57221206 -21 10 C-19.40245649 9.14657454 -17.80765706 8.28800282 -16.21484375 7.42578125 C-12.81628985 5.59711935 -9.41699257 3.77057824 -6 1.9765625 C-5.278125 1.59580566 -4.55625 1.21504883 -3.8125 0.82275391 C-2 0 -2 0 0 0 Z " fill="#49D962" transform="translate(357,211)"/>
<path d="M0 0 C3.4404532 1.7202266 4.84411293 2.62215417 7.3125 5.30078125 C7.91320312 5.94853516 8.51390625 6.59628906 9.1328125 7.26367188 C9.74898438 7.93978516 10.36515625 8.61589844 11 9.3125 C11.61617188 9.97701172 12.23234375 10.64152344 12.8671875 11.32617188 C16.05345742 14.78252261 19.12113983 18.27907322 22 22 C18.71106997 23.50605402 15.41842554 25.00380532 12.125 26.5 C11.18785156 26.92925781 10.25070312 27.35851562 9.28515625 27.80078125 C7.94130859 28.40986328 7.94130859 28.40986328 6.5703125 29.03125 C5.74289551 29.40830078 4.91547852 29.78535156 4.06298828 30.17382812 C2 31 2 31 0 31 C0 20.77 0 10.54 0 0 Z " fill="#FAD754" transform="translate(264,434)"/>
<path d="M0 0 C3.465 1.485 3.465 1.485 7 3 C4.64046906 5.35953094 3.22104383 5.49141413 0 6 C0 4.02 0 2.04 0 0 Z " fill="#3EB860" transform="translate(372,213)"/>
</svg>
