<?xml version="1.0" encoding="iso-8859-1"?>
<!-- Uploaded to: SVG Repo, www.svgrepo.com, Generator: SVG Repo Mixer Tools -->
<!DOCTYPE svg PUBLIC "-//W3C//DTD SVG 1.1//EN" "http://www.w3.org/Graphics/SVG/1.1/DTD/svg11.dtd">
<svg fill="#000000" version="1.1" id="Capa_1" xmlns="http://www.w3.org/2000/svg" xmlns:xlink="http://www.w3.org/1999/xlink" 
	 width="800px" height="800px" viewBox="0 0 538.19 538.189"
	 xml:space="preserve">
<g>
	<g>
		<path d="M269.097,485.021c3.228,0,6.445-0.103,9.633-0.271c-0.01-12.867,4.377-24.544,15.825-30.63
			c-2.286-3.211-4.354-6.632-6.1-10.333c-15.478-33.015,2.843-83.639,35.857-99.124c33.01-15.467,83.639,2.842,99.119,35.857
			c1.387,3.001,2.46,6.062,3.384,9.156c3.478-6.566,6.548-13.385,9.181-20.391c-22.099-3.785-38.392-30.919-37.043-63.089
			c1.293-30.141,17.637-54.556,38.074-59.095c-24.609-68.998-90.584-118.532-167.931-118.532
			c-98.268,0-178.217,79.954-178.217,178.229C90.879,405.065,170.829,485.021,269.097,485.021z M303.363,262.811
			c1.441-34.074,22.131-60.873,46.228-59.849c24.091,1.024,42.456,29.48,40.99,63.545c-1.418,34.081-22.149,60.88-46.228,59.849
			C320.281,325.347,301.911,296.883,303.363,262.811z M189.901,277.841c14.61-19.172,48.468-17.95,75.579,2.73
			c27.106,20.68,37.238,52.999,22.607,72.152c-14.585,19.173-48.454,17.95-75.565-2.734
			C185.416,329.318,175.284,296.999,189.901,277.841z M162.109,379.069c14.607-19.177,48.456-17.944,75.579,2.735
			c27.104,20.675,37.257,52.985,22.63,72.144c-14.617,19.182-48.486,17.954-75.597-2.73
			C157.614,430.553,147.491,398.232,162.109,379.069z"/>
		<path d="M361.127,100.833c5.997,4.338,10.841,7.873,10.841,7.873l-4.14,12.75c-2.277,7.052,0.729,9.227,6.711,4.875
			c5.988-4.348,10.842-7.883,10.842-7.883l10.837,7.883c5.993,4.359,8.989,2.177,6.707-4.875c-2.292-7.04-4.149-12.75-4.149-12.75
			l10.847-7.873c5.992-4.359,4.84-7.895-2.567-7.895c-7.396,0-13.395,0-13.395,0l-4.14-12.741c-2.277-7.04-5.997-7.04-8.27,0
			c-2.301,7.05-4.149,12.75-4.149,12.75h-13.418C356.292,92.938,355.144,96.473,361.127,100.833z"/>
		<path d="M122.971,100.833c6.009,4.338,10.844,7.873,10.844,7.873l-4.13,12.75c-2.282,7.052,0.726,9.227,6.707,4.875
			c5.974-4.348,10.837-7.883,10.837-7.883l10.839,7.883c5.981,4.359,8.989,2.177,6.704-4.875c-2.291-7.04-4.149-12.75-4.149-12.75
			l10.858-7.873c5.981-4.359,4.838-7.895-2.564-7.895c-7.407,0-13.413,0-13.413,0l-4.121-12.741c-2.287-7.04-6.009-7.04-8.286,0
			c-2.299,7.05-4.149,12.75-4.149,12.75h-13.395C118.14,92.938,116.997,96.473,122.971,100.833z"/>
		<path d="M227.637,44.293c10.258,7.421,18.542,13.458,18.542,13.458l-7.087,21.793c-3.904,12.043,1.232,15.768,11.481,8.329
			c10.232-7.43,18.523-13.465,18.523-13.465l18.542,13.465c10.221,7.439,15.354,3.715,11.453-8.329
			c-3.916-12.043-7.07-21.793-7.07-21.793l18.542-13.458c10.221-7.441,8.261-13.479-4.392-13.479c-12.648,0-22.893,0-22.893,0
			l-7.084-21.784c-3.909-12.041-10.254-12.041-14.139,0c-3.951,12.037-7.096,21.784-7.096,21.784h-22.909
			C219.364,30.814,217.397,36.852,227.637,44.293z"/>
		<path d="M269.097,538.189c127.598,0,231.399-103.801,231.399-231.39c0-73.306-34.331-138.673-87.69-181.101
			c-0.027,2.837-0.723,5.355-2.24,7.439c-2.128,2.945-5.507,4.63-9.255,4.63c-3.341,0-6.781-1.295-10.486-3.995l-5.428-3.95
			l-5.451,3.941c-7.836,5.701-15.695,4.947-19.737-0.625c-2.679-3.67-3.053-8.555-1.12-14.51l2.062-6.408l-5.433-3.939
			c-8.61-6.271-8.135-12.625-7.089-15.859c0.238-0.707,0.606-1.524,1.115-2.366c-13.175-4.903-26.892-8.671-41.061-11.129
			c2.091,7.367,1.722,13.297-1.345,17.509c-2.427,3.325-6.258,5.239-10.547,5.239c-4.312,0-8.905-1.832-14.095-5.591l-13.101-9.542
			l-13.124,9.532c-10.337,7.519-19.791,7.022-24.649,0.362c-3.09-4.252-3.46-10.23-1.295-17.69
			c-16.048,2.702-31.517,7.061-46.281,12.879c0.1,0.264,0.229,0.546,0.308,0.789c1.043,3.234,1.533,9.598-7.085,15.859l-5.458,3.939
			l2.103,6.394c1.923,5.969,1.54,10.854-1.123,14.533c-2.128,2.945-5.509,4.63-9.262,4.63c-3.351,0-6.789-1.295-10.485-3.995
			l-5.437-3.95l-5.439,3.941c-7.838,5.701-15.693,4.947-19.735-0.625c-0.826-1.125-1.344-2.401-1.722-3.752
			C70.127,171.87,37.694,235.578,37.694,306.805C37.694,434.389,141.492,538.189,269.097,538.189z M269.097,115.069
			c105.718,0,191.724,86.007,191.724,191.73c0,105.714-86.006,191.729-191.724,191.729c-105.719,0-191.719-86.015-191.719-191.729
			C77.369,201.086,163.369,115.069,269.097,115.069z"/>
	</g>
</g>
</svg>