<?xml version="1.0" encoding="UTF-8"?>
<svg version="1.1" xmlns="http://www.w3.org/2000/svg" width="512" height="512">
<path d="M0 0 C1.16752686 -0.00382555 2.33505371 -0.00765109 3.53796017 -0.01159257 C6.76566665 -0.02010703 9.9932272 -0.01969606 13.22093749 -0.01541197 C16.70705719 -0.01294098 20.19315034 -0.02196356 23.67926025 -0.02944946 C30.50399232 -0.04218821 37.32868503 -0.04399118 44.15342699 -0.0416492 C49.70190993 -0.03986493 55.25038094 -0.04161803 60.79886246 -0.04587364 C61.58906884 -0.04646883 62.37927522 -0.04706402 63.19342724 -0.04767724 C64.79882692 -0.04888902 66.40422661 -0.05010315 68.00962628 -0.05131962 C83.05972639 -0.06219203 98.10980408 -0.06003411 113.15990545 -0.05393478 C126.92064343 -0.04876613 140.68131061 -0.06002021 154.44203459 -0.07903299 C168.5798915 -0.09841673 182.71771493 -0.10666644 196.85558522 -0.10290974 C204.78956948 -0.10099848 212.72349348 -0.10347794 220.65746689 -0.11762428 C227.41192818 -0.12954589 234.16629213 -0.13093426 240.92075478 -0.11883412 C244.36493487 -0.11295082 247.80893699 -0.1118306 251.25310516 -0.12383652 C254.99165557 -0.13428481 258.72972848 -0.1262179 262.46826172 -0.11352539 C264.09099292 -0.12458682 264.09099292 -0.12458682 265.74650657 -0.13587171 C272.78925898 -0.08561304 279.82440434 0.44157961 285.5173645 4.97944641 C285.960802 5.56725891 286.4042395 6.15507141 286.8611145 6.76069641 C287.325177 7.34850891 287.7892395 7.93632141 288.2673645 8.54194641 C290.71354566 12.38594538 290.47685637 15.90393913 290.45877075 20.33491516 C290.45664833 21.36066399 290.45664833 21.36066399 290.45448303 22.40713501 C290.44889326 24.58753363 290.43634272 26.76782892 290.4236145 28.94819641 C290.41859818 30.42801263 290.4140355 31.90783047 290.40994263 33.38764954 C290.39892721 37.01203198 290.38166962 40.63635411 290.3611145 44.26069641 C291.28961716 44.25403458 292.21811981 44.24737274 293.17475891 44.24050903 C301.92927964 44.18037305 310.68373089 44.1347093 319.43841076 44.1052599 C323.93918361 44.08961062 328.43978565 44.06838587 332.94046021 44.03437805 C337.28468312 44.0017582 341.62874183 43.98383784 345.97307777 43.97606468 C347.62966814 43.97052588 349.28624963 43.9597099 350.94277 43.94350624 C353.26495082 43.92169671 355.586455 43.9187309 357.90872192 43.92012024 C358.93371544 43.9039415 358.93371544 43.9039415 359.97941589 43.88743591 C364.24228977 43.91499368 367.03565005 44.53362634 370.3611145 47.26069641 C370.69408685 50.02290349 370.70717795 52.19198905 370.50564575 54.92866516 C370.44608314 56.59155971 370.39246068 58.25467428 370.34378052 59.91792297 C370.31341705 60.81386169 370.28305359 61.70980042 370.25177002 62.63288879 C369.59765219 86.19543378 374.60211122 107.54757536 381.15347195 129.96451092 C385.32406385 144.29981159 388.10978128 157.77060659 388.10720825 172.71382141 C388.11095018 173.39262108 388.11469212 174.07142075 388.11854744 174.7707901 C388.1146334 184.24392052 387.26544707 190.7556973 380.9236145 198.07319641 C374.84682879 203.26069641 374.84682879 203.26069641 370.3611145 203.26069641 C370.3611145 293.68069641 370.3611145 384.10069641 370.3611145 477.26069641 C375.3111145 477.26069641 380.2611145 477.26069641 385.3611145 477.26069641 C387.84400286 479.74358477 387.64694617 481.27255797 387.68338013 484.67085266 C387.68015747 485.3605011 387.67693481 486.05014954 387.6736145 486.76069641 C387.69778442 487.79516907 387.69778442 487.79516907 387.72244263 488.85054016 C387.72439575 490.85444641 387.72439575 490.85444641 387.3611145 494.26069641 C383.55354224 496.79907792 380.50903992 496.53809798 376.09796143 496.51237869 C374.81264168 496.51673901 374.81264168 496.51673901 373.50135589 496.52118742 C370.6044412 496.528538 367.70773499 496.52152062 364.81082153 496.5146637 C362.72322035 496.51696613 360.63561998 496.52014119 358.54802132 496.52411819 C352.79137301 496.53250469 347.03479059 496.52832349 341.27814198 496.52214575 C335.07766576 496.51763796 328.87720122 496.52459667 322.67672729 496.53010559 C311.22534917 496.53850344 299.77400058 496.5377496 288.3226226 496.53228265 C277.74481376 496.52725736 267.16701267 496.52593542 256.58920288 496.52832794 C255.888353 496.52848071 255.18750313 496.52863348 254.46541537 496.52879088 C251.6206477 496.52941353 248.77588002 496.53005033 245.93111236 496.53071041 C219.22898169 496.53683246 192.5268645 496.53127507 165.82473591 496.52051662 C142.08620385 496.51102496 118.34769325 496.51187419 94.60916138 496.5214386 C67.95678567 496.53214104 41.30442186 496.53639834 14.6520443 496.53021407 C11.81237157 496.52957261 8.97269885 496.52894693 6.13302612 496.52832794 C5.08417756 496.52809071 5.08417756 496.52809071 4.01414014 496.52784869 C-6.55866121 496.52557092 -17.13145398 496.52823954 -27.70425415 496.53328705 C-39.72245849 496.53899589 -51.74063194 496.53740335 -63.75883532 496.52672556 C-69.89579998 496.52145356 -76.03272098 496.51943799 -82.16968536 496.52602386 C-87.78023556 496.53195395 -93.39070136 496.52875718 -99.00124383 496.51806876 C-101.03820532 496.51582218 -103.07517385 496.51699891 -105.11213088 496.52182034 C-107.86676816 496.52784372 -110.62111091 496.52172348 -113.37573242 496.51237869 C-114.58032274 496.51940219 -114.58032274 496.51940219 -115.80924821 496.52656758 C-119.62319208 496.50045378 -121.38673449 496.42879708 -124.6388855 494.26069641 C-124.91556775 491.66642843 -125.01183792 489.34805996 -124.9513855 486.76069641 C-124.95460815 486.07104797 -124.95783081 485.38139954 -124.96115112 484.67085266 C-124.90601142 479.52782233 -124.90601142 479.52782233 -122.6388855 477.26069641 C-117.6888855 477.26069641 -112.7388855 477.26069641 -107.6388855 477.26069641 C-107.6388855 386.84069641 -107.6388855 296.42069641 -107.6388855 203.26069641 C-109.2888855 202.93069641 -110.9388855 202.60069641 -112.6388855 202.26069641 C-118.96942563 198.96354009 -122.41730933 193.92542493 -124.6388855 187.26069641 C-126.43143762 166.43625461 -123.69657648 147.97865016 -117.85705566 127.99980164 C-111.22955222 105.26688212 -106.81289333 83.77910594 -107.62155151 59.91792297 C-107.64638611 59.06940262 -107.6712207 58.22088226 -107.69680786 57.34664917 C-107.75262957 55.78819469 -107.83484136 54.23035239 -107.94937134 52.67510986 C-108.04440308 50.62471008 -108.04440308 50.62471008 -107.6388855 47.26069641 C-103.72040506 44.04731949 -100.05812625 43.84322522 -95.18649292 43.92012024 C-94.454245 43.91968216 -93.72199707 43.91924408 -92.96755981 43.91879272 C-90.55954855 43.92087424 -88.15224311 43.94417431 -85.74435425 43.96772766 C-84.06998576 43.9733259 -82.39561235 43.97759492 -80.72123718 43.98059082 C-76.3234897 43.99202167 -71.92604147 44.02147356 -67.52841187 44.05470276 C-63.03728279 44.08544168 -58.54610517 44.09910431 -54.05490112 44.11421204 C-45.24942556 44.14634509 -36.4441928 44.19751996 -27.6388855 44.26069641 C-27.65459595 43.35303528 -27.6703064 42.44537415 -27.68649292 41.51020813 C-27.7378168 38.1219657 -27.77532966 34.73414022 -27.80368042 31.34565735 C-27.81870746 29.88302566 -27.83913505 28.42043859 -27.86520386 26.95796204 C-27.90185817 24.84782361 -27.91867226 22.73828415 -27.93185425 20.62788391 C-27.9475647 19.36057434 -27.96327515 18.09326477 -27.97946167 16.78755188 C-27.46185973 11.4274962 -25.66300849 8.2848194 -21.8888855 4.51069641 C-14.98160573 -0.27126651 -8.13671243 -0.02830873 0 0 Z " fill="#FED681" transform="translate(124.63888549804688,7.7393035888671875)"/>
<path d="M0 0 C1.16752686 -0.00382555 2.33505371 -0.00765109 3.53796017 -0.01159257 C6.76566665 -0.02010703 9.9932272 -0.01969606 13.22093749 -0.01541197 C16.70705719 -0.01294098 20.19315034 -0.02196356 23.67926025 -0.02944946 C30.50399232 -0.04218821 37.32868503 -0.04399118 44.15342699 -0.0416492 C49.70190993 -0.03986493 55.25038094 -0.04161803 60.79886246 -0.04587364 C61.58906884 -0.04646883 62.37927522 -0.04706402 63.19342724 -0.04767724 C64.79882692 -0.04888902 66.40422661 -0.05010315 68.00962628 -0.05131962 C83.05972639 -0.06219203 98.10980408 -0.06003411 113.15990545 -0.05393478 C126.92064343 -0.04876613 140.68131061 -0.06002021 154.44203459 -0.07903299 C168.5798915 -0.09841673 182.71771493 -0.10666644 196.85558522 -0.10290974 C204.78956948 -0.10099848 212.72349348 -0.10347794 220.65746689 -0.11762428 C227.41192818 -0.12954589 234.16629213 -0.13093426 240.92075478 -0.11883412 C244.36493487 -0.11295082 247.80893699 -0.1118306 251.25310516 -0.12383652 C254.99165557 -0.13428481 258.72972848 -0.1262179 262.46826172 -0.11352539 C264.09099292 -0.12458682 264.09099292 -0.12458682 265.74650657 -0.13587171 C272.78925898 -0.08561304 279.82440434 0.44157961 285.5173645 4.97944641 C285.960802 5.56725891 286.4042395 6.15507141 286.8611145 6.76069641 C287.325177 7.34850891 287.7892395 7.93632141 288.2673645 8.54194641 C290.71354566 12.38594538 290.47685637 15.90393913 290.45877075 20.33491516 C290.45664833 21.36066399 290.45664833 21.36066399 290.45448303 22.40713501 C290.44889326 24.58753363 290.43634272 26.76782892 290.4236145 28.94819641 C290.41859818 30.42801263 290.4140355 31.90783047 290.40994263 33.38764954 C290.39892721 37.01203198 290.38166962 40.63635411 290.3611145 44.26069641 C291.28961716 44.25403458 292.21811981 44.24737274 293.17475891 44.24050903 C301.92927964 44.18037305 310.68373089 44.1347093 319.43841076 44.1052599 C323.93918361 44.08961062 328.43978565 44.06838587 332.94046021 44.03437805 C337.28468312 44.0017582 341.62874183 43.98383784 345.97307777 43.97606468 C347.62966814 43.97052588 349.28624963 43.9597099 350.94277 43.94350624 C353.26495082 43.92169671 355.586455 43.9187309 357.90872192 43.92012024 C358.93371544 43.9039415 358.93371544 43.9039415 359.97941589 43.88743591 C364.24049086 43.91498205 367.06624208 44.48915583 370.3611145 47.26069641 C370.96238708 49.21594238 370.96238708 49.21594238 370.92874146 51.45674133 C370.92813721 52.30909363 370.92753296 53.16144592 370.9269104 54.03962708 C370.90133057 54.93113464 370.87575073 55.82264221 370.84939575 56.74116516 C370.84436035 57.56378845 370.83932495 58.38641174 370.83413696 59.23396301 C370.80798405 62.30572886 370.73817629 65.37699776 370.6736145 68.44819641 C370.5704895 75.31632141 370.4673645 82.18444641 370.3611145 89.26069641 C356.1711145 89.59069641 341.9811145 89.92069641 327.3611145 90.26069641 C330.16459219 105.10263714 333.07581934 119.89900717 336.30496216 134.6542511 C337.00256661 137.85391764 337.6831591 141.05681866 338.3611145 144.26069641 C338.66130493 145.59185486 338.66130493 145.59185486 338.96755981 146.9499054 C340.519792 154.38687472 340.73346999 161.75673238 340.73171997 169.32295227 C340.73613061 171.45598635 340.77269061 173.58700532 340.81033325 175.71968079 C340.88234653 184.35454424 340.41055591 190.45611441 334.68533325 197.24897766 C328.59622707 202.17548601 322.95327461 204.95812692 314.98220825 204.66694641 C308.29560178 203.63057223 303.0142685 200.58318503 298.8611145 195.26069641 C295.58341807 190.53471552 294.12031362 186.35494992 294.12503052 180.58882141 C294.11277939 179.46677307 294.10052826 178.34472473 294.08790588 177.18867493 C294.07039024 175.36807556 294.07039024 175.36807556 294.05252075 173.51069641 C293.69586071 157.52526277 291.35964516 142.09055813 288.65682983 126.35646057 C287.81197355 121.4135691 286.99702061 116.46563414 286.17887878 111.51826477 C285.74701821 108.90693676 285.30610664 106.29768683 284.86012268 103.68867493 C284.56465294 101.93768494 284.56465294 101.93768494 284.26321411 100.15132141 C284.08858139 99.13070618 283.91394867 98.11009094 283.73402405 97.05854797 C283.3611145 94.26069641 283.3611145 94.26069641 283.3611145 89.26069641 C269.1711145 89.26069641 254.9811145 89.26069641 240.3611145 89.26069641 C240.866427 93.49784485 241.3717395 97.73499329 241.8923645 102.10054016 C248.0910513 155.01311996 248.0910513 155.01311996 247.9861145 173.32319641 C247.98418091 174.58833069 247.98224731 175.85346497 247.98025513 177.15693665 C247.77760201 185.89140975 246.15043432 192.12071365 240.150177 198.68257141 C234.93906865 203.27926961 228.78935192 205.02040262 221.915802 204.70991516 C215.98047185 203.6662409 210.47243933 200.89516598 206.4236145 196.38569641 C202.0994165 189.83388126 200.90872306 184.69798445 200.7361145 176.99116516 C200.70407928 176.09321228 200.67204407 175.1952594 200.63903809 174.27009583 C200.57078866 172.33643786 200.50833911 170.40256806 200.45114136 168.46855164 C200.29752549 163.31481729 200.09916172 158.16284977 199.900177 153.01069641 C199.86010529 151.95613754 199.82003357 150.90157867 199.77874756 149.81506348 C199.27112202 137.07288537 198.3123123 124.36653604 197.32595825 111.65400696 C197.23007919 110.39964844 197.23007919 110.39964844 197.13226318 109.11994934 C197.01412802 107.58273234 196.89285314 106.04575116 196.76745605 104.5091095 C196.37018017 99.37813237 196.3611145 94.44721408 196.3611145 89.26069641 C182.1711145 89.26069641 167.9811145 89.26069641 153.3611145 89.26069641 C153.60088013 94.56067688 153.60088013 94.56067688 153.8454895 99.96772766 C154.4847438 115.70024538 154.58284661 131.42861084 154.60134888 147.17207336 C154.60693236 151.20190414 154.63125684 155.23141368 154.65932083 159.26114178 C154.67794639 162.4087826 154.68315172 165.55634354 154.68468475 168.70403481 C154.68768803 170.19149945 154.69563674 171.67896349 154.70886993 173.1663723 C154.72600738 175.23152139 154.72403767 177.29584608 154.71755981 179.36103821 C154.72120544 180.52837997 154.72485107 181.69572174 154.72860718 182.8984375 C153.96545458 189.88066272 150.60206048 195.63767856 145.3611145 200.26069641 C139.46322694 204.10223237 133.30733609 205.4733599 126.3611145 204.26069641 C119.63857242 202.01653908 114.03710299 198.43287979 110.3611145 192.26069641 C108.63399535 187.85385879 108.11244227 184.19568569 108.11819458 179.4745636 C108.11629623 178.82294754 108.11439789 178.17133148 108.11244202 177.49996948 C108.10875051 175.35237932 108.11943862 173.2051315 108.13064575 171.05757141 C108.13184153 169.53659606 108.13228988 168.01561996 108.1320343 166.49464417 C108.13359787 163.29698588 108.14186048 160.09943971 108.15530396 156.90180969 C108.17200787 152.88596749 108.17604294 148.87025041 108.17547798 144.85437775 C108.17618206 126.29351191 108.51505593 107.80630035 109.3611145 89.26069641 C95.1711145 89.26069641 80.9811145 89.26069641 66.3611145 89.26069641 C66.227052 92.42534485 66.0929895 95.58999329 65.9548645 98.85054016 C65.43795227 110.52162679 64.66786029 122.16921939 63.8611145 133.82319641 C62.71506043 150.06573843 62.71506043 150.06573843 62.118927 166.33491516 C62.09250122 167.65354553 62.06607544 168.9721759 62.03884888 170.33076477 C62.00504847 172.68943843 61.99148536 175.04854069 62.00369263 177.40742493 C61.90952979 184.63946675 60.5444433 190.25737515 56.3611145 196.26069641 C50.31536798 202.02110224 44.44843356 204.83589701 36.05252075 204.63569641 C28.78131458 203.62258205 23.12803689 199.76439638 18.5173645 194.20210266 C14.37045961 187.23922518 14.96684074 179.58032018 14.9861145 171.76069641 C14.98566132 171.04694855 14.98520813 170.33320068 14.98474121 169.5978241 C15.01687506 152.08245784 16.99025605 134.81692188 19.09823608 117.45082092 C19.51306779 113.99472475 19.9046019 110.53606381 20.29470825 107.07710266 C20.9649598 101.13583456 21.66249381 95.19897226 22.3611145 89.26069641 C8.1711145 89.26069641 -6.0188855 89.26069641 -20.6388855 89.26069641 C-21.1338855 95.20069641 -21.1338855 95.20069641 -21.6388855 101.26069641 C-21.91133334 103.28004528 -22.21031003 105.29648072 -22.56271362 107.30342102 C-22.73961731 108.33101028 -22.916521 109.35859955 -23.0987854 110.41732788 C-23.28733093 111.48841293 -23.47587646 112.55949799 -23.6701355 113.66304016 C-24.07330858 116.02856628 -24.47528403 118.39429676 -24.87619019 120.76020813 C-25.08320557 121.97706299 -25.29022095 123.19391785 -25.50350952 124.44764709 C-30.15089149 151.02274444 -30.15089149 151.02274444 -31.30099487 177.91279602 C-31.17549299 185.04374328 -32.5165882 190.33642865 -36.6388855 196.26069641 C-42.68247673 202.02214728 -48.5530625 204.83586134 -56.94747925 204.63569641 C-64.26139777 203.61663084 -69.9040936 199.74776549 -74.4826355 194.10444641 C-78.5767306 187.57602449 -78.16404561 180.66176789 -78.2013855 173.19819641 C-78.20831924 172.15550598 -78.20831924 172.15550598 -78.21539307 171.0917511 C-78.23401556 154.0422554 -74.79965844 137.86134542 -71.08853149 121.29603577 C-70.14556224 117.0276503 -69.28313704 112.74243137 -68.40719604 108.45991516 C-67.65449369 104.78981276 -66.8803346 101.12453727 -66.10031128 97.4601593 C-65.59752951 95.06356622 -65.11912774 92.66190763 -64.6388855 90.26069641 C-78.8288855 89.93069641 -93.0188855 89.60069641 -107.6388855 89.26069641 C-107.7420105 82.39257141 -107.8451355 75.52444641 -107.9513855 68.44819641 C-107.99690552 66.28281311 -108.04242554 64.11742981 -108.08932495 61.88642883 C-108.10392702 60.17135672 -108.11666835 58.45626731 -108.12716675 56.74116516 C-108.15274658 55.84965759 -108.17832642 54.95815002 -108.2046814 54.03962708 C-108.20528564 53.18727478 -108.20588989 52.33492249 -108.20651245 51.45674133 C-108.21761551 50.71727768 -108.22871857 49.97781403 -108.24015808 49.21594238 C-107.6388855 47.26069641 -107.6388855 47.26069641 -105.56918335 45.51972961 C-102.02858367 43.99847383 -98.96864656 43.86042183 -95.18649292 43.92012024 C-94.454245 43.91968216 -93.72199707 43.91924408 -92.96755981 43.91879272 C-90.55954855 43.92087424 -88.15224311 43.94417431 -85.74435425 43.96772766 C-84.06998576 43.9733259 -82.39561235 43.97759492 -80.72123718 43.98059082 C-76.3234897 43.99202167 -71.92604147 44.02147356 -67.52841187 44.05470276 C-63.03728279 44.08544168 -58.54610517 44.09910431 -54.05490112 44.11421204 C-45.24942556 44.14634509 -36.4441928 44.19751996 -27.6388855 44.26069641 C-27.65459595 43.35303528 -27.6703064 42.44537415 -27.68649292 41.51020813 C-27.7378168 38.1219657 -27.77532966 34.73414022 -27.80368042 31.34565735 C-27.81870746 29.88302566 -27.83913505 28.42043859 -27.86520386 26.95796204 C-27.90185817 24.84782361 -27.91867226 22.73828415 -27.93185425 20.62788391 C-27.9475647 19.36057434 -27.96327515 18.09326477 -27.97946167 16.78755188 C-27.46185973 11.4274962 -25.66300849 8.2848194 -21.8888855 4.51069641 C-14.98160573 -0.27126651 -8.13671243 -0.02830873 0 0 Z " fill="#AFB9D1" transform="translate(124.63888549804688,7.7393035888671875)"/>
<path d="M0 0 C1.55694989 -0.01169993 1.55694989 -0.01169993 3.14535332 -0.02363622 C6.6286744 -0.04360392 10.11090879 -0.02777202 13.59423828 -0.01205444 C16.08930093 -0.01882839 18.58435859 -0.02773025 21.07940674 -0.03860474 C27.15590454 -0.05905942 33.23197475 -0.0560352 39.30845594 -0.04154153 C44.24682112 -0.03025009 49.18509974 -0.02871795 54.12347412 -0.03416061 C55.17770516 -0.03530986 55.17770516 -0.03530986 56.25323379 -0.03648233 C57.68099549 -0.03808095 59.10875716 -0.03970202 60.53651881 -0.04134528 C73.92505301 -0.05560344 87.31341605 -0.0392091 100.70192218 -0.01234345 C112.19020181 0.00999546 123.67822883 0.00611535 135.16650391 -0.01693726 C148.50707471 -0.04369417 161.84749548 -0.05423014 175.18808937 -0.03887594 C176.61060204 -0.03728319 178.03311473 -0.03571134 179.45562744 -0.03416061 C180.5054857 -0.03300355 180.5054857 -0.03300355 181.57655323 -0.03182311 C186.50905958 -0.02750576 191.44147078 -0.03479336 196.3739624 -0.04655838 C203.01262061 -0.06204487 209.65087512 -0.05102111 216.28951263 -0.0220871 C218.72882035 -0.01546452 221.16816815 -0.01739378 223.60746002 -0.02840042 C226.93188721 -0.04202022 230.25477317 -0.02498116 233.57910156 0 C234.54942762 -0.01115361 235.51975368 -0.02230722 236.51948357 -0.03379881 C241.1828139 0.03439347 243.12460455 0.0993594 246.86520386 3.1121006 C247.50023834 3.94463041 248.13527283 4.77716022 248.78955078 5.63491821 C249.11955078 5.96491821 249.44955078 6.29491821 249.78955078 6.63491821 C249.89824291 8.97405203 249.94178964 11.28411136 249.94345093 13.6242218 C249.94783318 14.36404936 249.95221544 15.10387692 249.95673048 15.8661235 C249.97016659 18.36417147 249.97630813 20.86218412 249.98242188 23.36026001 C249.99031918 25.1437547 249.99858789 26.92724777 250.00720215 28.71073914 C250.03346947 34.58518945 250.04873636 40.45964706 250.06298828 46.33413696 C250.06834639 48.35385455 250.07372389 50.37357208 250.07912064 52.39328957 C250.10075796 60.79409892 250.11949498 69.19490632 250.13074303 77.5957365 C250.14698241 89.64670636 250.18015023 101.69735375 250.23714387 113.74820203 C250.27582249 122.21448802 250.29537337 130.6806877 250.30066359 139.14705974 C250.30432045 144.20666789 250.31637682 149.26593248 250.34876633 154.32544518 C250.37880964 159.0869569 250.38517215 163.84791655 250.37338257 168.60950279 C250.37316151 170.35662899 250.38149354 172.1037805 250.39903641 173.85081863 C250.42170198 176.23810985 250.4134471 178.62339491 250.39755249 181.01069641 C250.41143458 181.70068983 250.42531667 182.39068325 250.43961942 183.10158557 C250.37076072 187.30469677 249.45664188 190.42219263 246.50911403 193.51730353 C242.88077548 195.87550958 238.72336078 195.44673356 234.53440857 195.38336182 C233.49165286 195.39131063 232.44889714 195.39925944 231.37454277 195.40744913 C227.87487544 195.426723 224.37681963 195.40304534 220.87719727 195.37954712 C218.37066036 195.38440216 215.86412731 195.39184004 213.35760498 195.40167236 C207.25330295 195.41855119 201.14960041 195.4074528 195.04534035 195.38314648 C187.93805866 195.35590059 180.83088956 195.35918263 173.72356892 195.36341314 C161.04372421 195.36979231 148.36410424 195.34646041 135.68432617 195.30728149 C123.37761593 195.26926525 111.07116905 195.25510849 98.7644043 195.26626587 C85.36487994 195.27837801 71.96547139 195.27803435 58.56595665 195.2552942 C57.13756407 195.2528796 55.70917148 195.25046763 54.28077888 195.24805832 C53.22656339 195.2462477 53.22656339 195.2462477 52.15105061 195.24440051 C47.19555544 195.23663825 42.24010335 195.23743092 37.28460503 195.24123001 C30.61721524 195.24591426 23.95021347 195.22883543 17.28288269 195.19710922 C14.83187322 195.18860448 12.38082941 195.18693518 9.92981148 195.19248962 C6.59206852 195.19890749 3.25534721 195.18083724 -0.08229065 195.15631104 C-1.54798543 195.16764901 -1.54798543 195.16764901 -3.0432902 195.17921603 C-9.57092016 195.09396596 -9.57092016 195.09396596 -12.78095913 192.78983116 C-15.44828677 188.76891565 -15.361026 185.04537419 -15.36434937 180.39837646 C-15.36873162 179.65613449 -15.37311387 178.91389251 -15.37762892 178.14915836 C-15.39101378 175.65498851 -15.39719501 173.16085399 -15.40332031 170.66665649 C-15.41122136 168.88124431 -15.41949031 167.09583371 -15.42810059 165.3104248 C-15.45431454 159.44204228 -15.46962492 153.57365263 -15.48388672 147.70523071 C-15.48924615 145.68610504 -15.49462366 143.66697942 -15.50001907 141.64785385 C-15.52164448 133.25125052 -15.54038275 124.85464911 -15.55164146 116.45802498 C-15.56789216 104.41723157 -15.60110103 92.37676027 -15.65804231 80.3360883 C-15.69670303 71.87317461 -15.71626941 63.41034722 -15.72156203 54.94734752 C-15.72522002 49.89059557 -15.73728929 44.8341872 -15.76966476 39.77753067 C-15.79967831 35.02174075 -15.80608131 30.26650354 -15.79428101 25.51063919 C-15.79405973 23.7647038 -15.80240975 22.01874326 -15.81993484 20.27289581 C-15.84255652 17.88973725 -15.83436624 15.50859502 -15.81845093 13.12542725 C-15.83233302 12.43388522 -15.8462151 11.7423432 -15.86051786 11.02984536 C-15.80316891 7.54677677 -15.21509031 5.64207212 -13.31060219 2.70644379 C-8.87168005 -0.25964879 -5.23287906 -0.06015038 0 0 Z " fill="#A0D0EE" transform="translate(68.21044921875,255.36508178710938)"/>
<path d="M0 0 C14.52 0 29.04 0 44 0 C41.2490475 15.21114914 38.37147638 30.34666276 35.05615234 45.44433594 C34.35894413 48.62714082 33.677955 51.8130474 33 55 C32.79987305 55.88598877 32.59974609 56.77197754 32.39355469 57.68481445 C30.84132684 65.12315138 30.6276442 72.49470282 30.62939453 80.06225586 C30.62498389 82.19528994 30.58842389 84.32630891 30.55078125 86.45898438 C30.48862833 93.96440008 30.72291542 99.66587837 35 106 C40.13534762 111.13534762 45.51901378 114.07768546 52.8125 114.5 C58.64287455 114.27814404 63.33265475 112.49448397 68 109 C72.64281817 103.62261831 75.11163566 98.76008855 75.12084961 91.62231445 C75.34520923 72.18335025 77.86359664 53.61202812 81.16784668 34.48651123 C81.957908 29.88409245 82.71919197 25.27682452 83.48567963 20.67043304 C84.63592722 13.77647826 85.82101788 6.88937328 87 0 C101.19 0 115.38 0 130 0 C130 7.33630304 129.81482799 14.16864782 128.94140625 21.3828125 C128.8327977 22.32252899 128.72418915 23.26224548 128.61228943 24.23043823 C128.26823078 27.19601278 127.9155795 30.16048739 127.5625 33.125 C127.32949634 35.11842167 127.09707002 37.11191091 126.86523438 39.10546875 C126.43791424 42.77533627 126.0069763 46.44474173 125.57250977 50.11376953 C125.47686737 50.93215302 125.38122498 51.7505365 125.28268433 52.59371948 C125.09622504 54.18090809 124.90566096 55.76762059 124.71072388 57.35379028 C123.87577039 64.3639771 123.77843226 71.3406794 123.75976562 78.39355469 C123.74998984 80.62732227 123.71884815 82.86019445 123.6875 85.09375 C123.68097402 86.5338488 123.67572196 87.97395405 123.671875 89.4140625 C123.65785645 91.34693115 123.65785645 91.34693115 123.64355469 93.31884766 C124.27233681 99.81253038 126.98760665 105.66259229 132 110 C137.92781213 113.79145211 144.04503897 115.23171829 151 114 C158.48921236 111.37069379 162.95715955 108.04312173 166.55859375 100.9152832 C168.38772342 96.55665526 168.52023069 92.40958269 168.625 87.73046875 C168.67298485 86.38353943 168.67298485 86.38353943 168.72193909 85.00939941 C168.79011615 83.07574037 168.85252078 81.14187076 168.90969849 79.20785522 C169.06378416 74.05408243 169.26464104 68.90215654 169.46484375 63.75 C169.50512192 62.69544113 169.54540009 61.64088226 169.5868988 60.55436707 C170.02352318 49.5826181 170.75590197 38.6374603 171.5625 27.6875 C171.65881714 26.35964981 171.65881714 26.35964981 171.75708008 25.00497437 C171.94050464 22.48615367 172.12734739 19.96762238 172.31640625 17.44921875 C172.37051163 16.72295288 172.424617 15.99668701 172.48036194 15.24841309 C172.87500423 10.14426898 173.43384089 5.09543203 174 0 C188.19 0 202.38 0 217 0 C216.96519531 6.92097656 216.93039063 13.84195313 216.89453125 20.97265625 C216.87919982 25.36133658 216.86475772 29.74998382 216.85351562 34.13867188 C216.83559319 41.10220206 216.81440708 48.06561371 216.77368164 55.02905273 C216.74104822 60.64411657 216.72313846 66.25905327 216.71536827 71.87420464 C216.70983195 74.01478514 216.69902086 76.15535881 216.68280983 78.29588509 C216.66098293 81.29775062 216.65803532 84.29909306 216.65942383 87.30102539 C216.648638 88.1828801 216.63785217 89.0647348 216.6267395 89.97331238 C216.66330073 97.29439639 218.38964908 103.02843764 223.43359375 108.64453125 C228.55956658 113.08022345 234.76075421 114.76386722 241.44921875 114.44140625 C248.14511607 113.28269814 253.37666427 110.28218286 257.5625 104.9375 C260.3032965 101.01653051 261.12640833 97.58722898 261.12025452 92.83648682 C261.12162918 92.01481522 261.12300385 91.19314362 261.12442017 90.34657288 C261.12082489 89.45393234 261.11722961 88.56129181 261.11352539 87.64160156 C261.11374443 86.22158089 261.11374443 86.22158089 261.1139679 84.77287292 C261.11327153 81.6454336 261.10549198 78.51805392 261.09765625 75.390625 C261.09579109 73.22157829 261.09436765 71.05253117 261.09336853 68.88348389 C261.08955106 63.17558631 261.07972731 57.46771418 261.06866455 51.75982666 C261.05663504 44.91074652 261.05204452 38.06165787 261.04621124 31.21257019 C261.03651518 20.80836242 261.01735321 10.40421051 261 0 C275.19 0 289.38 0 304 0 C307.04003079 36.61855273 307.04003079 36.61855273 308.125 53 C308.2082251 54.24297852 308.2914502 55.48595703 308.37719727 56.76660156 C308.78179154 63.18488099 309.06189258 69.58954077 309.16796875 76.01953125 C309.1942334 77.32728516 309.22049805 78.63503906 309.24755859 79.98242188 C309.28941316 82.45089692 309.31083687 84.9198448 309.30712891 87.38867188 C309.43282141 94.95645386 310.63825553 100.70639419 315 107 C317.1966831 109.28560125 317.1966831 109.28560125 319.625 110.5625 C320.38039063 111.01753906 321.13578125 111.47257812 321.9140625 111.94140625 C327.59467001 114.82426137 333.61312825 115.06118676 339.66796875 113.1640625 C345.73395217 110.42932262 349.82688018 106.88959139 353 101 C354.8679773 95.13547782 354.28974466 88.71561334 354.3125 82.625 C354.31742462 81.55236908 354.31742462 81.55236908 354.32244873 80.45806885 C354.35111707 60.85920038 352.22371021 41.32252956 349.42089844 21.93847656 C349.14681152 20.02373535 349.14681152 20.02373535 348.8671875 18.0703125 C348.7007373 16.96703613 348.53428711 15.86375977 348.36279297 14.72705078 C347.88705042 9.83964446 348 4.91050624 348 0 C362.19 0 376.38 0 391 0 C393.70511636 15.80732741 393.70511636 15.80732741 394.86132812 22.75585938 C395.638469 27.42563856 396.41891348 32.09461431 397.22485352 36.75952148 C398.00246886 41.26736578 398.75946907 45.7782437 399.49609375 50.29296875 C399.61770245 51.03717953 399.73931114 51.7813903 399.86460495 52.54815292 C401.74632346 64.27447945 402.64589319 75.73827825 402.4886322 87.63188171 C402.48838853 95.17571953 403.76697917 100.66996381 408 107 C410.1966831 109.28560125 410.1966831 109.28560125 412.625 110.5625 C413.38039063 111.01753906 414.13578125 111.47257812 414.9140625 111.94140625 C419.87936003 114.46124825 424.54394837 114.67815331 430 114 C436.53843266 111.80792431 441.181654 108.727519 445 103 C447.90864755 96.90769372 447.52935867 90.56185478 447.5625 83.9375 C447.5671225 83.24237305 447.571745 82.54724609 447.57650757 81.83105469 C447.5951302 64.78143191 444.16281908 48.59738152 440.449646 32.03210449 C439.50891829 27.78063329 438.64426077 23.51321961 437.76831055 19.24804688 C437.01670734 15.59927716 436.24226729 11.9556021 435.46142578 8.31298828 C434.91099918 5.55386575 434.46253493 2.77520955 434 0 C448.52 0 463.04 0 478 0 C479.65 5.94 481.3 11.88 483 18 C483.82624878 20.94123779 483.82624878 20.94123779 484.66918945 23.94189453 C496.22197308 65.25205394 496.22197308 65.25205394 496 84.5 C495.98751221 85.77246582 495.97502441 87.04493164 495.9621582 88.35595703 C495.61065394 96.69457863 494.1262241 102.39281834 488.5625 108.8125 C482.48571429 114 482.48571429 114 478 114 C478 119.94 478 125.88 478 132 C468.07057287 132.29204197 459.50002789 132.41001729 450.875 127.0625 C448.17226493 125.72275682 448.17226493 125.72275682 446.10546875 126.6328125 C444.06820807 127.65143835 444.06820807 127.65143835 442.22265625 128.82421875 C436.59807773 131.7996109 430.91828698 132.38697551 424.6875 132.375 C423.94201904 132.37556396 423.19653809 132.37612793 422.4284668 132.37670898 C417.15195408 132.27187761 412.92738609 131.39623532 408.17578125 128.97265625 C404.37033325 127.27147752 401.35512759 126.48347154 397.38671875 127.99609375 C396.49597656 128.47175781 395.60523438 128.94742188 394.6875 129.4375 C384.79905304 133.85836234 373.15801866 133.4129247 362.99609375 129.8828125 C361 129 361 129 357.875 127.0625 C355.16792755 125.72348838 355.16792755 125.72348838 353.0703125 126.6328125 C351.00552039 127.65262761 351.00552039 127.65262761 349.125 128.82421875 C343.5909607 131.88625153 338.43405043 132.3860198 332.25 132.375 C331.45303711 132.37556396 330.65607422 132.37612793 329.83496094 132.37670898 C323.49601679 132.25857998 318.67576094 130.81526788 313 128 C308.74999791 126.63999933 306.75090865 126.92279601 302.875 128.875 C302.23304688 129.24367187 301.59109375 129.61234375 300.9296875 129.9921875 C293.14316293 134.05883393 280.41406928 133.37212902 272.29296875 130.84765625 C269.1875 129.4375 269.1875 129.4375 266.54296875 127.99609375 C263.25602941 126.70858295 261.38108564 127.10316031 258 128 C256.54529632 128.65030739 255.10696455 129.33849523 253.6875 130.0625 C244.24332806 133.97733073 232.40771989 133.13715773 222.8828125 129.8515625 C221 129 221 129 218 127 C215.08219067 127.14233216 212.68030572 127.66257929 210.0546875 128.96484375 C200.99393796 133.40050685 189.47264288 133.74113313 179.76171875 131.12890625 C177.1875 130.0625 177.1875 130.0625 175.10546875 128.97265625 C172.34518569 127.69749766 170.03638626 127.21633286 167 127 C164.32132981 127.9581747 164.32132981 127.9581747 161.6875 129.4375 C151.7364952 133.88633029 140.10492142 133.37765582 129.8828125 129.8515625 C128 129 128 129 125 127 C120.5054049 126.20683616 117.13539538 128.11650726 113.18359375 130.02734375 C105.60591037 133.40273402 94.83381795 133.32764039 86.87109375 131.140625 C84.3125 130.0625 84.3125 130.0625 82.17578125 128.97265625 C78.37033325 127.27147752 75.35512759 126.48347154 71.38671875 127.99609375 C70.49597656 128.47175781 69.60523437 128.94742188 68.6875 129.4375 C58.79905304 133.85836234 47.15801866 133.4129247 36.99609375 129.8828125 C35 129 35 129 31.875 127.0625 C29.17226493 125.72275682 29.17226493 125.72275682 27.10546875 126.6328125 C25.03614374 127.70110648 23.02297063 128.84686684 21 130 C14.14094305 132.74362278 7.28066989 132.13867943 0 132 C0 126.06 0 120.12 0 114 C-1.65 113.67 -3.3 113.34 -5 113 C-11.33054013 109.70284368 -14.77842383 104.66472852 -17 98 C-18.94696889 75.7203245 -15.52061144 55.63055728 -9.64129639 34.25134277 C-8.65554451 30.62995463 -7.71858879 26.99593518 -6.77539062 23.36328125 C-1.41117754 2.82235508 -1.41117754 2.82235508 0 0 Z " fill="#FEAE60" transform="translate(17,97)"/>
<path d="M0 0 C0.93783829 -0.00997513 1.87567657 -0.01995026 2.8419342 -0.03022766 C3.86900482 -0.03089233 4.89607544 -0.03155701 5.95426941 -0.03224182 C7.03746964 -0.04056534 8.12066986 -0.04888885 9.23669434 -0.0574646 C12.82772894 -0.08161598 16.41858205 -0.09034331 20.00968933 -0.09693909 C22.50209611 -0.10590187 24.99450232 -0.11502364 27.48690796 -0.1242981 C32.71659594 -0.14080487 37.94623948 -0.14852434 43.1759491 -0.15138245 C48.54689634 -0.15461424 53.91743593 -0.17573834 59.28825378 -0.21290588 C65.76919002 -0.25708612 72.2497422 -0.27684605 78.73082542 -0.2781086 C81.2015884 -0.28231732 83.67235157 -0.29477752 86.14303017 -0.31562614 C89.60009191 -0.34247415 93.05575048 -0.33773327 96.51286316 -0.32521057 C98.04436005 -0.34746201 98.04436005 -0.34746201 99.60679626 -0.37016296 C101.0262429 -0.3555175 101.0262429 -0.3555175 102.47436523 -0.34057617 C103.29086453 -0.3425875 104.10736383 -0.34459883 104.94860554 -0.3466711 C108.6222683 0.57331928 111.20898453 2.24957952 113.42765808 5.27415466 C114.27868197 8.31586298 114.21326569 11.23706812 114.14918518 14.3793335 C114.15431173 15.29832135 114.15943828 16.2173092 114.16472018 17.16414517 C114.17460691 20.24490371 114.1415985 23.32370362 114.10881042 26.40428162 C114.10711809 28.61188714 114.10806777 30.81949605 114.11146545 33.02709961 C114.11318905 39.02277519 114.07787904 45.01773259 114.03602171 51.01324105 C113.99854897 57.27792499 113.99499205 63.54262485 113.98786926 69.80740356 C113.97133117 80.32321274 113.93383784 90.8387995 113.8802948 101.35447693 C113.82520672 112.18486717 113.7827431 123.01518578 113.75724792 133.84568787 C113.75488341 134.84734795 113.75488341 134.84734795 113.75247113 135.8692436 C113.74464082 139.21932194 113.73705859 142.56940078 113.72959971 145.91947997 C113.66686096 173.70455524 113.56130522 201.48933641 113.42765808 229.27415466 C114.06214874 229.26971344 114.6966394 229.26527222 115.35035706 229.26069641 C121.93599706 229.21655387 128.52159525 229.18632615 135.10734558 229.16429138 C137.56732387 229.15421483 140.02729014 229.14055335 142.48722839 229.12327576 C146.01688093 229.09910005 149.54637555 229.08768826 153.07609558 229.07884216 C154.73395584 229.06335831 154.73395584 229.06335831 156.42530823 229.04756165 C157.95666916 229.04733505 157.95666916 229.04733505 159.51896667 229.04710388 C160.42053497 229.04266266 161.32210327 229.03822144 162.25099182 229.03364563 C164.42765808 229.27415466 164.42765808 229.27415466 166.42765808 231.27415466 C166.65269619 233.82263822 166.75206165 236.22679135 166.74015808 238.77415466 C166.75627136 239.4638031 166.77238464 240.15345154 166.78898621 240.86399841 C166.79093933 242.86790466 166.79093933 242.86790466 166.42765808 246.27415466 C162.62008582 248.81253617 159.5755835 248.55155623 155.164505 248.52583694 C153.87918526 248.53019727 153.87918526 248.53019727 152.56789947 248.53464568 C149.67098478 248.54199625 146.77427857 248.53497887 143.87736511 248.52812195 C141.78976393 248.53042438 139.70216356 248.53359944 137.6145649 248.53757644 C131.85791659 248.54596294 126.10133417 248.54178174 120.34468555 248.535604 C114.14420934 248.53109621 107.9437448 248.53805492 101.74327087 248.54356384 C90.29189275 248.55196169 78.84054416 248.55120785 67.38916618 248.54574091 C56.81135734 248.54071562 46.23355625 248.53939367 35.65574646 248.54178619 C34.60447164 248.54201535 34.60447164 248.54201535 33.53195895 248.54224913 C30.68719128 248.54287178 27.8424236 248.54350858 24.99765594 248.54416866 C-1.70447473 248.55029071 -28.40659193 248.54473332 -55.10872051 248.53397487 C-78.84725257 248.52448321 -102.58576317 248.52533245 -126.32429504 248.53489685 C-152.97667076 248.54559929 -179.62903456 248.54985659 -206.28141212 248.54367232 C-209.12108485 248.54303086 -211.96075757 248.54240518 -214.8004303 248.54178619 C-215.84927886 248.54154896 -215.84927886 248.54154896 -216.91931628 248.54130694 C-227.49211763 248.53902917 -238.0649104 248.54169779 -248.63771057 248.5467453 C-260.65591491 248.55245414 -272.67408837 248.5508616 -284.69229174 248.54018381 C-290.8292564 248.53491181 -296.96617741 248.53289624 -303.10314178 248.53948212 C-308.71369198 248.54541221 -314.32415779 248.54221543 -319.93470025 248.53152701 C-321.97166175 248.52928043 -324.00863027 248.53045716 -326.0455873 248.53527859 C-328.80022458 248.54130197 -331.55456733 248.53518173 -334.30918884 248.52583694 C-335.51377916 248.53286044 -335.51377916 248.53286044 -336.74270463 248.54002583 C-340.5566485 248.51391203 -342.32019091 248.44225533 -345.57234192 246.27415466 C-345.84902417 243.67988668 -345.94529434 241.36151821 -345.88484192 238.77415466 C-345.88806458 238.08450623 -345.89128723 237.39485779 -345.89460754 236.68431091 C-345.83946784 231.54128059 -345.83946784 231.54128059 -343.57234192 229.27415466 C-341.18873918 229.02575767 -341.18873918 229.02575767 -338.12566185 229.02805901 C-336.96170903 229.02407691 -335.7977562 229.02009481 -334.59853208 229.01599205 C-332.66374193 229.02473057 -332.66374193 229.02473057 -330.68986511 229.03364563 C-329.31457967 229.0327742 -327.93929455 229.03102436 -326.56401122 229.0284673 C-322.7717637 229.02397752 -318.97962832 229.03201969 -315.1873951 229.04202342 C-311.10286579 229.05063226 -307.01834319 229.04773959 -302.93380737 229.04621887 C-295.85273608 229.04516839 -288.77170154 229.051462 -281.6906395 229.06269455 C-271.45252245 229.07892453 -261.21442323 229.08415499 -250.97629471 229.08667053 C-234.36702432 229.09105158 -217.75777353 229.10437176 -201.14851379 229.12327576 C-185.01081948 229.14162398 -168.87313049 229.15578566 -152.73542786 229.16429138 C-151.24421174 229.16507955 -151.24421174 229.16507955 -149.72287004 229.16588365 C-144.73571561 229.16849365 -139.74856115 229.17102109 -134.76140666 229.17350745 C-93.3650381 229.19425269 -51.96869113 229.22948933 -10.57234192 229.27415466 C-10.5751073 228.13463506 -10.57787268 226.99511545 -10.58072186 225.82106495 C-10.64727612 198.11326034 -10.6965981 170.40546608 -10.72777843 142.69759846 C-10.73085797 140.03179227 -10.733962 137.36598613 -10.73713684 134.70018005 C-10.73792377 134.03757513 -10.7387107 133.3749702 -10.73952148 132.69228633 C-10.75176658 122.62816285 -10.77283352 112.56408183 -10.79866028 102.49998474 C-10.82853165 90.82329387 -10.84790957 79.1466412 -10.8546074 67.46991318 C-10.85852348 61.2853273 -10.86774789 55.10085072 -10.88953209 48.91629982 C-10.90986142 43.09776358 -10.91618288 37.2793819 -10.91166496 31.46081352 C-10.91249175 29.32304164 -10.91847843 27.18526471 -10.92995834 25.0475235 C-10.94484668 22.13262649 -10.94130875 19.21831586 -10.93310547 16.30340576 C-10.94184399 15.45417945 -10.95058252 14.60495313 -10.95958585 13.72999269 C-10.92421044 9.09115306 -10.60346563 6.02570433 -7.57234192 2.27415466 C-4.4034234 0.16154232 -3.62587874 0.02068044 0 0 Z " fill="#9096AB" transform="translate(345.5723419189453,255.72584533691406)"/>
<path d="M0 0 C0.96554023 -0.00583219 1.93108046 -0.01166439 2.92587948 -0.01767331 C3.98899632 -0.01389399 5.05211317 -0.01011467 6.14744568 -0.00622082 C7.27495271 -0.01004636 8.40245974 -0.01387191 9.56413364 -0.01781338 C13.36205194 -0.02817546 17.15981997 -0.02414514 20.95774841 -0.02018261 C23.67250509 -0.02343228 26.38725327 -0.02964469 29.102005 -0.03567028 C35.72206958 -0.04843658 42.34209364 -0.05020861 48.96216846 -0.04787002 C54.34108098 -0.04608901 59.71998117 -0.04783181 65.09889221 -0.05209446 C65.86361928 -0.05268965 66.62834634 -0.05328484 67.41624695 -0.05389806 C68.96963716 -0.05510978 70.52302736 -0.05632391 72.07641757 -0.05754044 C86.65228677 -0.06842321 101.22813285 -0.06624988 115.80400336 -0.06015559 C129.14872567 -0.05498457 142.49337503 -0.06624544 155.83808291 -0.08525381 C169.53055955 -0.10460853 183.22300164 -0.11289246 196.91549206 -0.10913056 C204.60677681 -0.10721506 212.29799944 -0.10973994 219.98927307 -0.1238451 C226.5361284 -0.13572971 233.08288336 -0.13719672 239.62974 -0.12505493 C242.97192984 -0.11914577 246.31378448 -0.11973476 249.65598679 -0.13005733 C253.27424389 -0.14043022 256.89200023 -0.13250032 260.51023865 -0.11974621 C262.10491392 -0.13080764 262.10491392 -0.13080764 263.73180485 -0.14209253 C264.69734508 -0.13488598 265.6628853 -0.12767944 266.65768433 -0.12025452 C267.91116999 -0.12033704 267.91116999 -0.12033704 269.1899786 -0.12042123 C271.83298397 0.34284082 272.71862034 1.14402493 274.32884216 3.25447559 C274.70979309 5.46201038 274.70979309 5.46201038 274.71702576 8.06136036 C274.72648224 9.03569523 274.73593872 10.0100301 274.74568176 11.01389027 C274.73657272 12.5889761 274.73657272 12.5889761 274.72727966 14.19588184 C274.73014984 15.27449986 274.73302002 16.35311787 274.73597717 17.46442127 C274.73801924 19.74494928 274.73247946 22.02549474 274.71995544 24.30598927 C274.7038889 27.80679206 274.71980804 31.30644296 274.73899841 34.80720997 C274.73701631 37.02010315 274.73317333 39.23299562 274.72727966 41.44588184 C274.73335236 42.49796329 274.73942505 43.55004475 274.74568176 44.63400745 C274.73622528 45.60519016 274.7267688 46.57637287 274.71702576 47.57698536 C274.71463898 48.43397526 274.7122522 49.29096516 274.70979309 50.17392445 C274.58407928 50.86050632 274.45836548 51.5470882 274.32884216 52.25447559 C271.12781165 54.38849594 270.33054771 54.50473074 266.65768433 54.50615788 C265.20937398 54.51398112 265.20937398 54.51398112 263.73180485 54.5219624 C262.668688 54.51750096 261.60557116 54.51303952 260.51023865 54.50844288 C258.8189781 54.51312285 258.8189781 54.51312285 257.09355068 54.51789737 C253.29562673 54.52590808 249.4978612 54.5195417 245.69993591 54.51326466 C242.98518033 54.51487242 240.27043158 54.51946063 237.55567932 54.52388477 C230.93561034 54.53279126 224.31558664 54.53085119 217.69551587 54.52505949 C212.31660416 54.52054793 206.93770517 54.5199279 201.55879211 54.52210712 C200.41170152 54.52256682 200.41170152 54.52256682 199.24143738 54.52303581 C197.68804717 54.52367524 196.13465696 54.52432367 194.58126676 54.52498099 C180.00539508 54.53068796 165.42954853 54.52412065 150.85368097 54.51338026 C138.33920388 54.50444441 125.82476389 54.50599635 113.31028748 54.51521778 C98.78758286 54.52591394 84.26490028 54.53013861 69.74219227 54.52399325 C68.19442559 54.52335614 66.6466589 54.5227274 65.09889221 54.52210712 C64.33730488 54.52179857 63.57571754 54.52149002 62.79105181 54.52117212 C57.41683292 54.51944321 52.04262798 54.52236449 46.66841125 54.52706623 C40.12157111 54.5326678 33.57477895 54.53117391 27.02794433 54.52050474 C23.68581649 54.51523821 20.34383523 54.51427931 17.00169754 54.51980305 C13.38353261 54.5252334 9.7655959 54.51845484 6.14744568 54.50844288 C4.55277041 54.51513504 4.55277041 54.51513504 2.92587948 54.5219624 C1.96033925 54.51674691 0.99479902 54.51153141 0 54.50615788 C-0.83565711 54.50583317 -1.67131422 54.50550847 -2.53229427 54.50517392 C-4.67115784 54.25447559 -4.67115784 54.25447559 -7.67115784 52.25447559 C-8.05210876 50.12923145 -8.05210876 50.12923145 -8.05934143 47.46931934 C-8.06879791 46.47488819 -8.07825439 45.48045704 -8.08799744 44.45589161 C-8.08192474 43.37879932 -8.07585205 42.30170704 -8.06959534 41.19197559 C-8.07246552 40.08974659 -8.07533569 38.98751759 -8.07829285 37.8518877 C-8.08033702 35.51830501 -8.07478259 33.18470533 -8.06227112 30.85115528 C-8.04622318 27.26906164 -8.06210866 23.68809644 -8.08131409 20.10603809 C-8.07933172 17.84301476 -8.07548818 15.57999213 -8.06959534 13.31697559 C-8.07566803 12.23988331 -8.08174072 11.16279102 -8.08799744 10.05305958 C-8.07854095 9.05862843 -8.06908447 8.06419727 -8.05934143 7.03963184 C-8.05695465 6.16186085 -8.05456787 5.28408985 -8.05210876 4.37971973 C-7.86353806 3.32772388 -7.86353806 3.32772388 -7.67115784 2.25447559 C-4.47104426 0.12106654 -3.6719613 0.00380871 0 0 Z " fill="#FDD682" transform="translate(122.67115783691406,25.745524406433105)"/>
<path d="M0 0 C1.55694989 -0.01169993 1.55694989 -0.01169993 3.14535332 -0.02363622 C6.6286744 -0.04360392 10.11090879 -0.02777202 13.59423828 -0.01205444 C16.08930093 -0.01882839 18.58435859 -0.02773025 21.07940674 -0.03860474 C27.15590454 -0.05905942 33.23197475 -0.0560352 39.30845594 -0.04154153 C44.24682112 -0.03025009 49.18509974 -0.02871795 54.12347412 -0.03416061 C55.17770516 -0.03530986 55.17770516 -0.03530986 56.25323379 -0.03648233 C57.68099549 -0.03808095 59.10875716 -0.03970202 60.53651881 -0.04134528 C73.92505301 -0.05560344 87.31341605 -0.0392091 100.70192218 -0.01234345 C112.19020181 0.00999546 123.67822883 0.00611535 135.16650391 -0.01693726 C148.50707471 -0.04369417 161.84749548 -0.05423014 175.18808937 -0.03887594 C176.61060204 -0.03728319 178.03311473 -0.03571134 179.45562744 -0.03416061 C180.5054857 -0.03300355 180.5054857 -0.03300355 181.57655323 -0.03182311 C186.50905958 -0.02750576 191.44147078 -0.03479336 196.3739624 -0.04655838 C203.01262061 -0.06204487 209.65087512 -0.05102111 216.28951263 -0.0220871 C218.72882035 -0.01546452 221.16816815 -0.01739378 223.60746002 -0.02840042 C226.93188721 -0.04202022 230.25477317 -0.02498116 233.57910156 0 C234.54942762 -0.01115361 235.51975368 -0.02230722 236.51948357 -0.03379881 C241.1828139 0.03439347 243.12460455 0.0993594 246.86520386 3.1121006 C247.50023834 3.94463041 248.13527283 4.77716022 248.78955078 5.63491821 C249.11955078 5.96491821 249.44955078 6.29491821 249.78955078 6.63491821 C249.89824291 8.97405203 249.94178964 11.28411136 249.94345093 13.6242218 C249.94783318 14.36404936 249.95221544 15.10387692 249.95673048 15.8661235 C249.97016659 18.36417147 249.97630813 20.86218412 249.98242188 23.36026001 C249.99031918 25.1437547 249.99858789 26.92724777 250.00720215 28.71073914 C250.03346947 34.58518945 250.04873636 40.45964706 250.06298828 46.33413696 C250.06834639 48.35385455 250.07372389 50.37357208 250.07912064 52.39328957 C250.10075796 60.79409892 250.11949498 69.19490632 250.13074303 77.5957365 C250.14698241 89.64670636 250.18015023 101.69735375 250.23714387 113.74820203 C250.27582249 122.21448802 250.29537337 130.6806877 250.30066359 139.14705974 C250.30432045 144.20666789 250.31637682 149.26593248 250.34876633 154.32544518 C250.37880964 159.0869569 250.38517215 163.84791655 250.37338257 168.60950279 C250.37316151 170.35662899 250.38149354 172.1037805 250.39903641 173.85081863 C250.42170198 176.23810985 250.4134471 178.62339491 250.39755249 181.01069641 C250.41143458 181.70068983 250.42531667 182.39068325 250.43961942 183.10158557 C250.37076072 187.30469677 249.45664188 190.42219263 246.50911403 193.51730353 C242.88077548 195.87550958 238.72336078 195.44673356 234.53440857 195.38336182 C233.49165286 195.39131063 232.44889714 195.39925944 231.37454277 195.40744913 C227.87487544 195.426723 224.37681963 195.40304534 220.87719727 195.37954712 C218.37066036 195.38440216 215.86412731 195.39184004 213.35760498 195.40167236 C207.25330295 195.41855119 201.14960041 195.4074528 195.04534035 195.38314648 C187.93805866 195.35590059 180.83088956 195.35918263 173.72356892 195.36341314 C161.04372421 195.36979231 148.36410424 195.34646041 135.68432617 195.30728149 C123.37761593 195.26926525 111.07116905 195.25510849 98.7644043 195.26626587 C85.36487994 195.27837801 71.96547139 195.27803435 58.56595665 195.2552942 C57.13756407 195.2528796 55.70917148 195.25046763 54.28077888 195.24805832 C53.22656339 195.2462477 53.22656339 195.2462477 52.15105061 195.24440051 C47.19555544 195.23663825 42.24010335 195.23743092 37.28460503 195.24123001 C30.61721524 195.24591426 23.95021347 195.22883543 17.28288269 195.19710922 C14.83187322 195.18860448 12.38082941 195.18693518 9.92981148 195.19248962 C6.59206852 195.19890749 3.25534721 195.18083724 -0.08229065 195.15631104 C-1.54798543 195.16764901 -1.54798543 195.16764901 -3.0432902 195.17921603 C-9.57092016 195.09396596 -9.57092016 195.09396596 -12.78095913 192.78983116 C-15.44828677 188.76891565 -15.361026 185.04537419 -15.36434937 180.39837646 C-15.36873162 179.65613449 -15.37311387 178.91389251 -15.37762892 178.14915836 C-15.39101378 175.65498851 -15.39719501 173.16085399 -15.40332031 170.66665649 C-15.41122136 168.88124431 -15.41949031 167.09583371 -15.42810059 165.3104248 C-15.45431454 159.44204228 -15.46962492 153.57365263 -15.48388672 147.70523071 C-15.48924615 145.68610504 -15.49462366 143.66697942 -15.50001907 141.64785385 C-15.52164448 133.25125052 -15.54038275 124.85464911 -15.55164146 116.45802498 C-15.56789216 104.41723157 -15.60110103 92.37676027 -15.65804231 80.3360883 C-15.69670303 71.87317461 -15.71626941 63.41034722 -15.72156203 54.94734752 C-15.72522002 49.89059557 -15.73728929 44.8341872 -15.76966476 39.77753067 C-15.79967831 35.02174075 -15.80608131 30.26650354 -15.79428101 25.51063919 C-15.79405973 23.7647038 -15.80240975 22.01874326 -15.81993484 20.27289581 C-15.84255652 17.88973725 -15.83436624 15.50859502 -15.81845093 13.12542725 C-15.83233302 12.43388522 -15.8462151 11.7423432 -15.86051786 11.02984536 C-15.80316891 7.54677677 -15.21509031 5.64207212 -13.31060219 2.70644379 C-8.87168005 -0.25964879 -5.23287906 -0.06015038 0 0 Z M1.78955078 18.63491821 C1.78955078 71.10491821 1.78955078 123.57491821 1.78955078 177.63491821 C77.68955078 177.63491821 153.58955078 177.63491821 231.78955078 177.63491821 C231.78955078 125.16491821 231.78955078 72.69491821 231.78955078 18.63491821 C155.88955078 18.63491821 79.98955078 18.63491821 1.78955078 18.63491821 Z " fill="#8F96AC" transform="translate(68.21044921875,255.36508178710938)"/>
<path d="M0 0 C29.37 0 58.74 0 89 0 C89 52.47 89 104.94 89 159 C59.63 159 30.26 159 0 159 C0 106.53 0 54.06 0 0 Z " fill="#A0D0EE" transform="translate(353,274)"/>
<path d="M0 0 C48.51 0 97.02 0 147 0 C147 46.2 147 92.4 147 140 C104 140 104 140 95.3125 131.8125 C93.95105485 129.15856856 92.59094734 126.50063363 91.37744141 123.77587891 C88.93686458 118.85752398 85.41983838 114.76654182 82 110.5 C80.64066046 108.73313439 79.28644832 106.96231168 77.9375 105.1875 C77.2775 104.32125 76.6175 103.455 75.9375 102.5625 C72.33700703 97.80055769 68.81656432 92.98014945 65.2890625 88.1640625 C60.92722968 82.22328567 56.47945452 76.3524674 52 70.5 C46.34646605 63.11358208 40.78529806 55.66805534 35.2890625 48.1640625 C30.92722569 42.22328023 26.47922253 36.35265017 22 30.5 C16.61269057 23.45606667 11.27121698 16.3813275 6 9.25 C5.09121094 8.02506836 5.09121094 8.02506836 4.1640625 6.77539062 C3.61492187 6.02966797 3.06578125 5.28394531 2.5 4.515625 C2.0153125 3.85852539 1.530625 3.20142578 1.03125 2.52441406 C0 1 0 1 0 0 Z " fill="#B4E1FA" transform="translate(153,292)"/>
<path d="M0 0 C11.88 0 23.76 0 36 0 C36.3125 13.6875 36.3125 13.6875 36.38793945 17.97924805 C36.42105225 19.10371338 36.45416504 20.22817871 36.48828125 21.38671875 C36.51446533 22.53358154 36.54064941 23.68044434 36.56762695 24.86206055 C37.08123454 28.58955818 38.31660959 31.31660959 41 34 C42.36180236 34.10085623 43.7287783 34.13289235 45.09430408 34.13701439 C46.42598927 34.1446262 46.42598927 34.1446262 47.78457719 34.15239179 C48.77112769 34.15288955 49.75767818 34.15338731 50.77412415 34.15390015 C51.81346216 34.1582824 52.85280017 34.16266465 53.92363328 34.1671797 C57.43517458 34.18062274 60.94669076 34.18675885 64.45825195 34.19287109 C66.96419388 34.20076767 69.47013466 34.20903633 71.97607422 34.21765137 C79.51744854 34.24165262 87.05882166 34.25680648 94.60022214 34.26971143 C96.7290898 34.27342148 98.8579568 34.27739487 100.9868238 34.2814641 C114.1973749 34.30669898 127.407927 34.32875937 140.61849689 34.34119225 C143.68015357 34.34412211 146.74181021 34.34708375 149.8034668 34.35009766 C150.94495483 34.35121673 150.94495483 34.35121673 152.10950323 34.35235842 C164.44170708 34.36501651 176.77376688 34.39824394 189.10590336 34.43989949 C201.75757416 34.48228517 214.40917116 34.50588338 227.06091279 34.51111281 C234.16826836 34.51453081 241.27539888 34.52633127 248.38268471 34.55921555 C255.06641413 34.59008875 261.74968202 34.59565191 268.43349457 34.58383179 C270.89098001 34.58361003 273.34848306 34.59199896 275.8059063 34.60948563 C279.1527263 34.63201077 282.49810005 34.62395877 285.84492493 34.60800171 C286.82478326 34.6218838 287.80464159 34.63576588 288.81419259 34.65006864 C294.22810627 34.64335702 294.22810627 34.64335702 298.60057354 31.66385841 C300.35042311 28.33295705 300.5431765 25.92473369 300.609375 22.16796875 C300.65771484 20.22954102 300.65771484 20.22954102 300.70703125 18.25195312 C300.7217735 16.89713991 300.73609112 15.54232202 300.75 14.1875 C300.77817759 12.81311361 300.80810754 11.43876195 300.83984375 10.06445312 C300.91046478 6.70995398 300.95750509 3.35497333 301 0 C306.61 0 312.22 0 318 0 C318 23.1 318 46.2 318 70 C213.06 70 108.12 70 0 70 C0 46.9 0 23.8 0 0 Z " fill="#FEAE5F" transform="translate(17,415)"/>
<path d="M0 0 C28 0 28 0 33.375 4.3125 C34.27414583 5.89459255 35.16805624 7.48179199 35.97509766 9.11279297 C38.07424356 12.97806162 40.91301128 16.37607612 43.5625 19.875 C44.77447614 21.52693106 45.98405898 23.18062032 47.19140625 24.8359375 C51.06177225 30.10814465 55.02314854 35.30787954 59 40.5 C64.65381168 47.88620191 70.21470621 55.33195048 75.7109375 62.8359375 C80.07277032 68.77671433 84.52054548 74.6475326 89 80.5 C94.06651628 87.11947147 99.07432621 93.77504794 104 100.5 C110.35947438 109.18192948 116.86608758 117.74662154 123.40625 126.29296875 C124.00824219 127.0823584 124.61023438 127.87174805 125.23046875 128.68505859 C126.41463494 130.23421199 127.60480128 131.77879644 128.80078125 133.31884766 C129.35121094 134.03476074 129.90164062 134.75067383 130.46875 135.48828125 C130.95794922 136.11903564 131.44714844 136.74979004 131.95117188 137.3996582 C133 139 133 139 133 141 C89.11 141 45.22 141 0 141 C0 94.47 0 47.94 0 0 Z " fill="#B3E0F9" transform="translate(71,291)"/>
<path d="M0 0 C9.69239571 -0.06954115 19.3847054 -0.12283212 29.07729626 -0.15543652 C33.57806911 -0.17108579 38.07867115 -0.19231054 42.5793457 -0.22631836 C46.92356862 -0.25893821 51.26762733 -0.27685857 55.61196327 -0.28463173 C57.26855364 -0.29017053 58.92513512 -0.30098652 60.5816555 -0.31719017 C62.90383632 -0.3389997 65.2253405 -0.34196551 67.54760742 -0.34057617 C68.23093643 -0.351362 68.91426544 -0.36214783 69.61830139 -0.3732605 C73.87937635 -0.34571436 76.70512757 0.22845942 80 3 C80.60127258 4.95524597 80.60127258 4.95524597 80.56762695 7.19604492 C80.56702271 8.04839722 80.56641846 8.90074951 80.5657959 9.77893066 C80.54021606 10.67043823 80.51463623 11.5619458 80.48828125 12.48046875 C80.48324585 13.30309204 80.47821045 14.12571533 80.47302246 14.9732666 C80.44686955 18.04503245 80.37706179 21.11630135 80.3125 24.1875 C80.209375 31.055625 80.10625 37.92375 80 45 C65.81 45.33 51.62 45.66 37 46 C39.80347769 60.84194073 42.71470484 75.63831076 45.94384766 90.39355469 C46.64145211 93.59322123 47.3220446 96.79612225 48 100 C48.30019043 101.33115845 48.30019043 101.33115845 48.60644531 102.68920898 C50.1586775 110.12617831 50.37235549 117.49603597 50.37060547 125.06225586 C50.37501611 127.19528994 50.41157611 129.32630891 50.44921875 131.45898438 C50.52123203 140.09384783 50.04944141 146.195418 44.32421875 152.98828125 C38.23511257 157.91478959 32.59216011 160.69743051 24.62109375 160.40625 C17.93448728 159.36987582 12.65315399 156.32248861 8.5 151 C5.22230357 146.2740191 3.75919912 142.09425351 3.76391602 136.328125 C3.75166489 135.20607666 3.73941376 134.08402832 3.72679138 132.92797852 C3.71511429 131.71424561 3.70343719 130.5005127 3.69140625 129.25 C3.33474621 113.26456636 0.99853065 97.82986171 -1.70428467 82.09576416 C-2.54914095 77.15287268 -3.36409389 72.20493773 -4.18223572 67.25756836 C-4.61409629 64.64624035 -5.05500786 62.03699042 -5.50099182 59.42797852 C-5.69797165 58.26065186 -5.89495148 57.0933252 -6.09790039 55.890625 C-6.35984947 54.35970215 -6.35984947 54.35970215 -6.62709045 52.79785156 C-6.97897799 50.15772312 -7.07033002 47.65925522 -7 45 C-8.98 45 -10.96 45 -13 45 C-12.443125 44.5875 -11.88625 44.175 -11.3125 43.75 C-10.549375 43.1725 -9.78625 42.595 -9 42 C-8.154375 41.401875 -7.30875 40.80375 -6.4375 40.1875 C-2.63500613 36.7750055 -1.17295888 33.44754178 -0.56762695 28.38134766 C-0.54144287 27.07214355 -0.51525879 25.76293945 -0.48828125 24.4140625 C-0.47033005 23.71227875 -0.45237885 23.010495 -0.43388367 22.28744507 C-0.38010953 20.06668947 -0.34599307 17.8461446 -0.3125 15.625 C-0.27929763 14.11064796 -0.24480529 12.59632362 -0.20898438 11.08203125 C-0.12440419 7.38822326 -0.0574365 3.69434121 0 0 Z " fill="#EFF1F8" transform="translate(415,52)"/>
<path d="M0 0 C0.73224792 -0.00043808 1.46449585 -0.00087616 2.21893311 -0.00132751 C4.62694437 0.000754 7.03424981 0.02405407 9.44213867 0.04760742 C11.11650716 0.05320566 12.79088057 0.05747468 14.46525574 0.06047058 C18.86300322 0.07190143 23.26045145 0.10135332 27.65808105 0.13458252 C32.14921013 0.16532144 36.64038775 0.17898407 41.1315918 0.1940918 C49.93706736 0.22622485 58.74230012 0.27739972 67.54760742 0.34057617 C67.55171631 1.26805664 67.5558252 2.19553711 67.56005859 3.15112305 C67.58719124 6.62583859 67.63643188 10.09883434 67.70019531 13.57299805 C67.72324786 15.07028493 67.73774088 16.56773103 67.74316406 18.06518555 C67.63149855 29.08858173 67.63149855 29.08858173 72.11010742 38.92651367 C74.63848015 41.41366294 77.34706651 42.83443927 80.54760742 44.34057617 C80.54760742 44.67057617 80.54760742 45.00057617 80.54760742 45.34057617 C78.56760742 45.34057617 76.58760742 45.34057617 74.54760742 45.34057617 C74.4989856 46.06293961 74.45036377 46.78530304 74.40026855 47.52955627 C73.84279036 55.02788675 72.81926337 62.34140229 71.51635742 69.74291992 C71.11318434 72.10844604 70.71120889 74.47417652 70.31030273 76.84008789 C70.10328735 78.05694275 69.89627197 79.27379761 69.6829834 80.52752686 C65.03560143 107.1026242 65.03560143 107.1026242 63.88549805 133.99267578 C64.01099993 141.12362304 62.66990472 146.41630841 58.54760742 152.34057617 C52.50401619 158.10202704 46.63343042 160.9157411 38.23901367 160.71557617 C30.92509515 159.6965106 25.28239932 155.82764525 20.70385742 150.18432617 C16.60976232 143.65590425 17.02244731 136.74164765 16.98510742 129.27807617 C16.97817368 128.23538574 16.97817368 128.23538574 16.97109985 127.17163086 C16.95247736 110.12213516 20.38683448 93.94122518 24.09796143 77.37591553 C25.04093068 73.10753006 25.90335588 68.82231113 26.77929688 64.53979492 C27.53199923 60.86969252 28.30615832 57.20441703 29.08618164 53.54003906 C29.58896341 51.14344598 30.06736518 48.74178739 30.54760742 46.34057617 C16.35760742 46.01057617 2.16760742 45.68057617 -12.45239258 45.34057617 C-12.55551758 38.47245117 -12.65864258 31.60432617 -12.76489258 24.52807617 C-12.8104126 22.36269287 -12.85593262 20.19730957 -12.90283203 17.96630859 C-12.9174341 16.25123648 -12.93017543 14.53614707 -12.94067383 12.82104492 C-12.96625366 11.92953735 -12.9918335 11.03802979 -13.01818848 10.11950684 C-13.01879272 9.26715454 -13.01939697 8.41480225 -13.02001953 7.53662109 C-13.03112259 6.79715744 -13.04222565 6.05769379 -13.05366516 5.29582214 C-12.45239258 3.34057617 -12.45239258 3.34057617 -10.38269043 1.59960938 C-6.84209075 0.07835359 -3.78215364 -0.05969841 0 0 Z " fill="#EFF1F8" transform="translate(29.452392578125,51.659423828125)"/>
<path d="M0 0 C5.63145401 5.63145401 5.63145401 5.63145401 8.05859375 8.7578125 C8.60177246 9.45559814 9.14495117 10.15338379 9.70458984 10.87231445 C10.2764502 11.61570068 10.84831055 12.35908691 11.4375 13.125 C12.35329834 14.30872192 12.35329834 14.30872192 13.28759766 15.51635742 C18.15481223 21.83599675 22.89753574 28.24266936 27.60717773 34.68017578 C32.00041622 40.67555381 36.48158651 46.59852041 41 52.5 C46.06662925 59.11938426 51.07429576 65.7750738 56 72.5 C61.03183244 79.36881622 66.14497017 86.17018102 71.3125 92.9375 C72.32376953 94.26479126 72.32376953 94.26479126 73.35546875 95.61889648 C76.22210955 99.3781758 79.09530824 103.13072782 82.01171875 106.8515625 C82.44121826 107.40593994 82.87071777 107.96031738 83.31323242 108.53149414 C84.40014655 109.93368269 85.49648318 111.32855419 86.59375 112.72265625 C88 115 88 115 88 119 C58.96 119 29.92 119 0 119 C0 79.73 0 40.46 0 0 Z " fill="#B3E0F9" transform="translate(353,313)"/>
<path d="M0 0 C52.8 0 105.6 0 160 0 C160 5.94 160 11.88 160 18 C111.82 18.33 63.64 18.66 14 19 C19.28 25.93 24.56 32.86 30 40 C37 49.5 37 49.5 40.4375 54.1875 C44.23213359 59.33735987 48.11208567 64.42038779 52 69.5 C57.65353395 76.88641792 63.21470194 84.33194466 68.7109375 91.8359375 C73.73248575 98.67524077 78.87536687 105.41789671 84.0324707 112.15527344 C89.06386682 118.74045621 93.99959889 125.39027797 98.89111328 132.07983398 C103.5146598 138.38764384 108.26018921 144.59618052 113.09057617 150.74707031 C113.86171753 151.7404541 113.86171753 151.7404541 114.6484375 152.75390625 C115.10395996 153.33470947 115.55948242 153.9155127 116.02880859 154.51391602 C117 156 117 156 117 158 C111.26889302 159.12401856 105.64024468 159.91081638 100 158 C94.69799165 154.03641415 91.2474778 148.05829344 87.69287109 142.57421875 C85.00496463 138.48692631 82.05364947 134.60377968 79.125 130.6875 C77.95987969 129.09843131 76.79583179 127.5085758 75.6328125 125.91796875 C71.81857593 120.72989874 67.91445849 115.61265667 64 110.5 C58.34634038 103.11367991 52.78529611 95.66805268 47.2890625 88.1640625 C42.92722968 82.22328567 38.47945452 76.3524674 34 70.5 C28.35567367 63.12561196 22.79898336 55.69541709 17.31762695 48.19921875 C12.01397903 40.96662626 6.56224931 33.8496079 1.06445312 26.76367188 C0.09475586 25.50393555 0.09475586 25.50393555 -0.89453125 24.21875 C-1.47050049 23.47560547 -2.04646973 22.73246094 -2.63989258 21.96679688 C-4 20 -4 20 -5 17 C0.28 16.67 5.56 16.34 11 16 C10.2059375 15.01257813 9.411875 14.02515625 8.59375 13.0078125 C7.56224612 11.71374399 6.53100992 10.41946209 5.5 9.125 C4.97535156 8.47402344 4.45070312 7.82304687 3.91015625 7.15234375 C3.41386719 6.52714844 2.91757813 5.90195312 2.40625 5.2578125 C1.71499023 4.39373779 1.71499023 4.39373779 1.00976562 3.51220703 C0 2 0 2 0 0 Z " fill="#B3E0F9" transform="translate(140,274)"/>
<path d="M0 0 C0.99 0.495 0.99 0.495 2 1 C3.52504673 1.09423227 5.05418284 1.12554675 6.58213806 1.12584114 C8.03883707 1.12975276 8.03883707 1.12975276 9.52496433 1.13374341 C11.13670489 1.13039732 11.13670489 1.13039732 12.78100586 1.12698364 C13.91653113 1.12854363 15.05205641 1.13010362 16.22199154 1.13171089 C20.05295521 1.13572128 23.88387973 1.13253107 27.71484375 1.12939453 C30.45077599 1.13019811 33.18670653 1.13249212 35.92263794 1.13470459 C42.59797718 1.13916048 49.27330519 1.13818662 55.94864488 1.13529195 C61.37192264 1.13303721 66.79519725 1.1327257 72.21847534 1.13381577 C72.98917734 1.133969 73.75987934 1.13412223 74.55393595 1.13428011 C76.11940742 1.13459982 77.68487889 1.13492403 79.25035036 1.1352527 C93.94349566 1.13810696 108.63663474 1.13482131 123.32977903 1.12945233 C135.94804591 1.12498434 148.5663036 1.12576029 161.18457031 1.13037109 C175.8237158 1.1357178 190.46285582 1.13783227 205.10200214 1.13475883 C206.66184298 1.13444027 208.22168382 1.1341259 209.78152466 1.13381577 C210.54907591 1.13366149 211.31662717 1.13350721 212.10743755 1.13334826 C217.52669432 1.1324834 222.94594763 1.13394533 228.36520386 1.13629532 C234.96588219 1.13909459 241.56654863 1.13835236 248.1672256 1.13301457 C251.53754205 1.13037928 254.90782211 1.12990433 258.27814102 1.13266373 C261.92511221 1.13537538 265.57202662 1.13199387 269.21899414 1.12698364 C270.29348784 1.12921436 271.36798155 1.13144509 272.47503567 1.13374341 C273.44616834 1.13113566 274.41730101 1.12852791 275.41786194 1.12584114 C276.26051637 1.12567879 277.1031708 1.12551644 277.97136021 1.12534916 C280.06898007 1.12851041 280.06898007 1.12851041 282 0 C282.08069658 2.95887459 282.14034665 5.9155659 282.1875 8.875 C282.22520508 10.13763672 282.22520508 10.13763672 282.26367188 11.42578125 C282.27333984 12.23144531 282.28300781 13.03710938 282.29296875 13.8671875 C282.3086792 14.61081543 282.32438965 15.35444336 282.34057617 16.12060547 C282.22818604 16.74080566 282.1157959 17.36100586 282 18 C278.79896948 20.13402035 278.00170554 20.25025515 274.32884216 20.25168228 C272.88053182 20.25950552 272.88053182 20.25950552 271.40296268 20.26748681 C270.33984584 20.26302537 269.27672899 20.25856392 268.18139648 20.25396729 C266.49013594 20.25864726 266.49013594 20.25864726 264.76470852 20.26342177 C260.96678457 20.27143249 257.16901904 20.26506611 253.37109375 20.25878906 C250.65633816 20.26039683 247.94158942 20.26498503 245.22683716 20.26940918 C238.60676818 20.27831566 231.98674448 20.2763756 225.36667371 20.2705839 C219.987762 20.26607234 214.60886301 20.26545231 209.22994995 20.26763153 C208.08285936 20.26809123 208.08285936 20.26809123 206.91259521 20.26856022 C205.359205 20.26919965 203.8058148 20.26984807 202.2524246 20.2705054 C187.67655292 20.27621237 173.10070637 20.26964505 158.52483881 20.25890467 C146.01036172 20.24996882 133.49592173 20.25152076 120.98144531 20.26074219 C106.45874069 20.27143835 91.93605811 20.27566301 77.41335011 20.26951766 C75.86558342 20.26888054 74.31781674 20.2682518 72.77005005 20.26763153 C72.00846271 20.26732298 71.24687538 20.26701443 70.46220964 20.26669653 C65.08799076 20.26496762 59.71378582 20.2678889 54.33956909 20.27259064 C47.79272895 20.27819221 41.24593679 20.27669832 34.69910216 20.26602915 C31.35697432 20.26076261 28.01499307 20.25980371 24.67285538 20.26532745 C21.05469045 20.2707578 17.43675373 20.26397925 13.81860352 20.25396729 C12.22392825 20.26065945 12.22392825 20.26065945 10.59703732 20.26748681 C9.63149709 20.26227132 8.66595686 20.25705582 7.67115784 20.25168228 C6.83550073 20.25135758 5.99984362 20.25103287 5.13886356 20.25069833 C3 20 3 20 0 18 C-0.34057617 16.12060547 -0.34057617 16.12060547 -0.29296875 13.8671875 C-0.28330078 13.06152344 -0.27363281 12.25585938 -0.26367188 11.42578125 C-0.23853516 10.58402344 -0.21339844 9.74226563 -0.1875 8.875 C-0.17396484 8.02550781 -0.16042969 7.17601563 -0.14648438 6.30078125 C-0.11108219 4.20025163 -0.05727401 2.10004707 0 0 Z " fill="#FDAF61" transform="translate(115,60)"/>
<path d="M0 0 C14.52 0 29.04 0 44 0 C46.475 8.91 46.475 8.91 49 18 C49.55083252 19.9608252 50.10166504 21.92165039 50.66918945 23.94189453 C62.22197308 65.25205394 62.22197308 65.25205394 62 84.5 C61.98751221 85.77246582 61.97502441 87.04493164 61.9621582 88.35595703 C61.61065394 96.69457863 60.1262241 102.39281834 54.5625 108.8125 C48.59273052 113.90864468 43.46986692 115.44263098 35.7265625 115.33984375 C28.43949445 114.43157023 22.75862075 110.49368491 18.15625 104.94140625 C15.527783 100.52806808 14.75965168 96.20706267 14.76171875 91.1328125 C14.74322876 89.45384888 14.74322876 89.45384888 14.72436523 87.7409668 C14.71219971 86.54769775 14.70003418 85.35442871 14.6875 84.125 C14.3854827 71.8463803 12.66483835 60.64054416 9.84912109 48.72509766 C8.20735225 41.52265115 6.76577403 34.27727912 5.29299927 27.03872681 C4.75848828 24.41663996 4.21964527 21.7954803 3.67944336 19.17456055 C3.34353799 17.54086299 3.0076798 15.90715573 2.671875 14.2734375 C2.51789749 13.52752853 2.36391998 12.78161957 2.20527649 12.0131073 C1.38661371 8.01515769 0.67138036 4.02828214 0 0 Z " fill="#FE6464" transform="translate(451,97)"/>
<path d="M0 0 C14.52 0 29.04 0 44 0 C41.06693577 16.21811987 37.94052351 32.3547007 34.4296875 48.45703125 C34.19797852 49.53082031 33.96626953 50.60460937 33.72753906 51.7109375 C33.23102407 53.95558514 32.71108209 56.19514688 32.17089844 58.4296875 C29.9188871 68.038985 29.54628805 77.19223953 29.47265625 87.02734375 C29.33107534 94.61441503 29.18806778 101.0842211 24.203125 107.20703125 C17.65842213 112.58677701 12.12752321 115.58699929 3.4921875 115.28515625 C-3.19557792 114.51994171 -7.63848134 112.20959174 -12 107 C-20.1781858 95.64140861 -18.54382924 77.38859208 -16.70310211 63.80982971 C-15.04553644 53.8092556 -12.326361 44.0151625 -9.64129639 34.25134277 C-8.65554451 30.62995463 -7.71858879 26.99593518 -6.77539062 23.36328125 C-1.41117754 2.82235508 -1.41117754 2.82235508 0 0 Z " fill="#FE6464" transform="translate(17,97)"/>
<path d="M0 0 C14.52 0 29.04 0 44 0 C44.87383626 19.31600955 45.21751471 38.5793499 45.24023438 57.91137695 C45.24581786 61.94120773 45.27014234 65.97071727 45.29820633 70.00044537 C45.31683189 73.14808619 45.32203722 76.29564713 45.32357025 79.44333839 C45.32657353 80.93080304 45.33452224 82.41826708 45.34775543 83.90567589 C45.36489288 85.97082498 45.36292317 88.03514967 45.35644531 90.1003418 C45.36191376 91.85135445 45.36191376 91.85135445 45.36749268 93.63774109 C44.60434008 100.61996631 41.24094598 106.37698215 36 111 C30.10211244 114.84153596 23.94622159 116.21266349 17 115 C10.27745791 112.75584267 4.67598849 109.17218338 1 103 C-0.72711915 98.59316238 -1.24867223 94.93498928 -1.24291992 90.21386719 C-1.24481827 89.56225113 -1.24671661 88.91063507 -1.24867249 88.23927307 C-1.25236399 86.0916829 -1.24167589 83.94443509 -1.23046875 81.796875 C-1.22927297 80.27589965 -1.22882463 78.75492355 -1.2290802 77.23394775 C-1.22751663 74.03628947 -1.21925402 70.8387433 -1.20581055 67.64111328 C-1.18910663 63.62527108 -1.18507156 59.60955399 -1.18563652 55.59368134 C-1.18493244 37.0328155 -0.84605857 18.54560394 0 0 Z " fill="#EFF1F8" transform="translate(234,97)"/>
<path d="M0 0 C14.52 0 29.04 0 44 0 C51.73505145 64.85998501 51.73505145 64.85998501 51.625 84.0625 C51.62306641 85.32763428 51.62113281 86.59276855 51.61914062 87.89624023 C51.4164875 96.63071334 49.78931982 102.86001724 43.7890625 109.421875 C38.57795415 114.01857319 32.42823742 115.75970621 25.5546875 115.44921875 C19.61935735 114.40554449 14.11132483 111.63446957 10.0625 107.125 C5.738302 100.57318485 4.54760856 95.43728804 4.375 87.73046875 C4.34296478 86.83251587 4.31092957 85.93456299 4.27792358 85.00939941 C4.20967415 83.07574144 4.14722461 81.14187165 4.09002686 79.20785522 C3.93641098 74.05412088 3.73804722 68.90215336 3.5390625 63.75 C3.49899078 62.69544113 3.45891907 61.64088226 3.41763306 60.55436707 C2.91000752 47.81218896 1.9511978 35.10583963 0.96484375 22.39331055 C0.90092438 21.55707153 0.837005 20.72083252 0.77114868 19.85925293 C0.65301352 18.32203593 0.53173864 16.78505475 0.40634155 15.24841309 C0.00906567 10.11743596 0 5.18651767 0 0 Z " fill="#EFF1F8" transform="translate(321,97)"/>
<path d="M0 0 C14.52 0 29.04 0 44 0 C43.36989605 14.87408842 42.52805948 29.71150016 41.5 44.5625 C40.35394592 60.80504202 40.35394592 60.80504202 39.7578125 77.07421875 C39.73138672 78.39284912 39.70496094 79.71147949 39.67773438 81.07006836 C39.64393397 83.42874201 39.63037086 85.78784427 39.64257812 88.14672852 C39.54841529 95.37877033 38.1833288 100.99667874 34 107 C27.95425348 112.76040583 22.08731906 115.5752006 13.69140625 115.375 C6.42020008 114.36188564 0.76692239 110.50369997 -3.84375 104.94140625 C-7.9906549 97.97852877 -7.39427376 90.31962377 -7.375 82.5 C-7.37545319 81.78625214 -7.37590637 81.07250427 -7.37637329 80.33712769 C-7.34423944 62.82176143 -5.37085845 45.55622546 -3.26287842 28.19012451 C-2.84804671 24.73402834 -2.4565126 21.27536739 -2.06640625 17.81640625 C-1.3961547 11.87513815 -0.69862069 5.93827585 0 0 Z " fill="#EFF1F8" transform="translate(147,97)"/>
<path d="M0 0 C14.19 0 28.38 0 43 0 C44.02377458 12.33183012 45.03574371 24.66352864 46 37 C46.05754456 37.73385925 46.11508911 38.46771851 46.17437744 39.22381592 C47.33350681 54.09319826 48.20731145 68.96105517 48.4375 83.875 C48.47190186 85.06351562 48.50630371 86.25203125 48.54174805 87.4765625 C48.58301785 95.7831566 47.01301132 101.67715007 41.28930664 107.84277344 C36.24392227 112.66899388 30.50272421 115.0413417 23.5625 115.5 C16.73880641 115.22940525 11.26332989 111.64552522 6.625 106.8125 C0.31267058 98.42715249 0.53417915 88.35338565 0.48828125 78.28125 C0.47135677 76.85565735 0.45319678 75.4300789 0.43388367 74.0045166 C0.38662211 70.25979229 0.35673153 66.51512484 0.33044434 62.77020264 C0.30104746 59.05109826 0.25400431 55.33222308 0.20898438 51.61328125 C0.00984839 34.40852717 -0.03099051 17.20593214 0 0 Z " fill="#FE6565" transform="translate(278,97)"/>
<path d="M0 0 C14.19 0 28.38 0 43 0 C43.03231685 17.94231558 42.98146614 35.88082111 42.76428032 53.8217926 C42.71913482 57.56395628 42.67983358 61.30599184 42.65356445 65.04833984 C42.62741161 68.75492196 42.58702606 72.46110302 42.53681374 76.16743469 C42.52034472 77.55466264 42.50870796 78.94195811 42.50238609 80.32926941 C42.44761185 91.19296337 41.91243126 101.16107149 34.08203125 109.3046875 C28.73026728 113.662409 22.1223056 115.81081125 15.2265625 115.4453125 C8.51653517 114.10330703 3.55188487 110.11412931 -0.7109375 104.94140625 C-1.13632813 104.30074219 -1.56171875 103.66007812 -2 103 C-2.51522217 102.2371167 -3.03044434 101.4742334 -3.5612793 100.68823242 C-5.71448207 95.1683895 -5.39474416 89.91874269 -5.30859375 84.046875 C-5.2985582 82.77060242 -5.28852264 81.49432983 -5.27818298 80.17938232 C-5.11924822 65.83811707 -4.11547689 51.54908149 -3.0625 37.25 C-2.8773719 34.61594735 -2.69312464 31.98183264 -2.50976562 29.34765625 C-2.17182085 24.55724313 -1.83324784 19.76690241 -1.48071289 14.97753906 C-1.41187393 14.03686584 -1.34303497 13.09619263 -1.27210999 12.12701416 C-0.91975085 8.07779855 -0.44885089 4.03965802 0 0 Z " fill="#FE6565" transform="translate(191,97)"/>
<path d="M0 0 C14.19 0 28.38 0 43 0 C45.74522517 15.80732741 45.74522517 15.80732741 46.91015625 22.75585938 C47.69328047 27.42620434 48.48059344 32.09543742 49.30029297 36.75952148 C52.0721147 52.5671294 54.49326869 68.15850125 54.59375 84.23828125 C54.60643921 85.41617722 54.61912842 86.59407318 54.63220215 87.80766296 C54.51866251 95.64035304 53.30240928 101.08012344 48.140625 107.20703125 C41.79171179 112.59836044 35.80010864 115.74735345 27.296875 115.41015625 C20.49269064 114.19512333 15.49157717 110.03825846 11.19140625 104.84375 C8.35217226 100.44991904 7.74067448 96.59107747 7.65625 91.40625 C7.61177734 89.488125 7.61177734 89.488125 7.56640625 87.53125 C7.54324969 86.18751721 7.52111819 84.84376637 7.5 83.5 C7.35851295 75.11064992 6.99802099 67.00987455 5.59277344 58.73339844 C4.38573417 51.13123846 3.58475177 43.47133714 2.71289062 35.82470703 C2.37480005 32.87325452 2.02736206 29.92299316 1.6796875 26.97265625 C1.46036354 25.06256582 1.2415946 23.15241155 1.0234375 21.2421875 C0.92034271 20.37729706 0.81724792 19.51240662 0.71102905 18.62130737 C0.00452158 12.29829718 0 6.4592812 0 0 Z " fill="#FE6565" transform="translate(365,97)"/>
<path d="M0 0 C14.19 0 28.38 0 43 0 C43 7.28267151 42.83049789 14.07828939 41.9765625 21.2421875 C41.87032562 22.1724173 41.76408875 23.10264709 41.65463257 24.06106567 C41.43055388 26.01256502 41.20352237 27.96372743 40.97363281 29.91455078 C40.62673511 32.86026618 40.28913616 35.80693121 39.953125 38.75390625 C38.16527361 54.27049332 38.16527361 54.27049332 36.859375 61.92578125 C35.5049489 70.31748284 35.64288118 78.78632549 35.609375 87.26757812 C35.45501299 95.71032239 34.76181726 101.23690302 29.4296875 107.98828125 C24.03755606 112.58107662 18.31390101 115.19342219 11.125 114.87109375 C2.74290006 113.60694553 -2.24248667 110.20561356 -7.703125 103.87890625 C-19.06360034 87.41990433 -9.13589816 52.89409338 -5.90081787 34.48651123 C-5.09856112 29.88492678 -4.33284874 25.2771178 -3.56053162 20.67043304 C-2.40059372 13.77531944 -1.19645268 6.88931437 0 0 Z " fill="#FE6565" transform="translate(104,97)"/>
<path d="M0 0 C9.69239571 -0.06954115 19.3847054 -0.12283212 29.07729626 -0.15543652 C33.57806911 -0.17108579 38.07867115 -0.19231054 42.5793457 -0.22631836 C46.92356862 -0.25893821 51.26762733 -0.27685857 55.61196327 -0.28463173 C57.26855364 -0.29017053 58.92513512 -0.30098652 60.5816555 -0.31719017 C62.90383632 -0.3389997 65.2253405 -0.34196551 67.54760742 -0.34057617 C68.23093643 -0.351362 68.91426544 -0.36214783 69.61830139 -0.3732605 C74.37828718 -0.3424891 75.59547656 0.35728594 80 3 C80 16.86 80 30.72 80 45 C49.31 45 18.62 45 -13 45 C-10.82987456 43.37240592 -8.65215544 41.7539636 -6.4375 40.1875 C-2.63500613 36.7750055 -1.17295888 33.44754178 -0.56762695 28.38134766 C-0.54144287 27.07214355 -0.51525879 25.76293945 -0.48828125 24.4140625 C-0.47033005 23.71227875 -0.45237885 23.010495 -0.43388367 22.28744507 C-0.38010953 20.06668947 -0.34599307 17.8461446 -0.3125 15.625 C-0.27929763 14.11064796 -0.24480529 12.59632362 -0.20898438 11.08203125 C-0.12440419 7.38822326 -0.0574365 3.69434121 0 0 Z " fill="#FED682" transform="translate(415,52)"/>
<path d="M0 0 C0.73224792 -0.00043808 1.46449585 -0.00087616 2.21893311 -0.00132751 C4.62694437 0.000754 7.03424981 0.02405407 9.44213867 0.04760742 C11.11650716 0.05320566 12.79088057 0.05747468 14.46525574 0.06047058 C18.86300322 0.07190143 23.26045145 0.10135332 27.65808105 0.13458252 C32.14921013 0.16532144 36.64038775 0.17898407 41.1315918 0.1940918 C49.93706736 0.22622485 58.74230012 0.27739972 67.54760742 0.34057617 C67.55171631 1.26805664 67.5558252 2.19553711 67.56005859 3.15112305 C67.58719124 6.62583859 67.63643188 10.09883434 67.70019531 13.57299805 C67.72324786 15.07028493 67.73774088 16.56773103 67.74316406 18.06518555 C67.63149855 29.08858173 67.63149855 29.08858173 72.11010742 38.92651367 C74.63848015 41.41366294 77.34706651 42.83443927 80.54760742 44.34057617 C80.54760742 44.67057617 80.54760742 45.00057617 80.54760742 45.34057617 C49.85760742 45.34057617 19.16760742 45.34057617 -12.45239258 45.34057617 C-12.45239258 31.48057617 -12.45239258 17.62057617 -12.45239258 3.34057617 C-7.59567321 0.42654455 -5.31303003 -0.08386213 0 0 Z " fill="#FED682" transform="translate(29.452392578125,51.659423828125)"/>
<path d="M0 0 C6.02520308 -1.03463083 12.06899161 -1.88618204 18 0 C23.10961416 3.74755767 26.33446532 9.44083893 29.61083984 14.76074219 C31.53635364 17.86457567 33.66502902 20.79789792 35.8125 23.75 C36.19567383 24.29237305 36.57884766 24.83474609 36.97363281 25.39355469 C42.7472089 33.56545669 48.91419953 41.45302107 55.00878906 49.38623047 C55.66588867 50.24877441 56.32298828 51.11131836 57 52 C57.51072052 52.55971497 58.02144104 53.11942993 58.54763794 53.69610596 C63.40299956 59.3420508 63.81473189 63.77203188 63.5859375 71.0625 C63.57744781 72.09439453 63.56895813 73.12628906 63.56021118 74.18945312 C63.52682762 77.46073178 63.45157389 80.72947608 63.375 84 C63.34488108 86.22782879 63.31750867 88.45569652 63.29296875 90.68359375 C63.22708645 96.12324942 63.1268907 101.56144361 63 107 C59.92654457 104.00383318 57.09540732 101.00691453 54.50390625 97.5859375 C53.87033203 96.75255859 53.23675781 95.91917969 52.58398438 95.06054688 C51.58334961 93.73120117 51.58334961 93.73120117 50.5625 92.375 C49.85802734 91.44494141 49.15355469 90.51488281 48.42773438 89.55664062 C43.32432595 82.80253406 38.29392505 75.99637947 33.29125977 69.16748047 C28.92913249 63.22522941 24.4800229 57.353739 20 51.5 C14.67618654 44.53863711 9.39572919 37.54836064 4.1875 30.5 C3.60677734 29.71689453 3.02605469 28.93378906 2.42773438 28.12695312 C1.88826172 27.39412109 1.34878906 26.66128906 0.79296875 25.90625 C0.3239917 25.27009766 -0.14498535 24.63394531 -0.62817383 23.97851562 C-2.19223059 21.72275553 -3.58773706 19.35377156 -5 17 C0.28 16.67 5.56 16.34 11 16 C10.2059375 15.01257813 9.411875 14.02515625 8.59375 13.0078125 C7.56224612 11.71374399 6.53100992 10.41946209 5.5 9.125 C4.97535156 8.47402344 4.45070313 7.82304687 3.91015625 7.15234375 C3.41386719 6.52714844 2.91757812 5.90195312 2.40625 5.2578125 C1.71499023 4.39373779 1.71499023 4.39373779 1.00976562 3.51220703 C0 2 0 2 0 0 Z " fill="#B3E0F9" transform="translate(378,274)"/>
<path d="M0 0 C11.88 0 23.76 0 36 0 C36 23.1 36 46.2 36 70 C24.12 70 12.24 70 0 70 C0 46.9 0 23.8 0 0 Z " fill="#FEAF5F" transform="translate(459,415)"/>
<path d="M0 0 C6.09259251 -1.33275461 12.01893931 -2.21266044 18 0 C24.00896432 4.7991595 28.00729412 11.73542022 32.12695312 18.13134766 C34.90707651 22.38922693 37.95117107 26.43273063 41 30.5 C42.14683285 32.06176653 43.29265701 33.62427423 44.4375 35.1875 C48.23213359 40.33735987 52.11208567 45.42038779 56 50.5 C61.65353395 57.88641792 67.21470194 65.33194466 72.7109375 72.8359375 C77.07277294 78.7767179 81.52070271 84.64740917 86 90.5 C92.84665022 99.44977292 99.56280303 108.48738397 106.22070312 117.578125 C108.13429733 120.18279768 110.05829577 122.77954764 111.984375 125.375 C112.63519043 126.25333496 113.28600586 127.13166992 113.95654297 128.03662109 C115.21426327 129.73353515 116.47364562 131.42921887 117.73486328 133.12353516 C118.29415527 133.87940918 118.85344727 134.6352832 119.4296875 135.4140625 C119.92710449 136.0838916 120.42452148 136.7537207 120.93701172 137.44384766 C122 139 122 139 122 140 C115.94432249 141.17405992 109.95509709 142.03843762 104 140 C98.62145154 135.83002419 95.30368481 129.48710162 91.78027344 123.77587891 C88.80365149 119.13460196 85.39012792 114.84317105 82 110.5 C76.33881156 103.11958304 70.78516765 95.66787729 65.2890625 88.1640625 C60.92722968 82.22328567 56.47945452 76.3524674 52 70.5 C46.34646605 63.11358208 40.78529806 55.66805534 35.2890625 48.1640625 C30.92722569 42.22328023 26.47922253 36.35265017 22 30.5 C16.61269057 23.45606667 11.27121698 16.3813275 6 9.25 C5.09121094 8.02506836 5.09121094 8.02506836 4.1640625 6.77539062 C3.61492187 6.02966797 3.06578125 5.28394531 2.5 4.515625 C2.0153125 3.85852539 1.530625 3.20142578 1.03125 2.52441406 C0 1 0 1 0 0 Z " fill="#D9EFFC" transform="translate(153,292)"/>
<path d="M0 0 C47.19 0 94.38 0 143 0 C143 5.61 143 11.22 143 17 C126.12747293 17.37130126 109.25659068 17.65636128 92.38090897 17.82899475 C84.54402363 17.91130477 76.7097315 18.02338032 68.87451172 18.20703125 C62.04044929 18.36713874 55.20826489 18.46987212 48.37237906 18.50541592 C44.75569423 18.52618128 41.14437843 18.57448634 37.52942657 18.69168091 C15.54428054 19.37799971 15.54428054 19.37799971 9.56956482 15.36932373 C5.22390392 11.18520125 2.43817852 6.47960018 0 1 C0 0.67 0 0.34 0 0 Z " fill="#A0D2F0" transform="translate(157,274)"/>
<path d="M0 0 C15.18 0 30.36 0 46 0 C46.0825 4.29 46.165 8.58 46.25 13 C46.28641602 14.33675781 46.32283203 15.67351562 46.36035156 17.05078125 C46.44147098 25.79074398 45.40138915 31.07532021 39.5625 37.8125 C33.59273052 42.90864468 28.46986692 44.44263098 20.7265625 44.33984375 C13.43949445 43.43157023 7.75862075 39.49368491 3.15625 33.94140625 C0.43597743 29.37392156 -0.24726048 24.97330862 -0.1953125 19.7265625 C-0.19031738 18.68580566 -0.18532227 17.64504883 -0.18017578 16.57275391 C-0.16196777 15.26999512 -0.14375977 13.96723633 -0.125 12.625 C-0.08375 8.45875 -0.0425 4.2925 0 0 Z " fill="#D2555A" transform="translate(466,168)"/>
<path d="M0 0 C15.18 0 30.36 0 46 0 C46.061875 4.125 46.12375 8.25 46.1875 12.5 C46.22846802 14.42682617 46.22846802 14.42682617 46.27026367 16.39257812 C46.32470935 23.91896093 46.14177954 30.14107513 41.203125 36.20703125 C34.65842213 41.58677701 29.12752321 44.58699929 20.4921875 44.28515625 C13.80442208 43.51994171 9.36151866 41.20959174 5 36 C1.17246431 30.68397821 -0.12824418 27.3160108 -0.09765625 20.80078125 C-0.09515869 19.71192627 -0.09266113 18.62307129 -0.09008789 17.5012207 C-0.08098389 16.11894287 -0.07187988 14.73666504 -0.0625 13.3125 C-0.0315625 6.7228125 -0.0315625 6.7228125 0 0 Z " fill="#D2555A" transform="translate(0,168)"/>
<path d="M0 0 C15.18 0 30.36 0 46 0 C46.061875 4.145625 46.12375 8.29125 46.1875 12.5625 C46.22846802 14.50298218 46.22846802 14.50298218 46.27026367 16.48266602 C46.33576066 25.55857719 45.02816603 31.59881596 38.7890625 38.421875 C33.57881052 43.01781779 27.42427171 44.76600412 20.55078125 44.4453125 C13.34700596 43.18768557 7.76904422 39.50625974 3.15625 33.94140625 C0.43597743 29.37392156 -0.24726048 24.97330862 -0.1953125 19.7265625 C-0.19031738 18.68580566 -0.18532227 17.64504883 -0.18017578 16.57275391 C-0.16196777 15.26999512 -0.14375977 13.96723633 -0.125 12.625 C-0.08375 8.45875 -0.0425 4.2925 0 0 Z " fill="#C7CEE1" transform="translate(233,168)"/>
<path d="M0 0 C15.18 0 30.36 0 46 0 C46.0825 4.29 46.165 8.58 46.25 13 C46.28641602 14.33675781 46.32283203 15.67351562 46.36035156 17.05078125 C46.43615576 25.21807212 45.71743484 30.58933722 40.32421875 36.98828125 C34.23511257 41.91478959 28.59216011 44.69743051 20.62109375 44.40625 C13.93448728 43.36987582 8.65315399 40.32248861 4.5 35 C1.08087363 30.07009686 -0.2545527 25.83709879 -0.1953125 19.82421875 C-0.19031738 18.78096436 -0.18532227 17.73770996 -0.18017578 16.6628418 C-0.16196777 15.350979 -0.14375977 14.03911621 -0.125 12.6875 C-0.08375 8.500625 -0.0425 4.31375 0 0 Z " fill="#C7CEE1" transform="translate(419,168)"/>
<path d="M0 0 C15.18 0 30.36 0 46 0 C46.1546875 6.125625 46.1546875 6.125625 46.3125 12.375 C46.35802002 13.64134277 46.40354004 14.90768555 46.45043945 16.21240234 C46.54278539 23.83481476 45.51404918 29.71847805 41 36 C34.94114509 41.75348224 29.09662094 44.57542241 20.69140625 44.375 C13.37748773 43.35593443 7.73479189 39.48706908 3.15625 33.84375 C0.40166719 29.45130714 -0.24416376 25.75927676 -0.1953125 20.60546875 C-0.19031738 19.52160889 -0.18532227 18.43774902 -0.18017578 17.32104492 C-0.16196777 15.9569751 -0.14375977 14.59290527 -0.125 13.1875 C-0.08375 8.835625 -0.0425 4.48375 0 0 Z " fill="#C7CEE1" transform="translate(47,168)"/>
<path d="M0 0 C15.18 0 30.36 0 46 0 C46.061875 4.145625 46.12375 8.29125 46.1875 12.5625 C46.22846802 14.50298218 46.22846802 14.50298218 46.27026367 16.48266602 C46.33576066 25.55857719 45.02816603 31.59881596 38.7890625 38.421875 C33.57795415 43.01857319 27.42823742 44.75970621 20.5546875 44.44921875 C14.61935735 43.40554449 9.11132483 40.63446957 5.0625 36.125 C-0.21218724 28.13304963 -0.3869412 22.00918855 -0.1875 12.5625 C-0.125625 8.416875 -0.06375 4.27125 0 0 Z " fill="#C7CEE1" transform="translate(326,168)"/>
<path d="M0 0 C15.18 0 30.36 0 46 0 C46.1546875 6.125625 46.1546875 6.125625 46.3125 12.375 C46.35802002 13.64134277 46.40354004 14.90768555 46.45043945 16.21240234 C46.54278539 23.83481476 45.51404918 29.71847805 41 36 C34.94114509 41.75348224 29.09662094 44.57542241 20.69140625 44.375 C13.42020008 43.36188564 7.76692239 39.50369997 3.15625 33.94140625 C0.43597743 29.37392156 -0.24726048 24.97330862 -0.1953125 19.7265625 C-0.19031738 18.68580566 -0.18532227 17.64504883 -0.18017578 16.57275391 C-0.16196777 15.26999512 -0.14375977 13.96723633 -0.125 12.625 C-0.08375 8.45875 -0.0425 4.2925 0 0 Z " fill="#C7CEE1" transform="translate(140,168)"/>
<path d="M0 0 C15.18 0 30.36 0 46 0 C46.0825 4.125 46.165 8.25 46.25 12.5 C46.28641602 13.78455078 46.32283203 15.06910156 46.36035156 16.39257812 C46.43903123 24.54988341 45.42348725 29.93640694 40.140625 36.20703125 C33.79171179 41.59836044 27.80010864 44.74735345 19.296875 44.41015625 C12.49269064 43.19512333 7.49157717 39.03825846 3.19140625 33.84375 C0.37251121 29.48139439 -0.24415359 25.7582033 -0.1953125 20.60546875 C-0.19031738 19.52160889 -0.18532227 18.43774902 -0.18017578 17.32104492 C-0.16196777 15.9569751 -0.14375977 14.59290527 -0.125 13.1875 C-0.08375 8.835625 -0.0425 4.48375 0 0 Z " fill="#D2555A" transform="translate(373,168)"/>
<path d="M0 0 C15.18 0 30.36 0 46 0 C46.0825 4.29 46.165 8.58 46.25 13 C46.28641602 14.33675781 46.32283203 15.67351562 46.36035156 17.05078125 C46.43659538 25.26543759 45.60948475 30.42978175 40.4296875 36.98828125 C35.03755606 41.58107662 29.31390101 44.19342219 22.125 43.87109375 C13.74290006 42.60694553 8.75751333 39.20561356 3.296875 32.87890625 C0.37434277 28.64475565 -0.24542308 24.91044221 -0.1953125 19.82421875 C-0.19031738 18.78096436 -0.18532227 17.73770996 -0.18017578 16.6628418 C-0.16196777 15.350979 -0.14375977 14.03911621 -0.125 12.6875 C-0.08375 8.500625 -0.0425 4.31375 0 0 Z " fill="#D2555A" transform="translate(93,168)"/>
<path d="M0 0 C14.85 0 29.7 0 45 0 C45.0825 4.29 45.165 8.58 45.25 13 C45.28641602 14.33675781 45.32283203 15.67351562 45.36035156 17.05078125 C45.43629594 25.23317525 44.68297497 30.53658509 39.359375 36.98828125 C33.32199267 41.95593322 27.2413089 44.72519415 19.296875 44.41015625 C12.49269064 43.19512333 7.49157717 39.03825846 3.19140625 33.84375 C0.37251121 29.48139439 -0.24415359 25.7582033 -0.1953125 20.60546875 C-0.19031738 19.52160889 -0.18532227 18.43774902 -0.18017578 17.32104492 C-0.16196777 15.9569751 -0.14375977 14.59290527 -0.125 13.1875 C-0.08375 8.835625 -0.0425 4.48375 0 0 Z " fill="#D2555A" transform="translate(280,168)"/>
<path d="M0 0 C14.85 0 29.7 0 45 0 C45.0825 4.29 45.165 8.58 45.25 13 C45.28641602 14.33675781 45.32283203 15.67351562 45.36035156 17.05078125 C45.43629594 25.23317525 44.68297497 30.53658509 39.359375 36.98828125 C33.32199267 41.95593322 27.2413089 44.72519415 19.296875 44.41015625 C12.49269064 43.19512333 7.49157717 39.03825846 3.19140625 33.84375 C0.37251121 29.48139439 -0.24415359 25.7582033 -0.1953125 20.60546875 C-0.19031738 19.52160889 -0.18532227 18.43774902 -0.18017578 17.32104492 C-0.16196777 15.9569751 -0.14375977 14.59290527 -0.125 13.1875 C-0.08375 8.835625 -0.0425 4.48375 0 0 Z " fill="#D2555A" transform="translate(187,168)"/>
<path d="M0 0 C6.0002227 -0.82355998 12.06478622 -1.56126573 18 0 C21.97729446 3.30897858 24.06132942 7.20239727 26.57714844 11.66650391 C29.42355546 16.3346505 32.89528165 20.56596795 36.25 24.875 C38.23226968 27.45810817 40.21015085 30.04344035 42.16748047 32.64550781 C43.93785944 34.9848334 43.93785944 34.9848334 45.80517578 36.97167969 C50.90651649 42.7635292 50.72420637 48.01444811 50.375 55.5 C50.33439453 57.16289062 50.33439453 57.16289062 50.29296875 58.859375 C50.2227377 61.57497563 50.1244462 64.28643455 50 67 C45.61288392 62.89776159 42.19127212 58.36523786 38.6875 53.5 C33.54250499 46.43318188 28.31700134 39.43830595 23 32.5 C17.64223312 25.49168052 12.31801618 18.46041611 7.0625 11.375 C6.46501953 10.57513672 5.86753906 9.77527344 5.25195312 8.95117188 C4.70603516 8.21189453 4.16011719 7.47261719 3.59765625 6.7109375 C3.11820557 6.06431152 2.63875488 5.41768555 2.14477539 4.75146484 C1 3 1 3 0 0 Z " fill="#D8EFFC" transform="translate(391,291)"/>
<path d="M0 0 C10.56 0 21.12 0 32 0 C32 14.19 32 28.38 32 43 C28.7734102 39.7734102 26.09315962 37.0037373 23.3984375 33.4453125 C22.74810547 32.58977783 22.09777344 31.73424316 21.42773438 30.8527832 C20.75033203 29.95261475 20.07292969 29.05244629 19.375 28.125 C18.67439453 27.19840576 17.97378906 26.27181152 17.25195312 25.31713867 C15.16274122 22.54864617 13.08043485 19.77509195 11 17 C10.4009082 16.20384277 9.80181641 15.40768555 9.18457031 14.58740234 C7.61669774 12.50040597 6.05637293 10.40808051 4.5 8.3125 C4.03770996 7.69584473 3.57541992 7.07918945 3.09912109 6.44384766 C0 2.23333424 0 2.23333424 0 0 Z " fill="#B4E0F9" transform="translate(409,291)"/>
</svg>
