<?xml version="1.0" encoding="UTF-8"?>
<svg version="1.1" xmlns="http://www.w3.org/2000/svg" width="512" height="512">
<path d="M0 0 C1.79355493 -0.00668677 1.79355493 -0.00668677 3.62334329 -0.01350862 C4.96208975 -0.01341931 6.3008362 -0.01322944 7.63958263 -0.01294994 C9.05255284 -0.01624765 10.4655221 -0.01997302 11.87849015 -0.02409142 C15.77505962 -0.03413004 19.67161369 -0.03783119 23.56819427 -0.04048073 C27.76530132 -0.04437824 31.96239611 -0.05395691 36.15949535 -0.0626936 C46.30189221 -0.08247299 56.44429009 -0.09252578 66.58670142 -0.10142139 C71.35933595 -0.1058016 76.13196936 -0.11116907 80.904603 -0.11641026 C96.76348452 -0.1334235 112.62236534 -0.14791883 128.48125458 -0.155159 C132.59841761 -0.15706898 136.71558063 -0.1589893 140.83274364 -0.16094494 C142.36775111 -0.16167055 142.36775111 -0.16167055 143.93376883 -0.16241082 C160.52017197 -0.17071542 177.10650309 -0.19605916 193.69287477 -0.22852562 C210.70982043 -0.26156419 227.72672945 -0.27960483 244.74370736 -0.28280324 C254.30298081 -0.28497124 263.86214923 -0.29376221 273.42139149 -0.31926441 C281.56058621 -0.34092767 289.6996504 -0.34904345 297.83887068 -0.33929763 C301.99342774 -0.33474026 306.1477152 -0.33672207 310.3022356 -0.35605907 C314.10395745 -0.3736016 317.90521125 -0.3727663 321.70693745 -0.35716178 C323.73719658 -0.35363805 325.76746012 -0.36987823 327.79765207 -0.38676625 C329.60294186 -0.37389492 329.60294186 -0.37389492 331.44470215 -0.36076355 C333.00315691 -0.36222876 333.00315691 -0.36222876 334.5930956 -0.36372358 C338.14835276 0.26449165 339.82810462 1.66391387 342.41111279 4.13422108 C343.707752 6.72749951 343.53114848 8.59830176 343.52463818 11.50189686 C343.52456264 12.62290791 343.52448711 13.74391895 343.52440929 14.89890003 C343.51924801 16.1135091 343.51408672 17.32811817 343.50876904 18.57953358 C343.50664661 20.43975651 343.50664661 20.43975651 343.50448132 22.3375597 C343.49982375 25.63540241 343.49083718 28.93319654 343.47977734 32.23102283 C343.4695501 35.59588494 343.46498088 38.96075416 343.45994091 42.32562733 C343.44889547 48.92851101 343.43214525 55.53136207 343.41111279 62.13422108 C344.06399776 62.12755924 344.71688274 62.12089741 345.38955212 62.1140337 C352.18648382 62.04764883 358.98332338 62.0024072 365.78049755 61.96942616 C368.31699394 61.95434244 370.85346426 61.93387277 373.38987255 61.90790272 C377.036341 61.87150227 380.68246451 61.85449025 384.32908154 61.84125233 C386.02933735 61.81802654 386.02933735 61.81802654 387.76394176 61.79433155 C388.82466396 61.79410496 389.88538616 61.79387836 390.97825146 61.79364491 C391.90868771 61.78698307 392.83912395 61.78032124 393.79775524 61.77345753 C397.01099154 62.21703194 398.83100952 63.18262814 401.41111279 65.13422108 C403.34887103 68.21071023 403.65016001 70.5436932 403.60883617 74.14589405 C403.59956852 75.66141613 403.59956852 75.66141613 403.59011364 77.20755482 C403.57342129 78.31039814 403.55672894 79.41324146 403.53953075 80.54950428 C403.52039724 82.96749783 403.50134809 85.38549204 403.48237133 87.80348682 C403.46188543 89.7285805 403.46188543 89.7285805 403.44098568 91.69256496 C403.40299728 95.71710324 403.38467697 99.74117941 403.37574291 103.76585865 C403.37412745 104.4467042 403.37251199 105.12754976 403.37084758 105.829027 C403.36761011 107.2214586 403.36444041 108.61389036 403.36133695 110.00632226 C403.33958177 119.37084861 403.30199678 128.73442243 403.18845654 138.09833241 C403.11199504 144.42036934 403.07898912 150.74105385 403.09435856 157.06355447 C403.10078917 160.40326982 403.07952989 163.73707113 403.01828671 167.07662868 C402.37353474 184.85238084 402.37353474 184.85238084 410.36863232 200.0724535 C411.44261435 201.18008332 412.5313053 202.2737262 413.63721752 203.34947681 C417.42705928 207.15414105 418.26791507 209.67837768 418.78611279 214.94672108 C418.56503882 220.89361061 416.19885963 225.38039058 412.00817204 229.49157429 C401.77482141 240.14507097 403.05262263 251.89763251 403.24753857 265.9486742 C403.2470447 268.56313989 403.24208872 271.17760796 403.23302746 273.79205799 C403.22026144 279.40113639 403.24328935 285.00912299 403.29087734 290.61800098 C403.35931772 298.73255825 403.36817824 306.84635948 403.36223148 314.96116394 C403.3538012 328.13689479 403.38686598 341.31216199 403.44919872 354.4877367 C403.50950989 367.26636827 403.56012714 380.04493363 403.59080029 392.8236742 C403.59270214 393.6119726 403.59460399 394.40027101 403.59656347 395.21245724 C403.61683804 403.81841057 403.63195734 412.4243576 403.63959599 421.03033161 C403.64027082 421.78648607 403.64094564 422.54264054 403.64164092 423.32170877 C403.6442337 426.34423898 403.64671615 429.36676898 403.6484779 432.38929981 C403.65368228 441.23292279 403.67512059 450.07613803 403.72614829 458.91962141 C403.76130179 465.11431876 403.77753697 471.30892561 403.78701115 477.50371265 C403.79447709 480.0462697 403.80890875 482.58881701 403.83072758 485.13129139 C403.85966121 488.59510464 403.86423087 492.05812462 403.86280346 495.52203846 C403.87738507 496.53359894 403.89196669 497.54515943 403.90699017 498.58737326 C403.88206527 502.97007549 403.84069615 505.4343398 401.50788212 509.23498249 C398.17241007 512.25622909 396.24338229 512.26131317 391.82222557 512.27123547 C390.62652229 512.27631001 389.430819 512.28138455 388.19888228 512.28661287 C386.86013587 512.28721459 385.52138942 512.28771366 384.18264294 512.28812122 C382.76967253 512.29213443 381.35670328 512.29657242 379.94373542 512.30140078 C376.0471682 512.31338777 372.15061336 512.31901963 368.2540313 512.32358193 C364.05692264 512.32952991 359.85982886 512.34114167 355.66273022 512.35187244 C345.52033669 512.37641366 335.37793824 512.39102546 325.23552415 512.40393251 C322.37236791 512.40764298 319.50921216 512.41161632 316.64605641 512.41568518 C298.87769951 512.44091855 281.10934186 512.46297819 263.34097099 512.47541332 C259.22380794 512.47834316 255.10664492 512.48130481 250.98948193 512.48431873 C249.96614361 512.48506478 248.9428053 512.48581083 247.88845674 512.48657949 C231.30203572 512.49923966 214.71572175 512.5324707 198.1293508 512.57412057 C181.11240587 512.6165025 164.0955158 512.64010396 147.07851821 512.64533389 C137.51921711 512.6487521 127.96008334 512.66055553 118.40083408 512.69343662 C110.26162191 512.72138685 102.12261134 512.73245863 93.98335489 512.72124116 C89.82873877 512.71604169 85.67454517 512.71902418 81.51998997 512.7437067 C77.7181839 512.76610554 73.91710613 512.76553339 70.11528812 512.74650283 C68.08501508 512.74235454 66.05473829 512.76291743 64.0245735 512.78428972 C54.20863203 512.69806515 54.20863203 512.69806515 51.12302399 509.72122097 C48.68490962 506.03679996 48.28756364 504.24874656 48.29758739 499.85834217 C48.29766293 498.75735188 48.29773846 497.65636158 48.29781628 496.52200794 C48.30297756 495.32927265 48.30813885 494.13653736 48.31345654 492.90765858 C48.31487148 491.689706 48.31628643 490.47175343 48.31774426 489.2168932 C48.3233564 485.31431118 48.335911 481.41178585 48.34861279 477.50922108 C48.35362622 474.8685969 48.3581894 472.22797183 48.36228466 469.58734608 C48.37332978 463.10295163 48.39007977 456.6185904 48.41111279 450.13422108 C47.76044842 450.14532413 47.10978405 450.15642719 46.43940258 450.16786671 C39.6586281 450.27860568 32.87811108 450.35394917 26.09665966 450.40887928 C23.5669311 450.43400152 21.03727497 450.46810529 18.50779247 450.51141834 C14.86861315 450.57216662 11.23039466 450.60045493 7.59080029 450.62250233 C6.4624577 450.64830875 5.3341151 450.67411518 4.17158031 450.70070362 C-4.60449569 450.70382844 -4.60449569 450.70382844 -8.28761768 447.7912035 C-11.92639151 443.58997545 -11.71578209 440.3830142 -11.72310829 434.98828125 C-11.72546052 434.25217474 -11.72781275 433.51606824 -11.73023626 432.75765547 C-11.73693497 430.27160571 -11.73646778 427.7856081 -11.73605824 425.29955006 C-11.73935631 423.50694808 -11.74308175 421.71434684 -11.74719971 419.92174655 C-11.75723407 414.98042256 -11.7609388 410.03911071 -11.76358902 405.09777796 C-11.76748775 399.77455256 -11.77706629 394.45133681 -11.78580189 389.12811756 C-11.80557713 376.26604883 -11.81563324 363.40397931 -11.82452968 350.54189917 C-11.8289103 344.48928143 -11.83427764 338.43666456 -11.83951855 332.38404751 C-11.85653087 312.27197641 -11.87102641 292.15990586 -11.87826729 272.04782867 C-11.88017727 266.82703304 -11.88209759 261.6062374 -11.88405323 256.38544178 C-11.88453697 255.08779472 -11.88502071 253.79014766 -11.88551911 252.45317797 C-11.89382456 231.41855107 -11.91917015 210.38398094 -11.95163391 189.34937885 C-11.98467044 167.76827692 -12.00271291 146.18720389 -12.00591153 124.60607654 C-12.00807964 112.48305924 -12.0168724 100.36012477 -12.0423727 88.23713207 C-12.06403309 77.91567064 -12.0721531 67.59431215 -12.06240592 57.27283057 C-12.05784786 52.00426768 -12.05983474 46.73591739 -12.07916737 41.46738338 C-12.09670428 36.64671554 -12.09587877 31.82641688 -12.08027007 27.00574563 C-12.07787955 25.25943686 -12.08229179 23.51310316 -12.09409872 21.76683267 C-12.10913462 19.39666466 -12.09960401 17.02781887 -12.08387184 14.65768433 C-12.08484865 13.34016212 -12.08582546 12.02263991 -12.08683187 10.66519278 C-11.50400217 6.53229332 -10.19257395 4.35737759 -7.58888721 1.13422108 C-4.94369794 -0.18837356 -2.96387065 0.00510465 0 0 Z " fill="#F0EDF0" transform="translate(52.588887214660645,-0.13422107696533203)"/>
<path d="M0 0 C3.37882612 1.53583006 6.10735277 3.6931479 9 6 C10.63639703 7.27189153 12.27695145 8.53824876 13.91870117 9.80322266 C15.02487121 10.66011271 16.12568293 11.52398291 17.2199707 12.39599609 C23.73105623 17.52827543 28.67061165 20.45434998 37.0625 21.0625 C38.55906733 21.20877485 40.05516781 21.35989917 41.55078125 21.515625 C42.29408691 21.59232422 43.03739258 21.66902344 43.80322266 21.74804688 C47.15515308 22.13248699 50.43371435 22.68348902 53.75 23.3125 C54.83796875 23.51488281 55.9259375 23.71726563 57.046875 23.92578125 C61.53103215 25.55692307 63.77089602 28.4915542 66.71875 32.109375 C68.73003092 36.64702099 68.99510789 41.34444332 69.5 46.25 C70.97457626 60.41025764 70.97457626 60.41025764 78.1875 72.375 C81.44360736 76.15869267 84.55011811 79.9711523 87.5 84 C88.1496875 84.886875 88.799375 85.77375 89.46875 86.6875 C92.26595109 90.9118445 92.59909318 95.06418749 92 100 C90.3888393 104.32084006 88.90006277 107.11701283 85.59705925 110.35735321 C75.36370862 121.01084989 76.64150984 132.76341143 76.83642578 146.81445312 C76.83593192 149.42891882 76.83097594 152.04338688 76.82191467 154.65783691 C76.80914865 160.26691531 76.83217657 165.87490191 76.87976456 171.48377991 C76.94820493 179.59833717 76.95706546 187.7121384 76.95111869 195.82694286 C76.94268841 209.00267371 76.97575319 222.17794091 77.03808594 235.35351562 C77.0983971 248.13214719 77.14901436 260.91071256 77.1796875 273.68945312 C77.18158935 274.47775153 77.1834912 275.26604993 77.18545069 276.07823616 C77.20572526 284.6841895 77.22084456 293.29013652 77.2284832 301.89611053 C77.22915803 302.652265 77.22983286 303.40841946 77.23052814 304.18748769 C77.23312091 307.21001791 77.23560337 310.23254791 77.23736511 313.25507873 C77.2425695 322.09870172 77.26400781 330.94191695 77.31503551 339.78540033 C77.350189 345.98009768 77.36642419 352.17470453 77.37589836 358.36949158 C77.38336431 360.91204862 77.39779597 363.45459593 77.41961479 365.99707031 C77.44854843 369.46088357 77.45311809 372.92390354 77.45169067 376.38781738 C77.46627229 377.39937787 77.4808539 378.41093835 77.49587739 379.45315218 C77.47095249 383.83585441 77.42958336 386.30011872 75.09676933 390.10076141 C71.76129728 393.12200801 69.8322695 393.12709209 65.41111279 393.13701439 C63.61755786 393.1446262 63.61755786 393.1446262 61.7877695 393.15239179 C60.44902309 393.15299351 59.11027663 393.15349258 57.77153015 393.15390015 C56.35855975 393.15791335 54.94559049 393.16235134 53.53262264 393.1671797 C49.63605541 393.17916669 45.73950058 393.18479855 41.84291852 393.18936086 C37.64580985 393.19530883 33.44871607 393.2069206 29.25161743 393.21765137 C19.10922391 393.24219258 8.96682545 393.25680438 -1.17558864 393.26971143 C-4.03874488 393.2734219 -6.90190062 393.27739524 -9.76505637 393.2814641 C-27.53341328 393.30669747 -45.30177092 393.32875712 -63.07014179 393.34119225 C-67.18730484 393.34412208 -71.30446787 393.34708373 -75.42163086 393.35009766 C-76.44496917 393.35084371 -77.46830748 393.35158976 -78.52265605 393.35235842 C-95.10907706 393.36501858 -111.69539104 393.39824962 -128.28176198 393.43989949 C-145.29870692 393.48228142 -162.31559699 393.50588289 -179.33259457 393.51111281 C-188.89189567 393.51453102 -198.45102945 393.52633446 -208.0102787 393.55921555 C-216.14949088 393.58716578 -224.28850145 393.59823755 -232.4277579 393.58702008 C-236.58237402 393.58182061 -240.73656762 393.5848031 -244.89112282 393.60948563 C-248.69292888 393.63188446 -252.49400665 393.63131232 -256.29582467 393.61228175 C-258.32609771 393.60813346 -260.3563745 393.62869635 -262.38653928 393.65006864 C-272.20248075 393.56384407 -272.20248075 393.56384407 -275.2880888 390.58699989 C-277.72620317 386.90257888 -278.12354914 385.11452548 -278.11352539 380.72412109 C-278.11344986 379.6231308 -278.11337433 378.5221405 -278.11329651 377.38778687 C-278.10813522 376.19505157 -278.10297394 375.00231628 -278.09765625 373.7734375 C-278.0962413 372.55548492 -278.09482635 371.33753235 -278.09336853 370.08267212 C-278.08775639 366.1800901 -278.07520179 362.27756477 -278.0625 358.375 C-278.05748657 355.73437583 -278.05292339 353.09375076 -278.04882812 350.453125 C-278.03778301 343.96873055 -278.02103302 337.48436932 -278 331 C-277.09249255 330.99910437 -277.09249255 330.99910437 -276.16665161 330.99819064 C-240.31773787 330.96230514 -204.46891541 330.9056792 -168.6200804 330.82207905 C-164.31670759 330.81206146 -160.0133344 330.80221735 -155.70996094 330.79248047 C-154.42486207 330.78956841 -154.42486207 330.78956841 -153.11380161 330.78659752 C-139.23745984 330.75556726 -125.36113461 330.73859401 -111.48476468 330.72680578 C-97.24879224 330.71439953 -83.01290669 330.68691004 -68.7769891 330.64538693 C-59.99099263 330.62023643 -51.20514025 330.60688385 -42.41910727 330.60857043 C-36.3960962 330.60860016 -30.37323202 330.59399328 -24.35027818 330.56783572 C-20.87408564 330.5531722 -17.39819434 330.54500161 -13.92197609 330.55419731 C-10.15337884 330.56080287 -6.38566522 330.54299721 -2.61715698 330.51898193 C-1.51793187 330.52674235 -0.41870676 330.53450277 0.71382821 330.54249835 C6.73491734 330.47436722 10.4885953 330.16120911 15 326 C17.45298006 318.64105982 16.80378838 310.08168815 17.00927734 302.38793945 C17.08604993 300.09885304 17.19513344 297.81060881 17.33740234 295.5246582 C18.57746656 283.11823696 18.57746656 283.11823696 14.36999512 271.95928955 C8.6138281 267.08677665 0.6141726 263.25077799 -7 263 C-10.03695201 264.13427231 -10.03695201 264.13427231 -12.9921875 266.0078125 C-14.10980469 266.66523438 -15.22742188 267.32265625 -16.37890625 268 C-17.54446125 268.70801996 -18.70982469 269.41635537 -19.875 270.125 C-21.03165513 270.81140952 -22.18920124 271.49632002 -23.34765625 272.1796875 C-28.15795909 275.0359778 -32.92114125 277.93993516 -37.609375 280.9921875 C-41 283 -41 283 -44.375 283 C-47 282 -47 282 -49 279 C-49.24609566 276.92856312 -49.24609566 276.92856312 -49.24050903 274.50117493 C-49.24463303 273.11927475 -49.24463303 273.11927475 -49.24884033 271.7094574 C-49.2380545 270.19679039 -49.2380545 270.19679039 -49.22705078 268.65356445 C-49.22734283 267.58998718 -49.22763489 266.52640991 -49.22793579 265.43060303 C-49.22654022 261.90808002 -49.21096817 258.3857674 -49.1953125 254.86328125 C-49.19158318 252.42376318 -49.18873583 249.98424361 -49.18673706 247.54472351 C-49.17909423 241.11835609 -49.1594401 234.69207883 -49.1373291 228.26574707 C-49.1168847 221.71038024 -49.10773835 215.15499888 -49.09765625 208.59960938 C-49.07619488 195.73303442 -49.04243453 182.866522 -49 170 C-49.61615173 170.00385208 -50.23230347 170.00770416 -50.86712646 170.01167297 C-51.67635559 170.01466904 -52.48558472 170.0176651 -53.31933594 170.02075195 C-54.12111267 170.02460403 -54.9228894 170.02845612 -55.7489624 170.03242493 C-61.68492038 169.9469208 -68.39310611 168.9294095 -73 165 C-78.31489579 158.01470839 -78.56865299 149.69209695 -79.3515625 141.17578125 C-80.68836499 128.21403948 -85.71952374 121.41223323 -93.875 111.58984375 C-98.42991638 106.03853941 -102.18885017 101.33345328 -101.80859375 93.83203125 C-100.15075636 88.02559595 -96.05187212 83.38122935 -92.3515625 78.71191406 C-90.34044897 76.16460047 -88.41882369 73.55471908 -86.5 70.9375 C-85.8709375 70.10089844 -85.241875 69.26429688 -84.59375 68.40234375 C-81.85143816 64.26871193 -80.76374978 60.45304198 -80.2890625 55.54296875 C-80.17820312 54.51236328 -80.06734375 53.48175781 -79.953125 52.41992188 C-79.73563111 50.27734812 -79.52461549 48.13410615 -79.3203125 45.99023438 C-78.48680162 38.38918345 -77.24283614 32.1596865 -71.5625 26.625 C-66.6762453 23.52639946 -62.06599725 22.59823406 -56.375 22 C-54.94122403 21.82833814 -53.50762926 21.65515601 -52.07421875 21.48046875 C-49.68198121 21.19450648 -47.29096228 20.92597468 -44.89453125 20.67578125 C-33.74753226 19.17986364 -25.8321812 12.12239947 -17.5078125 5.015625 C-11.71401242 0.35892587 -7.40482839 -1.32507455 0 0 Z " fill="#FED05B" transform="translate(379,119)"/>
<path d="M0 0 C0.33 0 0.66 0 1 0 C1.09152478 33.80169723 1.16202307 67.60336366 1.20426132 101.40515725 C1.20926424 105.39437261 1.21444152 109.38358773 1.21972656 113.37280273 C1.2207758 114.16699471 1.22182505 114.96118669 1.22290608 115.77944509 C1.24031862 128.64449283 1.27186096 141.50946918 1.30861118 154.37447455 C1.34599703 167.57190906 1.36823086 180.76930615 1.37635398 193.96679145 C1.38184666 202.11255056 1.39920424 210.25810792 1.43166587 218.40380494 C1.45527872 224.64646775 1.4578258 230.88897625 1.45243073 237.13167763 C1.45353386 239.69516875 1.46152599 242.25866731 1.4768219 244.82211304 C1.49664738 248.31513914 1.49196553 251.80729356 1.48101807 255.30033875 C1.49266943 256.32076678 1.5043208 257.34119482 1.51632524 258.39254493 C1.47891371 262.79190247 1.43438956 265.29172267 -0.90506363 269.10622883 C-4.24053648 272.12141459 -6.17126613 272.12710002 -10.58888721 272.13701439 C-12.38244214 272.1446262 -12.38244214 272.1446262 -14.2122305 272.15239179 C-15.55097691 272.15299351 -16.88972337 272.15349258 -18.22846985 272.15390015 C-19.64144025 272.15791335 -21.05440951 272.16235134 -22.46737736 272.1671797 C-26.36394459 272.17916669 -30.26049942 272.18479855 -34.15708148 272.18936086 C-38.35419015 272.19530883 -42.55128393 272.2069206 -46.74838257 272.21765137 C-56.89077609 272.24219258 -67.03317455 272.25680438 -77.17558864 272.26971143 C-80.03874488 272.2734219 -82.90190062 272.27739524 -85.76505637 272.2814641 C-103.53341328 272.30669747 -121.30177092 272.32875712 -139.07014179 272.34119225 C-143.18730484 272.34412208 -147.30446787 272.34708373 -151.42163086 272.35009766 C-152.44496917 272.35084371 -153.46830748 272.35158976 -154.52265605 272.35235842 C-171.10907706 272.36501858 -187.69539104 272.39824962 -204.28176198 272.43989949 C-221.29870692 272.48228142 -238.31559699 272.50588289 -255.33259457 272.51111281 C-264.89189567 272.51453102 -274.45102945 272.52633446 -284.0102787 272.55921555 C-292.14949088 272.58716578 -300.28850145 272.59823755 -308.4277579 272.58702008 C-312.58237402 272.58182061 -316.73656762 272.5848031 -320.89112282 272.60948563 C-324.69292888 272.63188446 -328.49400665 272.63131232 -332.29582467 272.61228175 C-334.32609771 272.60813346 -336.3563745 272.62869635 -338.38653928 272.65006864 C-348.20248075 272.56384407 -348.20248075 272.56384407 -351.2880888 269.58699989 C-353.72620317 265.90257888 -354.12354914 264.11452548 -354.11352539 259.72412109 C-354.11344986 258.6231308 -354.11337433 257.5221405 -354.11329651 256.38778687 C-354.10813522 255.19505157 -354.10297394 254.00231628 -354.09765625 252.7734375 C-354.0962413 251.55548492 -354.09482635 250.33753235 -354.09336853 249.08267212 C-354.08775639 245.1800901 -354.07520179 241.27756477 -354.0625 237.375 C-354.05748657 234.73437583 -354.05292339 232.09375076 -354.04882812 229.453125 C-354.03778301 222.96873055 -354.02103302 216.48436932 -354 210 C-353.09249255 209.99910437 -353.09249255 209.99910437 -352.16665161 209.99819064 C-316.31773787 209.96230514 -280.46891541 209.9056792 -244.6200804 209.82207905 C-240.31670759 209.81206146 -236.0133344 209.80221735 -231.70996094 209.79248047 C-230.42486207 209.78956841 -230.42486207 209.78956841 -229.11380161 209.78659752 C-215.23745984 209.75556726 -201.36113461 209.73859401 -187.48476468 209.72680578 C-173.24879224 209.71439953 -159.01290669 209.68691004 -144.7769891 209.64538693 C-135.99099263 209.62023643 -127.20514025 209.60688385 -118.41910727 209.60857043 C-112.3960962 209.60860016 -106.37323202 209.59399328 -100.35027818 209.56783572 C-96.87408564 209.5531722 -93.39819434 209.54500161 -89.92197609 209.55419731 C-86.15337884 209.56080287 -82.38566522 209.54299721 -78.61715698 209.51898193 C-77.51793187 209.52674235 -76.41870676 209.53450277 -75.28617179 209.54249835 C-69.26508266 209.47436722 -65.5114047 209.16120911 -61 205 C-60.03619923 202.1085977 -59.84887976 200.17346077 -59.79467773 197.16137695 C-59.77473251 196.1805867 -59.75478729 195.19979645 -59.73423767 194.18928528 C-59.71752518 193.13295395 -59.70081268 192.07662262 -59.68359375 190.98828125 C-59.6524221 189.36323921 -59.6524221 189.36323921 -59.62062073 187.70536804 C-59.55518203 184.24114384 -59.49626647 180.7768432 -59.4375 177.3125 C-59.39430939 174.96548685 -59.35069493 172.61848147 -59.30664062 170.27148438 C-59.19950643 164.51440396 -59.09772936 158.75724733 -59 153 C-58.25234375 153.40992188 -57.5046875 153.81984375 -56.734375 154.2421875 C-55.74953125 154.78101563 -54.7646875 155.31984375 -53.75 155.875 C-52.77546875 156.40867187 -51.8009375 156.94234375 -50.796875 157.4921875 C-49.87390625 157.98976563 -48.9509375 158.48734375 -48 159 C-47.27683594 159.40089844 -46.55367188 159.80179688 -45.80859375 160.21484375 C-43.2638211 161.31959386 -41.60402658 160.77417007 -39 160 C-37.43188498 158.43188498 -37.85914283 156.88379296 -37.84178162 154.70372009 C-37.8319928 153.77678848 -37.82220398 152.84985687 -37.81211853 151.89483643 C-37.80636307 150.86985046 -37.8006076 149.8448645 -37.79467773 148.78881836 C-37.78477814 147.71577957 -37.77487854 146.64274078 -37.76467896 145.53718567 C-37.73295626 141.97142788 -37.70826412 138.40565675 -37.68359375 134.83984375 C-37.66303351 132.37504215 -37.6420373 129.91024414 -37.62062073 127.44544983 C-37.56530395 120.94350085 -37.51593718 114.44151954 -37.46777344 107.93951416 C-37.4181596 101.31055451 -37.36190588 94.6816489 -37.30664062 88.05273438 C-37.19894163 75.0351968 -37.09733369 62.01761899 -37 49 C-35.90010742 48.87447754 -34.80021484 48.74895508 -33.66699219 48.61962891 C-32.21025413 48.44721305 -30.75355015 48.27450905 -29.296875 48.1015625 C-28.5735498 48.0197876 -27.85022461 47.9380127 -27.10498047 47.85375977 C-21.92113116 47.23016102 -17.03657035 46.58963783 -13 43 C-8.95094988 36.4719396 -8.13202668 30.50271339 -7.4375 22.9375 C-5.89207052 6.69553468 -5.89207052 6.69553468 0 0 Z " fill="#B5ADB6" transform="translate(455,240)"/>
<path d="M0 0 C3.9304764 1.62055555 7.41695566 3.78749392 11 6.0625 C13.11512432 7.35151013 15.2310383 8.63922522 17.34765625 9.92578125 C18.4370752 10.59689941 19.52649414 11.26801758 20.64892578 11.95947266 C26.18368611 15.32968443 31.81354105 18.53171516 37.4375 21.75 C39.60465283 23.00045989 41.77133152 24.25174194 43.9375 25.50390625 C47.7227123 27.68992587 51.51408651 29.86435829 55.3125 32.02734375 C56.85433181 32.91377532 58.39601098 33.80047246 59.9375 34.6875 C60.62320068 35.07325195 61.30890137 35.45900391 62.01538086 35.85644531 C65.49508466 37.87160306 68.01762873 39.4823669 70 43 C70.30025836 45.70536868 70.43059219 48.18114022 70.41992188 50.88623047 C70.42839142 51.6769696 70.43686096 52.46770874 70.44558716 53.28240967 C70.46896941 55.89416631 70.46997896 58.50533414 70.46875 61.1171875 C70.47585148 62.93555944 70.48355046 64.75392914 70.49182129 66.57229614 C70.50526936 70.38371 70.5068337 74.19491671 70.50097656 78.00634766 C70.49508392 82.88464255 70.52565209 87.76194103 70.56609344 92.64004326 C70.59197728 96.39593843 70.59484718 100.15159401 70.59120178 103.90756607 C70.59289278 105.70567451 70.60253343 107.50379403 70.62034607 109.30181503 C70.6425474 111.82020932 70.63282919 114.33659152 70.61523438 116.85498047 C70.62849762 117.59388519 70.64176086 118.33278992 70.65542603 119.09408569 C70.56255825 124.83102781 68.91384102 127.11109573 65 131 C62.42651367 132.8359375 62.42651367 132.8359375 59.66796875 134.375 C58.11698486 135.25357666 58.11698486 135.25357666 56.53466797 136.14990234 C55.43010254 136.76043457 54.32553711 137.3709668 53.1875 138 C51.43601347 138.98817558 49.68453836 139.97637254 47.93395996 140.96615601 C46.73667402 141.64220724 45.53850491 142.31669668 44.33947754 142.98965454 C38.30672909 146.37559132 32.34119622 149.87338415 26.375 153.375 C24.40402549 154.52148627 22.43268226 155.66733892 20.4609375 156.8125 C17.03218055 158.80593555 13.62174279 160.82497148 10.2265625 162.875 C8.81788983 163.7086401 7.40904913 164.54199636 6 165.375 C5.39591309 165.75060059 4.79182617 166.12620117 4.16943359 166.51318359 C-0.17228875 169.04575295 -4.0903737 170.10039668 -9 169 C-13.03171337 167.28591372 -16.73794117 165.11091569 -20.5 162.875 C-22.13618286 161.92971436 -22.13618286 161.92971436 -23.80541992 160.96533203 C-27.21276184 158.99215726 -30.60617464 156.99631007 -34 155 C-36.08874358 153.78976588 -38.17855417 152.58137109 -40.26953125 151.375 C-45.23051485 148.50741622 -50.17337823 145.61039433 -55.10888672 142.69921875 C-58.02526037 140.98515351 -60.95139248 139.28870365 -63.87890625 137.59375 C-65.71128436 136.52142583 -67.5433315 135.44853583 -69.375 134.375 C-70.21973877 133.89015137 -71.06447754 133.40530273 -71.93481445 132.90576172 C-72.70656006 132.44959473 -73.47830566 131.99342773 -74.2734375 131.5234375 C-74.94810059 131.13075684 -75.62276367 130.73807617 -76.31787109 130.33349609 C-78.44839939 128.64453447 -79.02847027 127.56221687 -80 125 C-80.20546015 122.33171681 -80.30401404 119.7665642 -80.30639648 117.09790039 C-80.31472 116.30555496 -80.32304352 115.51320953 -80.33161926 114.69685364 C-80.35569391 112.08040439 -80.36448749 109.46420447 -80.37109375 106.84765625 C-80.38006083 105.02689031 -80.38918269 103.20612514 -80.39845276 101.38536072 C-80.41493757 97.56979583 -80.42264215 93.75431865 -80.42553711 89.9387207 C-80.43092555 85.05140299 -80.46862651 80.16490998 -80.51428127 75.27782536 C-80.54403138 71.51770519 -80.55126019 67.75778432 -80.55226326 63.99755669 C-80.55646835 62.1958176 -80.56891428 60.39407807 -80.58978081 58.59245491 C-80.61665844 56.07151781 -80.61188211 53.55250168 -80.59936523 51.03149414 C-80.61419952 50.28899414 -80.62903381 49.54649414 -80.64431763 48.78149414 C-80.58865861 44.84204678 -80.14831644 43.18002482 -77.60992432 40.09895325 C-75.19509298 38.15689767 -72.86392351 36.51211154 -70.17578125 34.9765625 C-69.24241943 34.43797607 -68.30905762 33.89938965 -67.34741211 33.34448242 C-66.34589111 32.77705322 -65.34437012 32.20962402 -64.3125 31.625 C-63.26392822 31.02212158 -62.21535645 30.41924316 -61.13500977 29.7980957 C-58.9053783 28.51687848 -56.67379616 27.23905083 -54.44042969 25.96435547 C-49.88023526 23.36065661 -45.33032576 20.73932491 -40.78198242 18.11499023 C-38.56290262 16.83609141 -36.34172527 15.56082486 -34.1184082 14.28930664 C-29.479353 11.62941262 -24.86932793 8.9599592 -20.37890625 6.0546875 C-19.70867432 5.62647705 -19.03844238 5.1982666 -18.34790039 4.75708008 C-16.66747458 3.67076439 -15.00454198 2.55750779 -13.34375 1.44140625 C-8.70073337 -0.56008106 -4.97658744 -0.9233548 0 0 Z " fill="#8AC9FD" transform="translate(168,133)"/>
<path d="M0 0 C2.31 0 4.62 0 7 0 C7.09342247 24.01734111 7.16396903 48.03465501 7.20724869 72.05214119 C7.22787791 83.20376788 7.25600549 94.35528169 7.30175781 105.50683594 C7.34161443 115.2260155 7.36743019 124.94511332 7.37635398 134.66437232 C7.38157069 139.81114245 7.39383951 144.95767872 7.42292023 150.10437393 C7.45007066 154.94869869 7.4584457 159.79269326 7.45243073 164.63708687 C7.45353112 166.41484814 7.46148723 168.19262046 7.4768219 169.97031593 C7.4967444 172.39900142 7.49193155 174.82644278 7.48101807 177.25515747 C7.49266943 177.95750586 7.5043208 178.65985424 7.51632524 179.38348591 C7.45598898 184.35614 6.18288316 187.21348299 3 191 C-0.17741683 193.02886548 -2.67912129 193.2490627 -6.41166306 193.24609566 C-7.51689686 193.25007775 -8.62213066 193.25405985 -9.76085639 193.25816262 C-10.97485374 193.25233693 -12.18885108 193.24651125 -13.43963623 193.24050903 C-14.72937292 193.24221788 -16.01910962 193.24392673 -17.34792924 193.24568737 C-20.93043241 193.25016528 -24.51281628 193.24215115 -28.09530425 193.23213124 C-31.95757404 193.22350543 -35.81983694 193.22641629 -39.68211365 193.22793579 C-46.37463732 193.22898519 -53.06712205 193.22270283 -59.75963593 193.21146011 C-69.43591748 193.19521556 -79.11218016 193.18999818 -88.78847387 193.18748413 C-104.48708571 193.18310539 -120.18567678 193.16979142 -135.88427734 193.15087891 C-151.13525285 193.13252475 -166.38622271 193.11836597 -181.63720703 193.10986328 C-183.0469861 193.10907511 -183.0469861 193.10907511 -184.48524556 193.10827102 C-189.20014543 193.10566097 -193.91504534 193.10313355 -198.62994528 193.10064721 C-237.75331154 193.07990913 -276.87665407 193.04453018 -316 193 C-316 200.59 -316 208.18 -316 216 C-316.33 216 -316.66 216 -317 216 C-317 197.85 -317 179.7 -317 161 C-308.33733887 160.9906543 -299.67467773 160.98130859 -290.74951172 160.97167969 C-263.03965971 160.93897939 -235.32987564 160.88669881 -207.6200804 160.82207905 C-203.31670759 160.81206146 -199.0133344 160.80221735 -194.70996094 160.79248047 C-193.42486207 160.78956841 -193.42486207 160.78956841 -192.11380161 160.78659752 C-178.23745984 160.75556726 -164.36113461 160.73859401 -150.48476468 160.72680578 C-136.24879224 160.71439953 -122.01290669 160.68691004 -107.7769891 160.64538693 C-98.99099263 160.62023643 -90.20514025 160.60688385 -81.41910727 160.60857043 C-75.3960962 160.60860016 -69.37323202 160.59399328 -63.35027818 160.56783572 C-59.87408564 160.5531722 -56.39819434 160.54500161 -52.92197609 160.55419731 C-49.15337884 160.56080287 -45.38566522 160.54299721 -41.61715698 160.51898193 C-40.51793187 160.52674235 -39.41870676 160.53450277 -38.28617179 160.54249835 C-32.26508266 160.47436722 -28.5114047 160.16120911 -24 156 C-23.03619923 153.1085977 -22.84887976 151.17346077 -22.79467773 148.16137695 C-22.77473251 147.1805867 -22.75478729 146.19979645 -22.73423767 145.18928528 C-22.71752518 144.13295395 -22.70081268 143.07662262 -22.68359375 141.98828125 C-22.6524221 140.36323921 -22.6524221 140.36323921 -22.62062073 138.70536804 C-22.55518203 135.24114384 -22.49626647 131.7768432 -22.4375 128.3125 C-22.39430939 125.96548685 -22.35069493 123.61848147 -22.30664062 121.27148438 C-22.19950643 115.51440396 -22.09772936 109.75724733 -22 104 C-21.25234375 104.40992188 -20.5046875 104.81984375 -19.734375 105.2421875 C-18.74953125 105.78101563 -17.7646875 106.31984375 -16.75 106.875 C-15.77546875 107.40867187 -14.8009375 107.94234375 -13.796875 108.4921875 C-12.87390625 108.98976563 -11.9509375 109.48734375 -11 110 C-10.27683594 110.40089844 -9.55367188 110.80179687 -8.80859375 111.21484375 C-6.2638211 112.31959386 -4.60402658 111.77417007 -2 111 C-0.43188498 109.43188498 -0.85914283 107.88379296 -0.84178162 105.70372009 C-0.82709839 104.31332268 -0.82709839 104.31332268 -0.81211853 102.89483643 C-0.80636307 101.86985046 -0.8006076 100.8448645 -0.79467773 99.78881836 C-0.78477814 98.71577957 -0.77487854 97.64274078 -0.76467896 96.53718567 C-0.73295626 92.97142788 -0.70826412 89.40565675 -0.68359375 85.83984375 C-0.66303351 83.37504215 -0.6420373 80.91024414 -0.62062073 78.44544983 C-0.56530395 71.94350085 -0.51593718 65.44151954 -0.46777344 58.93951416 C-0.4181596 52.31055451 -0.36190588 45.6816489 -0.30664062 39.05273438 C-0.19894163 26.0351968 -0.09733369 13.01761899 0 0 Z " fill="#CAC3CB" transform="translate(418,289)"/>
<path d="M0 0 C9.91510463 8.33702492 16.58289285 19.32274913 19.4140625 32 C20.56101646 48.71275766 18.77599175 63.87422286 7.4140625 77 C6.7334375 77.79019531 6.0528125 78.58039063 5.3515625 79.39453125 C-3.91807469 89.37594415 -16.57162399 95.49649097 -30.21484375 96.3828125 C-47.23636159 97.00714406 -60.90647713 91.92849681 -73.484375 80.26171875 C-79.69327291 73.57965204 -83.69981783 65.58584343 -86.5859375 57 C-87.2046875 55.1746875 -87.2046875 55.1746875 -87.8359375 53.3125 C-90.82249144 39.8458568 -88.17213419 25.93532782 -81.12109375 14.18359375 C-72.38013933 1.75053136 -60.11218638 -8.52746205 -44.91796875 -11.71484375 C-28.2228707 -13.7562879 -13.37614984 -10.34530018 0 0 Z " fill="#47CC8D" transform="translate(408.5859375,173)"/>
<path d="M0 0 C1.27003372 -0.01288055 2.54006744 -0.02576111 3.84858704 -0.03903198 C4.92017799 -0.04989995 4.92017799 -0.04989995 6.01341724 -0.06098747 C13.86333103 0.18000244 20.54698646 6.413502 26.3125 11.125 C27.86863922 12.38065219 29.42714771 13.63337512 30.98828125 14.8828125 C32.00208862 15.70869873 32.00208862 15.70869873 33.03637695 16.55126953 C36.60424816 19.18358928 39.3701787 20.30504218 43.8125 20.375 C45.02873047 20.41753906 45.02873047 20.41753906 46.26953125 20.4609375 C54.43107608 19.08316598 61.1512942 12.04566199 67.328125 6.95703125 C74.12918311 1.50924491 79.22867909 -0.09505737 88 0 C88.07005067 14.15998612 88.1227694 28.3199454 88.15543652 42.48006916 C88.17111268 49.05472625 88.1923867 55.62926719 88.22631836 62.20385742 C88.25884199 68.54509312 88.27683831 74.88621688 88.28463173 81.22752953 C88.29018781 83.65052237 88.30103702 86.07350887 88.31719017 88.49645424 C88.33887111 91.88229382 88.3419708 95.26766697 88.34057617 98.65356445 C88.351362 99.66200912 88.36214783 100.6704538 88.3732605 101.7094574 C88.36913651 102.63072418 88.36501251 103.55199097 88.36076355 104.50117493 C88.36352893 105.30221303 88.36629431 106.10325113 88.36914349 106.92856312 C87.90411427 109.53805972 87.1220557 110.44741281 85 112 C80.47542249 111.79947763 77.32009854 110.31690588 73.48046875 108.015625 C72.45759766 107.40976562 71.43472656 106.80390625 70.38085938 106.1796875 C69.32705078 105.54289062 68.27324219 104.90609375 67.1875 104.25 C64.08485117 102.40030707 60.98095514 100.55290987 57.87255859 98.71289062 C56.0512568 97.62685855 54.24017278 96.52334812 52.44384766 95.39648438 C51.67476074 94.93048828 50.90567383 94.46449219 50.11328125 93.984375 C49.45755127 93.57413086 48.80182129 93.16388672 48.1262207 92.74121094 C44.15487091 91.35677897 40.91831369 92.56060145 37.24267578 94.31933594 C36.3195459 94.86879883 35.39641602 95.41826172 34.4453125 95.984375 C33.41792969 96.59023438 32.39054687 97.19609375 31.33203125 97.8203125 C29.74455078 98.77550781 29.74455078 98.77550781 28.125 99.75 C27.07441406 100.37132812 26.02382813 100.99265625 24.94140625 101.6328125 C19.76971872 104.70087244 14.64691961 107.80948749 9.65332031 111.16113281 C8 112 8 112 4.625 112 C2 111 2 111 0 108 C-0.24609566 105.94418049 -0.24609566 105.94418049 -0.24050903 103.53913879 C-0.24325836 102.62628616 -0.24600769 101.71343353 -0.24884033 100.7729187 C-0.24164978 99.77382477 -0.23445923 98.77473083 -0.22705078 97.74536133 C-0.22734283 96.69153763 -0.22763489 95.63771393 -0.22793579 94.55195618 C-0.22654028 91.06189801 -0.21096847 87.57205221 -0.1953125 84.08203125 C-0.19158316 81.66493344 -0.18873582 79.24783412 -0.18673706 76.83073425 C-0.17909438 70.4635502 -0.15944037 64.09645714 -0.1373291 57.72930908 C-0.11688438 51.23426545 -0.10773828 44.73920715 -0.09765625 38.24414062 C-0.07619514 25.49605489 -0.04243498 12.74803228 0 0 Z " fill="#FD5DA7" transform="translate(330,290)"/>
<path d="M0 0 C0.11593556 10.58772987 0.20473663 21.17530833 0.25906086 31.76354408 C0.28513615 36.68031893 0.32049643 41.59665898 0.37719727 46.51318359 C0.43159082 51.25943642 0.4614361 56.00527148 0.47438622 60.75181198 C0.48361293 62.56112621 0.50163093 64.37041799 0.52865028 66.17955399 C0.5650393 68.71737012 0.5699414 71.25346816 0.56762695 73.79150391 C0.58560333 74.53669281 0.60357971 75.28188171 0.62210083 76.0496521 C0.56528873 81.82076268 -1.05953687 84.0950353 -5 88 C-7.57348633 89.8359375 -7.57348633 89.8359375 -10.33203125 91.375 C-11.36602051 91.96071777 -12.40000977 92.54643555 -13.46533203 93.14990234 C-15.12218018 94.06570068 -15.12218018 94.06570068 -16.8125 95 C-18.56398653 95.98817558 -20.31546164 96.97637254 -22.06604004 97.96615601 C-23.26332598 98.64220724 -24.46149509 99.31669668 -25.66052246 99.98965454 C-31.69325555 103.37558269 -37.65930519 106.87255052 -43.625 110.375 C-46.52324429 112.06581996 -49.42297821 113.75405351 -52.32324219 115.44140625 C-54.05947333 116.45236025 -55.79457098 117.46526443 -57.52832031 118.48046875 C-59.76401168 119.78729121 -62.00576222 121.08292658 -64.25 122.375 C-64.88760254 122.75060059 -65.52520508 123.12620117 -66.18212891 123.51318359 C-69.50231747 125.40716488 -71.0590922 126 -75 126 C-75 97.95 -75 69.9 -75 41 C-66.42 36.05 -57.84 31.1 -49 26 C-33.80242331 17.19215802 -33.80242331 17.19215802 -18.71484375 8.19921875 C-17.19648926 7.28390381 -17.19648926 7.28390381 -15.64746094 6.35009766 C-13.71444188 5.182697 -11.7864409 4.0069352 -9.86425781 2.82177734 C-9.00541992 2.30437988 -8.14658203 1.78698242 -7.26171875 1.25390625 C-6.50850342 0.79314697 -5.75528809 0.3323877 -4.97924805 -0.14233398 C-3 -1 -3 -1 0 0 Z " fill="#60B7FE" transform="translate(238,176)"/>
<path d="M0 0 C3.93636918 1.60550951 7.4174798 3.78782672 11 6.0625 C13.11512432 7.35151013 15.2310383 8.63922522 17.34765625 9.92578125 C18.4370752 10.59689941 19.52649414 11.26801758 20.64892578 11.95947266 C26.18370447 15.32969561 31.81383338 18.53117454 37.4375 21.75 C39.60063783 23.00064953 41.7634074 24.25193626 43.92578125 25.50390625 C47.7406412 27.70808756 51.56901622 29.88330598 55.41796875 32.02734375 C56.22242432 32.48206055 57.02687988 32.93677734 57.85571289 33.40527344 C59.323333 34.23453012 60.79745721 35.05242408 62.27905273 35.85644531 C64.1953125 36.94921875 64.1953125 36.94921875 67 39 C67 40.32 67 41.64 67 43 C64.72580996 44.66288269 62.58685586 45.97651838 60.125 47.3125 C58.55591548 48.19908762 56.98691018 49.08581544 55.41796875 49.97265625 C54.55220215 50.45492676 53.68643555 50.93719727 52.79443359 51.43408203 C47.64506168 54.31963781 42.54654263 57.29383395 37.4375 60.25 C35.21629185 61.53020129 32.99493612 62.81014656 30.7734375 64.08984375 C24.02681888 67.98092136 17.29161888 71.89123331 10.5625 75.8125 C9.54406006 76.40514648 8.52562012 76.99779297 7.47631836 77.60839844 C6.53667236 78.15657227 5.59702637 78.70474609 4.62890625 79.26953125 C3.80463135 79.75010986 2.98035645 80.23068848 2.13110352 80.72583008 C0.38970715 81.76699718 -1.31184188 82.87456125 -3 84 C-6.71979658 83.65535673 -9.46351958 82.39422827 -12.67578125 80.55078125 C-13.57377441 80.0395874 -14.47176758 79.52839355 -15.39697266 79.00170898 C-16.35909668 78.44427002 -17.3212207 77.88683105 -18.3125 77.3125 C-19.8291626 76.44443726 -19.8291626 76.44443726 -21.37646484 75.55883789 C-28.64681538 71.38777557 -35.88616615 67.16295471 -43.125 62.9375 C-44.11056885 62.36290039 -45.0961377 61.78830078 -46.11157227 61.19628906 C-51.09831327 58.28684516 -56.07534624 55.36262926 -61.0390625 52.4140625 C-62.94247675 51.29648049 -64.84611299 50.17927645 -66.75 49.0625 C-67.62543457 48.5358374 -68.50086914 48.0091748 -69.40283203 47.46655273 C-70.21349121 46.99419189 -71.02415039 46.52183105 -71.859375 46.03515625 C-72.56545898 45.6162915 -73.27154297 45.19742676 -73.99902344 44.76586914 C-76.41752773 43.84019223 -77.60204757 44.13623951 -80 45 C-78.62870117 40.14141426 -76.50474383 38.65274323 -72.20703125 36.1640625 C-71.62911331 35.82444489 -71.05119537 35.48482727 -70.45576477 35.13491821 C-68.64502223 34.07567554 -66.82361884 33.03688375 -65 32 C-63.90993652 31.36803711 -62.81987305 30.73607422 -61.69677734 30.08496094 C-58.36958166 28.16498243 -55.030228 26.26779266 -51.6875 24.375 C-49.24385362 22.98602016 -46.80145715 21.59485291 -44.359375 20.203125 C-43.74851547 19.85512848 -43.13765594 19.50713196 -42.50828552 19.14859009 C-36.12981956 15.51090705 -29.78000934 11.8249997 -23.4375 8.125 C-22.4271167 7.53638184 -21.4167334 6.94776367 -20.37573242 6.34130859 C-7.4978448 -1.18297586 -7.4978448 -1.18297586 0 0 Z " fill="#B2D9FD" transform="translate(168,133)"/>
<path d="M0 0 C7.45639508 -0.07608273 14.91269 -0.12861377 22.36938477 -0.16479492 C24.90588115 -0.17987863 27.44235148 -0.20034831 29.97875977 -0.22631836 C33.62522822 -0.26271881 37.27135173 -0.27973082 40.91796875 -0.29296875 C42.61822456 -0.31619453 42.61822456 -0.31619453 44.35282898 -0.33988953 C45.41355118 -0.34011612 46.47427338 -0.34034271 47.56713867 -0.34057617 C48.49757492 -0.34723801 49.42801117 -0.35389984 50.38664246 -0.36076355 C53.59987876 0.08281086 55.41989674 1.04840706 58 3 C59.94311666 6.08553011 60.24800483 8.46166961 60.24050903 12.074646 C60.24325836 13.09825729 60.24600769 14.12186859 60.24884033 15.17649841 C60.24164978 16.29355667 60.23445923 17.41061493 60.22705078 18.56152344 C60.22734283 19.74228958 60.22763489 20.92305573 60.22793579 22.13960266 C60.22678175 25.37280308 60.2167558 28.60583006 60.20278788 31.83899593 C60.19027976 35.21958092 60.18910995 38.60016937 60.18673706 41.98077393 C60.18052253 48.38033884 60.16411209 54.77983536 60.14403808 61.17937016 C60.12167824 68.46589265 60.11068544 75.7524184 60.10064721 83.03896666 C60.07974582 98.02601586 60.04457038 113.01300109 60 128 C55.64403512 123.91111937 54.24568266 121.58072628 53.3125 115.625 C53.19640381 114.92963135 53.08030762 114.2342627 52.96069336 113.51782227 C52.385301 109.97630028 51.921451 106.42789997 51.515625 102.86328125 C50.57939815 93.23160664 50.57939815 93.23160664 46 85 C41.37903356 82.23977933 37.03963431 81.20753695 31.8125 80.375 C31.06363525 80.24657715 30.31477051 80.1181543 29.54321289 79.98583984 C25.33428824 79.28774779 21.20270077 78.84005214 16.9375 78.625 C11.60904075 78.23629781 8.17020783 76.21356773 4 73 C3.31319153 72.61668015 2.62638306 72.23336029 1.91876221 71.83842468 C0 70 0 70 -0.48101807 66.98176575 C-0.4676944 65.12644478 -0.4676944 65.12644478 -0.45410156 63.23364258 C-0.45468567 62.55045456 -0.45526978 61.86726654 -0.45587158 61.16337585 C-0.45308615 58.90657629 -0.42197557 56.65109984 -0.390625 54.39453125 C-0.38316417 52.82940899 -0.37747049 51.26427739 -0.37347412 49.69914246 C-0.35820515 45.58072088 -0.31891311 41.46286404 -0.2746582 37.34466553 C-0.23373234 33.14196411 -0.21546889 28.93917139 -0.1953125 24.73632812 C-0.1524195 16.49062632 -0.0841536 8.24538342 0 0 Z " fill="#B5ADB6" transform="translate(396,62)"/>
<path d="M0 0 C1.24508331 -0.00845947 2.49016663 -0.01691895 3.77297974 -0.02563477 C5.15521371 -0.01980168 6.53744639 -0.01365716 7.91967773 -0.00723267 C9.37336624 -0.01129714 10.82705166 -0.01663832 12.2807312 -0.02316284 C16.23111905 -0.03685716 20.18127225 -0.03152917 24.13166428 -0.02202559 C28.26226187 -0.0144399 32.39283913 -0.02147156 36.5234375 -0.02618408 C43.46056736 -0.03164483 50.39760147 -0.02444169 57.3347168 -0.01016235 C65.35945974 0.00616481 73.38397403 0.00087653 81.40871143 -0.01564157 C88.29370744 -0.02924739 95.17863454 -0.03118054 102.06363964 -0.02332556 C106.1778914 -0.01864405 110.29203563 -0.01803726 114.40628052 -0.02793503 C118.27393442 -0.03658932 122.14129301 -0.03061123 126.00891495 -0.01325226 C127.42992792 -0.00927914 128.85096566 -0.01043555 130.27196884 -0.01704025 C132.20848464 -0.02521243 134.14505463 -0.01315709 136.08154297 0 C137.16628403 0.00113108 138.25102509 0.00226215 139.36863708 0.00342751 C142.04077148 0.38095093 142.04077148 0.38095093 143.88995361 1.73055077 C145.66071029 4.27001178 145.41232463 6.44992652 145.40405273 9.50985718 C145.40308594 11.30906616 145.40308594 11.30906616 145.40209961 13.1446228 C145.38598633 14.39823608 145.36987305 15.65184937 145.35327148 16.94345093 C145.35649414 18.2009314 145.3597168 19.45841187 145.36303711 20.7539978 C145.30765206 30.11407035 145.30765206 30.11407035 143.04077148 32.38095093 C140.45765686 32.63263321 140.45765686 32.63263321 137.11914062 32.63491821 C135.85715851 32.64055786 134.59517639 32.64619751 133.29495239 32.65200806 C131.88861027 32.64811909 130.48226871 32.64402273 129.07592773 32.63973999 C127.60106229 32.64244879 126.12619819 32.64600909 124.65133667 32.65036011 C120.63901852 32.65949966 116.62680289 32.65593344 112.61448288 32.64960194 C108.42202216 32.64455002 104.22957042 32.64923113 100.03710938 32.65237427 C92.99567076 32.65601628 85.95427405 32.65120866 78.9128418 32.64169312 C70.76374357 32.63080811 62.61474541 32.63433352 54.4656496 32.64534593 C47.47794136 32.65441212 40.4902633 32.65570736 33.50255108 32.65046859 C29.32518053 32.6473452 25.14785706 32.64694961 20.9704895 32.65354156 C17.04381738 32.65930472 13.11727469 32.65533716 9.19061661 32.64375305 C7.74660584 32.64110092 6.30258424 32.64188094 4.85857773 32.64627838 C2.8931898 32.65171328 0.92777816 32.64370124 -1.03759766 32.63491821 C-2.69016319 32.63378714 -2.69016319 32.63378714 -4.37611389 32.63263321 C-6.95922852 32.38095093 -6.95922852 32.38095093 -8.95922852 30.38095093 C-9.42025925 25.91940285 -9.28321645 21.42604454 -9.27172852 16.94345093 C-9.2878418 15.68983765 -9.30395508 14.43622437 -9.32055664 13.1446228 C-9.32120117 11.94515015 -9.3218457 10.74567749 -9.32250977 9.50985718 C-9.32549072 8.40714478 -9.32847168 7.30443237 -9.33154297 6.16830444 C-8.95922852 3.38095093 -8.95922852 3.38095093 -7.80841064 1.73055077 C-5.17205141 -0.19355932 -3.24647707 0.00338515 0 0 Z " fill="#A79CA7" transform="translate(203.959228515625,54.619049072265625)"/>
<path d="M0 0 C25 0 25 0 30 4 C31.25133481 6.50266962 31.12306118 8.18493776 31.12025452 10.98599243 C31.12162918 12.04051102 31.12300385 13.0950296 31.12442017 14.1815033 C31.12082489 15.34315506 31.11722961 16.50480682 31.11352539 17.70166016 C31.11367142 18.92114853 31.11381744 20.1406369 31.1139679 21.39707947 C31.11338955 24.74605181 31.10836546 28.09496293 31.10139394 31.44392443 C31.09515348 34.9419744 31.09455605 38.44002515 31.09336853 41.93807983 C31.09025726 48.56434861 31.08204662 55.19060094 31.07201904 61.81686246 C31.06085157 69.35968929 31.05534585 76.9025169 31.05032361 84.44534993 C31.03986384 99.96357616 31.02226834 115.48178596 31 131 C27.04642692 128.76422001 23.27633511 126.61020914 19.6875 123.8125 C15.95105942 120.91290466 13.91166032 119.84800935 9.125 119.8125 C7.82949219 119.79123047 7.82949219 119.79123047 6.5078125 119.76953125 C3.63318969 119.88050202 3.63318969 119.88050202 0 122 C0 81.74 0 41.48 0 0 Z " fill="#E2DEE2" transform="translate(365,0)"/>
<path d="M0 0 C8.03322279 4.61667043 13.87309653 11.01796502 16.9375 19.828125 C18.99841438 28.84462541 18.22544942 37.52957239 13.5625 45.5625 C8.15374798 53.34014847 0.99111109 58.8339213 -8.4375 60.5625 C-18.55109735 61.49495933 -26.58348365 59.84004297 -34.6875 53.5625 C-40.29742218 48.32808985 -44.960169 39.70358958 -45.67578125 31.99609375 C-45.91514155 22.3334963 -44.02261316 15.40621414 -37.9375 7.8125 C-27.67681506 -2.82611073 -13.68529564 -6.16097168 0 0 Z " fill="#B5ADB6" transform="translate(133.4375,42.4375)"/>
<path d="M0 0 C1.23208419 -0.00724325 1.23208419 -0.00724325 2.48905897 -0.01463282 C5.24534745 -0.02591742 8.00071098 -0.00857456 10.75695801 0.00863647 C12.73133089 0.00649094 14.70570254 0.00261375 16.68006897 -0.00286865 C22.04575611 -0.01257361 27.41111121 0.0027558 32.77675819 0.02303743 C38.38697567 0.04058655 43.99718255 0.03708377 49.60742188 0.03631592 C59.02955694 0.03818981 68.4515633 0.05556567 77.87365723 0.08285522 C88.77319247 0.11430694 99.67258671 0.12485146 110.57216406 0.12338412 C121.04907027 0.12216406 131.52593048 0.13237032 142.00282288 0.14896774 C146.46525939 0.15603588 150.92767962 0.15969459 155.39012146 0.16075516 C160.64320487 0.16276198 165.89616955 0.17495485 171.14921379 0.19508743 C173.07937328 0.20093672 175.00954643 0.20338831 176.93971443 0.20223236 C179.57004389 0.20125308 182.20003928 0.21254109 184.83032227 0.22705078 C185.59802303 0.22395358 186.36572379 0.22085637 187.15668821 0.21766531 C190.86350309 0.25154119 193.83099636 0.29942001 196.91516113 2.49447632 C198.44008111 5.54431628 198.15078661 8.13681322 197.91516113 11.49447632 C196.37253301 13.59806013 195.23407796 14.33501791 192.91516113 15.49447632 C190.29184593 15.59883398 187.69469282 15.64227271 185.0708313 15.64164734 C183.84131038 15.64716237 183.84131038 15.64716237 182.58695066 15.65278882 C179.82476588 15.66385182 177.06261869 15.66767389 174.30041504 15.67147827 C172.3263385 15.67774085 170.35226314 15.68438746 168.37818909 15.69139099 C163.00424749 15.7088176 157.63031481 15.71935685 152.25635195 15.72759652 C148.90175883 15.73274218 145.54716851 15.73881804 142.19257736 15.74510765 C131.70500783 15.76416265 121.21744537 15.77839425 110.72986186 15.78671962 C98.60811089 15.79650021 86.48654214 15.82283993 74.36485541 15.86322051 C65.00516813 15.89333459 55.64553323 15.90818393 46.28579843 15.91150063 C40.69089393 15.91385612 35.09618403 15.92288148 29.50133133 15.94796181 C24.24002398 15.97116582 18.9790404 15.97550676 13.71769524 15.96520042 C11.78429401 15.96470311 9.85087726 15.97108075 7.91752434 15.98475647 C5.28244302 16.00235639 2.64853878 15.99542858 0.01345825 15.98222351 C-0.75560675 15.99319276 -1.52467175 16.004162 -2.31704175 16.01546365 C-5.77411014 15.97349871 -7.73539947 15.75028179 -10.55973244 13.68274212 C-12.79556532 10.47470592 -12.62966467 8.30825692 -12.08483887 4.49447632 C-8.85194545 -0.14072255 -5.24700308 -0.0703094 0 0 Z " fill="#B5ADB6" transform="translate(93.0848388671875,386.5055236816406)"/>
<path d="M0 0 C15.07021534 0.66682369 28.66042658 6.52660944 39.0859375 17.57421875 C49.9326222 31.32073141 53.82165929 45.68899205 52 63 C50.30712842 72.80428374 46.54161546 81.44285149 40 89 C39.319375 89.79019531 38.63875 90.58039063 37.9375 91.39453125 C28.66786281 101.37594415 16.01431351 107.49649097 2.37109375 108.3828125 C-6.9392672 108.72128678 -18.47193473 108.99193825 -25.8125 102.36328125 C-26.204375 101.91339844 -26.59625 101.46351563 -27 101 C-26.18917969 100.82984375 -25.37835938 100.6596875 -24.54296875 100.484375 C-8.20904646 96.90954684 6.14481498 91.35744849 16 77 C21.36617878 67.3612859 24.12654784 58.74404668 24.75 47.75 C24.81832031 46.83347656 24.88664062 45.91695312 24.95703125 44.97265625 C25.29502449 38.89744447 24.61688469 34.4827809 22 29 C21.55140625 27.98035156 21.1028125 26.96070313 20.640625 25.91015625 C15.83372954 16.06682257 10.65638379 8.7555222 1.72265625 2.3125 C1.15417969 1.879375 0.58570313 1.44625 0 1 C0 0.67 0 0.34 0 0 Z " fill="#02C27A" transform="translate(376,161)"/>
<path d="M0 0 C0.07005067 14.15998612 0.1227694 28.3199454 0.15543652 42.48006916 C0.17111268 49.05472625 0.1923867 55.62926719 0.22631836 62.20385742 C0.25884199 68.54509312 0.27683831 74.88621688 0.28463173 81.22752953 C0.29018781 83.65052237 0.30103702 86.07350887 0.31719017 88.49645424 C0.33887111 91.88229382 0.3419708 95.26766697 0.34057617 98.65356445 C0.351362 99.66200912 0.36214783 100.6704538 0.3732605 101.7094574 C0.36707451 103.09135757 0.36707451 103.09135757 0.36076355 104.50117493 C0.36352893 105.30221303 0.36629431 106.10325113 0.36914349 106.92856312 C-0.09553366 109.53608411 -0.88160447 110.44660038 -3 112 C-9.52338088 111.66849437 -15.90775292 109.04190416 -20.75248337 104.64815903 C-25.22512172 98.73912416 -23.60892112 89.01246369 -23.41015625 82.05078125 C-23.39604611 79.98913896 -23.38712863 77.92745519 -23.38316345 75.86576843 C-23.36176206 71.55473327 -23.29812783 67.24722764 -23.20043945 62.93725586 C-23.07577827 57.41546891 -23.02516696 51.89629713 -23.00208378 46.37324238 C-22.97663746 41.09874734 -22.91313663 35.82490408 -22.84765625 30.55078125 C-22.83861834 29.54644861 -22.82958042 28.54211597 -22.82026863 27.50734901 C-22.78802726 24.66329716 -22.72859988 21.82117242 -22.66040039 18.9777832 C-22.65435791 18.13870926 -22.64831543 17.29963531 -22.64208984 16.43513489 C-22.4840025 11.37188208 -21.78874577 8.6776732 -18 5 C-11.84932377 0.28884374 -7.56686243 -0.03540053 0 0 Z " fill="#FD3D97" transform="translate(418,290)"/>
<path d="M0 0 C9.57 0 19.14 0 29 0 C29 26.07 29 52.14 29 79 C9.54310188 77.85547658 9.54310188 77.85547658 4 73 C3.31754211 72.61668015 2.63508423 72.23336029 1.9319458 71.83842468 C0 70 0 70 -0.48101807 66.98176575 C-0.4676944 65.12644478 -0.4676944 65.12644478 -0.45410156 63.23364258 C-0.45468567 62.55045456 -0.45526978 61.86726654 -0.45587158 61.16337585 C-0.45308615 58.90657629 -0.42197557 56.65109984 -0.390625 54.39453125 C-0.38316417 52.82940899 -0.37747049 51.26427739 -0.37347412 49.69914246 C-0.35820515 45.58072088 -0.31891311 41.46286404 -0.2746582 37.34466553 C-0.23373234 33.14196411 -0.21546889 28.93917139 -0.1953125 24.73632812 C-0.15241935 16.49059743 -0.08205982 8.24543404 0 0 Z " fill="#CBC3CB" transform="translate(396,62)"/>
<path d="M0 0 C1.62771584 -0.01485695 1.62771584 -0.01485695 3.28831482 -0.03001404 C5.0666848 -0.02326157 5.0666848 -0.02326157 6.88098145 -0.01637268 C8.75953575 -0.02666756 8.75953575 -0.02666756 10.67604065 -0.03717041 C14.10796431 -0.05233786 17.53934495 -0.05393209 20.97126198 -0.04822803 C23.83668787 -0.04513791 26.70206454 -0.05122654 29.56748343 -0.05726677 C36.32680956 -0.071313 43.08600931 -0.06974956 49.84533691 -0.05836487 C56.81871086 -0.04687922 63.79170041 -0.06096625 70.76502371 -0.08776134 C76.75325527 -0.10990969 82.74136609 -0.11655784 88.72963572 -0.11068493 C92.30572624 -0.10731254 95.88157026 -0.10974897 99.45762634 -0.12693596 C103.44395049 -0.14525884 107.42980076 -0.13122682 111.4161377 -0.11402893 C112.60171768 -0.1236969 113.78729767 -0.13336487 115.00880432 -0.14332581 C116.09394821 -0.13349167 117.1790921 -0.12365753 118.29711914 -0.11352539 C119.71073101 -0.11321146 119.71073101 -0.11321146 121.1529007 -0.1128912 C124.42991639 0.5444021 125.62192933 1.77503258 127.64855957 4.38768005 C128.14855957 7.88768005 128.14855957 7.88768005 127.64855957 11.38768005 C125.6231519 13.99710061 124.42753859 15.22951414 121.15569401 15.89383793 C120.21458491 15.89664485 119.27347582 15.89945177 118.30384827 15.90234375 C116.67830017 15.92143044 116.67830017 15.92143044 115.01991272 15.94090271 C113.83590378 15.93437683 112.65189484 15.92785095 111.43200684 15.92112732 C109.55586197 15.93405067 109.55586197 15.93405067 107.64181519 15.94723511 C104.21381015 15.96605177 100.78677125 15.96678857 97.35878873 15.95791364 C94.49592931 15.95280262 91.63315655 15.96009725 88.77030605 15.96738571 C82.01569825 15.98438673 75.26131634 15.9808173 68.50671387 15.96409607 C61.54122563 15.9471756 54.57636411 15.9630071 47.61094433 15.99531895 C41.62777306 16.02202145 35.64479679 16.02928912 29.66157192 16.02080387 C26.08931409 16.01587629 22.51743331 16.01808033 18.94522285 16.03859138 C14.96140156 16.06037077 10.97833469 16.04154217 6.99450684 16.01878357 C5.81252213 16.03047577 4.63053741 16.04216797 3.41273499 16.05421448 C-5.48599053 15.95057692 -5.48599053 15.95057692 -8.61915588 13.07479858 C-10.35144043 10.38768005 -10.35144043 10.38768005 -10.41394043 6.76268005 C-8.64193707 1.1339635 -5.6691881 0.01461738 0 0 Z " fill="#B5ADB6" transform="translate(163.3514404296875,355.61231994628906)"/>
<path d="M0 0 C1.07528458 -0.00990463 2.15056915 -0.01980927 3.25843811 -0.03001404 C5.02042542 -0.02326157 5.02042542 -0.02326157 6.81800842 -0.01637268 C8.0590181 -0.02323593 9.30002777 -0.03009918 10.5786438 -0.03717041 C13.97964552 -0.05233811 17.38009928 -0.0539318 20.78109431 -0.04822803 C23.62157281 -0.04513738 26.46200169 -0.05122726 29.30247313 -0.05726677 C36.00430814 -0.07131368 42.70601568 -0.06974953 49.40785217 -0.05836487 C56.31872353 -0.04688443 63.22920678 -0.06095734 70.14002699 -0.08776134 C76.07647017 -0.10992296 82.01279156 -0.11655469 87.94927317 -0.11068493 C91.49353838 -0.10731508 95.03755483 -0.10973189 98.5817852 -0.12693596 C102.53437878 -0.14528487 106.48649563 -0.13121313 110.43910217 -0.11402893 C111.61173615 -0.1236969 112.78437012 -0.13336487 113.99253845 -0.14332581 C121.87495987 -0.07142478 121.87495987 -0.07142478 125.92398071 2.20028687 C127.69325256 4.38768005 127.69325256 4.38768005 128.25575256 7.88768005 C127.60196617 11.95568428 126.87000544 12.88482465 123.69325256 15.38768005 C121.18197632 15.89383793 121.18197632 15.89383793 118.30384827 15.90234375 C116.6635112 15.92143044 116.6635112 15.92143044 114.99003601 15.94090271 C113.19763992 15.93111389 113.19763992 15.93111389 111.36903381 15.92112732 C109.47584915 15.93405067 109.47584915 15.93405067 107.54441833 15.94723511 C104.08568186 15.96973415 100.62740285 15.9667887 97.16862106 15.95791364 C94.28081436 15.95280348 91.3930936 15.9600964 88.50529575 15.96738571 C81.69319711 15.98438592 74.88132248 15.98081734 68.06922913 15.96409607 C61.04123909 15.94716799 54.01386985 15.96301777 46.98594761 15.99531895 C40.9509881 16.02200559 34.91622196 16.02929363 28.88120937 16.02080387 C25.27712665 16.01587261 21.6734176 16.01810053 18.06938171 16.03859138 C14.05168317 16.06034091 10.03516398 16.04156091 6.01747131 16.01878357 C4.82254059 16.03047577 3.62760986 16.04216797 2.39646912 16.05421448 C-5.61950156 15.96145874 -5.61950156 15.96145874 -9.07701111 13.07479858 C-10.76783739 9.38014426 -10.45079303 7.24883395 -9.30674744 3.38768005 C-6.30275042 0.46025835 -4.12733166 0.01074072 0 0 Z " fill="#B6AEB7" transform="translate(163.30674743652344,324.61231994628906)"/>
<path d="M0 0 C6.48245334 3.63347703 11.4994104 8.83615142 13.75 16 C14.6816471 25.55845729 13.64321421 32.56349778 7.625 40.1875 C2.23523052 45.9823461 -3.32419796 48.1693349 -11.1875 48.5625 C-18.25127582 48.28354834 -24.06929028 46.21433245 -29.09765625 41.1328125 C-34.01341453 34.92470499 -36.9484268 28.62770136 -36.65625 20.6171875 C-35.46099256 12.91697131 -31.29675145 7.15900394 -25.27734375 2.40625 C-17.40433215 -3.05479851 -8.75630714 -3.94500291 0 0 Z " fill="#B5ADB6" transform="translate(121.25,325)"/>
<path d="M0 0 C8.30210216 -0.83021022 14.06489452 1.42377394 21 6 C27.97613296 11.95523545 32.29335144 19.02293091 33.375 28.171875 C33.72981045 37.61870325 31.74900677 44.9544505 25.75 52.3125 C18.84869841 59.6119536 11.24059141 62.97698489 1.1875 63.375 C-4.71260612 63.27122929 -9.93433719 62.11437334 -15 59 C-16.77734375 56.859375 -16.77734375 56.859375 -18 55 C-16.82244141 54.65388672 -16.82244141 54.65388672 -15.62109375 54.30078125 C-4.6525186 50.89581252 1.42311251 47.22726331 7 37 C10.30975202 29.17694976 10.30279389 19.55472671 7.3125 11.625 C5.35897511 7.33984862 2.89740995 3.70224604 0 0 Z " fill="#A79CA7" transform="translate(118,40)"/>
<path d="M0 0 C3.75 0.6875 3.75 0.6875 5.75 1.75 C7.35024148 4.85046787 7.07363235 7.24134891 6.75 10.6875 C5.26507111 13.13956695 3.90539625 15.0472209 2.0625 17.1875 C1.57644287 17.77772949 1.09038574 18.36795898 0.58959961 18.97607422 C-1.00404057 20.89731981 -2.62396731 22.79361675 -4.25 24.6875 C-5.10754883 25.69731934 -5.10754883 25.69731934 -5.98242188 26.72753906 C-20.16507519 43.4162688 -20.16507519 43.4162688 -24 44.375 C-29.05814829 43.30500709 -31.63421445 40.25096711 -35.25 36.6875 C-36.3710426 35.64827789 -37.49354718 34.61063156 -38.6171875 33.57421875 C-39.80879477 32.4468992 -40.99889356 31.31798308 -42.1875 30.1875 C-42.76765869 29.65423096 -43.34781738 29.12096191 -43.94555664 28.5715332 C-46.91062803 25.681304 -48.14534833 24.07515912 -49.25390625 19.96875 C-49.25 16.6875 -49.25 16.6875 -47.25 13.6875 C-44.25 11.6875 -44.25 11.6875 -40.93359375 11.71484375 C-36.5233196 12.87938062 -34.275524 14.96731366 -31.3125 18.25 C-30.81943359 18.77013672 -30.32636719 19.29027344 -29.81835938 19.82617188 C-28.61467071 21.09997833 -27.43027648 22.39197049 -26.25 23.6875 C-22.02193701 22.12301768 -19.69103102 18.95407347 -16.9375 15.5625 C-16.45112061 14.98153564 -15.96474121 14.40057129 -15.46362305 13.80200195 C-13.33483874 11.25713868 -11.2583523 8.69855452 -9.2578125 6.05078125 C-4.71661521 0.22256261 -4.71661521 0.22256261 0 0 Z " fill="#FBFEFD" transform="translate(395.25,194.3125)"/>
<path d="M0 0 C7.59938211 0.72375068 11.90307292 4.55974309 16.703125 10.12109375 C20.94329711 16.26423467 20.55257868 22.80756463 20 30 C18.11321885 36.7702147 13.76596601 42.41948202 7.96484375 46.39453125 C1.91577375 49.50140386 -4.32138625 50.04542337 -11 49 C-14.55608047 47.65659182 -17.77145011 45.99998666 -21 44 C-21 43.34 -21 42.68 -21 42 C-20.154375 41.85304688 -19.30875 41.70609375 -18.4375 41.5546875 C-10.2694419 39.93963965 -3.82651402 38.06845279 1.3359375 31.23046875 C5.04732104 25.1895998 5.67048381 18.93603944 5 12 C3.85887558 7.79117745 2.07523511 3.83120327 0 0 Z " fill="#A79CA7" transform="translate(115,324)"/>
</svg>
