<?xml version="1.0" encoding="UTF-8"?>
<svg version="1.1" xmlns="http://www.w3.org/2000/svg" width="512" height="512">
<path d="M0 0 C1.34293196 -0.0048989 2.6858597 -0.01109329 4.0287804 -0.01845789 C7.6901973 -0.0347532 11.35139743 -0.03256098 15.01283777 -0.02708292 C18.97268099 -0.02439989 22.93246807 -0.038968 26.89228821 -0.05117798 C34.63791043 -0.07217813 42.38345771 -0.07677604 50.12910504 -0.07499009 C56.42596305 -0.07368014 62.72279778 -0.07749845 69.01965141 -0.08491516 C70.83650603 -0.08701444 72.65336064 -0.08911204 74.47021526 -0.09120798 C75.37461768 -0.09225151 76.2790201 -0.09329504 77.21082865 -0.09437019 C94.29397685 -0.11324948 111.37708206 -0.11222898 128.46023636 -0.10540086 C144.07920996 -0.09982266 159.69801968 -0.12066674 175.31695498 -0.15376133 C191.37032179 -0.18751155 207.4236101 -0.2026653 223.47701305 -0.1980443 C232.48356173 -0.19580154 241.48995881 -0.20101511 250.49647713 -0.22593689 C258.16140922 -0.24696679 265.82610649 -0.2505249 273.49104828 -0.2316373 C277.39926013 -0.22249121 281.30703434 -0.22130159 285.21521187 -0.24199295 C288.79737304 -0.26074826 292.37873951 -0.25614984 295.96087085 -0.23344713 C297.8607472 -0.22730522 299.76065486 -0.24561665 301.66044241 -0.26498365 C310.05973165 -0.17840155 316.91872263 1.37106649 323.31212622 7.10316324 C329.20585126 13.27447755 330.56431912 19.27978627 330.47654724 27.67175293 C330.46639587 28.93108643 330.45624451 30.19041992 330.44578552 31.48791504 C330.43273376 32.44705811 330.41968201 33.40620117 330.40623474 34.39440918 C330.95730707 34.39072201 331.5083794 34.38703484 332.07615089 34.38323593 C345.49727996 34.29482198 358.91835787 34.22892461 372.33971596 34.18716049 C378.83026098 34.16628459 385.32059583 34.13796615 391.8110199 34.09265137 C398.07447247 34.04919484 404.33772285 34.0252721 410.60131454 34.01490021 C412.99114032 34.00750858 415.38095501 33.99307458 417.77069473 33.97148895 C421.11771318 33.94245855 424.46389583 33.93845317 427.8110199 33.94030762 C428.799328 33.92592651 429.78763611 33.91154541 430.80589294 33.89672852 C436.52788579 33.93104049 439.89603202 34.51404127 444.40623474 38.39440918 C449.2381026 43.87923216 449.56185408 47.36733076 449.58323669 54.52233887 C449.59309349 55.94209518 449.59309349 55.94209518 449.60314941 57.39053345 C449.6229093 60.53245111 449.63455137 63.6743209 449.64451599 66.81628418 C449.64859152 67.88815224 449.65266705 68.96002029 449.65686607 70.0643692 C449.67773888 75.73818266 449.69203503 81.41197185 449.70140076 87.08581543 C449.71246413 92.94818334 449.74686001 98.81017155 449.78657246 104.67240524 C449.81271265 109.17800606 449.82109033 113.68351611 449.82468224 118.1891861 C449.82955536 120.35013644 449.84118991 122.51108254 449.85972023 124.67195892 C449.88405457 127.69791258 449.88315678 130.72287992 449.87620544 133.74890137 C449.8890155 134.64056 449.90182556 135.53221863 449.9150238 136.45089722 C449.86916151 141.9324885 449.05340907 145.04390738 445.40623474 149.39440918 C441.34942013 153.055437 438.4268514 154.52104531 432.9833374 154.5146637 C432.07889893 154.51603836 431.17446045 154.51741302 430.24261475 154.51882935 C429.25287155 154.51523407 428.26312836 154.51163879 427.24339294 154.50793457 C426.19932281 154.5080806 425.15525269 154.50822662 424.07954407 154.50837708 C420.62201371 154.50767936 417.16453696 154.49989349 413.70701599 154.49206543 C411.31233754 154.49020075 408.91765871 154.48877708 406.52297974 154.48777771 C400.21501109 154.48395646 393.9070654 154.47412949 387.59910583 154.46307373 C381.16437592 154.4528512 374.72964231 154.44827828 368.29490662 154.4432373 C355.66533923 154.4325069 343.03578889 154.41543515 330.40623474 154.39440918 C330.40623474 159.67440918 330.40623474 164.95440918 330.40623474 170.39440918 C331.71644592 170.38552673 333.0266571 170.37664429 334.37657166 170.36749268 C346.73559336 170.28633866 359.09456086 170.22641083 371.45378876 170.18716049 C377.8075167 170.16630299 384.16102921 170.1380182 390.51463318 170.09265137 C396.6484183 170.04912915 402.78199643 170.02525825 408.91592407 170.01490021 C411.253858 170.00752037 413.59178086 169.99310928 415.92962646 169.97148895 C419.20918591 169.94237114 422.48789455 169.93845681 425.76756287 169.94030762 C426.72997894 169.92592651 427.69239502 169.91154541 428.68397522 169.89672852 C434.74944145 169.93366728 439.35164083 170.92050331 444.40623474 174.39440918 C449.51688726 179.76714645 449.56160623 184.40703725 449.58323669 191.52819824 C449.59309349 192.9311338 449.59309349 192.9311338 449.60314941 194.3624115 C449.6228806 197.46161986 449.63454478 200.56077977 449.64451599 203.66003418 C449.64859152 204.71870445 449.65266705 205.77737473 449.65686607 206.86812592 C449.67772627 212.47177434 449.6920281 218.07539829 449.70140076 223.67907715 C449.71246368 229.46397085 449.74686266 235.24847975 449.78657246 241.03323746 C449.81273057 245.48397533 449.82109191 249.9346214 449.82468224 254.38542938 C449.82955042 256.5176427 449.84117098 258.64985186 449.85972023 260.78199005 C449.88409351 263.76931664 449.88314972 266.75564621 449.87620544 269.74304199 C449.8890155 270.62018356 449.90182556 271.49732513 449.9150238 272.40104675 C449.86580341 278.22386524 448.74494254 281.59630902 445.40623474 286.39440918 C440.95305272 290.20305169 435.70991887 291.52158754 429.97697449 291.5146637 C428.65611847 291.51672569 428.65611847 291.51672569 427.30857849 291.51882935 C425.87143494 291.51343643 425.87143494 291.51343643 424.40525818 291.50793457 C423.39030273 291.5080806 422.37534729 291.50822662 421.32963562 291.50837708 C417.97493859 291.50768042 414.62029708 291.49989954 411.26560974 291.49206543 C408.93962128 291.49020037 406.61363243 291.48877688 404.28764343 291.48777771 C398.16546036 291.48395945 392.04330102 291.47413502 385.92112732 291.46307373 C379.67397889 291.45284479 373.42682663 291.44827691 367.17967224 291.4432373 C354.92184932 291.43251216 342.664044 291.41544399 330.40623474 291.39440918 C330.40623474 296.67440918 330.40623474 301.95440918 330.40623474 307.39440918 C332.39700546 307.38441643 332.39700546 307.38441643 334.42799377 307.3742218 C346.93482259 307.31340927 359.44162141 307.26843575 371.94856453 307.23897266 C378.3785277 307.22331621 384.80837151 307.20207794 391.23826599 307.16809082 C397.44335478 307.13549719 403.64832876 307.11755601 409.85349655 307.10977745 C412.22097964 307.10423399 414.58845644 307.09340906 416.95589066 307.07721901 C420.27167089 307.05544518 423.58697656 307.0524423 426.90281677 307.05383301 C428.37125282 307.03765427 428.37125282 307.03765427 429.86935425 307.02114868 C435.87512933 307.04840908 440.4610417 307.64509596 445.05076599 311.92956543 C449.25413233 317.42627525 449.56289633 320.71608665 449.58323669 327.52233887 C449.59309349 328.94209518 449.59309349 328.94209518 449.60314941 330.39053345 C449.6229093 333.53245111 449.63455137 336.6743209 449.64451599 339.81628418 C449.64859152 340.88815224 449.65266705 341.96002029 449.65686607 343.0643692 C449.67773888 348.73818266 449.69203503 354.41197185 449.70140076 360.08581543 C449.71246413 365.94818334 449.74686001 371.81017155 449.78657246 377.67240524 C449.81271265 382.17800606 449.82109033 386.68351611 449.82468224 391.1891861 C449.82955536 393.35013644 449.84118991 395.51108254 449.85972023 397.67195892 C449.88405457 400.69791258 449.88315678 403.72287992 449.87620544 406.74890137 C449.8890155 407.64056 449.90182556 408.53221863 449.9150238 409.45089722 C449.86916151 414.9324885 449.05340907 418.04390738 445.40623474 422.39440918 C441.34942013 426.055437 438.4268514 427.52104531 432.9833374 427.5146637 C432.07889893 427.51603836 431.17446045 427.51741302 430.24261475 427.51882935 C429.25287155 427.51523407 428.26312836 427.51163879 427.24339294 427.50793457 C426.19932281 427.5080806 425.15525269 427.50822662 424.07954407 427.50837708 C420.62201371 427.50767936 417.16453696 427.49989349 413.70701599 427.49206543 C411.31233754 427.49020075 408.91765871 427.48877708 406.52297974 427.48777771 C400.21501109 427.48395646 393.9070654 427.47412949 387.59910583 427.46307373 C381.16437592 427.4528512 374.72964231 427.44827828 368.29490662 427.4432373 C355.66533952 427.4325069 343.03578835 427.41562692 330.40623474 427.39440918 C330.42718201 428.28635986 330.44812927 429.17831055 330.4697113 430.09729004 C330.5383956 433.44651886 330.58827802 436.79498586 330.6259613 440.14465332 C330.64592225 441.5868317 330.67310137 443.02893078 330.70799255 444.4708252 C330.94881208 454.68794786 329.96794541 461.94708698 324.28123474 470.64440918 C314.50432218 479.99623858 303.60986872 479.08289946 290.90184021 478.96203613 C288.82157424 478.96062431 286.74130578 478.96142027 284.66104126 478.96424866 C279.03555943 478.96567895 273.41061433 478.93635142 267.78525686 478.90137887 C261.89829345 478.87005104 256.01131675 478.86717955 250.12428284 478.86125183 C238.98617592 478.84573231 227.84831537 478.80472926 216.71031678 478.75450438 C204.02595959 478.69855218 191.34159043 478.6711096 178.65714049 478.64602721 C152.57336884 478.59381189 126.48981561 478.50590624 100.40623474 478.39440918 C100.44103943 479.67315918 100.47584412 480.95190918 100.51170349 482.26940918 C100.53986261 483.97772927 100.56716048 485.6860637 100.59373474 487.39440918 C100.61887146 488.23358887 100.64400818 489.07276855 100.66990662 489.93737793 C100.75280673 497.06678813 99.72028885 502.66501202 94.96873474 508.26940918 C90.17135917 512.24772063 86.2989242 513.09679297 80.11326599 513.06628418 C74.40441944 512.03159334 69.65243802 509.35593552 64.63816833 506.50842285 C60.48105195 504.10965825 60.48105195 504.10965825 55.84373474 503.36315918 C53.08903126 504.52861065 50.49914714 505.87520046 47.88645935 507.32897949 C40.42956901 511.44644494 34.09931337 514.17284053 25.40623474 512.39440918 C20.0434058 510.62302104 17.07140521 507.31472389 14.40623474 502.39440918 C13.46775836 499.41621844 13.28861721 496.74274421 13.30857849 493.62878418 C13.31341248 492.29460449 13.31341248 492.29460449 13.31834412 490.93347168 C13.32672302 490.01308105 13.33510193 489.09269043 13.34373474 488.14440918 C13.34824646 487.2085498 13.35275818 486.27269043 13.35740662 485.30847168 C13.36916556 483.00371877 13.38560048 480.69909691 13.40623474 478.39440918 C12.6564032 478.41535645 11.90657166 478.43630371 11.13401794 478.45788574 C-16.63128513 479.13212195 -16.63128513 479.13212195 -26.59376526 474.39440918 C-27.53606995 473.97030762 -28.47837463 473.54620605 -29.44923401 473.10925293 C-44.02094864 465.89374182 -54.89656477 453.22955514 -60.45611244 438.03803712 C-62.90749469 429.95772853 -63.01795012 422.09929494 -62.98144531 413.73954773 C-62.98562453 412.17260381 -62.99110526 410.60566292 -62.99776512 409.03872758 C-63.01216152 404.75794997 -63.00799326 400.47736585 -63.00059831 396.19657791 C-62.99585447 391.56999355 -63.00838728 386.94345031 -63.01861572 382.31687927 C-63.03578567 373.26246381 -63.03664742 364.20811781 -63.03140282 355.1536903 C-63.02735626 347.79136512 -63.02881045 340.42906042 -63.03415108 333.06673622 C-63.03527371 331.49307908 -63.03527371 331.49307908 -63.03641902 329.88763088 C-63.03795055 327.75614799 -63.0394889 325.6246651 -63.04103399 323.49318222 C-63.05475269 303.51755568 -63.04932593 283.54196833 -63.03784878 263.56634269 C-63.02791868 245.30852369 -63.04085435 227.05080606 -63.06478297 208.79300269 C-63.08919078 190.02759038 -63.0987776 171.26222525 -63.09213024 152.49679738 C-63.08864156 141.96878919 -63.09084686 131.44085893 -63.10838127 120.91286278 C-63.12312434 111.94995094 -63.12371126 102.98717192 -63.10631036 94.02426263 C-63.09781504 89.45539243 -63.09561476 84.88675927 -63.11096191 80.31790161 C-63.12486306 76.12747898 -63.11997674 71.93749524 -63.10072268 67.74709765 C-63.09697889 66.23911322 -63.09983738 64.73109317 -63.11033433 63.22314062 C-63.22754907 45.08033995 -58.44839523 31.05411474 -45.94532776 17.71472168 C-32.81830467 4.76214408 -18.21156841 -0.07916311 0 0 Z " fill="#020200" transform="translate(62.59376525878906,-0.3944091796875)"/>
<path d="M0 0 C50.881875 -0.061875 101.76375 -0.12375 154.1875 -0.1875 C170.27395264 -0.21481201 186.36040527 -0.24212402 202.93432617 -0.27026367 C222.52600098 -0.28381348 222.52600098 -0.28381348 231.68769836 -0.28633118 C238.1083453 -0.28913449 244.52891437 -0.30016302 250.94953918 -0.31672668 C258.34995968 -0.33578985 265.75030522 -0.34451555 273.15075048 -0.34033485 C276.93839547 -0.33852344 280.7258728 -0.34144434 284.51348722 -0.35764539 C288.56506865 -0.37487063 292.61628294 -0.36900145 296.66789246 -0.36076355 C297.8552918 -0.36950154 299.04269114 -0.37823954 300.26607227 -0.38724232 C301.8960682 -0.3782834 301.8960682 -0.3782834 303.55899334 -0.36914349 C304.96414842 -0.37085223 304.96414842 -0.37085223 306.39769047 -0.37259549 C309.5442406 0.0779237 311.43547754 1.15149696 314 3 C315.30234013 5.60468026 315.12903047 7.50151221 315.13422108 10.41988945 C315.13867892 11.57789208 315.14313676 12.73589472 315.14772969 13.92898834 C315.14745315 15.85384935 315.14745315 15.85384935 315.14717102 17.81759644 C315.15046879 19.18590656 315.15419417 20.55421571 315.1583125 21.92252362 C315.1683503 25.69560644 315.17205214 29.46867336 315.17470181 33.24176764 C315.17859952 37.30593021 315.18817813 41.37008012 315.19691467 45.43423462 C315.21669281 55.25478408 315.2267464 65.0753346 315.23564246 74.895899 C315.24002262 79.51674224 315.24539008 84.13758433 315.25063133 88.75842667 C315.26764395 104.11204478 315.28213962 119.46566216 315.28938007 134.81928825 C315.29129007 138.805144 315.29321039 142.79099974 315.29516602 146.77685547 C315.29564976 147.76755933 315.2961335 148.75826319 315.2966319 149.77898838 C315.3049378 165.83904629 315.330284 181.89902986 315.36274669 197.95905529 C315.39577902 214.43472023 315.41382531 230.91034733 315.41702431 247.38604558 C315.41919282 256.64179857 315.42799126 265.89744311 315.45348549 275.15316391 C315.47514019 283.03327594 315.48326876 290.91325317 315.47351871 298.79339157 C315.46895891 302.81618572 315.47095701 306.83870145 315.49028015 310.86145782 C315.50780556 314.54162145 315.50700165 318.22130136 315.49138286 321.90146936 C315.48785408 323.86884278 315.50411198 325.83622065 315.52098733 327.80352485 C315.51240644 328.96674298 315.50382555 330.12996111 315.49498463 331.32842827 C315.49596144 332.33436244 315.49693824 333.34029661 315.49794465 334.37671363 C314.84840987 337.79861148 313.79891681 338.96309064 311 341 C308.50906491 341.49679399 308.50906491 341.49679399 305.65080643 341.49219131 C304.55916435 341.5001548 303.46752228 341.50811829 302.34280014 341.51632309 C301.14470844 341.50467243 299.94661674 341.49302177 298.71221924 341.48101807 C297.44189346 341.48444214 296.17156769 341.48786621 294.86274719 341.49139404 C291.32718118 341.50037893 287.79209839 341.48429557 284.25659376 341.46429092 C280.38910609 341.44685042 276.52164144 341.45266762 272.65412521 341.45556259 C265.14323961 341.45769115 257.63254495 341.43920338 250.12170844 341.41355728 C241.43577494 341.38478516 232.74995653 341.38157984 224.06396484 341.37841797 C201.12594624 341.35740674 178.18797027 341.30156241 155.25 341.25 C104.0175 341.1675 52.785 341.085 0 341 C0 228.47 0 115.94 0 0 Z " fill="#FEDB00" transform="translate(60,17)"/>
<path d="M0 0 C24.39680165 20.96902866 40.52450861 48.48547062 44.38769531 80.64746094 C44.67293044 85.38066616 44.72218493 90.09400032 44.70019531 94.83496094 C44.69455566 96.11145508 44.68891602 97.38794922 44.68310547 98.703125 C44.3250102 126.63455621 34.493482 153.20000221 16.38769531 174.64746094 C15.55753906 175.64003906 14.72738281 176.63261719 13.87207031 177.65527344 C-5.27227521 199.86086969 -33.51613478 214.94971022 -62.61230469 218.64746094 C-67.57432216 218.91849551 -72.51896608 218.92748111 -77.48730469 218.89746094 C-78.75960937 218.90519531 -80.03191406 218.91292969 -81.34277344 218.92089844 C-100.88925233 218.88096692 -118.30196418 214.45753357 -135.61230469 205.64746094 C-137.0625 204.93783203 -137.0625 204.93783203 -138.54199219 204.21386719 C-146.25915343 200.26581223 -152.93915505 195.11897325 -159.61230469 189.64746094 C-160.92908203 188.58205078 -160.92908203 188.58205078 -162.27246094 187.49511719 C-183.96556107 169.03363577 -199.24919074 139.33600002 -202.32714844 111.00683594 C-205.00478981 74.88020187 -196.42877392 42.29333861 -172.83105469 14.29980469 C-129.13198785 -35.83411879 -51.15776629 -42.91550958 0 0 Z " fill="#010201" transform="translate(296.6123046875,62.3525390625)"/>
<path d="M0 0 C1.15431361 -0.00170885 2.30862722 -0.0034177 3.49792004 -0.00517833 C6.68374881 -0.00789301 9.86941294 -0.00168065 13.05522227 0.00837779 C16.49751307 0.01704392 19.93979669 0.0140899 23.38209534 0.01257324 C29.34008587 0.01152639 35.29803248 0.01778211 41.25601196 0.02904892 C49.87016072 0.04532803 58.48428831 0.05051439 67.09845078 0.0530249 C81.07557427 0.05739822 95.05267436 0.07069747 109.02978516 0.08963013 C122.60432824 0.10799832 136.17886496 0.12215023 149.75341797 0.13064575 C150.59066194 0.1311712 151.42790591 0.13169665 152.29052091 0.13223802 C156.49087981 0.13484816 160.69123877 0.13737556 164.89159775 0.13986182 C199.71778757 0.16058302 234.54395022 0.19579866 269.37011719 0.24050903 C267.48632812 4.98953247 267.48632812 4.98953247 266.44042969 7.24832153 C257.48485766 27.30584235 256.18234239 51.78128333 263.87011719 72.39675903 C264.89009728 75.01604327 265.95863531 77.60993662 267.06542969 80.19363403 C268.37011719 83.24050903 268.37011719 83.24050903 269.37011719 86.24050903 C212.28011719 86.24050903 155.19011719 86.24050903 96.37011719 86.24050903 C96.37011719 75.02050903 96.37011719 63.80050903 96.37011719 52.24050903 C98.91085938 52.20312622 101.45160156 52.16574341 104.06933594 52.12722778 C106.53841611 52.08097549 109.00734691 52.02975542 111.47631836 51.97805786 C113.18813957 51.94486734 114.90006867 51.91681714 116.61206055 51.89407349 C119.07745198 51.86041871 121.54186 51.8080993 124.00683594 51.75222778 C124.76848557 51.74583786 125.53013519 51.73944794 126.31486511 51.73286438 C130.81305275 51.60926413 133.79405486 51.03330457 137.37011719 48.24050903 C138.79053539 45.39967262 138.68463991 43.38573626 138.37011719 40.24050903 C136.23072194 37.39623536 135.03812826 36.35688767 131.49684811 35.73993778 C130.37615712 35.7397285 129.25546614 35.73951921 128.10081482 35.73930359 C126.81228607 35.72946945 125.52375732 35.71963531 124.19618225 35.70950317 C122.77035258 35.71887492 121.34452554 35.72865422 119.91870117 35.73880005 C118.41560358 35.73501664 116.91250947 35.72951642 115.40942383 35.72242737 C111.32886277 35.70845926 107.2487227 35.71965127 103.168185 35.73613858 C98.90012954 35.74998097 94.63209873 35.74353003 90.36402893 35.74000549 C83.19745084 35.73730302 76.0310402 35.75078314 68.86450195 35.7739563 C60.57445891 35.80057647 52.2846957 35.80231009 43.99462456 35.79056793 C36.02399384 35.77979642 28.05346453 35.78597162 20.08284187 35.80012321 C16.68854442 35.80588746 13.29432106 35.80579694 9.90002251 35.80105782 C5.90512229 35.7962925 1.91052931 35.80637088 -2.08431244 35.82801247 C-3.55208487 35.83358627 -5.0198868 35.83404019 -6.48766136 35.8290596 C-8.48763582 35.82312317 -10.48764016 35.8374223 -12.48756409 35.85282898 C-13.60787805 35.85525887 -14.72819201 35.85768877 -15.88245487 35.8601923 C-18.62096225 36.02943692 -18.62096225 36.02943692 -20.48252773 37.51864529 C-22.09665287 39.94100224 -22.09184389 42.3554174 -22.22363281 45.20535278 C-21.2902281 48.40472026 -19.35797858 49.42803085 -16.62988281 51.24050903 C-13.45195189 51.87600468 -13.45195189 51.87600468 -10.01660156 51.84988403 C-8.32990356 51.89580688 -8.32990356 51.89580688 -6.60913086 51.94265747 C-4.48471558 51.96634399 -4.48471558 51.96634399 -2.31738281 51.99050903 C2.19949219 52.07300903 6.71636719 52.15550903 11.37011719 52.24050903 C11.37011719 63.46050903 11.37011719 74.68050903 11.37011719 86.24050903 C-8.32613179 86.67820345 -22.11572268 86.75717347 -37.31738281 73.11550903 C-45.65309351 64.39209086 -49.16872152 52.50983323 -48.93847656 40.71316528 C-47.85825683 28.55727485 -42.64915909 18.72452615 -33.81738281 10.42800903 C-23.62434272 2.06853321 -12.83749929 -0.06989107 0 0 Z " fill="#FDDEB1" transform="translate(65.6298828125,374.7594909667969)"/>
<path d="M0 0 C8.0110906 0.96862404 15.44021836 2.13249662 23 5 C21.09489581 10.71531257 14.18965488 13.35983332 9.04199219 16.00683594 C6.96983478 17.03452334 4.89246574 18.05071636 2.8125 19.0625 C-9.27094715 24.97989093 -20.0479203 32.93434339 -25 46 C-27.34446005 53.60365422 -26.91595145 61.92469757 -23.25 68.9765625 C-16.01422863 80.6894674 -4.59048414 85.05555312 8.1171875 88.95703125 C15.89485234 91.3911882 21.36746674 93.62495736 26.4375 100.125 C30.434918 108.17175053 27.78413883 117.11663748 25.28515625 125.22265625 C23.4101716 130.73362938 21.37579623 136.17535737 19.26953125 141.6015625 C16.36247157 149.38353765 14.91507297 159.85329201 18.1171875 167.7578125 C19.43933567 169.85946462 19.43933567 169.85946462 20.90625 171.6171875 C22 173 22 173 22 175 C22.556875 175.268125 23.11375 175.53625 23.6875 175.8125 C26 177 26 177 28.4375 178.5625 C35.77661433 182.67956414 44.07215239 181.43467828 51.875 179.375 C58.44614546 177.38655143 64.13733337 174.52845677 70 171 C70.66 170.67 71.32 170.34 72 170 C68.28017982 178.0834554 60.7268566 185.70600891 53 190 C49.43257559 190.51542333 46.48808554 189.76044861 43 189 C16.90563654 184.14172335 -9.7950243 185.29044942 -33 199 C-35.11043684 200.44936548 -37.10243051 201.98693768 -39.125 203.5625 C-43.5882139 206.95507788 -43.5882139 206.95507788 -47.4375 207.375 C-52.82324292 205.29629221 -57.91709408 202.72924505 -63 200 C-62.9278125 199.29617187 -62.855625 198.59234375 -62.78125 197.8671875 C-61.74495277 186.8421364 -61.2125702 176.09177554 -63.5625 165.20703125 C-65.04377809 154.34873384 -62.70910809 145.7914114 -59.0625 135.6875 C-58.35466151 133.68489988 -57.65177153 131.68070617 -56.95347595 129.67475891 C-56.32187189 127.86681589 -55.67708285 126.06349468 -55.03149414 124.26049805 C-52.67681476 116.81748191 -51.29361109 108.123282 -54.5 100.75 C-58.57220237 93.65232334 -65.47238005 90.36599092 -73 88 C-75.98278949 87.28009615 -78.98763263 86.70619392 -82 86.125 C-92.05576671 84.01353415 -99.09768445 80.74030208 -105 72 C-109.1465693 64.70905337 -109.1465693 64.70905337 -108.79296875 60.5859375 C-107.49451854 56.35158264 -105.23764473 52.83210235 -102.90625 49.08984375 C-100.99066296 46.11851519 -100.99066296 46.11851519 -99.71875 43.25390625 C-98.05855174 40.23755767 -96.95622651 38.8232234 -94 37 C-87.91268431 35.7663625 -81.62486485 36.01800827 -75.44189453 36.03466797 C-70.51900158 35.96477687 -65.81214182 34.94490691 -61 34 C-59.67650094 33.78841675 -58.35221098 33.58174627 -57.02734375 33.37890625 C-35.7444141 30.05019306 -16.57412669 22.94495414 -3.4375 5 C-2.28097431 3.34073507 -1.13113877 1.67667436 0 0 Z " fill="#00BAD2" transform="translate(230,52)"/>
<path d="M0 0 C0 112.2 0 224.4 0 340 C-3.96 341.65 -7.92 343.3 -12 345 C-15.39891126 347.03826696 -15.39891126 347.03826696 -18.0625 349.1875 C-19.37927734 350.19876953 -19.37927734 350.19876953 -20.72265625 351.23046875 C-21.47417969 351.81441406 -22.22570312 352.39835937 -23 353 C-23.99 353.66 -24.98 354.32 -26 355 C-26.09158892 313.91157715 -26.16205569 272.82316762 -26.20426132 231.73466305 C-26.20926404 226.88194642 -26.21444134 222.02923 -26.21972656 217.17651367 C-26.2207758 216.2104399 -26.22182505 215.24436613 -26.22290608 214.2490174 C-26.24030336 198.61388983 -26.27183734 182.97882119 -26.30861118 167.34372856 C-26.34603942 151.29637303 -26.36823984 135.24904831 -26.37635398 119.20165092 C-26.38183784 109.30241409 -26.39914773 99.40334384 -26.43166587 89.5041583 C-26.45283699 82.71258802 -26.45919416 75.92110366 -26.45400551 69.1295028 C-26.45144777 65.21318554 -26.45532224 61.29715904 -26.4768219 57.38089371 C-26.4963921 53.78972708 -26.49720302 50.19904472 -26.48359558 46.60785506 C-26.4811247 44.70520156 -26.4982827 42.80255314 -26.51632524 40.89998358 C-26.42358461 27.50250672 -21.74716288 16.88699825 -12.5625 7.1875 C-9.22215891 3.99561851 -4.82578393 0 0 0 Z " fill="#EF4134" transform="translate(43,21)"/>
<path d="M0 0 C33.66 0 67.32 0 102 0 C102 28.05 102 56.1 102 85 C68.34 85 34.68 85 0 85 C0 56.95 0 28.9 0 0 Z " fill="#FEDFB1" transform="translate(393,188)"/>
<path d="M0 0 C3.38929527 1.41475088 6.27815782 3.30464154 9.2265625 5.4609375 C9.84047852 5.90791992 10.45439453 6.35490234 11.08691406 6.81542969 C32.90002858 23.08187783 47.11455999 47.74475216 52.21337891 74.34619141 C52.92025658 79.33523619 52.89618804 84.30556251 52.8515625 89.3359375 C52.84479492 90.4384082 52.83802734 91.54087891 52.83105469 92.67675781 C52.72988777 100.66423859 52.26345728 108.25413393 50.6015625 116.0859375 C50.35599609 117.80876953 50.35599609 117.80876953 50.10546875 119.56640625 C49.07319016 124.72779921 48.19207582 128.01700952 43.70703125 131.03125 C41.17413186 132.16735005 38.67840587 133.20488463 36.09375 134.19921875 C29.87166847 136.64031803 24.36695082 140.34169208 18.74414062 143.91235352 C12.20055068 147.97961522 4.56840508 152.35338973 -3.3984375 151.0859375 C-6.2734375 149.7109375 -6.2734375 149.7109375 -8.3984375 147.0859375 C-9.70935246 139.34148391 -7.22487834 132.48681032 -4.5234375 125.3359375 C-4.15863281 124.33433594 -3.79382813 123.33273438 -3.41796875 122.30078125 C-2.72079147 120.38671272 -2.01876192 118.47440199 -1.31103516 116.56420898 C3.02990602 104.77584785 5.11853768 91.9732829 -0.2421875 80.1796875 C-1.68731071 77.56284276 -3.43313524 75.33199723 -5.3984375 73.0859375 C-5.3984375 72.4259375 -5.3984375 71.7659375 -5.3984375 71.0859375 C-5.97335937 70.81523437 -6.54828125 70.54453125 -7.140625 70.265625 C-9.42647986 69.07128561 -11.42409044 67.70604445 -13.5234375 66.2109375 C-19.91956212 61.91550087 -26.5034625 59.51030037 -33.9609375 57.7109375 C-40.59525087 55.97942876 -46.00899751 52.90982113 -50.4609375 47.6484375 C-51.95936539 43.55273459 -52.30149785 40.20562083 -50.5546875 36.10546875 C-45.18994978 26.73530186 -37.58989359 22.52778304 -28.04882812 18.28393555 C-22.88136216 15.93093331 -18.24923266 13.22454542 -13.6484375 9.8984375 C-13.08882324 9.49455811 -12.52920898 9.09067871 -11.95263672 8.67456055 C-9.2859299 6.68571287 -7.05202748 4.70121243 -4.8203125 2.22265625 C-2.3984375 0.0859375 -2.3984375 0.0859375 0 0 Z " fill="#539213" transform="translate(271.3984375,65.9140625)"/>
<path d="M0 0 C2.06183633 -0.08150744 4.12461349 -0.1394194 6.1875 -0.1875 C7.33605469 -0.22230469 8.48460937 -0.25710937 9.66796875 -0.29296875 C13.3044035 0.02676467 15.1105914 0.81841727 18 3 C19.30234013 5.60468026 19.12903047 7.50151221 19.13422108 10.41988945 C19.13867892 11.57789208 19.14313676 12.73589472 19.14772969 13.92898834 C19.14754533 15.21222901 19.14736097 16.49546968 19.14717102 17.81759644 C19.15046879 19.18590656 19.15419417 20.55421571 19.1583125 21.92252362 C19.1683503 25.69560644 19.17205214 29.46867336 19.17470181 33.24176764 C19.17859952 37.30593021 19.18817813 41.37008012 19.19691467 45.43423462 C19.21669281 55.25478408 19.2267464 65.0753346 19.23564246 74.895899 C19.24002262 79.51674224 19.24539008 84.13758433 19.25063133 88.75842667 C19.26764395 104.11204478 19.28213962 119.46566216 19.28938007 134.81928825 C19.29129007 138.805144 19.29321039 142.79099974 19.29516602 146.77685547 C19.29564976 147.76755933 19.2961335 148.75826319 19.2966319 149.77898838 C19.3049378 165.83904629 19.330284 181.89902986 19.36274669 197.95905529 C19.39577902 214.43472023 19.41382531 230.91034733 19.41702431 247.38604558 C19.41919282 256.64179857 19.42799126 265.89744311 19.45348549 275.15316391 C19.47514019 283.03327594 19.48326876 290.91325317 19.47351871 298.79339157 C19.46895891 302.81618572 19.47095701 306.83870145 19.49028015 310.86145782 C19.50780556 314.54162145 19.50700165 318.22130136 19.49138286 321.90146936 C19.48785408 323.86884278 19.50411198 325.83622065 19.52098733 327.80352485 C19.50811599 329.54835204 19.50811599 329.54835204 19.49498463 331.32842827 C19.49644984 332.83732952 19.49644984 332.83732952 19.49794465 334.37671363 C18.83677395 337.85991216 17.920128 338.99735823 15 341 C11.546875 341.390625 11.546875 341.390625 7.75 341.25 C6.48671875 341.21390625 5.2234375 341.1778125 3.921875 341.140625 C2.95765625 341.09421875 1.9934375 341.0478125 1 341 C1.00037972 340.28594142 1.00075944 339.57188283 1.00115067 338.83618611 C1.02351113 296.54932163 1.04067764 254.26245783 1.05106533 211.97558863 C1.05231609 206.90226416 1.05361041 201.82893969 1.05493164 196.75561523 C1.05532511 195.24055394 1.05532511 195.24055394 1.05572652 193.69488535 C1.06008213 177.3236652 1.06796908 160.95244855 1.0771528 144.58123048 C1.08649236 127.79262198 1.09205625 111.00401532 1.09408849 94.21540433 C1.09546309 83.84942871 1.09981028 73.48346297 1.10791647 63.11749039 C1.11318765 56.01669738 1.11480344 48.91590952 1.11350138 41.8151147 C1.11285858 37.71357157 1.11386894 33.61204576 1.11920547 29.51050568 C1.12405045 25.75953223 1.12433136 22.00858785 1.12089889 18.2576131 C1.12027234 16.24965922 1.12460425 14.24170571 1.12908131 12.23375672 C1.12709026 11.05039587 1.12509921 9.86703502 1.12304783 8.64781475 C1.12342755 7.62219014 1.12380727 6.59656553 1.1241985 5.53986138 C1.10828074 2.87564992 1.10828074 2.87564992 0 0 Z " fill="#FDC107" transform="translate(356,17)"/>
<path d="M0 0 C16.83 0 33.66 0 51 0 C51 22.44 51 44.88 51 68 C32 59 32 59 30 58 C22.14729212 57.25801185 17.32881494 59.27336058 10.5 63 C8.71930055 63.9385453 6.93808001 64.87610285 5.15625 65.8125 C4.38087891 66.23144531 3.60550781 66.65039062 2.80664062 67.08203125 C1 68 1 68 0 68 C0 45.56 0 23.12 0 0 Z " fill="#F34234" transform="translate(94,427)"/>
<path d="M0 0 C0.67095703 0.58007812 0.67095703 0.58007812 1.35546875 1.171875 C2.61416392 2.25612414 3.87606593 3.33665817 5.140625 4.4140625 C6.5805074 5.64219749 8.010981 6.88136805 9.4375 8.125 C15.78283863 12.7679307 22.46006515 14.8609754 30.0625 16.5625 C35.9764296 17.90677657 41.57959236 19.21790748 47 22 C50.38215757 30.3559187 44.47230506 41.63599043 41.56640625 49.5390625 C37.70578823 60.24275023 35.05495662 71.057619 38 82.375 C39.55849718 88.43087475 39.5422611 94.79589501 39 101 C38.34 101.99 37.68 102.98 37 104 C35.02603345 102.02603345 33.05254482 100.0516343 31.08203125 98.07421875 C29.57383318 96.57167996 28.04346304 95.09128989 26.5 93.625 C5.95803288 72.05593453 -2.9112402 44.93374223 -2.23828125 15.55078125 C-2.02454753 10.26004958 -1.31842899 5.13245572 0 0 Z " fill="#5FA716" transform="translate(113,137)"/>
<path d="M0 0 C1.28563843 -0.01416962 2.57127686 -0.02833923 3.89587402 -0.04293823 C5.31852863 -0.03835069 6.74118189 -0.03333131 8.16383362 -0.02792358 C9.66369136 -0.03661905 11.16354022 -0.04698576 12.66337585 -0.05889893 C16.73575893 -0.08568907 20.80777091 -0.08683538 24.88022494 -0.08177233 C28.27991384 -0.07963358 31.67952753 -0.08939783 35.07920033 -0.09898317 C43.09949332 -0.12117692 51.11959898 -0.12204642 59.13990784 -0.10995483 C67.41418745 -0.09787219 75.68778713 -0.12250313 83.96195072 -0.16509497 C91.06612881 -0.20031966 98.1700904 -0.21233098 105.27435261 -0.20581949 C109.51735325 -0.20219222 113.75986886 -0.20748032 118.00279045 -0.23524857 C121.99300927 -0.26038565 125.98216778 -0.25653906 129.97237015 -0.23042679 C131.43609156 -0.2256915 132.89988735 -0.23117878 134.36352348 -0.24767303 C145.39087845 -0.3629766 145.39087845 -0.3629766 148.72635078 1.81676102 C150.68419399 4.06087042 151.66679105 6.204197 152.36915588 9.08389282 C151.46467508 12.61136798 149.46260865 14.19129045 146.74415588 16.52139282 C144.02765457 17.87964348 141.88520672 17.65984983 138.8427124 17.67529297 C136.95624245 17.68819366 136.95624245 17.68819366 135.03166199 17.70135498 C133.63008159 17.70579034 132.22850075 17.71008868 130.82691956 17.71426392 C129.35692144 17.72216394 127.88692527 17.73043283 126.41693115 17.73904419 C121.58201452 17.76527469 116.74708917 17.7805723 111.91212463 17.79483032 C110.24868069 17.80018948 108.58523681 17.80556699 106.92179298 17.81096268 C100.00328287 17.83259243 93.08477511 17.85132986 86.16623974 17.86258507 C76.24584041 17.8788291 66.32583247 17.91201648 56.4055807 17.96898592 C49.43312069 18.00766408 42.46076545 18.02721519 35.48820096 18.03250563 C31.32231089 18.0361619 27.15683816 18.04821177 22.99106407 18.08060837 C19.07162403 18.11065223 15.15285463 18.11701445 11.23332405 18.10522461 C9.79538347 18.10500356 8.35741212 18.11333447 6.91957855 18.13087845 C4.95536645 18.15353915 2.99085071 18.14230024 1.02655029 18.12939453 C-0.07239469 18.13270468 -1.17133966 18.13601482 -2.30358601 18.13942528 C-6.22535236 17.31843375 -7.73934615 15.56125409 -10.25584412 12.52139282 C-11.16322553 9.49490947 -10.72017544 7.77171212 -10.25584412 4.52139282 C-7.22972034 0.44738491 -4.95821764 0.01820702 0 0 Z " fill="#040300" transform="translate(147.25584411621094,298.4786071777344)"/>
<path d="M0 0 C49.5 0 99 0 150 0 C150 5.61 150 11.22 150 17 C99.51 17 49.02 17 -3 17 C-2 7 -2 7 0 0 Z " fill="#FEDB00" transform="translate(345,393)"/>
<path d="M0 0 C8.58 0 17.16 0 26 0 C26 28.38 26 56.76 26 86 C17.42 86 8.84 86 0 86 C0 57.62 0 29.24 0 0 Z " fill="#EE4133" transform="translate(469,51)"/>
<path d="M0 0 C8.25 0 16.5 0 25 0 C25 28.05 25 56.1 25 85 C16.75 85 8.5 85 0 85 C0 56.95 0 28.9 0 0 Z " fill="#FEDFB1" transform="translate(427,51)"/>
<path d="M0 0 C6.38668653 3.69100715 10.79513013 8.64307825 13.09375 15.703125 C14.62590361 23.00639053 14.25043676 30.36879754 10.5625 36.9375 C6.24907154 43.49498625 0.87827344 46.49890885 -6.4375 48.9375 C-14.5279645 49.879817 -20.74301683 48.64758782 -27.4375 43.9375 C-33.94934244 38.18598568 -37.36386348 31.84448824 -38 23.1875 C-37.74828488 16.65297554 -35.20536544 11.20807013 -31.4375 5.9375 C-22.51408308 -2.14199687 -11.38131177 -5.27553205 0 0 Z " fill="#030202" transform="translate(455.4375,207.0625)"/>
<path d="M0 0 C34.32 0 68.64 0 104 0 C104 5.94 104 11.88 104 18 C62.42 18 20.84 18 -22 18 C-18 16 -18 16 -15.88671875 15.2109375 C-8.10364482 12.25253995 -3.69240036 7.38480071 0 0 Z " fill="#F34234" transform="translate(391,358)"/>
<path d="M0 0 C92.73 0 185.46 0 281 0 C279 5 279 5 278.0703125 7.0078125 C269.11474048 27.06533331 267.8122252 51.54077429 275.5 72.15625 C276.5199801 74.77553423 277.58851812 77.36942759 278.6953125 79.953125 C280 83 280 83 281 86 C223.91 86 166.82 86 108 86 C108 74.78 108 63.56 108 52 C108.33 52 108.66 52 109 52 C109 62.89 109 73.78 109 85 C159.82 84.67 210.64 84.34 263 84 C260.69 78.39 258.38 72.78 256 67 C249.87507321 43.29060596 253.12764037 22.74471926 264 1 C176.88 1 89.76 1 0 1 C0 0.67 0 0.34 0 0 Z " fill="#CEB590" transform="translate(54,375)"/>
<path d="M0 0 C33.99 0 67.98 0 103 0 C103 5.94 103 11.88 103 18 C89.71812591 18.02312079 76.43625657 18.04091374 63.15436649 18.05181217 C56.9877508 18.05704158 50.82114882 18.06414027 44.65454102 18.07543945 C38.70883994 18.08626629 32.76315211 18.0922764 26.81744194 18.09487724 C24.54353057 18.09673186 22.26961996 18.10035317 19.99571419 18.10573006 C16.8227288 18.11293778 13.64979883 18.11399106 10.47680664 18.11352539 C9.52662659 18.11712067 8.57644653 18.12071594 7.59747314 18.12442017 C1.11405216 18.11405216 1.11405216 18.11405216 0 17 C0 11.39 0 5.78 0 0 Z " fill="#5F7C8A" transform="translate(392,324)"/>
<path d="M0 0 C5.94 0 11.88 0 18 0 C18 28.38 18 56.76 18 86 C12.06 86 6.12 86 0 86 C0 57.62 0 29.24 0 0 Z " fill="#3B4CAA" transform="translate(392,51)"/>
<path d="M0 0 C5.61 0 11.22 0 17 0 C17 28.05 17 56.1 17 85 C11.39 85 5.78 85 0 85 C0 56.95 0 28.9 0 0 Z " fill="#DEC39B" transform="translate(478,188)"/>
<path d="M0 0 C5.61 0 11.22 0 17 0 C17 22.44 17 44.88 17 68 C10.73 65.03 4.46 62.06 -2 59 C-1.01 58.505 -1.01 58.505 0 58 C0 38.86 0 19.72 0 0 Z " fill="#C71D1D" transform="translate(128,427)"/>
<path d="M0 0 C10.89 0 21.78 0 33 0 C33.0825 4.7025 33.165 9.405 33.25 14.25 C33.28641602 15.72758789 33.32283203 17.20517578 33.36035156 18.72753906 C33.3703418 19.89510742 33.38033203 21.06267578 33.390625 22.265625 C33.41157227 23.45961914 33.43251953 24.65361328 33.45410156 25.88378906 C32.91085766 29.61172735 31.92394393 30.71494666 29 33 C25.93466836 34.53266582 22.73245728 34.10276471 19.375 34.0625 C18.66859375 34.05798828 17.9621875 34.05347656 17.234375 34.04882812 C15.48954725 34.03703875 13.744763 34.01910324 12 34 C0 11.57281553 0 11.57281553 0 0 Z " fill="#763D21" transform="translate(342,427)"/>
<path d="M0 0 C34.32 0 68.64 0 104 0 C104 5.94 104 11.88 104 18 C62.42 18 20.84 18 -22 18 C-18.32451133 16.16225567 -17.33468594 15.75197744 -13.53277588 15.79745483 C-12.64379105 15.80311966 -11.75480621 15.80878448 -10.83888245 15.81462097 C-9.38771278 15.83943291 -9.38771278 15.83943291 -7.90722656 15.86474609 C-6.88251755 15.87420761 -5.85780853 15.88366913 -4.80204773 15.89341736 C-1.41472541 15.92709756 1.97223109 15.9752128 5.359375 16.0234375 C7.70777429 16.04960433 10.05618376 16.07487136 12.40460205 16.09927368 C18.58608892 16.16592734 24.76736168 16.24481993 30.94866943 16.32623291 C37.25606059 16.40715013 43.56357737 16.47653206 49.87109375 16.546875 C62.24754643 16.68660546 74.62380359 16.8392615 87 17 C87 11.72 87 6.44 87 1 C58.29 1 29.58 1 0 1 C0 0.67 0 0.34 0 0 Z " fill="#A41E1C" transform="translate(391,358)"/>
<path d="M0 0 C33.99 0 67.98 0 103 0 C103 5.94 103 11.88 103 18 C89.71812591 18.02312079 76.43625657 18.04091374 63.15436649 18.05181217 C56.9877508 18.05704158 50.82114882 18.06414027 44.65454102 18.07543945 C38.70883994 18.08626629 32.76315211 18.0922764 26.81744194 18.09487724 C24.54353057 18.09673186 22.26961996 18.10035317 19.99571419 18.10573006 C16.8227288 18.11293778 13.64979883 18.11399106 10.47680664 18.11352539 C9.52662659 18.11712067 8.57644653 18.12071594 7.59747314 18.12442017 C1.11405216 18.11405216 1.11405216 18.11405216 0 17 C0 11.39 0 5.78 0 0 Z M1 1 C1 6.28 1 11.56 1 17 C29.05 17 57.1 17 86 17 C86 11.72 86 6.44 86 1 C57.95 1 29.9 1 1 1 Z " fill="#33424A" transform="translate(392,324)"/>
<path d="M0 0 C5.61 0 11.22 0 17 0 C17 5.61 17 11.22 17 17 C-33.49 17 -83.98 17 -136 17 C-136 16.67 -136 16.34 -136 16 C-91.12 16 -46.24 16 0 16 C0 10.72 0 5.44 0 0 Z " fill="#D8A905" transform="translate(478,393)"/>
<path d="M0 0 C-6.92010761 9.20517128 -17.99947349 13.4049203 -29 16 C-30.13695312 16.27714844 -31.27390625 16.55429688 -32.4453125 16.83984375 C-38.74913832 18.29199895 -44.53055187 19.38816689 -51 19 C-47.62662053 15.12493846 -43.92139922 13.18649294 -39.375 11 C-38.65787842 10.65042236 -37.94075684 10.30084473 -37.2019043 9.94067383 C-25.42818879 4.25612499 -13.33489342 -0.7844055 0 0 Z " fill="#4F8B12" transform="translate(208,52)"/>
<path d="M0 0 C1.15693359 0.00322266 2.31386719 0.00644531 3.50585938 0.00976562 C4.70404297 0.01814453 5.90222656 0.02652344 7.13671875 0.03515625 C8.96299805 0.04192383 8.96299805 0.04192383 10.82617188 0.04882812 C13.82557101 0.06059047 16.82486964 0.07702799 19.82421875 0.09765625 C19.82421875 0.75765625 19.82421875 1.41765625 19.82421875 2.09765625 C16.66087576 3.08778261 13.49303519 4.06270345 10.32421875 5.03515625 C9.43734375 5.31294922 8.55046875 5.59074219 7.63671875 5.87695312 C-1.61034298 8.69866681 -10.06392041 9.24214719 -19.67578125 9.16015625 C-20.68898437 9.15564453 -21.7021875 9.15113281 -22.74609375 9.14648438 C-25.22271952 9.13480218 -27.69921782 9.11842207 -30.17578125 9.09765625 C-26.60591815 6.26113902 -23.04970752 4.83815196 -18.73828125 3.47265625 C-18.08279297 3.25609375 -17.42730469 3.03953125 -16.75195312 2.81640625 C-11.02343409 0.95478121 -6.02473729 -0.02967851 0 0 Z " fill="#508C13" transform="translate(239.17578125,254.90234375)"/>
<path d="M0 0 C4.43024874 0.87022743 5.91370196 2.00398461 8.5 5.6875 C9.12601538 9.65226406 9.15946039 11.68512021 6.9375 15.0625 C3.67160572 17.23976285 1.42016134 17.6875 -2.5 17.6875 C-6.28644566 15.71196313 -7.27321363 14.3678591 -8.625 10.3125 C-8.5 6.6875 -8.5 6.6875 -6.5 3.25 C-3.5 0.6875 -3.5 0.6875 0 0 Z " fill="#EC4033" transform="translate(443.5,221.3125)"/>
</svg>
